<svg width="169" height="178" viewBox="0 0 169 178" fill="none" xmlns="http://www.w3.org/2000/svg">
<path fill-rule="evenodd" clip-rule="evenodd" d="M80.9542 143.574L119.933 114.759L142.501 98.1596C141.475 96.8536 139.983 96.0146 138.211 96.0146H23.6982C22.0192 96.0146 20.4342 96.8536 19.4082 98.1596L41.9752 114.759L80.9542 143.574Z" fill="#2A62FE"/>
<path opacity="0.8" fill-rule="evenodd" clip-rule="evenodd" d="M80.9542 52.7471L119.933 81.5621L142.501 98.1601C141.475 99.4651 139.983 100.305 138.211 100.305H23.6982C22.0192 100.305 20.4342 99.4661 19.4082 98.1601L41.9752 81.5611L80.9542 52.7471Z" fill="#2A62FE"/>
<path d="M40.334 54.614H106.456L121.575 69.733V168.407H40.334V54.614Z" fill="#EBF0F8"/>
<path opacity="0.4" d="M121.574 69.7611H106.482V54.6691L121.574 69.7331V69.7611Z" fill="#2A62FE"/>
<path opacity="0.8" fill-rule="evenodd" clip-rule="evenodd" d="M142.501 98.16C143.154 98.999 143.62 100.118 143.62 101.331V172.389C143.62 175.373 141.195 177.704 138.211 177.704H23.6978C20.8068 177.704 18.3828 175.373 18.3828 172.389V101.331C18.3828 100.119 18.7558 99 19.4088 98.16L41.9758 114.759L80.9548 143.574L119.934 114.759L142.501 98.16Z" fill="#2A62FE"/>
<path fill-rule="evenodd" clip-rule="evenodd" d="M80.9542 130.146L41.9752 158.868L19.4082 175.56C20.3412 176.866 21.9262 177.705 23.6982 177.705H138.211C139.983 177.705 141.568 176.866 142.501 175.56L119.934 158.868L80.9542 130.146Z" fill="#2A62FE"/>
<path d="M115.632 76.4094H46.7139C46.1619 76.4094 45.7139 75.9614 45.7139 75.4094V74.2314C45.7139 73.6794 46.1619 73.2314 46.7139 73.2314H115.632C116.184 73.2314 116.632 73.6794 116.632 74.2314V75.4094C116.632 75.9614 116.184 76.4094 115.632 76.4094Z" fill="white"/>
<path d="M115.632 84.1526H46.7139C46.1619 84.1526 45.7139 83.7046 45.7139 83.1526V81.9746C45.7139 81.4226 46.1619 80.9746 46.7139 80.9746H115.632C116.184 80.9746 116.632 81.4226 116.632 81.9746V83.1526C116.632 83.7056 116.184 84.1526 115.632 84.1526Z" fill="white"/>
<path d="M115.632 92.7201H46.7139C46.1619 92.7201 45.7139 92.2721 45.7139 91.7201V90.5421C45.7139 89.9901 46.1619 89.5421 46.7139 89.5421H115.632C116.184 89.5421 116.632 89.9901 116.632 90.5421V91.7201C116.632 92.2731 116.184 92.7201 115.632 92.7201Z" fill="white"/>
<path d="M115.632 100.465H46.7139C46.1619 100.465 45.7139 100.017 45.7139 99.4651V98.2871C45.7139 97.7351 46.1619 97.2871 46.7139 97.2871H115.632C116.184 97.2871 116.632 97.7351 116.632 98.2871V99.4651C116.632 100.017 116.184 100.465 115.632 100.465Z" fill="white"/>
<path d="M115.632 107.933H46.7139C46.1619 107.933 45.7139 107.485 45.7139 106.933V105.755C45.7139 105.203 46.1619 104.755 46.7139 104.755H115.632C116.184 104.755 116.632 105.203 116.632 105.755V106.933C116.632 107.485 116.184 107.933 115.632 107.933Z" fill="white"/>
<path d="M115.632 115.677H46.7139C46.1619 115.677 45.7139 115.229 45.7139 114.677V113.499C45.7139 112.947 46.1619 112.499 46.7139 112.499H115.632C116.184 112.499 116.632 112.947 116.632 113.499V114.677C116.632 115.229 116.184 115.677 115.632 115.677Z" fill="white"/>
<path d="M99.0481 25.489C99.7381 25.339 100.429 25.729 100.579 26.419C100.759 27.109 100.339 27.8 99.6791 27.95L97.8481 28.43L95.9571 28.91L94.7561 29.21C94.0661 29.39 93.3751 28.97 93.1951 28.31C93.0151 27.62 93.4351 26.929 94.1251 26.749L95.3561 26.449L97.2171 25.969L99.0481 25.489ZM67.1431 111.539C67.8331 111.569 68.3441 112.199 68.2841 112.89C68.2541 113.58 67.6241 114.121 66.9331 114.061L66.7231 114.031C66.0331 113.971 65.4921 113.371 65.5521 112.68C65.6121 111.96 66.2421 111.449 66.9331 111.509L67.1431 111.539ZM54.4771 109.858C55.1671 110.008 55.6181 110.668 55.4971 111.359C55.3771 112.049 54.7171 112.5 54.0261 112.379L53.9661 112.349L52.8251 112.139L51.6841 111.929L50.5131 111.689L49.3421 111.449L48.9821 111.389C48.2921 111.239 47.8711 110.549 48.0221 109.858C48.1721 109.168 48.8321 108.748 49.5231 108.898L49.8531 108.958L51.0241 109.198L52.1651 109.438L53.3061 109.648L54.4171 109.858H54.4771ZM37.3391 105.686C38.0291 105.896 38.3891 106.616 38.1791 107.277C37.9691 107.967 37.2491 108.327 36.5881 108.117L36.3481 108.057L35.7481 107.847L35.1781 107.667L34.5781 107.487L34.0081 107.277L33.4081 107.097L32.8381 106.887L32.2681 106.677L31.7281 106.497C31.0681 106.257 30.7081 105.537 30.9481 104.876C31.1881 104.216 31.9381 103.856 32.5991 104.096L33.1091 104.276L33.6791 104.486L34.2491 104.666L34.8191 104.876L35.3891 105.056L35.9591 105.266L36.5291 105.446L37.0991 105.626L37.3391 105.686ZM21.0721 99.173C21.7021 99.473 21.9421 100.253 21.6121 100.884C21.2821 101.484 20.5321 101.754 19.9011 101.424L19.5411 101.214L19.0311 100.944L18.4911 100.674L17.9811 100.404L17.5011 100.134L16.9911 99.834L16.4811 99.564L16.0011 99.264L15.5211 98.964L15.3711 98.904C14.8011 98.514 14.5911 97.733 14.9811 97.133C15.3411 96.563 16.1221 96.353 16.7221 96.743L16.8421 96.803L17.2921 97.073L17.7721 97.373L18.2521 97.643L18.7321 97.913L19.2121 98.183L19.7221 98.453L20.2021 98.723L20.7121 98.963L21.0721 99.173ZM7.0251 89.119C7.5051 89.629 7.4751 90.44 6.9651 90.89C6.4551 91.37 5.6441 91.34 5.1641 90.83L5.0441 90.68L4.6841 90.32L4.3541 89.93L4.0241 89.57L3.7241 89.18L3.4241 88.79L3.0941 88.4L2.8241 88.01L2.5241 87.62L2.2541 87.2L1.9841 86.81L1.8941 86.66C1.5041 86.09 1.6841 85.279 2.2841 84.919C2.8841 84.529 3.6651 84.709 4.0251 85.309L4.0851 85.399L4.3551 85.789L4.5951 86.149L4.8651 86.509L5.1351 86.869L5.4051 87.229L5.6751 87.559L5.9751 87.919L6.2751 88.279L6.5751 88.609L6.9051 88.969L7.0251 89.119ZM2.4931 74.082C2.2831 74.772 1.5931 75.162 0.9321 74.952C0.2421 74.742 -0.148902 74.052 0.0620984 73.391L0.0920987 73.181L0.212098 72.851L0.302099 72.521L0.422099 72.191L0.542099 71.861L0.692099 71.531L0.812098 71.201L0.962098 70.871L1.1121 70.541L1.2621 70.211L1.4121 69.881L1.5921 69.551L1.7421 69.251L1.9221 68.921L2.1321 68.621L2.2221 68.441C2.5821 67.841 3.3631 67.631 3.9631 68.021C4.5631 68.381 4.7431 69.162 4.3831 69.762L4.2931 69.912L4.1431 70.182L3.9931 70.452L3.8431 70.752L3.6931 71.022L3.5431 71.322L3.4231 71.592L3.2731 71.892L3.1531 72.162L3.0331 72.462L2.9431 72.732L2.8231 73.032L2.7331 73.332L2.6431 73.602L2.5531 73.902L2.4931 74.082ZM12.7281 60.876C12.1881 61.296 11.3771 61.206 10.9571 60.666C10.5071 60.096 10.6271 59.315 11.1671 58.865L11.2271 58.835L11.5871 58.565L11.9471 58.295L12.3071 57.995L12.6671 57.725L13.0571 57.455L13.4171 57.185L13.8071 56.915L14.1971 56.645L14.5871 56.375L14.9771 56.105L15.3671 55.865C15.9671 55.475 16.7481 55.625 17.1381 56.225C17.5281 56.795 17.3481 57.576 16.7781 57.966L16.3881 58.236L16.0281 58.476L15.6381 58.746L15.2781 59.016L14.8881 59.256L14.5281 59.526L14.1681 59.796L13.8081 60.036L13.4781 60.306L13.1181 60.576L12.7881 60.846L12.7281 60.876ZM27.6751 51.781C27.0451 52.081 26.2641 51.811 25.9641 51.181C25.6641 50.551 25.9341 49.8 26.5641 49.5L27.4041 49.05L28.3941 48.6L29.3841 48.12L30.3741 47.64L31.1841 47.28C31.8141 47.01 32.5651 47.28 32.8651 47.91C33.1351 48.57 32.8651 49.321 32.2351 49.591L31.4551 49.951L30.4651 50.401L29.5051 50.881L28.5451 51.331L27.6751 51.781ZM43.8821 44.728C43.2221 44.998 42.4711 44.668 42.2311 44.008C41.9911 43.348 42.3211 42.627 42.9511 42.357L43.0411 42.327L44.1221 41.907L45.2321 41.517L46.3431 41.097L47.4541 40.677L47.7541 40.587C48.4141 40.347 49.1351 40.677 49.3751 41.337C49.6151 41.997 49.2851 42.718 48.6251 42.958L48.3251 43.078L47.2141 43.468L46.1341 43.888L45.0231 44.308L43.9431 44.698L43.8821 44.728ZM60.6001 38.875C59.9401 39.115 59.2191 38.725 59.0091 38.065C58.7691 37.405 59.1591 36.684 59.8191 36.474L59.8491 36.444L60.9901 36.084L62.1311 35.724L63.2721 35.364L64.4131 35.034L64.6831 34.944C65.3431 34.734 66.0641 35.124 66.2741 35.784C66.4841 36.444 66.0941 37.165 65.4341 37.375L65.1641 37.465L64.0231 37.795L62.9121 38.155L61.7711 38.515L60.6301 38.875H60.6001ZM77.5881 33.803C76.8981 33.983 76.2071 33.593 76.0271 32.903C75.8471 32.243 76.2371 31.552 76.8971 31.342L78.9081 30.802L81.0991 30.202L81.8191 29.992C82.4791 29.812 83.2001 30.202 83.3801 30.892C83.5601 31.582 83.1401 32.273 82.4801 32.453L81.7601 32.633L79.5991 33.233L77.5881 33.803Z" fill="#2A62FE"/>
<path fill-rule="evenodd" clip-rule="evenodd" d="M112.844 12.7354L107.687 26.1023L121.331 23.1844L112.844 12.7354Z" fill="#2A62FE"/>
<path opacity="0.4" fill-rule="evenodd" clip-rule="evenodd" d="M116.31 29.2533L109.08 0.0283203L168.926 18.8273L116.31 29.2533Z" fill="#2A62FE"/>
<path opacity="0.6" fill-rule="evenodd" clip-rule="evenodd" d="M107.705 26.1471C107.644 23.5121 109.081 16.1961 111.803 10.8311L167.578 18.7951L112.517 13.9611C111.009 17.9551 108.967 24.8411 107.705 26.1471Z" fill="#2A62FE"/>
</svg>
