<svg width="265" height="128" viewBox="0 0 265 128" fill="none" xmlns="http://www.w3.org/2000/svg">
<path d="M134.4 210.691L131.056 212.96L126.035 216.578C125.77 216.77 125.627 217.031 125.604 217.36L125.498 218.95C125.476 219.317 125.363 219.654 125.159 219.963C122.536 223.876 117.514 222.187 117.246 217.531C117.228 217.209 117.084 216.957 116.815 216.775C109.968 212.215 102.737 208.385 95.123 205.287C94.7796 205.145 94.4321 205.142 94.0804 205.278L91.8957 206.106C91.5648 206.231 91.2278 206.249 90.8846 206.159C86.499 204.963 85.7159 200.607 89.5107 198.114C89.6461 198.025 89.7576 197.906 89.8353 197.765C89.9129 197.624 89.9544 197.466 89.9559 197.306L90.1192 189.973L89.7558 180.771L88.9032 172.474C88.8878 172.322 88.8398 172.175 88.7625 172.042C88.6852 171.91 88.5804 171.796 88.4552 171.708C83.3694 168.121 87.1237 161.714 91.8952 164.042C92.1278 164.156 92.3835 164.214 92.6413 164.21C92.8991 164.207 93.1517 164.142 93.3783 164.022C100.588 160.232 107.485 155.946 114.067 151.163C114.306 150.991 114.499 150.763 114.63 150.498C114.76 150.234 114.825 149.942 114.817 149.647C114.809 149.352 114.73 149.063 114.586 148.804C114.441 148.546 114.236 148.326 113.989 148.164C106.982 143.596 99.6353 139.663 91.9472 136.367C91.6183 136.226 91.2892 136.23 90.96 136.378C88.5564 137.495 86.5283 136.862 84.3058 137.836C74.1819 142.23 64.569 147.55 55.467 153.793C54.8726 154.2 53.8899 155.38 52.5188 157.333C52.3219 157.616 52.2147 157.931 52.1971 158.277C51.8447 164.768 52.0625 171.242 52.8505 177.7C52.8718 177.88 52.9364 178.052 53.0386 178.201C53.1409 178.35 53.2777 178.472 53.4373 178.555C56.9255 180.392 56.1013 184.988 51.958 185.1C51.6571 185.109 51.3636 185.015 51.1283 184.831C50.3058 184.196 49.5423 184.054 48.8377 184.407C44.2209 186.711 38.7852 190.109 32.5304 194.602C32.2657 194.794 32.1119 195.053 32.0694 195.378C31.3907 200.703 25.5765 200.338 25.3962 195.409C25.3817 195.066 25.2248 194.818 24.9255 194.664L7.93284 185.553C7.68202 185.417 7.39843 185.356 7.11505 185.376C6.83169 185.395 6.56018 185.495 6.33217 185.663C2.76667 188.263 -1.10518 182.764 3.05289 179.963C3.18652 179.873 3.2967 179.753 3.37415 179.613C3.4516 179.472 3.49409 179.316 3.49808 179.156C3.72823 172.619 3.45763 166.1 2.68629 159.6C2.65006 159.32 2.51835 159.063 2.31443 158.877C-1.65341 155.185 0.712739 151.037 5.78212 152.72C6.08681 152.825 6.3768 152.792 6.65207 152.621L23.0373 142.347C23.1755 142.26 23.2907 142.14 23.3728 141.998C23.4549 141.857 23.5016 141.696 23.5089 141.532C23.6469 137.953 27.433 136.146 29.6182 139.165C29.8024 139.417 29.9125 139.703 29.9486 140.02C30.1065 141.306 30.8852 142.348 32.2848 143.146C37.2691 145.992 41.6261 148.324 45.3557 150.142C47.8199 151.345 51.2564 151.202 53.4298 150.256C63.9325 145.703 73.8749 140.143 83.2571 133.575C83.5427 133.372 83.7015 133.098 83.7335 132.752C83.8908 131.079 84.6975 129.855 86.1537 129.08C86.307 129.001 86.4364 128.882 86.5286 128.737C86.6208 128.591 86.6725 128.423 86.6783 128.251C87.0311 119.866 86.6931 111.506 85.6641 103.173C85.6151 102.826 85.4604 102.534 85.2 102.298C83.4334 100.708 82.5988 98.9102 80.5597 97.7246C69.6706 91.3858 58.2365 86.1959 46.2573 82.1547C45.9686 82.0578 45.6618 82.0241 45.3573 82.0559C45.0529 82.0877 44.7579 82.1842 44.492 82.339L37.3587 86.5582C37.2552 86.6195 37.1685 86.7055 37.1064 86.8086C37.0443 86.9116 37.0087 87.0284 37.0027 87.1486C36.898 89.8989 33.7293 89.3904 33.5251 87.246C33.4954 86.9171 33.3341 86.6699 33.0411 86.5043L24.971 81.9443C24.633 81.7533 24.2955 81.7521 23.9585 81.9407C21.6195 83.239 20.0636 80.4088 21.8802 79.1275C22.1386 78.9465 22.2815 78.7002 22.3089 78.3886C22.7282 73.9767 22.9138 68.7749 21.2758 66.623C21.1057 66.4021 21.0066 66.1348 20.9915 65.8564C20.9765 65.578 21.0463 65.3016 21.1916 65.0637C21.3369 64.8258 21.5509 64.6375 21.8054 64.5238C22.06 64.41 22.343 64.3761 22.6172 64.4265C23.2462 64.5367 23.8782 64.5296 24.5133 64.4054C24.5661 64.3907 24.6179 64.3715 24.6683 64.348C27.5883 63.0474 30.332 61.4538 32.8993 59.5673C33.0277 59.4708 33.1352 59.3497 33.2154 59.2111C33.2956 59.0725 33.3469 58.9194 33.3661 58.7609C33.6807 56.3299 36.4428 56.8872 36.8405 58.9849C36.8949 59.2832 37.0545 59.5072 37.3193 59.6568L45.3726 64.2073C45.7162 64.4015 46.0724 64.4355 46.441 64.3093C47.7704 63.8639 48.6904 64.3466 49.2013 65.7576C49.2576 65.9059 49.2699 66.068 49.2365 66.2249C49.2031 66.3817 49.1256 66.5269 49.0129 66.6434L48.2378 67.4429C48.0143 67.6807 47.9029 67.9634 47.9036 68.2908L47.9058 76.9879C47.9057 77.1805 47.9571 77.3699 48.0548 77.5368C48.1524 77.7036 48.2929 77.8419 48.4618 77.9376C59.8736 84.397 70.6901 89.996 83.0292 94.5379C83.3677 94.6623 83.6984 94.6559 84.0212 94.5187C85.7593 93.7839 87.5152 93.7282 89.2887 94.3513C89.6417 94.4764 89.9879 94.449 90.3273 94.2692C97.6836 90.3395 104.74 85.9208 111.497 81.0132C111.786 80.8047 111.955 80.525 112.005 80.174C112.953 73.82 119.613 73.5362 120.728 80.0862C120.752 80.2369 120.807 80.3812 120.889 80.5102C120.972 80.6392 121.08 80.7502 121.207 80.8363C128.153 85.393 135.433 89.3132 143.046 92.5969C143.401 92.7453 143.753 92.7472 144.102 92.6027C145.714 91.9456 147.393 91.7308 149.137 91.9584C149.503 92.0088 149.843 91.9449 150.16 91.7668C159.219 86.7558 167.861 81.1108 176.084 74.8316C176.346 74.6305 176.474 74.3646 176.468 74.0339C176.404 71.2925 177.668 69.3718 180.259 68.2718C180.368 68.2259 180.463 68.1509 180.533 68.0548C180.603 67.9587 180.646 67.8454 180.656 67.7269C181.52 56.6355 181.405 45.5523 180.313 34.4775C180.289 34.2259 180.206 33.9835 180.071 33.7698C179.936 33.5561 179.753 33.377 179.536 33.2472C172.644 29.1077 178.449 19.8011 185.281 23.9289C185.582 24.1065 185.893 24.1222 186.213 23.9762C196.12 19.3327 205.504 13.7948 214.364 7.36248C214.625 7.17581 214.758 6.92033 214.763 6.59606C214.931 -1.84904 225.69 -1.71182 225.723 6.02198C225.724 6.41606 225.886 6.71982 226.212 6.93336C235.397 13.1045 245.001 18.5349 255.023 23.2244C255.166 23.2918 255.325 23.3215 255.485 23.3106C255.645 23.2997 255.801 23.2487 255.939 23.1622C262.003 19.2756 268.387 27.5314 261.299 32.557C261.008 32.7567 260.848 33.0339 260.818 33.3888C259.936 44.3287 259.971 55.2629 260.923 66.1915C260.937 66.3756 261 66.5524 261.105 66.7036C261.209 66.8548 261.352 66.9751 261.519 67.0518C266.775 69.509 265.627 76.8873 259.931 77.6937C258.368 77.9143 257.346 77.1584 255.833 76.66C255.511 76.5597 255.201 76.5816 254.904 76.7259C244.667 81.5701 235.416 86.9857 227.15 92.9729C226.639 93.3381 226.392 93.8342 226.41 94.4609C226.588 101.82 216.472 102.636 215.605 93.9303C215.57 93.5982 215.415 93.3397 215.141 93.1548C206.151 87.0052 196.682 81.7179 186.734 77.2929C186.574 77.2226 186.398 77.1999 186.226 77.2274C186.055 77.2549 185.894 77.3315 185.765 77.448C183.588 79.4064 181.218 79.5832 178.654 77.9783C178.52 77.8928 178.364 77.8453 178.204 77.841C178.044 77.8367 177.884 77.8757 177.742 77.9538C168.781 83.0277 160.234 88.7153 152.103 95.0165C151.837 95.2232 151.673 95.4945 151.609 95.8303C151.292 97.5093 150.463 98.8725 149.12 99.92C148.986 100.022 148.875 100.152 148.796 100.302C148.717 100.452 148.672 100.618 148.663 100.788C148.138 109.373 148.402 117.935 149.455 126.476C149.474 126.637 149.533 126.791 149.627 126.924C149.721 127.057 149.848 127.165 149.995 127.237C156.311 130.305 151.371 138.573 145.822 134.601C145.688 134.505 145.529 134.449 145.362 134.437C145.196 134.426 145.028 134.46 144.878 134.536C137.541 138.313 130.536 142.635 123.863 147.5C123.594 147.697 123.376 147.956 123.228 148.255C123.081 148.553 123.007 148.883 123.014 149.216C123.021 149.548 123.109 149.874 123.269 150.164C123.429 150.455 123.657 150.702 123.934 150.885C130.827 155.471 138.111 159.331 145.787 162.464C146.13 162.606 146.457 162.575 146.765 162.37C151.772 159.034 156.302 165.953 151.143 169.559C151.013 169.654 150.905 169.775 150.828 169.915C150.751 170.054 150.707 170.209 150.697 170.367C150.265 178.997 150.526 187.197 151.479 194.968C151.591 195.9 152.094 196.563 152.987 196.956C153.267 197.078 153.51 197.252 153.716 197.48C157.304 201.391 152.75 206.767 147.933 203.454C147.658 203.269 147.379 203.257 147.096 203.416L134.4 210.691ZM185.256 69.2337C186.46 70.1669 187.118 71.3709 187.229 72.8456C187.251 73.1721 187.403 73.478 187.65 73.6971C188.289 74.2511 189.153 74.8846 190.244 75.5976C198.682 81.1311 207.396 86.0585 216.385 90.3798C216.653 90.5111 216.951 90.5697 217.248 90.5497C217.545 90.5296 217.831 90.4317 218.077 90.2657C220.152 88.8961 222.221 88.917 224.285 90.3285C224.445 90.4392 224.631 90.5055 224.825 90.5207C225.018 90.5358 225.211 90.4993 225.385 90.4147C235.209 85.6424 244.572 80.0817 253.474 73.7327C253.604 73.6399 253.708 73.5155 253.776 73.3718C253.843 73.2281 253.872 73.0701 253.859 72.9133C253.608 70.0813 254.761 68.1274 257.316 67.0516C257.65 66.9064 257.83 66.6547 257.854 66.2966C258.62 55.2987 258.446 44.3154 257.33 33.3467C257.314 33.1937 257.259 33.0471 257.172 32.9198C257.084 32.7925 256.966 32.6885 256.828 32.6171C254.58 31.4657 253.504 29.6538 253.601 27.1813C253.612 26.8458 253.478 26.584 253.197 26.3959C243.971 20.2458 234.335 14.8124 224.291 10.0957C223.98 9.94954 223.68 9.97343 223.392 10.1675C221.295 11.5765 219.166 11.5627 217.005 10.126C216.702 9.92521 216.389 9.90061 216.066 10.0523C206.05 14.6642 196.591 20.2302 187.689 26.7502C187.559 26.847 187.457 26.9763 187.392 27.1254C187.328 27.2745 187.303 27.4383 187.32 27.6007C187.598 30.2255 186.553 32.1283 184.184 33.3091C183.886 33.4534 183.724 33.6886 183.696 34.0146C182.763 44.9258 182.825 55.831 183.884 66.7301C183.985 67.761 184.442 68.5955 185.256 69.2337ZM89.6273 128.891C91.4134 129.782 92.3043 131.184 92.2999 133.099C92.2975 133.285 92.3425 133.469 92.4306 133.634C92.5187 133.799 92.6472 133.939 92.804 134.042C99.9596 138.754 107.481 142.766 115.368 146.078C115.501 146.136 115.647 146.158 115.793 146.14C115.938 146.122 116.077 146.066 116.195 145.977C117.809 144.764 119.496 144.725 121.255 145.86C121.377 145.938 121.518 145.983 121.664 145.989C121.809 145.995 121.954 145.962 122.084 145.893C125.272 144.216 143.99 134.235 144.792 129.816C144.85 129.515 144.978 129.249 145.176 129.018L146.573 127.433C146.772 127.212 146.878 126.952 146.891 126.654C147.441 116.894 147.157 108.413 146.038 101.211C145.896 100.305 145.2 99.5183 143.95 98.8493C143.595 98.6632 143.375 98.3753 143.29 97.9857L142.723 95.3578C142.664 95.0941 142.524 94.8885 142.303 94.7411C135.208 90.0928 127.741 86.1486 119.902 82.9086C119.579 82.7705 119.278 82.8088 119.001 83.0237C117.539 84.1375 115.971 84.255 114.298 83.3762C114.084 83.2625 113.845 83.2045 113.602 83.2073C113.359 83.2102 113.12 83.2738 112.906 83.3925C105.866 87.3079 97.4848 91.8028 91.4349 97.0245C91.3234 97.1225 91.2342 97.243 91.1734 97.3779C91.1126 97.5128 91.0815 97.6588 91.0824 97.8063C91.1014 99.6008 90.3539 100.944 88.8396 101.835C88.5107 102.035 88.3351 102.326 88.3129 102.708C87.8584 111.154 88.086 119.577 88.9957 127.977C89.0165 128.17 89.0851 128.355 89.1954 128.514C89.3057 128.674 89.4542 128.804 89.6273 128.891ZM23.3462 71.5611C23.3048 74.9491 22.7983 79.5348 25.2721 80.9772C27.9765 82.5574 30.4581 83.9596 32.717 85.184C33.5045 85.6114 34.3831 85.8422 35.2778 85.8566C36.1725 85.8709 37.0565 85.6684 37.8545 85.2664C41.3914 83.4856 46.9813 81.2483 47.0526 75.8146C47.0758 73.3862 47.4515 69.1502 46.2591 67.0383C44.4813 63.8709 36.2601 59.2032 32.4858 60.9502C26.9397 63.5244 23.4215 65.4496 23.3462 71.5611ZM91.6067 189.61L91.9793 192.975C91.6176 196.049 92.4995 198.171 94.6249 199.342C94.7675 199.423 94.8903 199.534 94.9843 199.668C95.0783 199.802 95.141 199.956 95.1679 200.117L95.5312 202.296C95.5561 202.45 95.6131 202.597 95.6985 202.728C95.784 202.859 95.896 202.971 96.0273 203.055C102.92 207.627 110.178 211.52 117.801 214.735C118.187 214.893 118.555 214.86 118.906 214.634C120.47 213.615 122.095 213.567 123.781 214.49C123.924 214.571 124.085 214.614 124.251 214.617C124.417 214.619 124.582 214.58 124.732 214.504C132.209 210.716 139.279 206.279 145.944 201.193C146.184 201.011 146.362 200.752 146.45 200.454C146.902 198.985 147.654 197.686 148.708 196.557C148.96 196.283 149.096 195.962 149.118 195.595C149.516 187.221 149.224 178.873 148.241 170.551C148.194 170.16 148.003 169.867 147.669 169.67C146.02 168.694 145.178 167.263 145.144 165.378C145.139 165.191 145.089 165.009 144.997 164.848C144.905 164.687 144.774 164.552 144.617 164.456C137.136 159.806 129.896 155.941 122.895 152.862C122.181 152.548 121.552 152.687 121.009 153.279C120.791 153.521 120.52 153.672 120.195 153.734C119.04 153.95 117.935 153.787 116.882 153.244C116.589 153.093 116.29 153.095 115.987 153.251C108.572 157.125 101.498 161.542 94.7651 166.5C94.4492 166.73 94.3002 167.04 94.3181 167.429C94.3999 169.244 93.655 170.562 92.0835 171.384C91.9393 171.46 91.8186 171.574 91.7343 171.713C91.6499 171.852 91.6051 172.011 91.6045 172.172L91.6067 189.61ZM5.65837 179.752C7.16229 180.55 7.89894 181.765 7.86828 183.398C7.86477 183.577 7.91027 183.754 7.99976 183.909C8.08926 184.064 8.21933 184.191 8.37575 184.275L25.1678 193.229C25.5573 193.434 25.9441 193.433 26.3284 193.227C27.7549 192.465 29.1966 192.406 30.6532 193.051C30.9564 193.185 31.2554 193.175 31.55 193.022C37.4746 189.956 43.1002 186.412 48.4271 182.391C48.6773 182.198 48.8379 181.947 48.9086 181.637C49.1656 180.512 49.7084 179.551 50.5369 178.756C50.8109 178.494 50.953 178.177 50.9633 177.804C51.2299 171.176 50.9826 164.57 50.2213 157.986C50.1796 157.665 50.0303 157.41 49.7733 157.22C48.516 156.302 47.7561 155.088 47.4936 153.58C47.4333 153.226 47.253 152.953 46.9527 152.761C41.4273 149.215 35.6574 146.148 29.643 143.56C29.5207 143.508 29.3866 143.49 29.2549 143.507C29.1232 143.525 28.9987 143.578 28.8946 143.661C27.7434 144.594 26.5046 144.681 25.1782 143.925C25.0539 143.854 24.9133 143.817 24.7697 143.815C24.6261 143.814 24.4842 143.849 24.3571 143.918C18.4345 147.06 12.7599 150.598 7.33309 154.533C7.23008 154.606 7.14607 154.703 7.08816 154.815C7.03024 154.928 7.00012 155.054 7.00032 155.181C6.98998 156.699 6.3085 157.852 4.95589 158.641C4.80564 158.728 4.68203 158.854 4.5985 159.005C4.51497 159.157 4.47469 159.328 4.48205 159.5L5.04804 178.761C5.05986 179.213 5.26328 179.544 5.65837 179.752Z" fill="url(#paint0_linear_275_9726)"/>
<defs>
<linearGradient id="paint0_linear_275_9726" x1="191.705" y1="-16.7744" x2="59.1959" y2="217.732" gradientUnits="userSpaceOnUse">
<stop stop-color="white"/>
<stop offset="1" stop-color="#2A62FE" stop-opacity="0"/>
</linearGradient>
</defs>
</svg>
