<svg width="293" height="116" viewBox="0 0 293 116" fill="none" xmlns="http://www.w3.org/2000/svg">
<path opacity="0.8" d="M210.512 -196.807L221.897 -185.815C222.378 -186.181 223.007 -186.342 223.625 -186.184C224.716 -185.914 225.388 -184.8 225.118 -183.709C224.863 -182.695 223.893 -182.062 222.884 -182.19L219.113 -167.065C219.19 -167.051 219.275 -167.054 219.357 -167.027C220.447 -166.757 221.119 -165.642 220.854 -164.539C220.76 -164.174 220.575 -163.861 220.324 -163.61L231.643 -152.679C232.128 -153.189 232.869 -153.436 233.599 -153.247C234.295 -153.075 234.809 -152.577 235.031 -151.941L250.336 -156.33C250.302 -156.576 250.31 -156.823 250.374 -157.077C250.602 -158.009 251.45 -158.625 252.357 -158.617L256.184 -173.978C255.364 -174.406 254.928 -175.35 255.156 -176.281C255.426 -177.372 256.54 -178.044 257.63 -177.774C258.231 -177.624 258.696 -177.222 258.961 -176.703L274.152 -181.05C274.127 -181.271 274.14 -181.505 274.196 -181.741C274.461 -182.845 275.58 -183.504 276.67 -183.234C277.765 -182.951 278.433 -181.85 278.168 -180.746C278.085 -180.428 277.928 -180.155 277.727 -179.922L289.051 -168.979C289.534 -169.417 290.234 -169.619 290.912 -169.455C292.003 -169.185 292.675 -168.07 292.41 -166.967C292.14 -165.876 291.026 -165.204 289.936 -165.474L286.127 -150.22C287.217 -149.95 287.889 -148.836 287.625 -147.733C287.355 -146.642 286.241 -145.97 285.146 -146.253C284.45 -146.425 283.931 -146.936 283.709 -147.571L268.586 -143.235C268.656 -142.931 268.658 -142.616 268.575 -142.298C268.306 -141.207 267.192 -140.535 266.101 -140.805L262.3 -125.568C263.395 -125.286 264.063 -124.184 263.793 -123.093C263.699 -122.728 263.514 -122.415 263.263 -122.164L274.586 -111.221C275.071 -111.731 275.812 -111.978 276.542 -111.789C277.633 -111.519 278.305 -110.405 278.04 -109.301C277.77 -108.211 276.656 -107.539 275.549 -107.817L271.752 -92.5672C272.847 -92.2846 273.515 -91.1828 273.25 -90.0795C272.98 -88.9887 271.866 -88.3168 270.776 -88.5868C270.128 -88.7482 269.639 -89.213 269.386 -89.7794L254.25 -85.4385C254.289 -85.18 254.277 -84.9028 254.222 -84.6242C253.953 -83.5335 252.839 -82.8615 251.749 -83.1315L247.869 -67.5642C248.822 -67.2002 249.389 -66.1759 249.134 -65.1623C249.062 -64.8916 248.943 -64.6321 248.776 -64.4263L260.117 -53.4753C260.594 -53.8532 261.243 -54.0369 261.891 -53.8755C262.982 -53.6055 263.654 -52.4911 263.389 -51.3877C263.134 -50.3742 262.163 -49.7411 261.154 -49.8691L257.347 -34.5724C258.3 -34.2084 258.867 -33.1841 258.611 -32.1705C258.342 -31.0798 257.228 -30.4079 256.138 -30.6779C255.489 -30.8392 254.988 -31.2994 254.743 -31.8831L239.607 -27.5422C239.65 -27.2711 239.638 -26.9939 239.567 -26.7232C239.312 -25.7096 238.341 -25.0766 237.332 -25.2045L233.475 -9.73161C234.428 -9.36757 234.995 -8.34328 234.74 -7.3297C234.475 -6.22637 233.356 -5.56708 232.266 -5.83707C231.571 -6.00962 231.051 -6.52022 230.834 -7.14319L215.5 -2.7573C215.543 -2.48622 215.531 -2.209 215.464 -1.92569C215.209 -0.912109 214.238 -0.279072 213.229 -0.407013L209.409 14.8943C210.362 15.2583 210.912 16.2747 210.674 17.2962C210.392 18.3916 209.29 19.0588 208.183 18.7809C207.517 18.6116 207.012 18.1389 206.779 17.5505L191.643 21.8914C191.691 22.1751 191.696 22.4602 191.617 22.7482C191.361 23.7618 190.391 24.3949 189.382 24.2669L185.559 39.5982C186.512 39.9622 187.074 40.9739 186.823 42.0001C186.748 42.3007 186.612 42.5523 186.424 42.78L197.902 53.867C198.388 53.3993 199.108 53.1749 199.817 53.3428C200.482 53.5121 200.988 53.9848 201.22 54.5732L216.356 50.2323C216.308 49.9486 216.298 49.6508 216.378 49.3628C216.648 48.2721 217.761 47.6002 218.852 47.8702C219.942 48.1402 220.614 49.2547 220.349 50.358C220.274 50.6586 220.138 50.9102 219.95 51.1379L231.274 62.0811C231.762 61.6559 232.428 61.4802 233.094 61.6494C234.184 61.9194 234.856 63.0339 234.587 64.1246C234.332 65.1382 233.361 65.7712 232.352 65.6433L228.532 80.9446C229.485 81.3086 230.047 82.3203 229.797 83.3465C229.515 84.4419 228.413 85.1091 227.31 84.8438C226.679 84.6904 226.2 84.2508 225.952 83.6971L210.791 88.0473C210.825 88.2932 210.821 88.5531 210.757 88.8065C210.502 89.8201 209.531 90.4531 208.522 90.3251L204.684 105.734C205.638 106.098 206.192 107.127 205.949 108.135C205.68 109.226 204.566 109.898 203.475 109.628C202.827 109.467 202.326 109.007 202.085 108.436L186.95 112.776C186.988 113.035 186.981 113.325 186.909 113.595C186.64 114.686 185.526 115.358 184.435 115.088C183.345 114.818 182.673 113.704 182.942 112.613C183.009 112.33 183.133 112.083 183.301 111.877L171.828 100.802C171.337 101.258 170.637 101.46 169.941 101.287C169.293 101.126 168.792 100.666 168.547 100.082L153.411 104.423C153.454 104.694 153.442 104.971 153.37 105.242C153.101 106.333 151.987 107.005 150.897 106.735C149.806 106.465 149.134 105.35 149.404 104.26C149.475 103.989 149.594 103.729 149.762 103.524L138.416 92.56C137.939 92.938 137.298 93.1043 136.654 92.9555C135.564 92.6855 134.892 91.5711 135.157 90.4677C135.412 89.4542 136.383 88.8212 137.391 88.9491L141.196 73.6824C140.243 73.3183 139.68 72.3067 139.936 71.2931C139.999 71.0397 140.107 70.8274 140.25 70.631L128.64 59.4207C128.155 59.9309 127.414 60.1773 126.684 59.9889C125.989 59.8163 125.469 59.3057 125.252 58.6827L110.167 63.0049C110.215 63.2886 110.22 63.5737 110.14 63.8617C109.885 64.8753 108.915 65.5084 107.91 65.393L104.09 80.6943C105.043 81.0584 105.605 82.0701 105.355 83.0963C105.085 84.187 103.971 84.8589 102.868 84.5935C102.22 84.4322 101.732 83.9674 101.491 83.3963L86.3553 87.7372C86.3986 88.0083 86.3867 88.2855 86.3149 88.5562C86.0453 89.6469 84.9315 90.3188 83.841 90.0489C82.7459 89.7662 82.0786 88.6644 82.3435 87.5611C82.4152 87.2904 82.5342 87.0309 82.7017 86.8251L71.3561 75.8614C70.8793 76.2394 70.2252 76.4104 69.5896 76.2444C68.9067 76.0672 68.3917 75.5692 68.1622 74.9509L52.5961 79.4084C52.6206 79.6291 52.6072 79.8637 52.5513 80.0998C52.2817 81.1905 51.1679 81.8624 50.0727 81.5798C48.9823 81.3098 48.3103 80.1954 48.5799 79.1047C48.6628 78.7868 48.8196 78.5132 49.0203 78.2808L37.7013 67.3503C37.2101 67.8054 36.5102 68.0078 35.8148 67.8352C35.1665 67.6739 34.6656 67.2137 34.4249 66.6427L19.2891 70.9835C19.3323 71.2546 19.3204 71.5318 19.2487 71.8025C18.9791 72.8932 17.8651 73.5651 16.7747 73.2951C15.6796 73.0125 15.0123 71.9107 15.2819 70.82C15.3536 70.5493 15.4725 70.2898 15.6401 70.084L4.29441 59.1204C3.81763 59.4983 3.17619 59.6646 2.5326 59.5159C1.44216 59.2459 0.770134 58.1315 1.03973 57.0408C1.2949 56.0272 2.26538 55.3941 3.27437 55.5221L7.07396 40.2427C6.12085 39.8787 5.57133 38.8623 5.81391 37.8535C6.08348 36.7627 7.1974 36.0908 8.28784 36.3608C8.93609 36.5222 9.41968 36.9743 9.66038 37.5454L24.8089 33.1999C24.7656 32.9288 24.7775 32.6516 24.8493 32.3809C25.1045 31.3673 26.0749 30.7342 27.0792 30.8496L30.9426 15.3169C29.9894 14.9528 29.4273 13.9412 29.6778 12.915C29.9474 11.8242 31.0613 11.1523 32.1517 11.4223C32.8645 11.6028 33.3888 12.126 33.6024 12.7789L48.8944 8.39443C48.8558 8.13595 48.8678 7.85876 48.9269 7.59275C49.182 6.57917 50.1525 5.94612 51.1615 6.07406L54.961 -9.20527C54.0079 -9.56932 53.4458 -10.581 53.6963 -11.6072C53.9659 -12.6979 55.0798 -13.3698 56.1702 -13.0998C56.8185 -12.9385 57.3021 -12.4863 57.5554 -11.9199L72.7039 -16.2654C72.6653 -16.5239 72.6725 -16.8137 72.7443 -17.0844C73.0139 -18.1751 74.1278 -18.8471 75.2182 -18.5771C76.3086 -18.3071 76.9806 -17.1926 76.711 -16.1019C76.6393 -15.8312 76.5204 -15.5717 76.3528 -15.3659L87.6938 -4.41487C88.1785 -4.81015 88.82 -4.97649 89.4682 -4.81513C90.5713 -4.54982 91.2307 -3.43071 90.9611 -2.33999C90.7059 -1.32642 89.7354 -0.693362 88.7264 -0.821303L84.9064 14.48C85.8595 14.8441 86.4216 15.8558 86.1711 16.8819C86.0961 17.1826 85.952 17.4514 85.7639 17.6791L97.0436 28.5812C97.5301 28.1135 98.2505 27.8891 98.9632 28.0696C99.7232 28.2612 100.254 28.8396 100.444 29.5444L115.879 25.1211C115.809 24.8168 115.802 24.4891 115.885 24.1712C116.151 23.1104 117.19 22.4666 118.252 22.6609L122.048 7.41147C121.012 7.09283 120.401 6.02742 120.667 4.96662C120.949 3.87123 122.051 3.20399 123.141 3.47399C123.837 3.64653 124.361 4.16975 124.582 4.80534L139.706 0.469139C139.636 0.164874 139.629 -0.162818 139.707 -0.493352C139.974 -1.55413 141.024 -2.20266 142.074 -2.00369L145.864 -17.1933C144.911 -17.5573 144.361 -18.5737 144.599 -19.5952C144.869 -20.6859 145.983 -21.3578 147.073 -21.0878C147.709 -20.9218 148.188 -20.4822 148.436 -19.9284L163.471 -24.2319C163.428 -24.503 163.423 -24.7881 163.502 -25.0761C163.772 -26.1668 164.886 -26.8387 165.976 -26.5687C167.071 -26.2861 167.739 -25.1843 167.474 -24.0809C167.418 -23.8448 167.315 -23.6199 167.172 -23.4235L178.747 -12.2291C179.235 -12.6543 179.922 -12.852 180.588 -12.6827C181.219 -12.5293 181.703 -12.0771 181.951 -11.5233L197.112 -15.8735C197.074 -16.132 197.078 -16.3919 197.149 -16.6626C197.419 -17.7533 198.533 -18.4252 199.623 -18.1553L203.981 -35.6805L221.234 -40.6206C221.186 -40.9043 221.181 -41.1894 221.255 -41.49C221.511 -42.5036 222.481 -43.1366 223.485 -43.0213L227.29 -58.288C226.337 -58.652 225.787 -59.6684 226.042 -60.682C226.113 -60.9952 226.269 -61.2688 226.457 -61.4965L214.953 -72.6167C214.462 -72.1616 213.762 -71.9592 213.067 -72.1318C212.418 -72.2931 211.918 -72.7533 211.677 -73.3243L196.541 -68.9835C196.584 -68.7124 196.572 -68.4352 196.501 -68.1645C196.231 -67.0738 195.117 -66.4018 194.022 -66.6844L190.195 -51.3233C191.148 -50.9593 191.711 -49.9475 191.455 -48.934C191.186 -47.8433 190.072 -47.1713 188.969 -47.4367C188.321 -47.598 187.837 -48.0502 187.596 -48.6213L172.473 -44.2851C172.507 -44.0392 172.498 -43.7919 172.439 -43.5259C172.157 -42.4305 171.056 -41.7633 169.948 -42.0412C168.858 -42.3112 168.185 -43.4257 168.455 -44.5164C168.519 -44.7698 168.635 -44.9994 168.777 -45.1958L157.321 -56.2622C156.83 -55.8071 156.13 -55.6048 155.435 -55.7773C154.787 -55.9386 154.286 -56.3988 154.045 -56.9699L138.909 -52.6289C138.952 -52.3579 138.94 -52.0806 138.869 -51.81C138.614 -50.7964 137.643 -50.1634 136.639 -50.2787L132.782 -34.8058C133.735 -34.4417 134.302 -33.4175 134.047 -32.4039C133.777 -31.3132 132.663 -30.6412 131.573 -30.9112C130.877 -31.0838 130.358 -31.5944 130.141 -32.2174L115.136 -27.9107C115.16 -27.6901 115.142 -27.468 115.086 -27.2319C114.821 -26.1286 113.703 -25.4693 112.612 -25.7393C111.522 -26.0093 110.85 -27.1237 111.119 -28.2144C111.18 -28.4379 111.275 -28.6455 111.392 -28.8326L100.161 -39.6808C99.6653 -39.2383 98.9702 -39.0234 98.2873 -39.2006C97.1969 -39.4706 96.5249 -40.585 96.7945 -41.6757C97.0496 -42.6893 98.0154 -43.335 99.0244 -43.207L102.91 -58.8342C101.957 -59.1982 101.395 -60.2099 101.65 -61.2235C101.695 -61.4124 101.774 -61.5854 101.875 -61.7378L90.3318 -72.8865C89.8662 -72.5557 89.2626 -72.4034 88.6442 -72.5615C87.9959 -72.7229 87.4951 -73.183 87.267 -73.7588L72.1311 -69.4179C72.1697 -69.1594 72.1577 -68.8822 72.1033 -68.6036C71.8337 -67.5129 70.7198 -66.8409 69.6121 -67.1189L65.7999 -51.8349C66.7531 -51.4708 67.3026 -50.4545 67.0647 -49.433C66.7951 -48.3422 65.6812 -47.6703 64.5908 -47.9403C63.9897 -48.0905 63.5422 -48.4843 63.2698 -48.9861L47.8092 -44.5534C47.8117 -44.3534 47.8189 -44.1407 47.7662 -43.9345C47.4967 -42.8438 46.3828 -42.1719 45.2877 -42.4545C44.1972 -42.7245 43.5252 -43.8389 43.7948 -44.9296C43.8698 -45.2303 44.006 -45.4818 44.1815 -45.7049L32.9457 -56.5658C32.4754 -56.2477 31.8798 -56.1127 31.296 -56.2549C30.2056 -56.5249 29.5336 -57.6394 29.8032 -58.7301C30.0583 -59.7436 31.0367 -60.394 32.0504 -60.2534L35.7527 -75.1377C34.7995 -75.5017 34.2374 -76.5134 34.4879 -77.5396C34.7701 -78.635 35.8714 -79.3023 36.9618 -79.0323C37.533 -78.8854 37.9838 -78.5215 38.2468 -78.0449L53.8508 -82.5164C53.8029 -82.8002 53.7928 -83.0979 53.8725 -83.3859C54.1006 -84.3177 54.9356 -84.9291 55.8552 -84.9259L59.6818 -100.287C58.8753 -100.72 58.4138 -101.654 58.6545 -102.591C58.9241 -103.681 60.038 -104.353 61.1284 -104.083C61.7767 -103.922 62.2776 -103.462 62.5183 -102.891L77.6668 -107.236C77.6235 -107.507 77.6354 -107.784 77.7025 -108.068C77.9577 -109.081 78.9234 -109.727 79.9371 -109.586L83.7446 -124.883C82.7915 -125.247 82.2294 -126.259 82.4845 -127.272C82.5404 -127.508 82.6482 -127.721 82.7653 -127.908L71.3317 -138.954C70.8502 -138.588 70.2214 -138.427 69.5904 -138.58C68.5 -138.85 67.828 -139.965 68.0976 -141.055C68.3369 -142.034 69.2396 -142.656 70.2079 -142.6L74.0536 -158.025C73.1004 -158.389 72.5509 -159.406 72.7888 -160.427C72.8559 -160.71 72.9795 -160.957 73.147 -161.163L61.806 -172.114C61.3293 -171.736 60.6878 -171.57 60.0442 -171.719C58.9491 -172.001 58.2818 -173.103 58.5514 -174.194C58.8066 -175.207 59.777 -175.84 60.786 -175.712L64.5856 -190.992C63.6325 -191.356 63.0703 -192.368 63.3255 -193.381C63.6077 -194.476 64.709 -195.144 65.7994 -194.874C66.4477 -194.712 66.9313 -194.26 67.1846 -193.694L82.3331 -198.039C82.2945 -198.298 82.3017 -198.588 82.3735 -198.858C82.6286 -199.872 83.5991 -200.505 84.6081 -200.377L88.4794 -215.927C87.5263 -216.291 86.9768 -217.307 87.2193 -218.316C87.4889 -219.407 88.6028 -220.079 89.6932 -219.809C90.406 -219.629 90.935 -219.093 91.1487 -218.44L106.154 -222.746C106.12 -222.992 106.132 -223.27 106.196 -223.523C106.465 -224.614 107.579 -225.286 108.669 -225.016C109.76 -224.746 110.432 -223.631 110.162 -222.54C110.103 -222.274 109.975 -222.04 109.837 -221.831L121.068 -210.983C121.563 -211.468 122.271 -211.687 122.996 -211.512C124.086 -211.242 124.758 -210.127 124.489 -209.037C124.234 -208.023 123.263 -207.39 122.254 -207.518L118.383 -191.968C119.336 -191.604 119.898 -190.592 119.648 -189.566C119.592 -189.33 119.479 -189.13 119.367 -188.93L130.871 -177.81C131.356 -178.206 131.997 -178.372 132.646 -178.211C133.736 -177.941 134.408 -176.826 134.143 -175.723C133.888 -174.709 132.917 -174.076 131.908 -174.204L128.066 -158.808C129.019 -158.444 129.581 -157.433 129.331 -156.406C129.259 -156.136 129.14 -155.876 128.973 -155.67L140.314 -144.719C140.803 -145.102 141.44 -145.281 142.088 -145.12C143.178 -144.85 143.85 -143.735 143.581 -142.644C143.326 -141.631 142.355 -140.998 141.346 -141.126L137.526 -125.825C138.479 -125.46 139.041 -124.449 138.786 -123.435C138.73 -123.199 138.627 -122.974 138.485 -122.778L150.087 -111.665C150.576 -112.048 151.213 -112.227 151.861 -112.065C152.952 -111.795 153.624 -110.681 153.354 -109.59C153.099 -108.577 152.133 -107.931 151.119 -108.072L147.29 -92.6805C148.243 -92.3165 148.805 -91.3048 148.554 -90.2786C148.483 -90.0079 148.364 -89.7484 148.196 -89.5426L159.537 -78.5916C160.026 -78.9742 160.663 -79.1532 161.311 -78.9918C162.007 -78.8193 162.522 -78.3213 162.739 -77.6983L178.343 -82.1699C178.304 -82.4284 178.316 -82.7056 178.375 -82.9716C178.63 -83.9852 179.596 -84.6309 180.605 -84.5029L184.409 -99.7696C183.456 -100.134 182.907 -101.15 183.145 -102.172C183.414 -103.262 184.528 -103.934 185.619 -103.664C186.267 -103.503 186.75 -103.051 186.991 -102.48L202.14 -106.825C202.101 -107.084 202.113 -107.361 202.18 -107.644C202.435 -108.658 203.401 -109.303 204.41 -109.175L208.296 -124.803C207.489 -125.235 207.04 -126.174 207.273 -127.093C207.318 -127.282 207.397 -127.455 207.481 -127.616L196.069 -138.641C195.623 -138.375 195.06 -138.266 194.507 -138.405C193.416 -138.675 192.744 -139.79 193.014 -140.881C193.242 -141.812 194.077 -142.424 194.996 -142.421L198.823 -157.782C198.017 -158.215 197.568 -159.153 197.796 -160.085C197.837 -160.244 197.896 -160.395 197.959 -160.534L186.235 -171.859C185.77 -171.528 185.166 -171.376 184.56 -171.539C183.912 -171.7 183.429 -172.153 183.171 -172.732L168.035 -168.391C168.073 -168.132 168.061 -167.855 167.994 -167.572C167.725 -166.481 166.611 -165.809 165.52 -166.079C164.425 -166.362 163.758 -167.463 164.027 -168.554C164.072 -168.743 164.151 -168.916 164.24 -169.064L152.828 -180.089C152.382 -179.823 151.819 -179.715 151.266 -179.854C150.175 -180.124 149.503 -181.238 149.773 -182.329C150.001 -183.261 150.836 -183.872 151.755 -183.869L155.582 -199.23C154.763 -199.658 154.314 -200.597 154.555 -201.533C154.837 -202.629 155.938 -203.296 157.029 -203.026C157.677 -202.865 158.165 -202.4 158.419 -201.833L173.567 -206.179C173.524 -206.45 173.536 -206.727 173.603 -207.011C173.885 -208.106 174.986 -208.773 176.077 -208.503C177.167 -208.233 177.839 -207.119 177.57 -206.028C177.475 -205.663 177.29 -205.35 177.052 -205.104L188.375 -194.161C188.86 -194.671 189.601 -194.917 190.331 -194.729C191.027 -194.556 191.547 -194.046 191.763 -193.423L206.849 -197.745C206.801 -198.028 206.796 -198.314 206.871 -198.614C207.14 -199.705 208.254 -200.377 209.344 -200.107C210.435 -199.837 211.107 -198.722 210.837 -197.632C210.824 -197.282 210.687 -197.03 210.512 -196.807ZM183.071 -173.154C183.028 -173.425 183.04 -173.702 183.111 -173.973C183.34 -174.905 184.175 -175.516 185.094 -175.513L188.929 -190.892C188.122 -191.324 187.673 -192.263 187.901 -193.195C187.946 -193.384 188.025 -193.557 188.122 -193.722L176.715 -204.735C176.261 -204.451 175.698 -204.343 175.144 -204.482C174.496 -204.643 174.012 -205.095 173.759 -205.662L158.611 -201.316C158.654 -201.045 158.642 -200.768 158.57 -200.497C158.301 -199.406 157.187 -198.734 156.096 -199.004L152.303 -183.785C153.398 -183.502 154.066 -182.401 153.796 -181.31C153.707 -180.932 153.504 -180.627 153.258 -180.363L164.581 -169.42C165.066 -169.931 165.807 -170.177 166.55 -169.993C167.198 -169.832 167.699 -169.372 167.94 -168.801L183.071 -173.154ZM208.78 -124.58L204.896 -109.026C205.849 -108.662 206.399 -107.645 206.161 -106.624C206.102 -106.358 205.973 -106.123 205.823 -105.91L217.169 -94.9461C217.65 -95.3114 218.279 -95.4731 218.923 -95.3243C219.554 -95.1709 220.037 -94.7187 220.286 -94.165L235.966 -98.6647C235.936 -98.8979 235.945 -99.1452 236.001 -99.3813C236.207 -100.219 236.919 -100.813 237.729 -100.913L241.589 -116.416C240.926 -116.887 240.569 -117.731 240.783 -118.586C240.817 -118.728 240.88 -118.866 240.943 -119.004L229.312 -130.235C228.873 -129.986 228.349 -129.892 227.812 -130.023C227.194 -130.181 226.724 -130.595 226.468 -131.132L211.294 -126.777C211.323 -126.544 211.314 -126.296 211.259 -126.06C210.989 -124.97 209.883 -124.315 208.78 -124.58ZM84.3143 -124.779L80.5021 -109.495C81.4553 -109.131 82.0174 -108.119 81.7669 -107.093C81.6872 -106.805 81.5557 -106.541 81.3802 -106.318L92.7039 -95.3744C93.1839 -95.7823 93.8506 -95.958 94.5115 -95.8013C95.1771 -95.632 95.67 -95.1546 95.9154 -94.5709L112.856 -99.4238L117.132 -116.589C116.179 -116.953 115.63 -117.969 115.88 -118.995C115.939 -119.261 116.068 -119.496 116.218 -119.709L104.872 -130.673C104.391 -130.308 103.762 -130.146 103.131 -130.299C102.5 -130.453 102.021 -130.892 101.772 -131.446L86.6113 -127.096C86.6499 -126.837 86.6459 -126.577 86.5742 -126.307C86.2891 -125.296 85.3233 -124.651 84.3143 -124.779ZM138.259 -122.421C137.775 -121.983 137.088 -121.786 136.393 -121.958C135.791 -122.108 135.327 -122.51 135.067 -123.016L119.881 -118.657C119.905 -118.436 119.9 -118.219 119.839 -117.995C119.611 -117.064 118.776 -116.452 117.856 -116.455L113.564 -99.256L126.313 -86.9469C126.787 -87.2949 127.403 -87.4519 128.009 -87.2891C128.627 -87.131 129.097 -86.7167 129.353 -86.1802L144.527 -90.5352C144.498 -90.7684 144.506 -91.0157 144.57 -91.2691C144.825 -92.2827 145.796 -92.9157 146.8 -92.8004L150.63 -108.191C149.677 -108.555 149.127 -109.572 149.37 -110.581C149.437 -110.864 149.561 -111.111 149.723 -111.329L138.259 -122.421ZM128.715 -155.359C128.23 -154.964 127.576 -154.793 126.94 -154.959C126.292 -155.121 125.804 -155.585 125.551 -156.152L110.402 -151.806C110.445 -151.535 110.433 -151.258 110.366 -150.975C110.111 -149.961 109.141 -149.328 108.132 -149.456L104.328 -134.189C105.281 -133.825 105.83 -132.809 105.592 -131.787C105.525 -131.504 105.389 -131.252 105.226 -131.034L116.567 -120.083C117.052 -120.478 117.693 -120.645 118.342 -120.483C118.99 -120.322 119.478 -119.857 119.719 -119.286L134.855 -123.627C134.816 -123.885 134.828 -124.163 134.895 -124.446C135.15 -125.459 136.116 -126.105 137.13 -125.965L140.95 -141.266C139.997 -141.63 139.447 -142.646 139.685 -143.668C139.752 -143.951 139.876 -144.198 140.039 -144.416L128.715 -155.359ZM119.136 -188.586C118.64 -188.144 117.945 -187.929 117.262 -188.106C116.661 -188.256 116.191 -188.671 115.932 -189.177L100.745 -184.817C100.774 -184.584 100.761 -184.35 100.705 -184.113C100.477 -183.182 99.6421 -182.57 98.7225 -182.573L94.8927 -167.182C95.6991 -166.75 96.1481 -165.811 95.9199 -164.879C95.8641 -164.643 95.7642 -164.448 95.6345 -164.256L107.183 -153.095C107.656 -153.443 108.272 -153.6 108.878 -153.437C109.497 -153.279 109.966 -152.865 110.223 -152.328L125.409 -156.688C125.38 -156.921 125.388 -157.168 125.44 -157.417C125.695 -158.431 126.661 -159.076 127.674 -158.936L131.504 -174.327C130.551 -174.691 129.989 -175.703 130.244 -176.716C130.311 -176.999 130.435 -177.246 130.598 -177.465L119.136 -188.586ZM91.3505 -218.012C91.3703 -217.804 91.3601 -217.599 91.3075 -217.393C91.0524 -216.38 90.0819 -215.747 89.0729 -215.875L85.2016 -200.325C86.1547 -199.961 86.7169 -198.949 86.4664 -197.923C86.4072 -197.657 86.279 -197.422 86.1287 -197.209L97.4744 -186.245C97.9512 -186.623 98.58 -186.785 99.2157 -186.619C99.8466 -186.465 100.33 -186.013 100.579 -185.459L115.74 -189.809C115.701 -190.068 115.705 -190.328 115.777 -190.599C116.032 -191.612 116.998 -192.258 118.012 -192.117L121.883 -207.667C120.93 -208.031 120.38 -209.048 120.623 -210.056C120.676 -210.263 120.763 -210.453 120.872 -210.623L109.614 -221.504C109.134 -221.096 108.467 -220.921 107.807 -221.077C107.141 -221.247 106.64 -221.707 106.403 -222.308L91.3505 -218.012ZM73.5939 -161.544C74.0786 -161.94 74.72 -162.106 75.3683 -161.945C76.0166 -161.783 76.5175 -161.323 76.7582 -160.752L91.8941 -165.093C91.8555 -165.351 91.8674 -165.629 91.9391 -165.899C92.1943 -166.913 93.1601 -167.559 94.1691 -167.431L97.9892 -182.732C97.0361 -183.096 96.4739 -184.108 96.7244 -185.134C96.7915 -185.417 96.9151 -185.664 97.078 -185.882L85.737 -196.834C85.2523 -196.438 84.5982 -196.267 83.9499 -196.429C83.3017 -196.59 82.8134 -197.055 82.5727 -197.626L67.4242 -193.28C67.4674 -193.009 67.4682 -192.737 67.3885 -192.449C67.1333 -191.435 66.1628 -190.802 65.1538 -190.93L61.3496 -175.663C62.3027 -175.299 62.8522 -174.283 62.6143 -173.261C62.5473 -172.978 62.4111 -172.726 62.2482 -172.508L73.5939 -161.544ZM83.1775 -128.305C83.6687 -128.76 84.356 -128.958 85.0514 -128.785C85.6525 -128.635 86.122 -128.221 86.3865 -127.701L101.573 -132.061C101.544 -132.294 101.557 -132.529 101.613 -132.765C101.841 -133.697 102.676 -134.308 103.596 -134.305L107.422 -149.666C106.616 -150.099 106.154 -151.033 106.4 -151.957C106.455 -152.193 106.563 -152.405 106.693 -152.597L95.1448 -163.759C94.6759 -163.398 94.0424 -163.249 93.424 -163.407C92.8057 -163.565 92.3315 -163.992 92.0749 -164.528L76.9138 -160.178C76.943 -159.945 76.9343 -159.698 76.8705 -159.444C76.6153 -158.431 75.6449 -157.798 74.6359 -157.926L70.7935 -142.53C71.8176 -142.206 72.4283 -141.141 72.1746 -140.085C72.0996 -139.784 71.9634 -139.533 71.7879 -139.31L83.1775 -128.305ZM63.1847 -49.4858C63.1148 -49.79 63.1033 -50.1303 63.1815 -50.4609C63.4367 -51.4744 64.4072 -52.1075 65.4115 -51.9922L69.2302 -67.336C68.4111 -67.7642 67.9747 -68.7077 68.2029 -69.6394C68.2522 -69.8157 68.3189 -69.984 68.4076 -70.1318L56.9786 -81.1651C56.5321 -80.8988 55.9902 -80.8125 55.4536 -80.9435C54.8226 -81.0969 54.3437 -81.5365 54.0998 -82.0777L38.5336 -77.6201C38.6255 -77.2953 38.6417 -76.9424 38.5555 -76.5946C38.3004 -75.581 37.3299 -74.9479 36.3209 -75.0759L32.6187 -60.1916C33.5718 -59.8276 34.1213 -58.8112 33.8661 -57.7976C33.7879 -57.4671 33.6232 -57.1762 33.4099 -56.9391L44.641 -46.0908C45.1225 -46.4562 45.7513 -46.6178 46.3822 -46.4644C47.095 -46.2839 47.624 -45.7481 47.8377 -45.0952L63.1847 -49.4858ZM87.2072 -74.2678C87.1639 -74.5389 87.1759 -74.8161 87.2476 -75.0868C87.4757 -76.0185 88.3107 -76.63 89.2303 -76.6268L93.0648 -92.0053C92.2458 -92.4334 91.7968 -93.3723 92.0376 -94.3087C92.0823 -94.4976 92.1615 -94.6706 92.2581 -94.8356L80.8512 -105.848C80.3967 -105.565 79.8342 -105.457 79.2804 -105.595C78.6321 -105.757 78.1485 -106.209 77.9078 -106.78L62.7593 -102.435C62.8026 -102.163 62.7907 -101.886 62.7189 -101.616C62.4494 -100.525 61.3354 -99.8529 60.245 -100.123L56.452 -84.9034C57.5471 -84.6208 58.2144 -83.5189 57.9495 -82.4156C57.8601 -82.0378 57.6576 -81.7329 57.4111 -81.4692L68.7348 -70.526C69.2325 -71.041 69.9608 -71.2826 70.7034 -71.0989C71.3517 -70.9376 71.8526 -70.4774 72.098 -69.8937L87.2072 -74.2678ZM102.256 -62.1807C102.741 -62.691 103.482 -62.9373 104.225 -62.7536C104.873 -62.5922 105.374 -62.1321 105.615 -61.561L120.713 -65.8879C120.684 -66.1211 120.697 -66.3558 120.753 -66.5919C120.981 -67.5237 121.816 -68.1351 122.736 -68.1319L126.567 -83.4804C125.76 -83.9133 125.299 -84.8474 125.54 -85.7839C125.595 -86.02 125.703 -86.2323 125.833 -86.424L112.969 -98.8485L96.0537 -94.0049C96.0829 -93.7717 96.0649 -93.5496 96.009 -93.3135C95.7538 -92.3 94.7834 -91.6669 93.7744 -91.7949L89.9543 -76.4936C90.9074 -76.1295 91.4616 -75.1005 91.219 -74.0916C91.1361 -73.7737 90.9794 -73.5002 90.7787 -73.2677L102.256 -62.1807ZM130.116 -32.7105C130.091 -32.9311 130.104 -33.1658 130.16 -33.4019C130.415 -34.4155 131.381 -35.0611 132.39 -34.9332L136.247 -50.4061C135.294 -50.7701 134.744 -51.7865 135 -52.8C135.059 -53.066 135.182 -53.3129 135.337 -53.514L123.992 -64.4777C123.51 -64.1124 122.881 -63.9507 122.25 -64.1041C121.619 -64.2575 121.14 -64.6971 120.892 -65.2509L105.769 -60.9147C105.788 -60.7067 105.77 -60.4846 105.722 -60.2658C105.467 -59.2522 104.497 -58.6192 103.475 -58.7425L99.5848 -43.1279C100.538 -42.7639 101.105 -41.7396 100.85 -40.726C100.794 -40.4899 100.681 -40.2903 100.569 -40.0906L111.8 -29.2423C112.291 -29.6974 112.991 -29.8998 113.699 -29.7319C114.394 -29.5594 114.919 -29.0361 115.136 -28.4132L130.116 -32.7105ZM153.995 -57.4536C153.956 -57.7121 153.968 -57.9893 154.035 -58.2726C154.29 -59.2862 155.256 -59.9318 156.265 -59.8039L160.085 -75.1052C159.132 -75.4693 158.57 -76.4809 158.838 -77.4992C158.905 -77.7825 159.028 -78.0294 159.196 -78.2352L147.855 -89.1862C147.37 -88.791 146.729 -88.6246 146.08 -88.786C145.432 -88.9473 144.944 -89.4121 144.691 -89.9785L129.542 -85.6329C129.585 -85.3618 129.573 -85.0846 129.506 -84.8013C129.251 -83.7878 128.281 -83.1547 127.272 -83.2827L123.467 -68.0159C124.421 -67.6519 124.987 -66.6276 124.732 -65.614C124.665 -65.3307 124.529 -65.0792 124.366 -64.8608L135.707 -53.9097C136.192 -54.305 136.833 -54.4713 137.481 -54.31C138.13 -54.1486 138.631 -53.6885 138.871 -53.1174L153.995 -57.4536ZM193.641 -66.859C192.835 -67.2919 192.386 -68.2307 192.614 -69.1624C192.667 -69.3686 192.759 -69.5463 192.855 -69.7114L181.448 -80.7241C180.994 -80.4406 180.423 -80.315 179.852 -80.4619C179.204 -80.6232 178.698 -81.0959 178.458 -81.667L162.828 -77.1861C162.858 -76.9528 162.844 -76.7182 162.788 -76.4821C162.56 -75.5503 161.725 -74.9388 160.806 -74.942L156.971 -59.5636C157.79 -59.1354 158.239 -58.1966 157.998 -57.2602C157.943 -57.0241 157.843 -56.8291 157.713 -56.6374L169.186 -45.563C169.674 -45.9882 170.348 -46.1812 171.019 -45.9993C171.684 -45.83 172.195 -45.3446 172.432 -44.7436L187.53 -49.0705C187.487 -49.3416 187.499 -49.6188 187.566 -49.9021C187.821 -50.9157 188.787 -51.5613 189.8 -51.4207L193.641 -66.859ZM211.614 -73.8034C211.575 -74.0619 211.587 -74.3391 211.646 -74.6051C211.901 -75.6187 212.872 -76.2517 213.876 -76.1364L217.696 -91.4377C216.743 -91.8018 216.194 -92.8181 216.436 -93.827C216.503 -94.1103 216.627 -94.3572 216.79 -94.5756L205.449 -105.527C204.964 -105.131 204.323 -104.965 203.674 -105.126C203.026 -105.288 202.538 -105.753 202.297 -106.324L187.149 -101.978C187.192 -101.707 187.18 -101.43 187.113 -101.146C186.858 -100.133 185.887 -99.4999 184.878 -99.6278L181.074 -84.3611C182.027 -83.997 182.577 -82.9807 182.339 -81.9592C182.272 -81.6759 182.136 -81.4243 181.973 -81.2059L193.318 -70.2422C193.803 -70.6375 194.444 -70.8038 195.093 -70.6425C195.741 -70.4811 196.242 -70.021 196.483 -69.4499L211.614 -73.8034ZM226.893 -61.8306C227.367 -62.1786 227.983 -62.3356 228.601 -62.1775C229.22 -62.0194 229.689 -61.605 229.946 -61.0686L245.132 -65.4282C245.103 -65.6615 245.111 -65.9087 245.175 -66.1621C245.43 -67.1757 246.401 -67.8088 247.41 -67.6808L251.296 -83.3079C250.477 -83.7361 250.04 -84.6797 250.268 -85.6114C250.318 -85.7877 250.389 -85.9433 250.473 -86.1037L239.044 -97.137C238.598 -96.8708 238.056 -96.7844 237.519 -96.9155C236.888 -97.0689 236.409 -97.5084 236.165 -98.0496L220.473 -93.5452C220.502 -93.312 220.489 -93.0773 220.433 -92.8412C220.205 -91.9095 219.37 -91.298 218.45 -91.3012L214.616 -75.9228C215.422 -75.4899 215.884 -74.5558 215.643 -73.6193C215.587 -73.3832 215.487 -73.1883 215.357 -72.9965L226.893 -61.8306ZM185.079 39.5036L188.902 24.1723C187.949 23.8083 187.399 22.7919 187.637 21.7704C187.704 21.4871 187.828 21.2402 187.995 21.0344L176.654 10.0834C176.178 10.4614 175.524 10.6323 174.893 10.4789C174.244 10.3176 173.761 9.8654 173.52 9.29432L158.034 13.7364C158.04 13.9065 158.025 14.0987 157.981 14.2875C157.764 15.1721 156.992 15.7601 156.138 15.8186L152.294 31.2868C153.025 31.7478 153.425 32.6328 153.208 33.5174C153.152 33.7535 153.044 33.9658 152.914 34.1575L165.888 46.6847L182.829 41.8319C182.79 41.5734 182.807 41.3088 182.866 41.0428C183.104 40.0213 184.057 39.3803 185.079 39.5036ZM148.644 -19.4457C148.687 -19.1746 148.697 -18.8768 148.618 -18.5888C148.363 -17.5752 147.392 -16.9422 146.383 -17.0702L142.59 -1.85068C143.472 -1.44594 143.965 -0.465976 143.721 0.50038C143.649 0.77108 143.538 1.01327 143.375 1.23167L154.717 12.1827C155.193 11.8047 155.835 11.6384 156.478 11.7872C157.174 11.9597 157.689 12.4577 157.906 13.0807L173.341 8.65731C173.316 8.43668 173.33 8.202 173.378 7.98321C173.606 7.05145 174.453 6.43532 175.361 6.44319L179.187 -8.91795C178.381 -9.3508 177.919 -10.2849 178.16 -11.2214C178.224 -11.4748 178.331 -11.6871 178.469 -11.8961L166.899 -23.0779C166.416 -22.6401 165.716 -22.4377 165.033 -22.615C164.397 -22.781 163.918 -23.2206 163.665 -23.787L148.644 -19.4457ZM124.723 5.29888C124.747 5.51951 124.729 5.74154 124.673 5.97763C124.429 6.94399 123.531 7.57884 122.575 7.51725L118.768 22.8139C119.65 23.2187 120.143 24.1986 119.899 25.1649C119.832 25.4483 119.7 25.7124 119.525 25.9355L130.866 36.8866C131.351 36.4913 132 36.3077 132.666 36.4769C133.361 36.6495 133.885 37.1727 134.107 37.8083L149.23 33.4721C149.16 33.1678 149.141 32.8448 149.232 32.5096C149.498 31.4488 150.549 30.8003 151.599 30.9993L155.398 15.72C154.361 15.4013 153.751 14.3359 154.017 13.2751C154.089 13.0044 154.212 12.7575 154.363 12.5438L143.022 1.59274C142.545 1.97072 141.891 2.14175 141.26 1.98833C140.659 1.83818 140.211 1.44438 139.939 0.942496L124.723 5.29888ZM85.4651 18.0341C84.9916 18.3822 84.3754 18.5392 83.7444 18.3857C83.126 18.2277 82.6518 17.8007 82.3953 17.2642L67.2294 21.6019C67.2586 21.8351 67.25 22.0824 67.1862 22.3358C66.931 23.3494 65.9605 23.9824 64.9515 23.8545L60.656 41.0838L73.5026 53.5003C73.9905 53.0751 74.6777 52.8775 75.3433 53.0467C75.9271 53.189 76.3919 53.5907 76.6643 54.0926L91.8633 49.7282C91.8388 49.5076 91.8568 49.2856 91.9047 49.0668C92.1329 48.1351 92.9805 47.5189 93.8875 47.5268L97.7667 31.9595C96.8136 31.5954 96.2515 30.5837 96.5066 29.5701C96.5546 29.3513 96.6544 29.1564 96.7636 28.9866L85.4651 18.0341ZM57.7665 -11.467C57.8098 -11.1959 57.7978 -10.9188 57.7308 -10.6355C57.4756 -9.62187 56.5052 -8.98882 55.4962 -9.11676L51.6966 6.16258C52.6497 6.52662 53.1992 7.54297 52.9614 8.56448C52.8943 8.84781 52.7581 9.09935 52.5952 9.31775L63.9362 20.2688C64.4209 19.8735 65.0624 19.7072 65.7233 19.8638C66.3715 20.0252 66.8598 20.4901 67.0958 21.0485L82.2317 16.7076C82.1931 16.4491 82.205 16.1719 82.2595 15.8933C82.5147 14.8797 83.4804 14.2341 84.4894 14.362L88.2969 -0.93465C87.3438 -1.29868 86.7943 -2.31505 87.0448 -3.34124C87.1165 -3.61194 87.2354 -3.87144 87.3983 -4.08982L76.0573 -15.0409C75.5726 -14.6456 74.9312 -14.4793 74.2829 -14.6406C73.6346 -14.802 73.1463 -15.2668 72.8931 -15.8332L57.7665 -11.467ZM33.7286 13.2346C33.7484 13.4426 33.743 13.6599 33.6824 13.8834C33.4273 14.897 32.4568 15.53 31.4478 15.4021L27.5718 30.9395C28.525 31.3035 29.0744 32.3199 28.8366 33.3414C28.7648 33.6121 28.6491 33.8417 28.4989 34.0554L39.8446 45.0191C40.326 44.6537 40.9675 44.4874 41.5985 44.6408C42.2294 44.7942 42.713 45.2464 42.9616 45.8002L59.9527 40.9286L64.264 23.6646C63.4576 23.2318 62.996 22.2976 63.2367 21.3612C63.2893 21.155 63.3686 20.982 63.4731 20.7996L52.0662 9.78691C51.6164 10.0831 51.0413 10.1961 50.4701 10.0492C49.8219 9.88783 49.3163 9.41508 49.0756 8.84401L33.7286 13.2346ZM34.2895 66.1617C34.2509 65.9032 34.2628 65.626 34.3345 65.3553C34.5897 64.3418 35.5602 63.7087 36.5645 63.8241L40.3846 48.5227C39.4315 48.1587 38.882 47.1423 39.1198 46.1208C39.1869 45.8375 39.3105 45.5906 39.4734 45.3722L28.1324 34.4212C27.6477 34.8165 27.0062 34.9828 26.358 34.8214C25.7097 34.6601 25.2214 34.1953 24.9681 33.6289L9.81964 37.9744C9.86285 38.2455 9.85097 38.5227 9.78394 38.806C9.52874 39.8196 8.55826 40.4527 7.54927 40.3248L3.74502 55.5915C4.69814 55.9555 5.26024 56.9672 5.00976 57.9934C4.94273 58.2767 4.80649 58.5282 4.64358 58.7466L15.9846 69.6977C16.4693 69.3024 17.1108 69.1361 17.759 69.2974C18.4073 69.4588 18.8956 69.9236 19.1489 70.49L34.2895 66.1617ZM68.052 74.4606C68.0228 74.2273 68.0362 73.9927 68.0873 73.744C68.3155 72.8122 69.1631 72.1961 70.0701 72.204L73.8967 56.8428C73.0902 56.41 72.6286 55.4758 72.8694 54.5394C72.9252 54.3033 73.033 54.091 73.1627 53.8993L60.2989 41.4748L43.114 46.404C43.1432 46.6373 43.1299 46.872 43.074 47.108C42.8459 48.0398 41.9983 48.6559 41.0913 48.6481L37.2567 64.0265C38.0632 64.4594 38.5122 65.3982 38.284 66.3299C38.2235 66.5534 38.1283 66.761 37.9986 66.9527L49.3663 77.937C49.8445 77.6015 50.4355 77.4539 51.0538 77.612C51.7493 77.7846 52.2689 78.2952 52.4858 78.9182L68.052 74.4606ZM101.346 82.8902C101.308 82.6317 101.32 82.3545 101.391 82.0838C101.647 81.0702 102.617 80.4372 103.626 80.5652L107.434 65.2685C106.48 64.9045 105.931 63.8881 106.169 62.8666C106.236 62.5833 106.36 62.3364 106.522 62.118L95.1814 51.1669C94.6967 51.5622 94.0552 51.7286 93.407 51.5672C92.7587 51.4059 92.2704 50.941 92.0297 50.37L76.8812 54.7155C76.9245 54.9866 76.9126 55.2638 76.8455 55.5471C76.5903 56.5607 75.6199 57.1938 74.6109 57.0658L70.8067 72.3325C71.7598 72.6966 72.314 73.7256 72.0714 74.7345C72.0043 75.0178 71.8681 75.2693 71.7052 75.4877L83.0462 86.4388C83.5309 86.0435 84.1724 85.8772 84.8207 86.0385C85.4689 86.1999 85.9698 86.66 86.2105 87.2311L101.346 82.8902ZM125.142 58.1924C125.117 57.9718 125.131 57.7372 125.187 57.5011C125.442 56.4875 126.412 55.8545 127.421 55.9824L131.315 40.3379C130.42 39.9378 129.927 38.9579 130.166 37.9789C130.224 37.7854 130.303 37.6124 130.4 37.4473L118.988 26.422C118.534 26.7055 117.971 26.8138 117.405 26.6796C116.804 26.5294 116.339 26.1277 116.087 25.6038L100.551 30.0646C100.556 30.2348 100.537 30.4143 100.5 30.5859C100.272 31.5176 99.437 32.1291 98.5173 32.1259L94.6381 47.6932C95.5913 48.0572 96.1533 49.0689 95.9028 50.0951C95.8438 50.3611 95.7154 50.5954 95.5652 50.8091L106.911 61.7728C107.388 61.3948 108.016 61.2332 108.652 61.3992C109.283 61.5526 109.779 62.0001 110.015 62.5586L125.142 58.1924ZM140.569 70.254C141.057 69.8288 141.744 69.6312 142.422 69.7958C143.006 69.938 143.471 70.3397 143.731 70.8463L158.93 66.482C158.91 66.274 158.923 66.0393 158.971 65.8205C159.199 64.8888 160.034 64.2773 160.954 64.2805L165.246 47.081L152.382 34.6566C151.909 35.0047 151.288 35.149 150.687 34.9988C150.12 34.8646 149.669 34.5007 149.406 34.024L134.178 38.3851C134.188 38.5679 134.178 38.7726 134.133 38.9615C133.889 39.9278 132.991 40.5627 132.023 40.5058L128.118 56.1975C128.925 56.6303 129.386 57.5644 129.145 58.5009C129.101 58.6897 129.021 58.8628 128.925 59.0278L140.569 70.254ZM168.408 99.6313C168.369 99.3728 168.381 99.0956 168.453 98.8249C168.708 97.8113 169.679 97.1783 170.683 97.2936L174.491 81.997C173.537 81.633 172.988 80.6166 173.243 79.603C173.31 79.3197 173.434 79.0728 173.597 78.8544L162.256 67.9033C161.771 68.2986 161.129 68.465 160.481 68.3036C159.833 68.1423 159.332 67.6821 159.091 67.111L143.943 71.4566C143.986 71.7277 143.987 72.0002 143.907 72.2882C143.652 73.3018 142.682 73.9349 141.673 73.8069L137.868 89.0736C138.821 89.4377 139.388 90.462 139.133 91.4755C139.066 91.7588 138.93 92.0104 138.767 92.2288L150.108 103.18C150.593 102.785 151.234 102.618 151.895 102.775C152.543 102.936 153.027 103.388 153.285 103.967L168.408 99.6313ZM201.939 108.002C201.896 107.731 201.912 107.466 201.984 107.195C202.239 106.182 203.21 105.549 204.214 105.664L208.052 90.2558C207.098 89.8918 206.549 88.8754 206.792 87.8665C206.86 87.6257 206.963 87.4008 207.093 87.2091L195.725 76.2249C195.252 76.5729 194.643 76.7126 194.03 76.5671C193.429 76.4169 192.946 76.0073 192.695 75.4834L177.247 79.9114C177.276 80.1447 177.262 80.3794 177.207 80.6154C176.978 81.5472 176.131 82.1633 175.211 82.1602L171.377 97.5386C172.183 97.9714 172.645 98.9056 172.404 99.842C172.348 100.078 172.248 100.273 172.119 100.465L183.618 111.572C184.103 111.177 184.744 111.011 185.405 111.167C186.053 111.329 186.554 111.789 186.795 112.36L201.939 108.002ZM201.34 55.0887C201.374 55.3346 201.37 55.5945 201.306 55.8479C201.051 56.8615 200.081 57.4945 199.072 57.3665L195.272 72.6459C196.225 73.0099 196.787 74.0216 196.537 75.0478C196.462 75.3484 196.318 75.6173 196.129 75.845L207.47 86.7961C207.958 86.3709 208.625 86.1952 209.303 86.3598C209.969 86.5291 210.474 87.0018 210.712 87.6028L225.835 83.2666C225.775 82.9876 225.782 82.6978 225.857 82.3972C226.112 81.3836 227.082 80.7505 228.091 80.8785L231.899 65.5818C230.946 65.2178 230.396 64.2014 230.634 63.1799C230.698 62.9265 230.809 62.6843 230.964 62.4832L219.618 51.5196C219.137 51.8849 218.521 52.0419 217.89 51.8885C217.259 51.7351 216.78 51.2955 216.536 50.7543L201.34 55.0887ZM186.058 43.1458C185.576 43.5111 184.947 43.6728 184.329 43.5147C183.698 43.3613 183.219 42.9217 182.975 42.3805L165.971 47.2568L161.695 64.4217C162.648 64.7857 163.21 65.7974 162.96 66.8236C162.888 67.0943 162.772 67.3239 162.622 67.5376L173.968 78.5013C174.445 78.1233 175.073 77.9616 175.722 78.123C176.357 78.289 176.836 78.7286 177.085 79.2824L192.508 74.8637C192.474 74.6179 192.478 74.3579 192.549 74.0872C192.778 73.1555 193.613 72.544 194.532 72.5472L198.359 57.1861C197.552 56.7532 197.103 55.8144 197.331 54.8826C197.384 54.6765 197.479 54.4689 197.588 54.2991L186.058 43.1458ZM206.64 17.0995C206.606 16.8536 206.61 16.5937 206.682 16.3231C206.937 15.3095 207.908 14.6764 208.917 14.8044L212.737 -0.496927C211.784 -0.860972 211.221 -1.87263 211.477 -2.88621C211.552 -3.18682 211.688 -3.4384 211.863 -3.66147L200.54 -14.6046C200.06 -14.1967 199.393 -14.021 198.732 -14.1777C198.066 -14.3469 197.578 -14.8118 197.333 -15.3955L182.197 -11.0546C182.245 -10.7709 182.25 -10.4857 182.171 -10.1977C181.915 -9.18416 180.945 -8.55112 179.936 -8.67906L176.136 6.60026C177.089 6.96429 177.656 7.98859 177.401 9.00217C177.329 9.27285 177.218 9.51508 177.055 9.73348L188.401 20.6972C188.878 20.3192 189.519 20.1529 190.155 20.3189C190.786 20.4723 191.282 20.9198 191.531 21.4736L206.64 17.0995ZM230.703 -7.61147C230.679 -7.83209 230.692 -8.06677 230.748 -8.30285C231.003 -9.31644 231.974 -9.94949 232.978 -9.83416L236.835 -25.3071C235.882 -25.6711 235.332 -26.6875 235.587 -27.701C235.646 -27.967 235.77 -28.2139 235.925 -28.415L224.579 -39.3787C224.098 -39.0133 223.469 -38.8517 222.838 -39.0051C222.207 -39.1585 221.728 -39.5981 221.48 -40.1519L204.489 -35.2802L200.179 -17.9737C200.985 -17.5409 201.447 -16.6068 201.206 -15.6703C201.161 -15.4815 201.082 -15.3084 200.985 -15.1434L212.392 -4.13064C212.847 -4.41418 213.409 -4.52252 213.968 -4.37092C214.616 -4.20958 215.1 -3.7574 215.353 -3.191L230.703 -7.61147ZM248.435 -64.0699C247.95 -63.6747 247.296 -63.5036 246.648 -63.665C245.999 -63.8263 245.511 -64.2911 245.258 -64.8575L230.109 -60.5119C230.152 -60.2409 230.153 -59.9683 230.086 -59.685C229.831 -58.6714 228.86 -58.0384 227.851 -58.1664L224.047 -42.8997C225 -42.5356 225.562 -41.5239 225.312 -40.4977C225.245 -40.2144 225.109 -39.9628 224.946 -39.7444L236.287 -28.7934C236.772 -29.1887 237.413 -29.355 238.061 -29.1937C238.71 -29.0323 239.21 -28.5722 239.451 -28.0011L254.587 -32.342C254.548 -32.6005 254.56 -32.8777 254.619 -33.1437C254.875 -34.1573 255.845 -34.7903 256.849 -34.675L260.669 -49.9763C259.716 -50.3403 259.167 -51.3567 259.409 -52.3656C259.476 -52.6489 259.6 -52.8958 259.763 -53.1142L248.435 -64.0699ZM262.904 -121.816C262.45 -121.532 261.887 -121.424 261.329 -121.575C260.68 -121.737 260.197 -122.189 259.943 -122.755L244.795 -118.41C244.838 -118.139 244.826 -117.861 244.754 -117.591C244.485 -116.5 243.371 -115.828 242.281 -116.098L238.487 -100.879C239.578 -100.609 240.25 -99.4941 239.985 -98.3908C239.891 -98.0257 239.693 -97.7082 239.442 -97.457L250.766 -86.5139C251.251 -87.0241 251.992 -87.2705 252.734 -87.0867C253.383 -86.9254 253.883 -86.4652 254.124 -85.8942L269.26 -90.2351C269.217 -90.5062 269.229 -90.7834 269.3 -91.0541C269.529 -91.9858 270.364 -92.5973 271.283 -92.5941L275.118 -107.973C274.311 -108.405 273.862 -109.344 274.09 -110.276C274.135 -110.465 274.214 -110.638 274.311 -110.803L262.904 -121.816ZM259.143 -176.211C259.213 -175.907 259.215 -175.592 259.137 -175.261C258.867 -174.17 257.754 -173.498 256.663 -173.768L252.87 -158.549C253.96 -158.279 254.633 -157.165 254.363 -156.074C254.285 -155.743 254.115 -155.465 253.915 -155.233L265.238 -144.289C265.729 -144.745 266.417 -144.942 267.112 -144.77C267.713 -144.62 268.183 -144.205 268.443 -143.699L283.629 -148.058C283.604 -148.279 283.618 -148.514 283.678 -148.737C283.906 -149.669 284.741 -150.28 285.661 -150.277L289.496 -165.656C288.677 -166.084 288.228 -167.023 288.468 -167.959C288.524 -168.195 288.632 -168.407 288.762 -168.599L277.394 -179.583C276.916 -179.248 276.32 -179.113 275.706 -179.258C275.011 -179.431 274.491 -179.942 274.274 -180.564L259.143 -176.211ZM235.133 -151.434C235.158 -151.213 235.145 -150.978 235.089 -150.742C234.833 -149.729 233.863 -149.096 232.854 -149.224L229.047 -133.927C230 -133.563 230.549 -132.547 230.311 -131.525C230.228 -131.207 230.076 -130.921 229.871 -130.701L241.375 -119.581C241.862 -120.049 242.574 -120.256 243.282 -120.088C243.901 -119.93 244.375 -119.503 244.627 -118.979L259.8 -123.334C259.766 -123.58 259.775 -123.827 259.844 -124.068C260.072 -125 260.907 -125.611 261.826 -125.608L265.653 -140.969C264.846 -141.402 264.398 -142.341 264.626 -143.272C264.686 -143.496 264.781 -143.703 264.891 -143.873L253.506 -154.865C253.035 -154.547 252.452 -154.417 251.864 -154.572C251.186 -154.736 250.675 -155.222 250.451 -155.827L235.133 -151.434ZM219.943 -163.282C219.489 -162.998 218.926 -162.89 218.373 -163.029C217.724 -163.19 217.241 -163.642 217 -164.213L201.852 -159.868C201.89 -159.609 201.895 -159.324 201.824 -159.054C201.554 -157.963 200.44 -157.291 199.345 -157.574L195.552 -142.354C196.643 -142.084 197.315 -140.97 197.05 -139.866C196.956 -139.501 196.758 -139.184 196.507 -138.932L207.83 -127.989C208.315 -128.5 209.056 -128.746 209.799 -128.562C210.447 -128.401 210.948 -127.941 211.189 -127.37L226.325 -131.711C226.286 -131.969 226.298 -132.246 226.365 -132.53C226.593 -133.461 227.428 -134.073 228.36 -134.074L232.19 -149.465C231.371 -149.893 230.935 -150.837 231.163 -151.769C231.208 -151.958 231.287 -152.131 231.384 -152.296L219.943 -163.282ZM210.153 -196.459C209.672 -196.094 209.043 -195.932 208.412 -196.085C207.781 -196.239 207.302 -196.678 207.054 -197.232L191.918 -192.891C191.942 -192.671 191.929 -192.436 191.873 -192.2C191.618 -191.186 190.647 -190.553 189.638 -190.681L185.818 -175.38C186.771 -175.016 187.333 -174.004 187.083 -172.978C187 -172.66 186.843 -172.386 186.647 -172.141L198.283 -160.898C198.767 -161.451 199.541 -161.724 200.301 -161.532C200.902 -161.382 201.35 -160.988 201.622 -160.486L216.826 -164.838C216.801 -165.058 216.819 -165.281 216.875 -165.517C217.081 -166.354 217.793 -166.949 218.603 -167.048L222.399 -182.298C221.446 -182.662 220.896 -183.678 221.134 -184.699C221.214 -184.987 221.345 -185.252 221.521 -185.475L210.153 -196.459Z" fill="url(#paint0_linear_275_9736)"/>
<defs>
<linearGradient id="paint0_linear_275_9736" x1="85.9129" y1="-218.782" x2="207.42" y2="108.54" gradientUnits="userSpaceOnUse">
<stop stop-color="white"/>
<stop offset="1" stop-color="#2A62FE" stop-opacity="0"/>
</linearGradient>
</defs>
</svg>
