<svg width="32" height="33" viewBox="0 0 32 33" fill="none" xmlns="http://www.w3.org/2000/svg">
<path d="M14.6379 4.64675C15.174 3.48445 16.826 3.48445 17.3621 4.64675L19.5913 9.47959C19.9554 10.2691 20.7036 10.8127 21.567 10.9151L26.8522 11.5417C28.1233 11.6924 28.6338 13.2635 27.694 14.1326L23.7866 17.7461C23.1482 18.3364 22.8624 19.216 23.0319 20.0687L24.0691 25.2889C24.3186 26.5443 22.9821 27.5153 21.8652 26.8901L17.2211 24.2905C16.4624 23.8658 15.5376 23.8658 14.7789 24.2905L10.1348 26.8901C9.01787 27.5153 7.68143 26.5443 7.93089 25.2889L8.96812 20.0687C9.13756 19.216 8.85177 18.3364 8.21343 17.7461L4.30598 14.1326C3.36623 13.2635 3.87671 11.6924 5.1478 11.5417L10.433 10.9151C11.2964 10.8127 12.0446 10.2691 12.4087 9.47959L14.6379 4.64675Z" fill="url(#paint0_linear_778_29979)" stroke="url(#paint1_linear_778_29979)"/>
<defs>
<linearGradient id="paint0_linear_778_29979" x1="16" y1="0.5" x2="16" y2="27.5" gradientUnits="userSpaceOnUse">
<stop stop-color="#FEA92A"/>
<stop offset="1" stop-color="#FE762A"/>
</linearGradient>
<linearGradient id="paint1_linear_778_29979" x1="16" y1="3" x2="16" y2="32.5" gradientUnits="userSpaceOnUse">
<stop stop-color="#FFBD6A"/>
<stop offset="1" stop-color="#DE6716"/>
</linearGradient>
</defs>
</svg>
