<svg width="182" height="182" viewBox="0 0 182 182" fill="none" xmlns="http://www.w3.org/2000/svg">
<path fill-rule="evenodd" clip-rule="evenodd" d="M124.415 29.3131C122.663 23.6335 117.679 18.9583 109.967 18.9583C106.412 18.9583 103.438 19.701 101.055 21.1978C98.6453 22.711 97.1432 24.8047 96.2341 26.9692C94.7193 30.5759 94.7671 34.7442 94.7945 37.1384C94.7978 37.4245 94.8008 37.6852 94.8008 37.9166V163.038C94.8008 163.236 94.816 163.435 94.8454 163.625C95.1066 165.317 96.486 166.639 98.2048 166.814C98.3323 166.827 98.4616 166.833 98.5925 166.833C106.604 166.833 112.445 163.179 115.413 157.848L115.506 157.679C118.047 158.26 120.709 158.249 123.316 157.679C126.413 157.001 129.345 155.553 131.877 153.508C134.409 151.463 136.491 148.86 137.954 145.929C139.303 143.225 140.101 140.289 140.271 137.33C142.977 136.897 145.568 135.9 147.873 134.397C150.571 132.638 152.793 130.242 154.345 127.42C155.896 124.598 156.728 121.438 156.768 118.219C156.807 114.999 156.052 111.82 154.569 108.963C153.806 107.494 152.863 106.133 151.765 104.91C153.504 103.35 154.949 101.452 156.031 99.3305C157.391 96.663 158.149 93.6979 158.249 90.6903C158.35 87.6827 157.79 84.6914 156.591 81.9796C155.391 79.2664 153.578 76.8974 151.274 75.1191C150.261 74.3373 149.17 73.683 148.02 73.1674C149.563 70.3689 150.637 67.2732 151.201 64.0295C151.977 59.572 151.773 54.9365 150.616 50.5219C149.46 46.1073 147.376 42.0119 144.519 38.6057C141.661 35.1984 138.097 32.5656 134.111 30.9964C130.997 29.7702 127.712 29.2294 124.445 29.4114L124.415 29.3131ZM129.77 95.8057C132.786 95.8882 135.732 95.1633 138.324 93.6663C140.137 92.6189 140.758 90.2998 139.711 88.4865C138.664 86.6732 136.345 86.0523 134.531 87.0997C133.191 87.8739 131.635 88.2706 129.977 88.2252C128.313 88.1798 126.576 87.6885 124.93 86.7355C123.283 85.7817 121.801 84.4066 120.642 82.715C119.482 81.0235 118.702 79.0984 118.366 77.1237C118.015 75.0593 116.057 73.6705 113.992 74.0218C111.928 74.3731 110.539 76.3313 110.89 78.3957C111.413 81.4665 112.615 84.4182 114.387 87.0026C116.158 89.587 118.466 91.7551 121.13 93.298C123.796 94.8417 126.76 95.7234 129.77 95.8057ZM116.02 104.327C116.791 102.38 115.837 100.177 113.89 99.406C111.943 98.6353 109.74 99.5889 108.969 101.536C108.255 103.34 108.015 105.293 108.318 107.216C108.621 109.142 109.453 110.927 110.716 112.407C111.976 113.884 113.605 114.987 115.422 115.661C117.385 116.39 119.567 115.389 120.296 113.426C121.025 111.463 120.024 109.281 118.061 108.552C117.384 108.301 116.856 107.92 116.484 107.484C116.115 107.052 115.891 106.557 115.809 106.036C115.726 105.512 115.782 104.927 116.02 104.327ZM131.949 55.4596C130.989 54.0769 129.678 52.9776 128.123 52.2963C126.205 51.456 123.969 52.3297 123.129 54.2477C122.289 56.1658 123.162 58.4019 125.08 59.2423C125.312 59.3436 125.534 59.5168 125.719 59.7836C125.908 60.0551 126.062 60.4334 126.115 60.9111C126.167 61.3902 126.111 61.9292 125.923 62.4692C125.734 63.0092 125.431 63.4983 125.054 63.8889C124.677 64.2794 124.262 64.5349 123.872 64.6711C121.896 65.3629 120.854 67.5261 121.546 69.5026C122.238 71.479 124.401 72.5205 126.378 71.8286C127.949 71.2788 129.358 70.3483 130.508 69.158C131.658 67.9678 132.538 66.5302 133.083 64.9681C133.628 63.406 133.834 61.7324 133.653 60.0846C133.472 58.4352 132.906 56.8377 131.949 55.4596ZM111.209 138.286C111.98 136.339 111.026 134.136 109.079 133.365C107.132 132.594 104.929 133.548 104.158 135.495C103.444 137.299 103.204 139.252 103.507 141.175C103.811 143.101 104.642 144.886 105.905 146.366C107.165 147.843 108.795 148.946 110.611 149.62C112.574 150.349 114.756 149.348 115.485 147.385C116.214 145.422 115.213 143.24 113.25 142.511C112.574 142.26 112.045 141.879 111.673 141.443C111.305 141.011 111.08 140.516 110.998 139.995C110.916 139.471 110.972 138.887 111.209 138.286ZM117.545 129.041C117.456 126.949 119.08 125.181 121.173 125.092C122.962 125.016 124.614 124.538 125.994 123.746C127.371 122.956 128.439 121.878 129.147 120.633C129.853 119.389 130.204 117.973 130.154 116.491C130.084 114.398 131.723 112.644 133.816 112.574C135.909 112.504 137.663 114.143 137.733 116.236C137.829 119.096 137.149 121.899 135.741 124.378C134.333 126.856 132.267 128.889 129.768 130.323C127.273 131.755 124.426 132.544 121.494 132.669C119.402 132.757 117.634 131.133 117.545 129.041ZM114.775 42.8121C116.858 42.594 118.369 40.7288 118.151 38.6461C117.933 36.5634 116.068 35.0519 113.985 35.27C112.056 35.4721 110.213 36.1636 108.649 37.3225C107.082 38.4828 105.885 40.0462 105.158 41.851C104.432 43.6514 104.208 45.6063 104.451 47.5284C104.714 49.6059 106.611 51.0771 108.689 50.8144C110.766 50.5516 112.238 48.6545 111.975 46.577C111.884 45.861 111.977 45.2161 112.191 44.6848C112.404 44.1581 112.739 43.7302 113.163 43.4159C113.589 43.1003 114.133 42.8794 114.775 42.8121Z" fill="#32908B"/>
<path fill-rule="evenodd" clip-rule="evenodd" d="M30.7348 75.1191C31.7479 74.3373 32.8393 73.683 33.9885 73.1674C32.4459 70.3689 31.3718 67.2732 30.8075 64.0295C30.0321 59.572 30.2362 54.9365 31.3927 50.5219C32.5492 46.1073 34.6327 42.0119 37.4901 38.6057C40.3484 35.1984 43.9117 32.5656 47.8975 30.9964C51.0121 29.7702 54.2966 29.2294 57.5642 29.4114C59.2871 23.6946 64.2773 18.9583 72.0415 18.9583C75.5966 18.9583 78.5708 19.701 80.9541 21.1978C83.3637 22.711 84.8658 24.8047 85.7748 26.9692C87.2897 30.5759 87.2419 34.7442 87.2144 37.1384C87.2112 37.4235 87.2082 37.6859 87.2082 37.9166V163.034C87.2082 165.128 85.5107 166.833 83.4167 166.833C75.4049 166.833 69.5643 163.179 66.5955 157.848L66.5029 157.679C63.9621 158.26 61.3 158.249 58.6935 157.679C55.5967 157.001 52.6643 155.553 50.1325 153.508C47.6006 151.463 45.5183 148.86 44.0553 145.929C42.7064 143.225 41.9078 140.289 41.7385 137.33C39.0319 136.897 36.4408 135.9 34.1356 134.397C31.4383 132.638 29.2157 130.242 27.6644 127.42C26.113 124.598 25.2807 121.438 25.2414 118.219C25.2021 114.999 25.9571 111.82 27.44 108.963C28.2028 107.494 29.146 106.133 30.2436 104.91C28.5045 103.35 27.0596 101.452 25.9781 99.3305C24.6182 96.663 23.8598 93.6979 23.7595 90.6903C23.6592 87.6827 24.2191 84.6914 25.4183 81.9796C26.618 79.2664 28.4305 76.8974 30.7348 75.1191ZM59.885 94.2088C56.8812 94.4904 53.893 93.962 51.2079 92.6395C49.3293 91.7143 48.5565 89.4413 49.4817 87.5627C50.4069 85.6841 52.6799 84.9113 54.5585 85.8365C55.9472 86.5205 57.5258 86.8134 59.1771 86.6586C60.8341 86.5032 62.5352 85.8982 64.1144 84.8385C65.6948 83.7779 67.0826 82.3078 68.1278 80.5433C69.1729 78.7788 69.8241 76.8064 70.0288 74.8138C70.2335 72.8214 69.9827 70.9048 69.3456 69.2301C68.601 67.2729 69.584 65.0826 71.5412 64.338C73.4985 63.5934 75.6887 64.5764 76.4333 66.5336C77.5157 69.3786 77.8908 72.4901 77.5724 75.5889C77.2541 78.6875 76.2493 81.7122 74.6524 84.4081C73.0555 87.1039 70.8966 89.4198 68.3399 91.1354C65.782 92.852 62.8832 93.9277 59.885 94.2088ZM74.6499 135.974C76.744 135.972 78.4397 134.272 78.4375 132.178C78.4352 130.084 76.7358 128.388 74.6417 128.391C71.7069 128.394 68.83 129.065 66.2775 130.393C63.7212 131.722 61.5732 133.669 60.0648 136.086C58.5553 138.505 57.7602 141.278 57.7382 144.139C57.722 146.233 59.4064 147.944 61.5005 147.96C63.5945 147.976 65.3051 146.291 65.3213 144.197C65.3327 142.714 65.7411 141.314 66.4982 140.101C67.2565 138.886 68.3685 137.853 69.7768 137.121C71.1888 136.386 72.8585 135.976 74.6499 135.974ZM42.5182 107.456C42.5418 109.55 44.2584 111.228 46.3523 111.205C46.9981 111.198 47.5638 111.354 48.0235 111.619C48.4811 111.882 48.8632 112.268 49.1348 112.767C49.4087 113.27 49.5756 113.9 49.5683 114.621C49.547 116.715 51.2272 118.43 53.3212 118.451C55.4152 118.473 57.1299 116.792 57.1512 114.698C57.1709 112.761 56.723 110.845 55.7948 109.14C54.8643 107.432 53.4941 106.017 51.8044 105.045C50.1168 104.074 48.2065 103.6 46.2668 103.622C44.1729 103.646 42.4946 105.362 42.5182 107.456ZM75.1013 117.1C77.0144 116.248 77.8749 114.007 77.0233 112.094C76.1717 110.181 73.9304 109.32 72.0173 110.172C70.559 110.821 69.2844 111.835 68.3461 113.153C67.4064 114.473 66.8627 116.016 66.7523 117.624C66.6422 119.227 66.9673 120.814 67.6424 122.247C68.5349 124.141 70.794 124.954 72.6884 124.061C74.5828 123.169 75.3951 120.909 74.5026 119.015C74.3456 118.682 74.3015 118.381 74.3178 118.143C74.3338 117.909 74.4082 117.713 74.5236 117.551C74.6403 117.388 74.8251 117.223 75.1013 117.1ZM50.6432 50.9427C52.2732 50.5233 53.984 50.5479 55.6062 51.0483C57.6072 51.6656 58.729 53.7882 58.1116 55.7892C57.4943 57.7903 55.3718 58.912 53.3707 58.2947C53.1293 58.2202 52.8477 58.2058 52.5331 58.2868C52.2131 58.3692 51.8489 58.5545 51.4971 58.8818C51.1442 59.2102 50.8344 59.6548 50.6242 60.1867C50.414 60.7186 50.3238 61.2868 50.3542 61.8291C50.3846 62.3712 50.532 62.836 50.7376 63.1934C51.7816 65.0087 51.1563 67.3266 49.3411 68.3706C47.5258 69.4147 45.2079 68.7894 44.1639 66.9742C43.3341 65.5314 42.8754 63.9062 42.7827 62.2537C42.6901 60.6014 42.9636 58.9382 43.5717 57.3995C44.1798 55.8608 45.1176 54.4595 46.3312 53.3302C47.5459 52.1999 49.0186 51.3608 50.6432 50.9427ZM68.5842 42.5768C66.5015 42.3586 64.99 40.4934 65.2081 38.4108C65.4263 36.3281 67.2915 34.8166 69.3741 35.0347C71.0343 35.2086 72.6274 35.8046 73.9834 36.8092C75.3414 37.8152 76.3788 39.1702 77.0077 40.731C77.6347 42.2874 77.8253 43.9703 77.6172 45.6163C77.3545 47.6938 75.4573 49.165 73.3798 48.9023C71.3022 48.6396 69.831 46.7424 70.0938 44.6649C70.1494 44.225 70.0894 43.8521 69.9737 43.5649C69.8598 43.2821 69.6852 43.0626 69.4693 42.9026C69.2515 42.7413 68.9574 42.6159 68.5842 42.5768Z" fill="#32908B"/>
</svg>
