<svg width="182" height="182" viewBox="0 0 182 182" fill="none" xmlns="http://www.w3.org/2000/svg">
<path fill-rule="evenodd" clip-rule="evenodd" d="M121.333 37.9167C119.239 37.9167 117.541 39.6143 117.541 41.7084V53.3043C116.904 53.5296 116.282 53.8134 115.684 54.1557L90.9735 67.73L65.513 54.1432C65.1686 53.9471 64.8164 53.7704 64.458 53.6131V41.7084C64.458 39.6143 62.7604 37.9167 60.6664 37.9167C58.5723 37.9167 56.8747 39.6143 56.8747 41.7084V53.0595C55.9502 53.3132 55.0504 53.686 54.1984 54.1779L32.2287 66.8621C31.5718 67.2413 30.962 67.6807 30.4046 68.1709L24.5935 64.9369C22.7637 63.9186 20.4548 64.5764 19.4365 66.4062C18.4182 68.236 19.076 70.5449 20.9059 71.5632L26.7047 74.7904C26.5968 75.4196 26.5412 76.0625 26.5412 76.7132V102.082C26.5412 102.566 26.572 103.046 26.6323 103.519L20.9331 106.63C19.095 107.634 18.4182 109.937 19.4215 111.775C20.4248 113.613 22.7282 114.29 24.5663 113.287L30.0466 110.295C30.6976 110.919 31.4282 111.471 32.2287 111.933L54.1984 124.617C55.0504 125.109 55.9502 125.482 56.8747 125.735V136.5C56.8747 138.594 58.5723 140.292 60.6664 140.292C62.7604 140.292 64.458 138.594 64.458 136.5V125.182C64.8269 125.02 65.1892 124.837 65.5432 124.634L90.9727 110.518L115.646 124.617C115.649 124.619 115.652 124.62 115.654 124.622C116.262 124.972 116.894 125.262 117.541 125.491V136.5C117.541 138.594 119.239 140.292 121.333 140.292C123.427 140.292 125.125 138.594 125.125 136.5V125.491C125.776 125.26 126.41 124.969 127.021 124.617L148.99 111.933C149.95 111.379 150.809 110.696 151.552 109.914L157.363 113.248C159.18 114.289 161.497 113.661 162.539 111.845C163.581 110.028 162.953 107.711 161.136 106.669L154.645 102.947C154.667 102.66 154.678 102.372 154.678 102.082V76.7132C154.678 76.2524 154.65 75.7955 154.595 75.3446L161.156 71.5275C162.966 70.4744 163.58 68.1534 162.527 66.3434C161.474 64.5333 159.153 63.9197 157.343 64.9727L151.213 68.5388C150.552 67.8988 149.808 67.334 148.99 66.8621L127.021 54.1779C126.41 53.8256 125.776 53.5344 125.125 53.3042V41.7084C125.125 39.6143 123.427 37.9167 121.333 37.9167ZM87.208 103.935L61.7815 118.049C61.3111 118.321 60.7987 118.484 60.2765 118.537C59.4935 118.618 58.6931 118.455 57.9901 118.05L36.0204 105.365C35.3542 104.981 34.8334 104.411 34.507 103.741C34.2592 103.232 34.1245 102.667 34.1245 102.082V76.7132C34.1245 76.0528 34.2958 75.418 34.6078 74.8607C34.9362 74.2743 35.4188 73.7768 36.0204 73.4295L57.9901 60.7452C58.6931 60.3393 59.4935 60.1764 60.2765 60.2574C60.7987 60.3113 61.3114 60.4736 61.7818 60.7452L61.8366 60.7769L87.208 74.3161V103.935ZM94.7914 74.285L119.438 60.746C120.024 60.4072 120.678 60.2372 121.333 60.2372C121.988 60.2372 122.642 60.4065 123.229 60.7452L145.199 73.4295C145.887 73.8266 146.419 74.4207 146.743 75.1193C146.971 75.6108 147.094 76.1525 147.094 76.7132V102.082C147.094 102.566 147.003 103.035 146.831 103.47C146.521 104.257 145.953 104.93 145.199 105.365L123.229 118.05C122.642 118.388 121.988 118.558 121.333 118.558C120.678 118.558 120.024 118.388 119.437 118.05L119.423 118.041L94.7914 103.966V74.285Z" fill="#32908B"/>
<path d="M60.667 22.75C54.3848 22.75 49.292 27.8428 49.292 34.125C49.292 40.4072 54.3848 45.5 60.667 45.5C66.9492 45.5 72.042 40.4072 72.042 34.125C72.042 27.8428 66.9492 22.75 60.667 22.75Z" fill="#32908B"/>
<path d="M60.667 132.708C54.3848 132.708 49.292 137.801 49.292 144.083C49.292 150.366 54.3848 155.458 60.667 155.458C66.9492 155.458 72.042 150.366 72.042 144.083C72.042 137.801 66.9492 132.708 60.667 132.708Z" fill="#32908B"/>
<path d="M121.333 22.75C115.051 22.75 109.958 27.8428 109.958 34.125C109.958 40.4072 115.051 45.5 121.333 45.5C127.615 45.5 132.708 40.4072 132.708 34.125C132.708 27.8428 127.615 22.75 121.333 22.75Z" fill="#32908B"/>
<path d="M121.333 132.708C115.051 132.708 109.958 137.801 109.958 144.083C109.958 150.366 115.051 155.458 121.333 155.458C127.615 155.458 132.708 150.366 132.708 144.083C132.708 137.801 127.615 132.708 121.333 132.708Z" fill="#32908B"/>
</svg>
