<svg width="182" height="182" viewBox="0 0 182 182" fill="none" xmlns="http://www.w3.org/2000/svg">
<path d="M124.063 88.4491C129.648 82.8648 130.149 74.2207 125.378 68.6776C125.017 68.259 125.014 67.6275 125.404 67.237L147.512 45.1289C147.711 44.9302 147.707 44.6069 147.503 44.4132L134.652 32.1832C134.456 31.9961 134.146 32 133.954 32.1918L112.157 53.9894C111.766 54.3799 111.135 54.376 110.716 54.0157C105.173 49.2442 96.5287 49.7457 90.9444 55.3301C85.1071 61.1674 84.8235 70.3478 90.3108 75.8351C92.7967 78.321 96.0404 79.6225 99.388 79.7598C99.5212 79.7653 99.6282 79.8724 99.6337 80.0056C99.7711 83.3531 101.073 86.5969 103.558 89.0827C109.046 94.5701 118.226 94.2864 124.063 88.4491Z" fill="#32908B"/>
<path d="M55.2682 91.0063C49.6924 96.5821 49.1979 105.219 53.9701 110.762C54.3304 111.18 54.3343 111.812 53.9438 112.202L32.25 133.896C32.0587 134.087 32.0542 134.396 32.2398 134.593L44.413 147.5C44.6064 147.705 44.931 147.71 45.1303 147.511L67.1914 125.45C67.5819 125.059 68.2134 125.063 68.6319 125.424C74.1744 130.196 82.8115 129.701 88.3873 124.125C94.2156 118.297 94.492 109.124 89.0046 103.637C86.5187 101.151 83.2764 99.8477 79.9312 99.7079C79.7982 99.7023 79.6913 99.5954 79.6857 99.4623C79.5459 96.1172 78.2429 92.8749 75.757 90.389C70.2697 84.9016 61.0965 85.178 55.2682 91.0063Z" fill="#32908B"/>
<path fill-rule="evenodd" clip-rule="evenodd" d="M57.9856 57.9856C59.4663 56.5048 61.867 56.5048 63.3478 57.9856L67.1394 61.7772C68.6202 63.258 68.6202 65.6587 67.1394 67.1394C65.6587 68.6202 63.258 68.6202 61.7772 67.1394L57.9856 63.3478C56.5048 61.867 56.5048 59.4663 57.9856 57.9856Z" fill="#32908B"/>
<path fill-rule="evenodd" clip-rule="evenodd" d="M75.833 53.0835C77.9271 53.0835 79.6247 54.7811 79.6247 56.8752L79.6247 60.6668C79.6247 62.7609 77.9271 64.4585 75.833 64.4585C73.7389 64.4585 72.0413 62.7609 72.0413 60.6668L72.0413 56.8752C72.0413 54.7811 73.7389 53.0835 75.833 53.0835Z" fill="#32908B"/>
<path fill-rule="evenodd" clip-rule="evenodd" d="M53.083 75.8334C53.083 73.7393 54.7806 72.0417 56.8747 72.0417L60.6664 72.0417C62.7605 72.0417 64.458 73.7393 64.458 75.8334C64.458 77.9275 62.7605 79.6251 60.6664 79.6251L56.8747 79.6251C54.7806 79.6251 53.083 77.9275 53.083 75.8334Z" fill="#32908B"/>
<path fill-rule="evenodd" clip-rule="evenodd" d="M124.014 124.014C122.534 125.495 120.133 125.495 118.652 124.014L114.861 120.223C113.38 118.742 113.38 116.341 114.861 114.861C116.341 113.38 118.742 113.38 120.223 114.861L124.014 118.652C125.495 120.133 125.495 122.534 124.014 124.014Z" fill="#32908B"/>
<path fill-rule="evenodd" clip-rule="evenodd" d="M106.166 128.917C104.072 128.917 102.374 127.219 102.374 125.125L102.374 121.333C102.374 119.239 104.072 117.542 106.166 117.542C108.26 117.542 109.958 119.239 109.958 121.333L109.958 125.125C109.958 127.219 108.26 128.917 106.166 128.917Z" fill="#32908B"/>
<path fill-rule="evenodd" clip-rule="evenodd" d="M128.916 106.167C128.916 108.261 127.218 109.958 125.124 109.958L121.333 109.958C119.239 109.958 117.541 108.261 117.541 106.167C117.541 104.073 119.239 102.375 121.333 102.375L125.124 102.375C127.218 102.375 128.916 104.073 128.916 106.167Z" fill="#32908B"/>
</svg>
