<svg width="182" height="182" viewBox="0 0 182 182" fill="none" xmlns="http://www.w3.org/2000/svg">
<path fill-rule="evenodd" clip-rule="evenodd" d="M53.0742 25.4113C56.6185 23.3818 60.8125 23.5006 64.2332 25.1693C80.983 33.3404 101.041 33.3489 117.798 25.1922C121.257 23.5084 125.503 23.4103 129.064 25.5016L155.351 40.9399C157.737 42.3805 159.24 45.0202 159.249 47.8136L159.249 47.8248C159.261 92.977 134.451 135.597 95.3539 158.088C92.6858 159.621 89.3142 159.622 86.6461 158.088C47.4244 135.526 22.5919 92.7126 22.7498 47.418C22.7588 44.6246 24.2619 41.9852 26.6483 40.5445L26.7232 40.4993L53.0742 25.4113ZM81.0468 66.8282C81.0468 63.7365 81.0468 62.1907 81.5519 60.9713C82.2254 59.3454 83.5171 58.0537 85.143 57.3802C86.3624 56.8751 87.9082 56.8751 90.9999 56.8751C94.0917 56.8751 95.6375 56.8751 96.8569 57.3802C98.4828 58.0537 99.7745 59.3454 100.448 60.9713C100.953 62.1907 100.953 63.7365 100.953 66.8282V73.1452C100.953 73.2953 100.953 73.3704 101 73.417C101.046 73.4637 101.121 73.4637 101.272 73.4637H107.588C110.68 73.4637 112.226 73.4637 113.445 73.9688C115.071 74.6422 116.363 75.934 117.037 77.5598C117.542 78.7792 117.542 80.3251 117.542 83.4168C117.542 86.5085 117.542 88.0544 117.037 89.2738C116.363 90.8996 115.071 92.1914 113.445 92.8648C112.226 93.3699 110.68 93.3699 107.588 93.3699H101.272C101.121 93.3699 101.046 93.3699 101 93.4166C100.953 93.4632 100.953 93.5383 100.953 93.6884V100.005C100.953 103.097 100.953 104.643 100.448 105.862C99.7745 107.488 98.4828 108.78 96.8569 109.453C95.6375 109.958 94.0917 109.958 90.9999 109.958C87.9082 109.958 86.3624 109.958 85.143 109.453C83.5171 108.78 82.2254 107.488 81.5519 105.862C81.0468 104.643 81.0468 103.097 81.0468 100.005V93.6884C81.0468 93.5383 81.0468 93.4632 81.0002 93.4166C80.9535 93.3699 80.8785 93.3699 80.7283 93.3699H74.4114C71.3197 93.3699 69.7738 93.3699 68.5544 92.8648C66.9286 92.1914 65.6368 90.8996 64.9634 89.2738C64.4583 88.0544 64.4583 86.5085 64.4583 83.4168C64.4583 80.3251 64.4583 78.7792 64.9634 77.5598C65.6368 75.934 66.9286 74.6422 68.5544 73.9688C69.7738 73.4637 71.3197 73.4637 74.4114 73.4637H80.7283C80.8785 73.4637 80.9535 73.4637 81.0002 73.417C81.0468 73.3704 81.0468 73.2953 81.0468 73.1452V66.8282Z" fill="#32908B"/>
</svg>
