<svg width="360" height="347" viewBox="0 0 360 347" fill="none" xmlns="http://www.w3.org/2000/svg">
<path opacity="0.8" d="M-253.445 187.081L-231.181 208.889C-231.874 209.857 -232.157 211.104 -231.812 212.312C-231.221 214.444 -228.99 215.706 -226.857 215.115C-224.876 214.557 -223.683 212.612 -223.991 210.633L-194.423 202.378C-194.391 202.529 -194.391 202.697 -194.334 202.857C-193.742 204.988 -191.511 206.25 -189.354 205.668C-188.64 205.463 -188.035 205.081 -187.554 204.572L-165.415 226.254C-166.393 227.237 -166.837 228.709 -166.426 230.136C-166.048 231.495 -165.039 232.482 -163.776 232.883L-171.575 263.252C-172.061 263.199 -172.547 263.23 -173.042 263.369C-174.864 263.87 -176.03 265.572 -175.965 267.357L-205.994 275.734C-206.882 274.145 -208.764 273.338 -210.585 273.839C-212.718 274.429 -213.979 276.659 -213.388 278.791C-213.059 279.966 -212.243 280.859 -211.206 281.351L-218.929 311.494C-219.364 311.458 -219.825 311.497 -220.287 311.62C-222.445 312.202 -223.681 314.441 -223.09 316.572C-222.473 318.713 -220.267 319.966 -218.11 319.384C-217.489 319.203 -216.959 318.879 -216.512 318.471L-194.348 340.161C-195.183 341.137 -195.543 342.526 -195.181 343.852C-194.59 345.983 -192.359 347.245 -190.202 346.663C-188.069 346.072 -186.808 343.842 -187.399 341.711L-157.58 333.374C-156.989 335.506 -154.758 336.768 -152.6 336.186C-150.468 335.595 -149.207 333.365 -149.823 331.225C-150.201 329.865 -151.235 328.87 -152.498 328.469L-144.793 298.46C-144.19 298.581 -143.57 298.568 -142.949 298.387C-140.816 297.796 -139.555 295.566 -140.146 293.435L-110.36 285.115C-109.744 287.255 -107.538 288.508 -105.406 287.918C-104.692 287.712 -104.087 287.331 -103.606 286.822L-81.4414 308.512C-82.4193 309.495 -82.8634 310.967 -82.4524 312.394C-81.861 314.526 -79.6301 315.788 -77.4727 315.205C-75.3404 314.615 -74.0789 312.385 -74.6869 310.22L-44.876 301.908C-44.2595 304.049 -42.0538 305.302 -39.8964 304.72C-37.764 304.129 -36.5026 301.899 -37.094 299.768C-37.4473 298.5 -38.3891 297.565 -39.518 297.097L-31.8044 267.062C-31.2935 267.124 -30.7485 267.086 -30.203 266.963C-28.0707 266.372 -26.8092 264.143 -27.4006 262.011L3.03151 253.519C3.80051 255.375 5.84809 256.435 7.82936 255.877C8.35828 255.721 8.86264 255.472 9.25853 255.131L31.4397 276.855C30.7218 277.814 30.396 279.102 30.7492 280.37C31.3407 282.502 33.5715 283.763 35.7289 283.181C37.7102 282.623 38.903 280.678 38.5957 278.699L68.4988 270.363C69.2679 272.219 71.3154 273.278 73.2967 272.72C75.429 272.13 76.6905 269.9 76.0991 267.768C75.7458 266.501 74.8125 265.54 73.65 265.089L81.3635 235.055C81.8995 235.125 82.4446 235.086 82.9735 234.93C84.9548 234.372 86.1476 232.427 85.8403 230.448L116.088 222.005C116.857 223.861 118.904 224.921 120.886 224.362C123.043 223.78 124.279 221.542 123.688 219.41C123.31 218.051 122.276 217.056 121.038 216.663L128.829 186.235C129.365 186.305 129.91 186.267 130.464 186.119C132.446 185.561 133.639 183.616 133.331 181.637L163.243 173.276C164.012 175.132 166.043 176.158 168.041 175.633C170.182 175.018 171.435 172.813 170.827 170.648C170.457 169.347 169.498 168.378 168.327 167.952L176.041 137.917C176.602 137.996 177.163 137.991 177.726 137.818C179.707 137.26 180.9 135.315 180.593 133.336L210.563 124.967C211.332 126.823 213.355 127.874 215.361 127.324C215.949 127.16 216.437 126.878 216.875 126.495L239.331 148.481C238.437 149.464 238.035 150.894 238.404 152.279C238.774 153.58 239.732 154.549 240.904 154.975L233.19 185.01C232.629 184.931 232.042 184.927 231.48 185.1C229.347 185.691 228.086 187.92 228.677 190.052C229.269 192.184 231.499 193.446 233.657 192.863C234.244 192.699 234.732 192.417 235.17 192.034L257.335 213.725C256.525 214.708 256.215 216.031 256.585 217.331C257.177 219.463 259.407 220.725 261.54 220.134C263.521 219.576 264.714 217.631 264.407 215.652L294.318 207.291C295.087 209.147 297.11 210.198 299.116 209.648C301.257 209.033 302.51 206.828 301.927 204.671C301.59 203.437 300.699 202.519 299.595 202.06L307.325 171.975C307.811 172.028 308.323 172.006 308.818 171.867C310.799 171.309 311.992 169.363 311.685 167.384L341.806 158.983C342.575 160.839 344.631 161.873 346.604 161.34C348.737 160.75 349.998 158.52 349.407 156.388C349.053 155.121 348.12 154.16 346.983 153.718L354.696 123.683C355.207 123.745 355.777 123.715 356.306 123.559C358.438 122.968 359.7 120.738 359.108 118.607C358.517 116.475 356.286 115.213 354.154 115.804C353.6 115.951 353.121 116.208 352.725 116.549L330.294 94.5729C331.162 93.581 331.522 92.1922 331.144 90.8326C330.791 89.5653 329.858 88.6045 328.695 88.1536L336.409 58.119C336.945 58.1892 337.49 58.1505 338.019 57.9944C340.151 57.4038 341.413 55.1741 340.821 53.0424C340.23 50.9106 337.999 49.649 335.867 50.2396C335.338 50.3957 334.834 50.6441 334.438 50.9853L312.231 29.253C312.949 28.2937 313.241 27.0218 312.913 25.763C312.322 23.6313 310.091 22.3697 307.934 22.9518C305.952 23.5098 304.76 25.4551 305.067 27.4343L275.222 35.7622C274.453 33.9059 272.431 32.855 270.45 33.413C269.954 33.5525 269.542 33.7764 269.163 34.0673L246.457 11.8294C247.435 10.8465 247.879 9.37441 247.468 7.94758C247.09 6.58797 246.057 5.59319 244.818 5.20045L252.498 -24.7338C253.059 -24.6551 253.62 -24.6602 254.183 -24.8328C256.164 -25.3908 257.357 -27.336 257.075 -29.3068L286.987 -37.6677C287.756 -35.8115 289.778 -34.7605 291.784 -35.31C293.917 -35.9007 295.178 -38.1304 294.595 -40.2872C294.242 -41.5545 293.3 -42.4902 292.163 -42.9327L299.876 -72.9672C300.412 -72.897 300.957 -72.9356 301.486 -73.0917C303.619 -73.6824 304.88 -75.912 304.289 -78.0438C303.672 -80.1841 301.467 -81.4372 299.309 -80.8551C298.78 -80.6991 298.276 -80.4506 297.88 -80.1094L275.674 -101.842C276.392 -102.801 276.692 -104.098 276.33 -105.34C275.944 -106.675 274.935 -107.661 273.706 -108.079L281.625 -138.967C282.061 -138.931 282.522 -138.97 282.984 -139.093C285.116 -139.684 286.378 -141.913 285.761 -144.054C285.17 -146.185 282.939 -147.447 280.807 -146.856C280.185 -146.676 279.655 -146.352 279.209 -145.944L257.069 -167.626C257.938 -168.618 258.298 -170.006 257.92 -171.366C257.567 -172.633 256.634 -173.594 255.496 -174.036L263.21 -204.071C263.746 -204.001 264.291 -204.039 264.82 -204.195C266.952 -204.786 268.214 -207.016 267.622 -209.148C267.006 -211.288 264.8 -212.541 262.668 -211.95C262.139 -211.794 261.634 -211.546 261.238 -211.205L239.032 -232.937C239.75 -233.896 240.042 -235.168 239.714 -236.427C239.123 -238.559 236.892 -239.82 234.76 -239.23C232.778 -238.672 231.585 -236.726 231.893 -234.747L202.023 -226.428C201.254 -228.284 199.223 -229.31 197.25 -228.777C195.118 -228.186 193.857 -225.957 194.448 -223.825C194.801 -222.557 195.718 -221.63 196.855 -221.188L189.133 -191.128C188.597 -191.198 188.052 -191.16 187.523 -191.004C185.542 -190.446 184.349 -188.501 184.632 -186.53L154.267 -178.071C153.498 -179.927 151.475 -180.978 149.469 -180.429C147.336 -179.838 146.075 -177.608 146.666 -175.477C147.061 -174.083 148.12 -173.08 149.417 -172.695L141.626 -142.351C141.115 -142.413 140.57 -142.374 140.05 -142.243C138.068 -141.685 136.875 -139.74 137.183 -137.761L107.313 -129.441C106.544 -131.298 104.522 -132.348 102.515 -131.799C100.383 -131.208 99.1216 -128.979 99.713 -126.847C100.066 -125.58 100.983 -124.652 102.112 -124.185L94.3899 -94.1253C93.8789 -94.1869 93.3088 -94.1568 92.7799 -94.0007C90.6476 -93.4101 89.3861 -91.1804 89.9775 -89.0486C90.5689 -86.9169 92.7997 -85.6552 94.932 -86.2459C95.461 -86.4019 95.9653 -86.6503 96.3612 -86.9915L118.542 -65.2678C117.791 -64.2919 117.499 -63.0201 117.852 -61.7528C118.435 -59.5959 120.674 -58.3594 122.806 -58.95C124.788 -59.5081 125.981 -61.4533 125.673 -63.4326L155.585 -71.7936C156.354 -69.9373 158.376 -68.8863 160.383 -69.4359C160.971 -69.6 161.492 -69.8985 161.93 -70.2813L184.011 -48.6755C183.117 -47.6921 182.715 -46.2617 183.109 -44.8685C183.529 -43.3829 184.696 -42.3705 186.094 -42.0355L178.235 -11.4069C177.632 -11.5278 176.987 -11.5232 176.365 -11.3425C174.292 -10.7599 173.081 -8.68076 173.522 -6.60017L143.711 1.71121C143.027 -0.312161 140.896 -1.45588 138.823 -0.873255C136.682 -0.257531 135.429 1.94709 136.02 4.07882C136.398 5.43844 137.457 6.44178 138.72 6.84307L131.015 36.8526C130.413 36.7317 129.767 36.7363 129.121 36.9084C127.047 37.491 125.828 39.5953 126.278 41.6508L96.5841 49.946C95.8151 48.0897 93.7841 47.0639 91.7862 47.5883C89.6539 48.179 88.3924 50.4087 88.9839 52.5404C89.3456 53.7826 90.2373 54.7012 91.3411 55.1602L83.6958 84.994C83.1597 84.9238 82.5981 84.9289 82.0356 85.1015C79.9033 85.6922 78.6418 87.9219 79.2332 90.0536C79.8497 92.1939 82.0555 93.447 84.2129 92.8649C84.6746 92.742 85.1116 92.5267 85.4905 92.2357L108.164 114.406C107.353 115.39 107.002 116.754 107.372 118.055C107.709 119.289 108.625 120.216 109.729 120.675L101.999 150.759C101.488 150.698 100.976 150.72 100.447 150.876C98.3149 151.467 97.0534 153.696 97.6449 155.828L63.3847 165.37L54.6081 199.604C54.0469 199.526 53.4853 199.531 52.8976 199.695C50.9164 200.253 49.7236 202.198 50.0058 204.169L20.1613 212.497C19.3923 210.64 17.3613 209.615 15.38 210.173C14.7673 210.328 14.2374 210.652 13.7994 211.035L-8.72368 188.999C-7.85474 188.007 -7.49483 186.618 -7.87271 185.259C-8.22594 183.991 -9.1593 183.031 -10.2967 182.588L-2.58325 152.554C-2.04721 152.624 -1.50216 152.585 -0.973239 152.429C1.15909 151.838 2.42065 149.609 1.80412 147.468L31.8332 139.091C32.6023 140.948 34.6247 141.998 36.606 141.44C38.7383 140.85 39.9998 138.62 39.4169 136.463C39.0637 135.196 38.1469 134.269 37.0094 133.826L44.7144 103.817C45.2003 103.87 45.6866 103.839 46.207 103.708C48.3479 103.093 49.6009 100.888 48.9929 98.7228C48.4014 96.591 46.1706 95.3293 44.0383 95.92C43.5429 96.0595 43.0974 96.2999 42.7186 96.5909L20.3039 74.648C21.1728 73.656 21.5327 72.2673 21.1549 70.9076C20.8016 69.6403 19.8683 68.6796 18.7308 68.2372L26.4444 38.2027C26.9804 38.2729 27.5255 38.2341 28.0544 38.0781C30.0357 37.52 31.2285 35.5748 30.9463 33.6041L61.1937 25.1613C61.9627 27.0176 64.0103 28.0771 65.9915 27.519C68.1239 26.9283 69.3854 24.6986 68.7939 22.5669C68.416 21.2073 67.3823 20.2125 66.1441 19.8197L73.7974 -9.95548C74.2331 -9.9194 74.6693 -9.96703 75.1309 -10.09C77.2883 -10.6721 78.5247 -12.9104 77.9333 -15.0421C77.3419 -17.1738 75.111 -18.4355 72.9787 -17.8449C72.5421 -17.7134 72.1387 -17.5147 71.7769 -17.2738L49.8041 -38.7868C50.648 -39.7873 51.0329 -41.1675 50.6465 -42.5021C50.0551 -44.6338 47.8243 -45.8955 45.692 -45.3048C43.7107 -44.7468 42.4928 -42.8101 42.8001 -40.8309L12.2505 -32.3228C11.4815 -34.1791 9.45901 -35.23 7.47774 -34.672C7.10837 -34.5736 6.77215 -34.408 6.47762 -34.2003L-16.1037 -56.3118C-15.4781 -57.2465 -15.2115 -58.4431 -15.5567 -59.6517C-15.9099 -60.919 -16.8433 -61.8797 -17.9892 -62.2971L-10.2757 -92.3316C-9.76477 -92.27 -9.21975 -92.3086 -8.67424 -92.4311C-6.54191 -93.0218 -5.2804 -95.2515 -5.88841 -97.4168L23.9897 -105.761C24.7587 -103.905 26.7897 -102.879 28.7875 -103.404C30.9198 -103.994 32.1813 -106.224 31.5899 -108.356C31.2613 -109.531 30.4615 -110.39 29.4586 -110.899L37.335 -141.578C37.729 -141.584 38.148 -141.581 38.551 -141.696C40.6833 -142.287 41.9448 -144.516 41.3283 -146.657C40.7369 -148.788 38.506 -150.05 36.3737 -149.459C35.786 -149.295 35.2983 -149.013 34.8688 -148.655L12.8709 -170.177C13.4714 -171.12 13.7043 -172.3 13.3923 -173.442C12.8008 -175.573 10.57 -176.835 8.43771 -176.244C6.45645 -175.686 5.22997 -173.725 5.56238 -171.737L-23.5348 -163.631C-24.3039 -165.487 -26.3263 -166.538 -28.3327 -165.988C-30.4735 -165.373 -31.7265 -163.168 -31.1351 -161.036C-30.8145 -159.92 -30.0734 -159.053 -29.1207 -158.561L-37.0657 -127.598C-37.6269 -127.677 -38.2136 -127.68 -38.7761 -127.507C-40.5978 -127.007 -41.7556 -125.33 -41.6988 -123.52L-71.728 -115.142C-72.6244 -116.706 -74.4887 -117.564 -76.3189 -117.038C-78.4512 -116.447 -79.7127 -114.218 -79.1213 -112.086C-78.768 -110.819 -77.8347 -109.858 -76.6972 -109.416L-84.4193 -79.3559C-84.9553 -79.4261 -85.5004 -79.3874 -86.0544 -79.2399C-88.0357 -78.6818 -89.2536 -76.7452 -88.9212 -74.7574L-118.824 -66.4215C-119.593 -68.2777 -121.616 -69.3287 -123.597 -68.7707C-124.059 -68.6478 -124.471 -68.4239 -124.833 -68.1831L-147.206 -90.0839C-146.513 -91.0517 -146.229 -92.2985 -146.566 -93.5322C-147.157 -95.6639 -149.388 -96.9256 -151.52 -96.3349C-153.434 -95.81 -154.61 -93.9988 -154.444 -92.0958L-184.6 -83.6775C-185.369 -85.5338 -187.4 -86.5596 -189.397 -86.0352C-189.951 -85.8877 -190.431 -85.6308 -190.827 -85.2896L-213.008 -107.013C-212.29 -107.973 -211.998 -109.244 -212.326 -110.503C-212.942 -112.644 -215.148 -113.897 -217.28 -113.306C-219.262 -112.748 -220.454 -110.803 -220.147 -108.823L-250.017 -100.504C-250.786 -102.36 -252.808 -103.411 -254.789 -102.853C-256.93 -102.238 -258.183 -100.033 -257.592 -97.9013C-257.239 -96.6339 -256.322 -95.7068 -255.193 -95.2393L-262.915 -65.1796C-263.426 -65.2413 -263.996 -65.2112 -264.525 -65.0551C-266.506 -64.4971 -267.699 -62.5519 -267.392 -60.5726L-297.79 -52.0972C-298.559 -53.9534 -300.59 -54.9793 -302.563 -54.4463C-304.695 -53.8557 -305.957 -51.626 -305.365 -49.4943C-304.971 -48.101 -303.887 -47.0891 -302.59 -46.7044L-310.243 -16.9293C-310.729 -16.9824 -311.274 -16.9437 -311.77 -16.8042C-313.902 -16.2136 -315.163 -13.9839 -314.572 -11.8521C-313.981 -9.72039 -311.75 -8.45874 -309.617 -9.04938C-309.097 -9.18036 -308.643 -9.4458 -308.239 -9.7283L-286.266 11.7847C-287.194 12.7847 -287.587 14.19 -287.201 15.6083C-286.61 17.7401 -284.379 19.0017 -282.247 18.4111C-280.266 17.853 -279.073 15.9078 -279.38 13.9286L-248.982 5.45311C-248.213 7.30939 -246.19 8.36036 -244.184 7.81085C-243.722 7.6879 -243.335 7.4556 -242.948 7.22326L-220.425 29.259C-221.177 30.2349 -221.469 31.5067 -221.116 32.7741C-220.524 34.9058 -218.293 36.1675 -216.136 35.5853C-214.155 35.0273 -212.962 33.0821 -213.269 31.1028L-183.173 22.6926C-182.404 24.5489 -180.381 25.5999 -178.375 25.0503C-177.846 24.8943 -177.342 24.6459 -176.946 24.3047L-154.765 46.0284C-155.491 47.0128 -155.808 48.2762 -155.455 49.5434C-154.864 51.6752 -152.633 52.9369 -150.5 52.3462C-148.519 51.7881 -147.326 49.8429 -147.634 47.8637L-117.722 39.5026C-116.953 41.359 -114.93 42.4099 -112.949 41.8519C-112.488 41.7289 -112.05 41.5136 -111.672 41.2226L-89.1581 63.451C-89.8845 64.4354 -90.2017 65.6988 -89.8485 66.9661C-89.2571 69.0978 -87.0263 70.3595 -84.8939 69.7688C-82.9127 69.2108 -81.6947 67.2741 -82.0271 65.2863L-51.9392 56.9012C-51.1702 58.7575 -49.1478 59.8084 -47.1414 59.2589C-46.6125 59.1028 -46.1081 58.8544 -45.7123 58.5133L-23.5311 80.237C-24.2575 81.2214 -24.5747 82.4847 -24.2215 83.752C-23.8436 85.1116 -22.835 86.0979 -21.5968 86.4907L-29.5418 117.454C-30.0528 117.392 -30.5978 117.431 -31.1182 117.562C-33.0995 118.12 -34.3174 120.057 -34.0101 122.036L-63.8546 130.364C-64.6236 128.508 -66.6546 127.482 -68.6524 128.006C-70.7847 128.597 -72.0462 130.826 -71.4548 132.958C-71.1016 134.225 -70.1848 135.153 -69.0474 135.595L-76.7694 165.655C-77.2804 165.593 -77.8254 165.632 -78.3794 165.779C-80.3607 166.337 -81.5786 168.274 -81.2713 170.253L-111.821 178.761C-112.717 177.197 -114.59 176.365 -116.387 176.874C-116.756 176.972 -117.092 177.138 -117.403 177.312L-139.735 155.454C-139.235 154.56 -139.053 153.447 -139.357 152.364C-139.948 150.232 -142.179 148.971 -144.311 149.561C-146.133 150.062 -147.291 151.739 -147.234 153.549L-177.263 161.926C-178.16 160.362 -180.032 159.53 -181.854 160.03C-182.165 160.121 -182.459 160.245 -182.728 160.377L-205.667 137.92C-205.042 136.985 -204.775 135.789 -205.129 134.605C-205.482 133.338 -206.399 132.411 -207.553 131.935L-199.84 101.9C-199.329 101.962 -198.784 101.923 -198.23 101.776C-196.097 101.185 -194.836 98.9553 -195.427 96.8236C-196.044 94.6833 -198.249 93.4301 -200.382 94.0208C-200.751 94.1192 -201.087 94.2847 -201.373 94.4674L-223.705 72.6088C-223.205 71.7152 -223.023 70.6018 -223.327 69.5192C-223.918 67.3874 -226.149 66.1258 -228.281 66.7164C-230.103 67.2168 -231.261 68.8941 -231.204 70.7042L-261.233 79.0813C-262.121 77.4925 -263.994 76.6603 -265.824 77.1857C-267.965 77.8014 -269.218 80.006 -268.626 82.1378C-268.273 83.4051 -267.331 84.3407 -266.202 84.8082L-273.924 114.868C-274.46 114.798 -275.005 114.836 -275.56 114.984C-277.7 115.6 -278.953 117.804 -278.362 119.936C-277.77 122.068 -275.54 123.329 -273.407 122.739C-272.694 122.533 -272.088 122.152 -271.616 121.668L-249.451 143.359C-250.429 144.341 -250.873 145.814 -250.462 147.24C-250.085 148.6 -249.051 149.595 -247.813 149.988L-255.492 179.922C-256.053 179.843 -256.615 179.848 -257.202 180.012C-259.335 180.603 -260.596 182.833 -260.005 184.964C-259.413 187.096 -257.182 188.358 -255.05 187.767C-254.363 187.721 -253.875 187.439 -253.445 187.081ZM-208.39 131.762C-208.926 131.692 -209.471 131.731 -210 131.887C-211.822 132.387 -212.98 134.064 -212.923 135.875L-242.986 144.268C-243.882 142.704 -245.755 141.872 -247.577 142.373C-247.946 142.471 -248.282 142.636 -248.602 142.836L-270.908 120.986C-270.375 120.075 -270.193 118.962 -270.497 117.879C-270.85 116.612 -271.767 115.685 -272.895 115.218L-265.173 85.1579C-264.637 85.228 -264.092 85.1894 -263.563 85.0333C-261.431 84.4427 -260.17 82.213 -260.761 80.0812L-231.009 71.7779C-230.392 73.9181 -228.187 75.1713 -226.054 74.5806C-225.316 74.3839 -224.726 73.9684 -224.221 73.4687L-202.056 95.1588C-203.034 96.1417 -203.478 97.6138 -203.076 99.0657C-202.722 100.333 -201.789 101.294 -200.652 101.736L-208.39 131.762ZM-111.357 179.702L-80.9498 171.202C-80.1808 173.058 -78.1498 174.084 -76.152 173.56C-75.6316 173.429 -75.1774 173.163 -74.765 172.856L-52.5587 194.588C-53.2515 195.556 -53.5351 196.803 -53.207 198.061C-52.8703 199.295 -51.9536 200.222 -50.8497 200.681L-58.846 231.795C-59.3067 231.75 -59.793 231.781 -60.2547 231.904C-61.8917 232.355 -63.023 233.789 -63.1746 235.389L-93.4807 243.84C-94.4458 242.56 -96.1268 241.905 -97.7975 242.373C-98.0745 242.447 -98.3434 242.579 -98.6124 242.712L-121.36 220.432C-120.894 219.555 -120.738 218.517 -121.025 217.468C-121.37 216.259 -122.212 215.357 -123.282 214.882L-115.543 184.772C-115.082 184.817 -114.596 184.786 -114.134 184.663C-112.002 184.072 -110.774 181.859 -111.357 179.702ZM-118.588 -65.3057L-88.7095 -73.6502C-87.9405 -71.7939 -85.918 -70.7429 -83.9117 -71.2924C-83.3491 -71.4651 -82.8363 -71.7385 -82.4068 -72.0963L-60.2422 -50.4062C-61.0188 -49.4388 -61.328 -48.1168 -60.9833 -46.8244C-60.6135 -45.5235 -59.6465 -44.5793 -58.484 -44.1283L-67.1063 -10.513L-100.661 -1.15129C-101.43 -3.00757 -103.461 -4.03346 -105.468 -3.48395C-105.988 -3.35297 -106.442 -3.08756 -106.855 -2.77997L-129.061 -24.5122C-128.368 -25.48 -128.084 -26.7268 -128.421 -27.9605C-128.758 -29.1942 -129.65 -30.1128 -130.753 -30.5718L-123.023 -60.6565C-122.512 -60.5948 -122 -60.6169 -121.471 -60.773C-119.498 -61.3897 -118.28 -63.3264 -118.588 -65.3057ZM-110.982 40.7574C-110.146 39.7821 -109.795 38.4184 -110.173 37.0588C-110.502 35.8838 -111.318 34.9908 -112.329 34.5072L-104.582 4.37233C-104.146 4.40842 -103.718 4.38581 -103.282 4.25433C-101.46 3.754 -100.302 2.0767 -100.359 0.266519L-66.7369 -9.1283L-41.805 15.2929C-42.4641 16.2442 -42.7393 17.4659 -42.3855 18.6494C-42.0403 19.858 -41.1989 20.7595 -40.1287 21.2351L-47.8678 51.345C-48.3285 51.3003 -48.8149 51.3309 -49.3102 51.4705C-51.2914 52.0285 -52.4843 53.9737 -52.202 55.9444L-82.2899 64.3296C-83.0589 62.4733 -85.0899 61.4474 -87.0626 61.9804C-87.6167 62.1279 -88.0959 62.3848 -88.5169 62.7175L-110.982 40.7574ZM-176.348 23.7804C-175.596 22.8045 -175.296 21.5075 -175.657 20.2653C-176.011 18.998 -176.952 18.0624 -178.081 17.5949L-170.359 -12.4648C-169.823 -12.3946 -169.278 -12.4332 -168.724 -12.5808C-166.743 -13.1388 -165.55 -15.0841 -165.857 -17.0633L-136.013 -25.3912C-135.244 -23.5349 -133.213 -22.5091 -131.215 -23.0335C-130.661 -23.181 -130.173 -23.463 -129.752 -23.7957L-107.571 -2.07201C-108.323 -1.09613 -108.615 0.175789 -108.262 1.44308C-107.908 2.7104 -106.966 3.64602 -105.829 4.08844L-113.543 34.123C-114.053 34.0613 -114.599 34.1 -115.153 34.2476C-117.134 34.8056 -118.352 36.7423 -118.019 38.73L-147.931 47.0911C-148.7 45.2348 -150.731 44.2089 -152.729 44.7333C-153.283 44.8809 -153.762 45.1378 -154.183 45.4704L-176.348 23.7804ZM-242.283 6.74958C-241.44 5.74911 -241.055 4.36887 -241.441 3.03436C-241.77 1.85937 -242.611 0.957835 -243.623 0.474249L-235.875 -29.6607C-235.414 -29.616 -234.953 -29.6552 -234.491 -29.7781C-232.67 -30.2785 -231.512 -31.9558 -231.569 -33.7659L-201.481 -42.1511C-200.584 -40.5873 -198.712 -39.7551 -196.89 -40.2554C-196.428 -40.3784 -196.05 -40.5856 -195.679 -40.8515L-173.073 -18.7315C-173.732 -17.7802 -174.007 -16.5585 -173.654 -15.375C-173.308 -14.1664 -172.467 -13.2649 -171.397 -12.7893L-179.144 17.3456C-179.605 17.3009 -180.091 17.3316 -180.578 17.446C-182.56 18.0041 -183.777 19.9407 -183.445 21.9285L-213.533 30.3136C-214.302 28.4573 -216.324 27.4064 -218.306 27.9644C-218.86 28.112 -219.339 28.3689 -219.76 28.7016L-242.283 6.74958ZM-301.737 -46.3307C-301.327 -46.3031 -300.924 -46.3343 -300.521 -46.4492C-298.54 -47.0072 -297.347 -48.9524 -297.654 -50.9317L-267.256 -59.4071C-266.487 -57.5508 -264.464 -56.4999 -262.458 -57.0494C-261.938 -57.1804 -261.484 -57.4458 -261.071 -57.7534L-238.865 -36.0212C-239.583 -35.0618 -239.866 -33.815 -239.505 -32.5728C-239.168 -31.3392 -238.251 -30.4121 -237.147 -29.9531L-244.878 0.131686C-245.389 0.0699879 -245.9 0.09211 -246.429 0.248174C-248.41 0.806212 -249.628 2.74288 -249.296 4.73064L-279.694 13.2061C-280.464 11.3498 -282.494 10.324 -284.467 10.857C-284.87 10.9719 -285.24 11.154 -285.568 11.3783L-307.608 -10.1854C-306.831 -11.1528 -306.522 -12.4748 -306.867 -13.7672C-307.236 -15.0681 -308.17 -16.0288 -309.366 -16.4632L-301.737 -46.3307ZM-191.552 -84.389C-192.304 -83.4131 -192.596 -82.1412 -192.243 -80.8739C-191.89 -79.6066 -190.956 -78.6459 -189.819 -78.2035L-197.532 -48.1689C-198.043 -48.2305 -198.588 -48.1919 -199.117 -48.0358C-201.099 -47.4778 -202.316 -45.5412 -202.009 -43.5619L-231.921 -35.2008C-232.69 -37.0571 -234.712 -38.1081 -236.719 -37.5586C-237.273 -37.411 -237.752 -37.1541 -238.173 -36.8214L-260.354 -58.5451C-259.603 -59.521 -259.302 -60.818 -259.655 -62.0853C-260.008 -63.3526 -260.95 -64.2882 -262.088 -64.7306L-254.366 -94.7903C-253.83 -94.7201 -253.293 -94.7337 -252.731 -94.9063C-250.749 -95.4643 -249.556 -97.4096 -249.864 -99.3888L-220.019 -107.717C-219.25 -105.86 -217.219 -104.835 -215.221 -105.359C-214.667 -105.507 -214.18 -105.789 -213.759 -106.121L-191.552 -84.389ZM-125.592 -67.3497C-126.461 -66.3578 -126.812 -64.9941 -126.434 -63.6344C-126.105 -62.4594 -125.264 -61.5579 -124.227 -61.0658L-131.975 -30.9309C-132.436 -30.9755 -132.897 -30.9364 -133.359 -30.8134C-135.18 -30.3131 -136.338 -28.6358 -136.281 -26.8256L-166.311 -18.4485C-167.207 -20.0123 -169.071 -20.8696 -170.876 -20.3357C-171.338 -20.2127 -171.75 -19.9889 -172.12 -19.723L-194.727 -41.843C-194.042 -42.7858 -193.784 -44.0411 -194.129 -45.2497C-194.474 -46.4583 -195.341 -47.3683 -196.411 -47.8439L-188.681 -77.9286C-188.22 -77.884 -187.733 -77.9146 -187.238 -78.0541C-185.257 -78.6122 -184.064 -80.5574 -184.371 -82.5366L-154.275 -90.9469C-153.582 -88.9486 -151.451 -87.8048 -149.386 -88.3624C-148.799 -88.5265 -148.311 -88.8085 -147.881 -89.1662L-125.592 -67.3497ZM28.4702 -111.039C27.8675 -111.16 27.197 -111.163 26.5506 -110.991C24.5693 -110.433 23.3765 -108.488 23.6587 -106.517L-6.33685 -98.1568C-7.22473 -99.7457 -9.10607 -100.553 -10.9277 -100.052C-11.272 -99.9456 -11.5997 -99.8051 -11.8857 -99.6225L-34.2336 -121.515C-33.734 -122.408 -33.5938 -123.48 -33.8813 -124.529C-34.218 -125.763 -35.1096 -126.681 -36.1883 -127.132L-28.2688 -158.02C-27.6243 -157.857 -26.9287 -157.844 -26.2487 -158.033C-24.2674 -158.591 -23.0746 -160.536 -23.3819 -162.515L5.71532 -170.622C6.48433 -168.765 8.51533 -167.739 10.4966 -168.297C11.143 -168.47 11.7065 -168.81 12.1615 -169.243L34.1344 -147.73C33.4416 -146.762 33.1579 -145.515 33.4946 -144.281C33.8891 -142.888 34.9729 -141.876 36.27 -141.492L28.4702 -111.039ZM-18.9946 -62.3868C-19.5306 -62.4571 -20.0756 -62.4184 -20.6046 -62.2623C-22.4263 -61.762 -23.5841 -60.0846 -23.5272 -58.2745L-53.59 -49.8808C-54.4779 -51.4697 -56.3507 -52.3019 -58.1809 -51.7765C-58.5503 -51.6781 -58.8865 -51.5126 -59.2061 -51.3134L-81.5123 -73.1635C-80.9791 -74.0736 -80.7968 -75.1869 -81.1008 -76.2696C-81.454 -77.5369 -82.3708 -78.464 -83.5082 -78.9064L-75.7862 -108.966C-75.2501 -108.896 -74.7051 -108.935 -74.1762 -109.091C-72.0438 -109.681 -70.7823 -111.911 -71.3738 -114.043L-41.6216 -122.346C-41.0051 -120.206 -38.7994 -118.953 -36.642 -119.535C-35.9032 -119.732 -35.3142 -120.147 -34.8084 -120.647L-12.6439 -98.9566C-13.6302 -97.9486 -14.0659 -96.5016 -13.6634 -95.0497C-13.3102 -93.7824 -12.3768 -92.8217 -11.2143 -92.3708L-18.9946 -62.3868ZM5.62671 -33.4261C4.64885 -32.4431 4.20467 -30.9711 4.60718 -29.5192C4.96044 -28.2519 5.89375 -27.2911 7.03118 -26.8487L-0.656751 3.11059C-1.11751 3.06598 -1.57873 3.10513 -2.04041 3.22806C-3.8621 3.72842 -5.0199 5.40571 -4.96309 7.21587L-34.9671 15.6015C-35.8636 14.0378 -37.7279 13.1804 -39.5581 13.7059C-40.0198 13.8288 -40.4317 14.0526 -40.802 14.3185L-65.9674 -10.3219L-57.3622 -43.8871C-56.9015 -43.8425 -56.4653 -43.8902 -56.0036 -44.0131C-54.0223 -44.5712 -52.8295 -46.5164 -53.1368 -48.4956L-23.2251 -56.8566C-22.4561 -55.0004 -20.4001 -53.966 -18.4273 -54.4989C-17.806 -54.6796 -17.2761 -55.0032 -16.8296 -55.4111L5.62671 -33.4261ZM65.1719 19.7972C64.7362 19.7611 64.275 19.8003 63.8133 19.9232C61.832 20.4813 60.6141 22.4179 60.9215 24.3972L30.674 32.84C29.905 30.9837 27.874 29.9579 25.8927 30.5159C25.3723 30.6469 24.8931 30.9038 24.5058 31.2199L2.29946 9.4877C2.99223 8.51984 3.27588 7.27306 2.93921 6.03937C2.60253 4.80569 1.71089 3.88709 0.607087 3.42811L8.3121 -26.5814C8.72264 -26.5538 9.15879 -26.6015 9.58687 -26.7079C11.5681 -27.266 12.761 -29.2111 12.4621 -31.2155L42.9866 -39.7321C43.7556 -37.8758 45.8032 -36.8164 47.7845 -37.3744C48.2462 -37.4973 48.633 -37.7297 49.0199 -37.962L70.9928 -16.449C70.1238 -15.457 69.7639 -14.0682 70.1333 -12.6835C70.5112 -11.3239 71.57 -10.3205 72.8083 -9.92778L65.1719 19.7972ZM17.7757 68.1645C17.2648 68.1028 16.7197 68.1415 16.1657 68.289C14.1845 68.8471 12.9665 70.7838 13.2738 72.763L-16.6378 81.124C-17.4069 79.2677 -19.4294 78.2168 -21.4191 78.7999C-21.9732 78.9475 -22.4524 79.2044 -22.8483 79.5456L-45.0294 57.8219C-44.2779 56.846 -43.9858 55.5741 -44.339 54.3068C-44.6923 53.0395 -45.6341 52.1039 -46.763 51.6364L-39.041 21.5767C-38.5049 21.6469 -37.9599 21.6082 -37.4059 21.4607C-35.4246 20.9026 -34.2318 18.9574 -34.5391 16.9782L-4.69459 8.65029C-3.92559 10.5066 -1.87803 11.566 0.103229 11.008C0.657269 10.8605 1.145 10.5785 1.56597 10.2458L23.7472 31.9695C22.9957 32.9454 22.7035 34.2173 23.0567 35.4846C23.41 36.7519 24.3433 37.7126 25.4807 38.155L17.7757 68.1645ZM1.43948 146.729C0.543104 145.165 -1.32975 144.333 -3.15143 144.833C-3.55439 144.948 -3.89914 145.139 -4.21877 145.338L-26.5249 123.488C-25.9918 122.578 -25.7758 121.448 -26.0964 120.332C-26.4497 119.064 -27.4081 118.095 -28.5455 117.653L-20.5834 86.6391C-20.1226 86.6837 -19.6614 86.6446 -19.1997 86.5216C-17.3781 86.0213 -16.2202 84.344 -16.277 82.5338L13.7858 74.1401C14.6736 75.729 16.5464 76.5613 18.3766 76.0358C18.8383 75.9129 19.2166 75.7056 19.587 75.4397L42.0182 97.4163C41.208 98.4002 40.8651 99.7388 41.26 101.048C41.6299 102.349 42.6135 103.327 43.8096 103.761L36.1216 133.721C35.5855 133.65 35.0405 133.689 34.4865 133.837C32.5052 134.395 31.2873 136.331 31.6197 138.319L1.43948 146.729ZM-11.2433 182.49C-11.7543 182.429 -12.2993 182.467 -12.8197 182.598C-14.8009 183.156 -15.9938 185.102 -15.7116 187.072L-45.6233 195.433C-46.3923 193.577 -48.4233 192.551 -50.3961 193.084C-50.9501 193.232 -51.4293 193.489 -51.8503 193.821L-74.0315 172.097C-73.28 171.122 -72.9878 169.85 -73.341 168.582C-73.6943 167.315 -74.6361 166.38 -75.7736 165.937L-68.0515 135.877C-67.5155 135.948 -66.9705 135.909 -66.4165 135.761C-64.4352 135.203 -63.2423 133.258 -63.5496 131.279L-33.7052 122.951C-32.9362 124.807 -30.9052 125.833 -28.9073 125.309C-28.3533 125.161 -27.8655 124.879 -27.4445 124.547L-5.23829 146.279C-5.98978 147.255 -6.28198 148.527 -5.92875 149.794C-5.57549 151.061 -4.64217 152.022 -3.50474 152.464L-11.2433 182.49ZM13.1658 211.911C12.5066 212.862 12.2315 214.084 12.5767 215.292C12.9219 216.501 13.7634 217.402 14.8336 217.878L7.08593 248.013C6.62517 247.968 6.13887 247.999 5.64355 248.138C3.66228 248.696 2.46943 250.642 2.77676 252.621L-27.7728 261.129C-28.6606 259.54 -30.542 258.733 -32.3637 259.233C-32.708 259.34 -33.0105 259.489 -33.3216 259.663L-55.6695 237.771C-55.17 236.877 -55.0297 235.806 -55.3172 234.757C-55.6539 233.523 -56.5455 232.604 -57.6242 232.154L-49.6195 201.015C-49.1587 201.06 -48.6975 201.021 -48.2358 200.898C-46.4142 200.397 -45.2564 198.72 -45.3132 196.91L-15.2504 188.516C-14.354 190.08 -12.4897 190.937 -10.6595 190.412C-10.1978 190.289 -9.81945 190.082 -9.44914 189.816L13.1658 211.911ZM210.351 124.027L180.38 132.396C179.611 130.54 177.58 129.514 175.582 130.038C175.028 130.186 174.549 130.443 174.153 130.784L151.972 109.06C152.69 108.101 152.991 106.804 152.654 105.57C152.301 104.303 151.384 103.376 150.247 102.933L158.14 72.2044C158.475 72.2064 158.853 72.1668 159.222 72.0684C160.951 71.5927 162.067 70.0408 162.135 68.3571L192.374 59.9393C193.321 61.3526 195.086 62.0919 196.815 61.6162C197.277 61.4933 197.689 61.2695 198.059 61.0036L223.433 85.8548L214.81 119.47C214.3 119.408 213.78 119.456 213.259 119.587C211.261 120.111 210.052 122.023 210.351 124.027ZM92.3028 55.543C92.8389 55.6132 93.4256 55.6167 93.9882 55.444C95.9695 54.886 97.1623 52.9407 96.8549 50.9615L126.607 42.6581C127.452 44.3724 129.409 45.289 131.297 44.7555C131.826 44.5995 132.297 44.3676 132.718 44.0349L154.899 65.7587C154.181 66.718 153.889 67.9899 154.217 69.2486C154.595 70.6083 155.604 71.5945 156.842 71.9873L148.983 102.616C148.547 102.58 148.086 102.619 147.658 102.725C145.836 103.226 144.67 104.928 144.735 106.713L114.706 115.09C113.81 113.527 111.945 112.669 110.115 113.195C109.62 113.334 109.208 113.558 108.804 113.84L86.1558 91.6782C86.9911 90.7029 87.351 89.3141 86.9646 87.9796C86.6028 86.7374 85.7112 85.8188 84.5823 85.3512L92.3028 55.543ZM139.7 7.09184C140.135 7.12795 140.571 7.08027 141.033 6.95731C142.922 6.42388 144.122 4.62114 143.949 2.74324L173.852 -5.59273C174.697 -3.87844 176.653 -2.96196 178.542 -3.49541C179.096 -3.64295 179.609 -3.91637 180.038 -4.27411L202.22 17.4496C201.468 18.4254 201.142 19.7138 201.512 21.0148C201.89 22.3744 202.949 23.3778 204.212 23.779L196.507 53.7885C195.904 53.6677 195.268 53.6471 194.613 53.8444C192.539 54.427 191.32 56.5312 191.77 58.5867L161.9 66.9061C161.216 64.8828 159.085 63.739 157.011 64.3216C156.482 64.4777 156.003 64.7346 155.591 65.0422L133.409 43.3185C134.127 42.3592 134.428 41.0622 134.091 39.8285C133.763 38.6535 132.963 37.7941 131.96 37.2855L139.7 7.09184ZM162.612 -70.8889C163.271 -71.8402 163.546 -73.0619 163.21 -74.2956C162.865 -75.5043 161.998 -76.4143 160.928 -76.8898L168.633 -106.983C169.094 -106.938 169.58 -106.969 170.076 -107.109C172.057 -107.667 173.25 -109.612 172.943 -111.591L206.624 -120.994L231.772 -96.3871C230.962 -95.4032 230.611 -94.0396 230.981 -92.7386C231.293 -91.5973 232.109 -90.7043 233.112 -90.1956L225.356 -60.0356C224.92 -60.0717 224.484 -60.024 224.056 -59.9175C222.234 -59.4173 221.068 -57.7148 221.133 -55.9297L190.701 -47.4377C189.932 -49.294 187.91 -50.345 185.928 -49.7869C185.5 -49.6806 185.122 -49.4733 184.794 -49.2491L162.612 -70.8889ZM103.015 -123.794C103.551 -123.724 104.096 -123.763 104.65 -123.91C106.631 -124.468 107.824 -126.413 107.517 -128.393L137.386 -136.712C138.155 -134.856 140.186 -133.83 142.184 -134.354C142.738 -134.502 143.226 -134.784 143.647 -135.116L165.828 -113.393C165.077 -112.417 164.784 -111.145 165.129 -109.853C165.482 -108.585 166.424 -107.65 167.537 -107.216L159.823 -77.1813C159.312 -77.243 158.767 -77.2042 158.222 -77.0818C156.24 -76.5237 155.022 -74.5871 155.33 -72.6079L125.427 -64.2718C124.658 -66.1282 122.627 -67.154 120.62 -66.6045C120.091 -66.4485 119.587 -66.2 119.166 -65.8674L96.9848 -87.5911C97.7363 -88.567 98.0285 -89.8389 97.6753 -91.1062C97.322 -92.3735 96.3801 -93.3091 95.2512 -93.7766L103.015 -123.794ZM150.321 -172.472C150.731 -172.444 151.159 -172.467 151.595 -172.598C153.577 -173.157 154.769 -175.102 154.462 -177.081L184.836 -185.565C185.605 -183.709 187.636 -182.683 189.633 -183.207C190.162 -183.363 190.608 -183.604 191.02 -183.911L213.227 -162.179C212.534 -161.211 212.242 -159.939 212.578 -158.706C212.915 -157.472 213.832 -156.545 214.936 -156.086L206.279 -122.37L172.531 -112.934C171.635 -114.498 169.77 -115.355 167.94 -114.83C167.537 -114.715 167.201 -114.549 166.848 -114.334L144.542 -136.184C145.1 -137.085 145.291 -138.224 144.97 -139.34C144.617 -140.607 143.658 -141.577 142.521 -142.019L150.321 -172.472ZM254.542 -174.277C254.031 -174.338 253.486 -174.3 252.957 -174.144C250.976 -173.585 249.783 -171.64 250.065 -169.67L220.154 -161.309C219.385 -163.165 217.354 -164.191 215.356 -163.666C214.802 -163.519 214.322 -163.262 213.901 -162.929L191.72 -184.653C192.472 -185.629 192.764 -186.901 192.411 -188.168C192.058 -189.435 191.116 -190.371 189.987 -190.838L197.709 -220.898C198.245 -220.828 198.79 -220.867 199.344 -221.014C201.325 -221.572 202.518 -223.517 202.211 -225.496L232.055 -233.824C232.824 -231.968 234.847 -230.917 236.853 -231.467C237.407 -231.614 237.895 -231.896 238.316 -232.229L260.497 -210.505C259.745 -209.529 259.453 -208.257 259.806 -206.99C260.16 -205.723 261.102 -204.787 262.23 -204.32L254.542 -174.277ZM272.734 -108.269C272.274 -108.314 271.813 -108.274 271.326 -108.16C269.504 -107.66 268.338 -105.957 268.403 -104.172L238.374 -95.795C237.478 -97.3588 235.613 -98.2162 233.783 -97.6907C233.321 -97.5678 232.909 -97.344 232.539 -97.0781L207.374 -121.719L216.133 -155.819C216.594 -155.774 217.055 -155.814 217.516 -155.937C219.338 -156.437 220.504 -158.139 220.439 -159.924L250.502 -168.318C251.398 -166.754 253.271 -165.922 255.093 -166.422C255.529 -166.554 255.933 -166.752 256.303 -167.018L278.551 -145.244C277.917 -144.284 277.659 -143.113 278.004 -141.904C278.382 -140.544 279.416 -139.55 280.654 -139.157L272.734 -108.269ZM291.159 -43.19C290.648 -43.2516 290.102 -43.2129 289.574 -43.0569C287.592 -42.4988 286.399 -40.5536 286.707 -38.5744L256.804 -30.2384C256.035 -32.0947 254.004 -33.1205 252.006 -32.5961C251.452 -32.4486 250.972 -32.1917 250.551 -31.859L228.37 -53.5827C229.122 -54.5586 229.414 -55.8305 229.061 -57.0978C228.708 -58.3651 227.766 -59.3007 226.628 -59.7432L234.35 -89.8028C234.886 -89.7326 235.431 -89.7713 235.985 -89.9189C237.967 -90.4769 239.16 -92.4221 238.852 -94.4013L268.697 -102.729C269.466 -100.873 271.522 -99.8385 273.494 -100.371C274.049 -100.519 274.536 -100.801 274.957 -101.134L297.138 -79.41C296.387 -78.4342 296.095 -77.1623 296.448 -75.8949C296.801 -74.6276 297.735 -73.667 298.872 -73.2245L291.159 -43.19ZM243.847 5.0103C243.411 4.97423 242.95 5.01339 242.489 5.13635C240.507 5.69439 239.314 7.63962 239.622 9.61884L209.039 18.1434C208.202 16.404 206.246 15.4876 204.332 16.0125C203.954 16.1359 203.618 16.3015 203.298 16.5007L180.967 -5.35788C181.5 -6.26802 181.682 -7.38133 181.387 -8.48911C181.058 -9.66411 180.242 -10.5571 179.197 -11.0241L187.124 -41.8534C187.459 -41.8515 187.812 -41.8996 188.147 -41.9814C189.969 -42.4818 191.127 -44.1591 191.07 -45.9692L221.502 -54.4613C222.271 -52.605 224.294 -51.554 226.3 -52.1036C226.82 -52.2345 227.275 -52.4999 227.687 -52.8076L249.893 -31.0753C249.175 -30.1159 248.892 -28.8692 249.254 -27.627C249.59 -26.3933 250.498 -25.4412 251.611 -25.0072L243.847 5.0103ZM268.439 34.7166C267.629 35.7005 267.277 37.0642 267.639 38.3902C267.951 39.5316 268.767 40.4246 269.779 40.9082L262.022 71.0682C261.612 71.0406 261.151 71.0798 260.723 71.1862C258.901 71.6865 257.743 73.3638 257.8 75.174L224.178 84.5688L199.012 59.9283C199.671 58.977 199.921 57.7468 199.593 56.5718C199.297 55.464 198.556 54.5966 197.603 54.105L205.352 23.8863C205.712 23.8968 206.114 23.8657 206.484 23.7673C208.373 23.2339 209.573 21.4312 209.408 19.5282L240.083 10.979C240.98 12.5427 242.844 13.4 244.674 12.8746C245.044 12.7763 245.38 12.6107 245.7 12.4115L268.439 34.7166ZM327.8 87.9053C327.289 87.8436 326.744 87.8822 326.215 88.0383C324.234 88.5964 323.041 90.5416 323.323 92.5124L293.42 100.848C292.651 98.992 290.62 97.9661 288.639 98.5242C288.085 98.6717 287.605 98.9286 287.184 99.2612L265.003 77.5376C265.755 76.5617 266.047 75.2898 265.694 74.0225C265.34 72.7552 264.407 71.7945 263.27 71.3521L270.992 41.2924C271.528 41.3626 272.064 41.349 272.627 41.1764C274.608 40.6183 275.801 38.6732 275.494 36.694L305.338 28.366C306.107 30.2223 308.155 31.2817 310.136 30.7237C310.69 30.5762 311.178 30.2942 311.599 29.9615L333.78 51.6852C333.028 52.6611 332.736 53.9329 333.081 55.2253C333.434 56.4926 334.351 57.4197 335.505 57.8958L327.8 87.9053ZM346.121 153.453C345.585 153.383 345.065 153.43 344.536 153.586C342.554 154.144 341.362 156.089 341.644 158.06L311.522 166.462C310.753 164.605 308.723 163.579 306.75 164.112C306.279 164.26 305.842 164.476 305.472 164.742L283.224 142.967C283.883 142.016 284.125 140.811 283.805 139.611C283.476 138.436 282.643 137.509 281.598 137.042L289.466 106.388C289.927 106.433 290.388 106.394 290.85 106.271C292.671 105.771 293.838 104.068 293.781 102.258L323.844 93.8644C324.74 95.4282 326.604 96.2855 328.434 95.7601C328.896 95.6371 329.275 95.4299 329.645 95.164L352.143 117.191C351.391 118.167 351.099 119.439 351.444 120.731C351.797 121.999 352.73 122.959 353.868 123.402L346.121 153.453ZM241.925 155.182C242.411 155.235 242.922 155.213 243.417 155.074C245.399 154.516 246.592 152.571 246.284 150.591L276.154 142.272C276.923 144.128 278.945 145.179 280.952 144.63C281.539 144.465 282.061 144.167 282.499 143.784L304.68 165.508C303.87 166.492 303.56 167.814 303.922 169.14C304.292 170.441 305.25 171.41 306.446 171.844L298.741 201.854C298.188 201.75 297.618 201.78 297.031 201.944C295.049 202.502 293.857 204.448 294.164 206.427L264.261 214.763C263.492 212.906 261.461 211.881 259.463 212.405C258.968 212.544 258.497 212.776 258.11 213.092L235.903 191.36C236.596 190.392 236.871 189.171 236.535 187.937C236.198 186.703 235.306 185.785 234.227 185.334L241.925 155.182ZM217.574 125.754C218.267 124.786 218.551 123.539 218.206 122.331C217.869 121.097 216.977 120.178 215.899 119.728L224.564 85.9871L258.119 76.6254C258.888 78.4817 260.91 79.5327 262.916 78.9832C263.445 78.8271 263.891 78.5867 264.303 78.2792L286.51 100.011C285.792 100.971 285.508 102.218 285.861 103.485C286.223 104.727 287.115 105.646 288.219 106.105L280.368 136.708C279.882 136.655 279.371 136.677 278.842 136.833C277.02 137.333 275.862 139.011 275.919 140.821L245.89 149.198C244.993 147.634 243.121 146.802 241.299 147.302C240.896 147.417 240.492 147.616 240.164 147.84L217.574 125.754ZM167.432 167.703C166.946 167.65 166.435 167.672 165.906 167.828C163.924 168.387 162.731 170.332 163.039 172.311L133.127 180.672C132.358 178.816 130.336 177.765 128.354 178.323C127.767 178.487 127.279 178.769 126.85 179.127L104.685 157.437C105.461 156.469 105.771 155.147 105.426 153.855C105.056 152.554 104.114 151.618 102.952 151.167L110.665 121.133C111.226 121.211 111.788 121.206 112.351 121.034C114.332 120.476 115.525 118.531 115.217 116.551L145.087 108.232C145.856 110.088 147.904 111.148 149.885 110.59C150.414 110.433 150.884 110.202 151.305 109.869L173.512 131.601C172.794 132.561 172.502 133.832 172.863 135.075C173.2 136.308 174.108 137.261 175.212 137.72L167.432 167.703ZM120.109 216.431C119.673 216.395 119.212 216.435 118.751 216.558C116.769 217.116 115.576 219.061 115.859 221.031L85.6111 229.474C84.8421 227.618 82.8111 226.592 80.8299 227.15C80.3094 227.281 79.8302 227.538 79.4429 227.854L57.2366 206.122C57.9294 205.154 58.2131 203.907 57.8764 202.674C57.5397 201.44 56.648 200.521 55.5442 200.062L64.2005 166.347L98.0327 156.911C98.9291 158.475 100.793 159.332 102.624 158.807C102.993 158.709 103.329 158.543 103.649 158.344L125.955 180.194C125.422 181.104 125.239 182.217 125.569 183.309C125.922 184.576 126.839 185.503 127.967 185.97L120.109 216.431ZM9.94128 254.44C10.6928 253.464 10.9935 252.167 10.6403 250.899C10.287 249.632 9.34513 248.697 8.21622 248.229L15.9383 218.169C16.4744 218.24 17.0109 218.226 17.5649 218.078C19.5462 217.52 20.739 215.575 20.4317 213.596L50.2761 205.268C51.0451 207.124 53.0676 208.175 55.074 207.626C55.628 207.478 56.1158 207.196 56.5368 206.864L78.718 228.587C77.9664 229.563 77.6742 230.835 78.0275 232.102C78.3807 233.37 79.3141 234.33 80.4515 234.773L72.738 264.807C72.227 264.746 71.682 264.784 71.1616 264.915C69.1803 265.473 67.9875 267.419 68.2697 269.389L38.358 277.75C37.589 275.894 35.558 274.868 33.5853 275.401C33.0312 275.549 32.552 275.806 32.1311 276.138L9.94128 254.44ZM-102.94 286.097C-102.407 285.187 -102.224 284.074 -102.553 282.983C-102.907 281.715 -103.823 280.788 -104.952 280.321L-97.2302 250.261C-96.6942 250.331 -96.1491 250.293 -95.6202 250.136C-93.4878 249.546 -92.2263 247.316 -92.8178 245.184L-63.0657 236.881C-62.4742 239.013 -60.2434 240.274 -58.086 239.692C-57.3724 239.487 -56.7582 239.08 -56.2776 238.572L-34.113 260.262C-35.0908 261.245 -35.535 262.717 -35.1325 264.169C-34.7792 265.436 -33.8459 266.397 -32.7085 266.839L-40.422 296.874C-40.958 296.804 -41.5031 296.842 -42.032 296.998C-43.8537 297.499 -45.0115 299.176 -44.9547 300.986L-75.0175 309.38C-75.9138 307.816 -77.7867 306.984 -79.6083 307.484C-79.9777 307.583 -80.3139 307.748 -80.6336 307.947L-102.94 286.097ZM-210.227 281.683C-209.624 281.804 -209.004 281.791 -208.358 281.619C-206.225 281.028 -204.964 278.799 -205.555 276.667L-175.803 268.364C-175.212 270.495 -172.981 271.757 -170.849 271.166C-170.202 270.994 -169.664 270.645 -169.217 270.237L-147.053 291.928C-147.922 292.919 -148.273 294.283 -147.895 295.643C-147.567 296.818 -146.725 297.719 -145.714 298.203L-153.461 328.338C-153.897 328.302 -154.358 328.341 -154.795 328.472C-156.616 328.973 -157.774 330.65 -157.717 332.46L-187.78 340.854C-188.668 339.265 -190.541 338.433 -192.371 338.958C-192.833 339.081 -193.245 339.305 -193.615 339.571L-215.863 317.796C-215.229 316.837 -214.996 315.657 -215.316 314.457C-215.694 313.097 -216.728 312.102 -217.966 311.709L-210.227 281.683ZM-162.771 233.057C-162.335 233.093 -161.874 233.053 -161.412 232.931C-159.431 232.373 -158.238 230.427 -158.546 228.448L-128.642 220.112C-127.873 221.968 -125.842 222.994 -123.845 222.47C-123.223 222.289 -122.668 221.974 -122.247 221.558L-99.7238 243.593C-100.618 244.577 -100.986 245.991 -100.617 247.375C-100.272 248.584 -99.4051 249.494 -98.36 249.961L-106.099 280.071C-106.585 280.018 -107.071 280.048 -107.541 280.196C-109.363 280.697 -110.521 282.374 -110.464 284.184L-140.493 292.561C-141.39 290.998 -143.263 290.165 -145.084 290.666C-145.521 290.797 -145.924 290.996 -146.252 291.22L-168.517 269.412C-167.917 268.469 -167.692 267.314 -168.029 266.164C-168.391 264.838 -169.374 263.86 -170.579 263.451L-162.771 233.057ZM-186.93 203.805C-186.396 202.895 -186.214 201.782 -186.518 200.699C-186.871 199.432 -187.788 198.505 -188.926 198.062L-181.203 168.003C-180.693 168.064 -180.131 168.059 -179.602 167.903C-177.47 167.313 -176.208 165.083 -176.825 162.943L-147.073 154.639C-146.481 156.771 -144.25 158.033 -142.093 157.451C-141.379 157.245 -140.765 156.838 -140.284 156.33L-118.12 178.02C-119.098 179.003 -119.542 180.475 -119.139 181.927C-118.786 183.194 -117.853 184.155 -116.715 184.598L-124.429 214.632C-124.94 214.57 -125.485 214.609 -126.039 214.757C-127.861 215.257 -129.018 216.934 -128.97 218.77L-159.058 227.155C-159.946 225.566 -161.827 224.759 -163.649 225.259C-164.018 225.357 -164.354 225.523 -164.674 225.722L-186.93 203.805ZM-252.779 186.356C-252.086 185.388 -251.803 184.141 -252.139 182.908C-252.476 181.674 -253.368 180.756 -254.471 180.297L-246.758 150.262C-246.322 150.298 -245.861 150.259 -245.399 150.136C-243.418 149.578 -242.225 147.633 -242.533 145.653L-212.621 137.292C-211.852 139.149 -209.829 140.2 -207.823 139.65C-207.202 139.469 -206.672 139.146 -206.2 138.746L-183.427 161.035C-184.489 162.017 -184.984 163.556 -184.565 165.042C-184.236 166.217 -183.436 167.076 -182.433 167.585L-190.164 197.753C-190.6 197.717 -191.036 197.765 -191.498 197.888C-193.135 198.339 -194.266 199.774 -194.418 201.373L-224.228 209.684C-224.997 207.828 -227.028 206.802 -229.026 207.327C-229.589 207.499 -230.102 207.773 -230.531 208.13L-252.779 186.356Z" fill="url(#paint0_linear_1127_10495)"/>
<defs>
<linearGradient id="paint0_linear_1127_10495" x1="814.102" y1="316.031" x2="-276.186" y2="-39.9867" gradientUnits="userSpaceOnUse">
<stop stop-color="white"/>
<stop offset="1" stop-color="white" stop-opacity="0"/>
</linearGradient>
</defs>
</svg>
