<svg width="230" height="164" viewBox="0 0 230 164" fill="none" xmlns="http://www.w3.org/2000/svg">
<path d="M134.4 210.691L131.056 212.96L126.035 216.578C125.77 216.77 125.626 217.031 125.604 217.36L125.497 218.95C125.476 219.317 125.363 219.654 125.159 219.963C122.535 223.876 117.514 222.187 117.246 217.531C117.228 217.209 117.084 216.957 116.815 216.775C109.968 212.215 102.737 208.385 95.1228 205.287C94.7794 205.145 94.4319 205.142 94.0802 205.278L91.8954 206.106C91.5645 206.231 91.2275 206.249 90.8844 206.159C86.4987 204.963 85.7157 200.607 89.5105 198.114C89.6459 198.025 89.7574 197.906 89.835 197.765C89.9127 197.624 89.9542 197.466 89.9557 197.306L90.1189 189.973L89.7556 180.771L88.9029 172.474C88.8875 172.322 88.8396 172.175 88.7623 172.042C88.685 171.91 88.5802 171.796 88.455 171.708C83.3692 168.121 87.1234 161.714 91.8949 164.042C92.1276 164.156 92.3833 164.214 92.6411 164.21C92.8989 164.207 93.1515 164.142 93.3781 164.022C100.588 160.232 107.484 155.946 114.067 151.163C114.306 150.991 114.499 150.763 114.629 150.498C114.76 150.234 114.824 149.942 114.817 149.647C114.809 149.352 114.73 149.063 114.585 148.804C114.441 148.546 114.236 148.326 113.989 148.164C106.982 143.596 99.635 139.663 91.947 136.367C91.618 136.226 91.289 136.23 90.9598 136.378C88.5561 137.495 86.5281 136.862 84.3055 137.836C74.1817 142.23 64.5688 147.55 55.4667 153.793C54.8724 154.2 53.8897 155.38 52.5186 157.333C52.3217 157.616 52.2144 157.931 52.1968 158.277C51.8445 164.768 52.0623 171.242 52.8503 177.7C52.8716 177.88 52.9361 178.052 53.0384 178.201C53.1406 178.35 53.2775 178.472 53.4371 178.555C56.9253 180.392 56.1011 184.988 51.9577 185.1C51.6569 185.109 51.3633 185.015 51.1281 184.831C50.3056 184.196 49.542 184.054 48.8374 184.407C44.2207 186.711 38.7849 190.109 32.5301 194.602C32.2654 194.794 32.1117 195.053 32.0691 195.378C31.3905 200.703 25.5762 200.338 25.396 195.409C25.3815 195.066 25.2246 194.818 24.9253 194.664L7.9326 185.553C7.68178 185.417 7.39819 185.356 7.11481 185.376C6.83145 185.395 6.55994 185.495 6.33193 185.663C2.76642 188.263 -1.10543 182.764 3.05265 179.963C3.18628 179.873 3.29645 179.753 3.3739 179.613C3.45136 179.472 3.49384 179.316 3.49783 179.156C3.72799 172.619 3.45738 166.1 2.68604 159.6C2.64981 159.32 2.51811 159.063 2.31419 158.877C-1.65366 155.185 0.712495 151.037 5.78188 152.72C6.08657 152.825 6.37656 152.792 6.65183 152.621L23.037 142.347C23.1753 142.26 23.2904 142.14 23.3726 141.998C23.4547 141.857 23.5014 141.696 23.5086 141.532C23.6467 137.953 27.4328 136.146 29.618 139.165C29.8022 139.417 29.9123 139.703 29.9483 140.02C30.1062 141.306 30.885 142.348 32.2845 143.146C37.2688 145.992 41.6258 148.324 45.3555 150.142C47.8197 151.345 51.2562 151.202 53.4295 150.256C63.9322 145.703 73.8747 140.143 83.2569 133.575C83.5424 133.372 83.7012 133.098 83.7333 132.752C83.8905 131.079 84.6973 129.855 86.1535 129.08C86.3068 129.001 86.4362 128.882 86.5284 128.737C86.6205 128.591 86.6722 128.423 86.678 128.251C87.0309 119.866 86.6928 111.506 85.6639 103.173C85.6148 102.826 85.4601 102.534 85.1998 102.298C83.4332 100.708 82.5986 98.9102 80.5595 97.7246C69.6704 91.3858 58.2362 86.1959 46.257 82.1547C45.9683 82.0578 45.6615 82.0241 45.3571 82.0559C45.0527 82.0877 44.7576 82.1842 44.4918 82.339L37.3584 86.5582C37.2549 86.6195 37.1683 86.7055 37.1061 86.8086C37.044 86.9116 37.0084 87.0284 37.0025 87.1486C36.8978 89.8989 33.729 89.3904 33.5249 87.246C33.4952 86.9171 33.3339 86.6699 33.0409 86.5043L24.9707 81.9443C24.6327 81.7533 24.2952 81.7521 23.9582 81.9407C21.6192 83.239 20.0634 80.4088 21.8799 79.1275C22.1383 78.9465 22.2812 78.7002 22.3086 78.3886C22.728 73.9767 22.9136 68.7749 21.2755 66.623C21.1054 66.4021 21.0063 66.1348 20.9913 65.8564C20.9763 65.578 21.046 65.3016 21.1913 65.0637C21.3366 64.8258 21.5507 64.6375 21.8052 64.5238C22.0597 64.41 22.3428 64.3761 22.6169 64.4265C23.2459 64.5367 23.8779 64.5296 24.513 64.4054C24.5658 64.3907 24.6177 64.3715 24.668 64.348C27.5881 63.0474 30.3318 61.4538 32.8991 59.5673C33.0274 59.4708 33.1349 59.3497 33.2151 59.2111C33.2954 59.0725 33.3466 58.9194 33.3659 58.7609C33.6804 56.3299 36.4425 56.8872 36.8403 58.9849C36.8947 59.2832 37.0543 59.5072 37.3191 59.6568L45.3723 64.2073C45.716 64.4015 46.0721 64.4355 46.4407 64.3093C47.7701 63.8639 48.6902 64.3466 49.201 65.7576C49.2574 65.9059 49.2696 66.068 49.2363 66.2249C49.2029 66.3817 49.1253 66.5269 49.0127 66.6434L48.2376 67.4429C48.014 67.6807 47.9026 67.9634 47.9034 68.2908L47.9056 76.9879C47.9055 77.1805 47.9568 77.3699 48.0545 77.5368C48.1522 77.7036 48.2927 77.8419 48.4616 77.9376C59.8733 84.397 70.6898 89.996 83.029 94.5379C83.3675 94.6623 83.6982 94.6559 84.0209 94.5187C85.7591 93.7839 87.5149 93.7282 89.2885 94.3513C89.6414 94.4764 89.9876 94.449 90.3271 94.2692C97.6833 90.3395 104.74 85.9208 111.497 81.0132C111.785 80.8047 111.955 80.525 112.004 80.174C112.952 73.82 119.612 73.5362 120.727 80.0862C120.752 80.2369 120.807 80.3812 120.889 80.5102C120.971 80.6392 121.08 80.7502 121.207 80.8363C128.153 85.393 135.432 89.3132 143.046 92.5969C143.4 92.7453 143.752 92.7472 144.102 92.6027C145.714 91.9456 147.393 91.7308 149.137 91.9584C149.502 92.0088 149.843 91.9449 150.159 91.7668C159.219 86.7558 167.861 81.1108 176.084 74.8316C176.346 74.6305 176.474 74.3646 176.467 74.0339C176.404 71.2925 177.667 69.3718 180.258 68.2718C180.368 68.2259 180.463 68.1509 180.533 68.0548C180.603 67.9587 180.645 67.8454 180.656 67.7269C181.519 56.6355 181.405 45.5523 180.312 34.4775C180.288 34.2259 180.206 33.9835 180.071 33.7698C179.936 33.5561 179.753 33.377 179.536 33.2472C172.644 29.1077 178.449 19.8011 185.281 23.9289C185.582 24.1065 185.892 24.1222 186.213 23.9762C196.12 19.3327 205.504 13.7948 214.363 7.36248C214.625 7.17581 214.758 6.92033 214.763 6.59606C214.93 -1.84904 225.689 -1.71182 225.723 6.02198C225.723 6.41606 225.886 6.71982 226.211 6.93336C235.397 13.1045 245 18.5349 255.023 23.2244C255.166 23.2918 255.325 23.3215 255.485 23.3106C255.645 23.2997 255.801 23.2487 255.938 23.1622C262.003 19.2756 268.386 27.5314 261.299 32.557C261.008 32.7567 260.848 33.0339 260.818 33.3888C259.936 44.3287 259.971 55.2629 260.923 66.1915C260.937 66.3756 261 66.5524 261.105 66.7036C261.209 66.8548 261.352 66.9751 261.518 67.0518C266.774 69.509 265.627 76.8873 259.931 77.6937C258.368 77.9143 257.346 77.1584 255.833 76.66C255.51 76.5597 255.201 76.5816 254.904 76.7259C244.667 81.5701 235.416 86.9857 227.15 92.9729C226.639 93.3381 226.392 93.8342 226.409 94.4609C226.588 101.82 216.472 102.636 215.605 93.9303C215.57 93.5982 215.415 93.3397 215.14 93.1548C206.151 87.0052 196.682 81.7179 186.733 77.2929C186.574 77.2226 186.398 77.1999 186.226 77.2274C186.054 77.2549 185.894 77.3315 185.765 77.448C183.588 79.4064 181.218 79.5832 178.653 77.9783C178.52 77.8928 178.364 77.8453 178.204 77.841C178.043 77.8367 177.884 77.8757 177.742 77.9538C168.78 83.0277 160.234 88.7153 152.103 95.0165C151.837 95.2232 151.673 95.4945 151.609 95.8303C151.292 97.5093 150.462 98.8725 149.12 99.92C148.985 100.022 148.875 100.152 148.796 100.302C148.717 100.452 148.671 100.618 148.663 100.788C148.138 109.373 148.402 117.935 149.455 126.476C149.474 126.637 149.533 126.791 149.627 126.924C149.721 127.057 149.848 127.165 149.994 127.237C156.311 130.305 151.371 138.573 145.822 134.601C145.688 134.505 145.529 134.449 145.362 134.437C145.196 134.426 145.028 134.46 144.878 134.536C137.541 138.313 130.536 142.635 123.862 147.5C123.593 147.697 123.376 147.956 123.228 148.255C123.081 148.553 123.007 148.883 123.014 149.216C123.021 149.548 123.108 149.874 123.269 150.164C123.429 150.455 123.657 150.702 123.934 150.885C130.826 155.471 138.111 159.331 145.787 162.464C146.13 162.606 146.456 162.575 146.765 162.37C151.772 159.034 156.302 165.953 151.142 169.559C151.012 169.654 150.905 169.775 150.828 169.915C150.751 170.054 150.706 170.209 150.697 170.367C150.265 178.997 150.526 187.197 151.479 194.968C151.591 195.9 152.093 196.563 152.986 196.956C153.267 197.078 153.51 197.252 153.716 197.48C157.303 201.391 152.749 206.767 147.932 203.454C147.658 203.269 147.379 203.257 147.095 203.416L134.4 210.691ZM185.256 69.2337C186.46 70.1669 187.118 71.3709 187.228 72.8456C187.251 73.1721 187.402 73.478 187.65 73.6971C188.289 74.2511 189.153 74.8846 190.244 75.5976C198.682 81.1311 207.396 86.0585 216.385 90.3798C216.653 90.5111 216.951 90.5697 217.248 90.5497C217.545 90.5296 217.831 90.4317 218.077 90.2657C220.152 88.8961 222.221 88.917 224.285 90.3285C224.445 90.4392 224.631 90.5055 224.824 90.5207C225.018 90.5358 225.211 90.4993 225.385 90.4147C235.209 85.6424 244.572 80.0817 253.473 73.7327C253.604 73.6399 253.708 73.5155 253.776 73.3718C253.843 73.2281 253.872 73.0701 253.858 72.9133C253.608 70.0813 254.76 68.1274 257.315 67.0516C257.65 66.9064 257.83 66.6547 257.854 66.2966C258.62 55.2987 258.445 44.3154 257.33 33.3467C257.313 33.1937 257.259 33.0471 257.171 32.9198C257.084 32.7925 256.966 32.6885 256.828 32.6171C254.58 31.4657 253.504 29.6538 253.601 27.1813C253.612 26.8458 253.477 26.584 253.197 26.3959C243.97 20.2458 234.335 14.8124 224.291 10.0957C223.979 9.94954 223.68 9.97343 223.392 10.1675C221.295 11.5765 219.166 11.5627 217.005 10.126C216.702 9.92521 216.389 9.90061 216.065 10.0523C206.049 14.6642 196.59 20.2302 187.689 26.7502C187.559 26.847 187.457 26.9763 187.392 27.1254C187.327 27.2745 187.302 27.4383 187.32 27.6007C187.598 30.2255 186.553 32.1283 184.183 33.3091C183.886 33.4534 183.724 33.6886 183.695 34.0146C182.762 44.9258 182.825 55.831 183.883 66.7301C183.985 67.761 184.442 68.5955 185.256 69.2337ZM89.6271 128.891C91.4132 129.782 92.304 131.184 92.2996 133.099C92.2973 133.285 92.3422 133.469 92.4304 133.634C92.5185 133.799 92.6469 133.939 92.8038 134.042C99.9593 138.754 107.481 142.766 115.368 146.078C115.501 146.136 115.647 146.158 115.792 146.14C115.938 146.122 116.076 146.066 116.194 145.977C117.809 144.764 119.496 144.725 121.255 145.86C121.377 145.938 121.518 145.983 121.664 145.989C121.809 145.995 121.954 145.962 122.084 145.893C125.272 144.216 143.989 134.235 144.791 129.816C144.85 129.515 144.978 129.249 145.175 129.018L146.573 127.433C146.772 127.212 146.878 126.952 146.89 126.654C147.44 116.894 147.156 108.413 146.038 101.211C145.896 100.305 145.2 99.5183 143.95 98.8493C143.594 98.6632 143.374 98.3753 143.29 97.9857L142.723 95.3578C142.664 95.0941 142.524 94.8885 142.303 94.7411C135.207 90.0928 127.741 86.1486 119.902 82.9086C119.579 82.7705 119.278 82.8088 119.001 83.0237C117.539 84.1375 115.971 84.255 114.298 83.3762C114.084 83.2625 113.845 83.2045 113.602 83.2073C113.359 83.2102 113.12 83.2738 112.906 83.3925C105.866 87.3079 97.4845 91.8028 91.4347 97.0245C91.3232 97.1225 91.234 97.243 91.1731 97.3779C91.1123 97.5128 91.0813 97.6588 91.0821 97.8063C91.1012 99.6008 90.3536 100.944 88.8394 101.835C88.5105 102.035 88.3349 102.326 88.3126 102.708C87.8581 111.154 88.0857 119.577 88.9955 127.977C89.0162 128.17 89.0849 128.355 89.1952 128.514C89.3055 128.674 89.454 128.804 89.6271 128.891ZM23.346 71.5611C23.3045 74.9491 22.7981 79.5348 25.2719 80.9772C27.9763 82.5574 30.4579 83.9596 32.7167 85.184C33.5043 85.6114 34.3829 85.8422 35.2776 85.8566C36.1722 85.8709 37.0563 85.6684 37.8542 85.2664C41.3912 83.4856 46.9811 81.2483 47.0524 75.8146C47.0756 73.3862 47.4512 69.1502 46.2588 67.0383C44.481 63.8709 36.2599 59.2032 32.4856 60.9502C26.9395 63.5244 23.4213 65.4496 23.346 71.5611ZM91.6064 189.61L91.979 192.975C91.6174 196.049 92.4993 198.171 94.6246 199.342C94.7673 199.423 94.8901 199.534 94.9841 199.668C95.078 199.802 95.1408 199.956 95.1677 200.117L95.531 202.296C95.5559 202.45 95.6128 202.597 95.6983 202.728C95.7837 202.859 95.8958 202.971 96.027 203.055C102.92 207.627 110.178 211.52 117.801 214.735C118.187 214.893 118.555 214.86 118.906 214.634C120.47 213.615 122.095 213.567 123.781 214.49C123.923 214.571 124.085 214.614 124.251 214.617C124.417 214.619 124.582 214.58 124.732 214.504C132.208 210.716 139.279 206.279 145.943 201.193C146.184 201.011 146.361 200.752 146.45 200.454C146.901 198.985 147.654 197.686 148.708 196.557C148.96 196.283 149.096 195.962 149.118 195.595C149.516 187.221 149.224 178.873 148.241 170.551C148.194 170.16 148.003 169.867 147.668 169.67C146.02 168.694 145.178 167.263 145.143 165.378C145.139 165.191 145.089 165.009 144.997 164.848C144.905 164.687 144.774 164.552 144.617 164.456C137.136 159.806 129.896 155.941 122.895 152.862C122.181 152.548 121.552 152.687 121.009 153.279C120.791 153.521 120.52 153.672 120.195 153.734C119.04 153.95 117.935 153.787 116.882 153.244C116.588 153.093 116.29 153.095 115.986 153.251C108.572 157.125 101.498 161.542 94.7649 166.5C94.449 166.73 94.3 167.04 94.3179 167.429C94.3997 169.244 93.6548 170.562 92.0832 171.384C91.9391 171.46 91.8184 171.574 91.734 171.713C91.6497 171.852 91.6048 172.011 91.6043 172.172L91.6064 189.61ZM5.65812 179.752C7.16204 180.55 7.89869 181.765 7.86804 183.398C7.86453 183.577 7.91003 183.754 7.99952 183.909C8.08901 184.064 8.21909 184.191 8.37551 184.275L25.1676 193.229C25.557 193.434 25.9439 193.433 26.3281 193.227C27.7547 192.465 29.1963 192.406 30.653 193.051C30.9562 193.185 31.2551 193.175 31.5498 193.022C37.4743 189.956 43.1 186.412 48.4268 182.391C48.6771 182.198 48.8376 181.947 48.9084 181.637C49.1654 180.512 49.7081 179.551 50.5366 178.756C50.8107 178.494 50.9528 178.177 50.963 177.804C51.2297 171.176 50.9823 164.57 50.221 157.986C50.1794 157.665 50.03 157.41 49.7731 157.22C48.5158 156.302 47.7559 155.088 47.4934 153.58C47.4331 153.226 47.2528 152.953 46.9525 152.761C41.427 149.215 35.6572 146.148 29.6427 143.56C29.5205 143.508 29.3864 143.49 29.2546 143.507C29.1229 143.525 28.9984 143.578 28.8944 143.661C27.7431 144.594 26.5043 144.681 25.178 143.925C25.0536 143.854 24.9131 143.817 24.7695 143.815C24.6259 143.814 24.4839 143.849 24.3568 143.918C18.4342 147.06 12.7596 150.598 7.33285 154.533C7.22983 154.606 7.14583 154.703 7.08791 154.815C7.03 154.928 6.99988 155.054 7.00008 155.181C6.98973 156.699 6.30826 157.852 4.95565 158.641C4.80539 158.728 4.68178 158.854 4.59826 159.005C4.51473 159.157 4.47444 159.328 4.48181 159.5L5.0478 178.761C5.05961 179.213 5.26304 179.544 5.65812 179.752Z" fill="url(#paint0_linear_789_32729)"/>
<defs>
<linearGradient id="paint0_linear_789_32729" x1="191.704" y1="-16.7744" x2="59.1957" y2="217.732" gradientUnits="userSpaceOnUse">
<stop stop-color="white"/>
<stop offset="1" stop-color="#2A62FE" stop-opacity="0"/>
</linearGradient>
</defs>
</svg>
