<svg width="1018" height="288" viewBox="0 0 1018 288" fill="none" xmlns="http://www.w3.org/2000/svg">
<path opacity="0.8" d="M121.381 266.919L117.195 310.332C115.533 310.428 113.925 311.214 112.913 312.652C111.111 315.17 111.697 318.708 114.214 320.511C116.563 322.179 119.73 321.769 121.615 319.695L156.588 344.643C156.452 344.811 156.269 344.957 156.146 345.16C154.344 347.678 154.93 351.216 157.46 353.054C158.311 353.651 159.259 353.975 160.235 354.052L156.077 397.217C154.147 397.016 152.153 397.826 150.961 399.527C149.812 401.133 149.624 403.099 150.297 404.827L110.369 423.021C110 422.445 109.539 421.942 108.952 421.525C106.806 419.981 103.927 420.207 102.04 421.847L66.5281 396.504C67.4782 394.14 66.704 391.382 64.5583 389.838C62.0412 388.035 58.5042 388.62 56.7023 391.138C55.7114 392.528 55.4563 394.202 55.8312 395.763L16.2159 413.842C15.8723 413.336 15.4244 412.868 14.8847 412.473C12.3549 410.635 8.83073 411.255 7.02881 413.773C5.23965 416.325 5.81317 419.828 8.34304 421.666C9.08576 422.184 9.90389 422.477 10.7406 422.605L6.59561 465.805C4.79927 465.752 2.97053 466.581 1.84389 468.139C0.0419509 470.657 0.628254 474.195 3.15813 476.033C5.67524 477.836 9.21214 477.251 11.0141 474.734L46.2977 499.884C44.4957 502.401 45.082 505.94 47.6119 507.778C50.129 509.581 53.666 508.995 55.4551 506.443C56.6038 504.837 56.7788 502.837 56.1057 501.108L95.5597 483.128C95.9578 483.891 96.5172 484.555 97.2599 485.073C99.777 486.876 103.314 486.291 105.116 483.773L140.352 508.901C138.563 511.454 139.136 514.957 141.653 516.76C142.504 517.357 143.452 517.681 144.428 517.758L140.283 560.958C138.353 560.757 136.36 561.567 135.167 563.268C133.365 565.786 133.951 569.324 136.481 571.162C138.998 572.965 142.535 572.38 144.359 569.815L179.608 594.978C177.819 597.53 178.392 601.033 180.922 602.871C183.439 604.675 186.976 604.089 188.778 601.572C189.848 600.073 190.039 598.225 189.556 596.585L229.045 578.592C229.427 579.203 229.948 579.763 230.561 580.249C233.078 582.052 236.615 581.467 238.417 578.949L274.408 604.63C273.063 607.099 273.708 610.26 276.057 611.927C276.692 612.366 277.405 612.697 278.125 612.829L273.958 656.076C272.282 656.137 270.593 656.915 269.523 658.413C267.721 660.931 268.307 664.469 270.837 666.307C273.186 667.974 276.353 667.564 278.238 665.49L313.595 690.732C312.249 693.201 312.894 696.362 315.243 698.029C317.76 699.833 321.297 699.247 323.099 696.73C324.169 695.231 324.395 693.37 323.865 691.708L363.354 673.715C363.748 674.361 364.269 674.92 364.904 675.359C367.253 677.027 370.42 676.616 372.305 674.542L408.081 700.065C406.735 702.534 407.38 705.695 409.729 707.363C412.259 709.201 415.783 708.58 417.585 706.063C418.734 704.457 418.909 702.457 418.248 700.763L458.234 682.509C458.629 683.154 459.15 683.714 459.797 684.188C462.146 685.855 465.313 685.445 467.198 683.371L502.59 708.6C501.244 711.069 501.911 714.182 504.238 715.897C506.79 717.688 510.292 717.115 512.116 714.55C513.208 713.004 513.421 711.109 512.856 709.459L552.345 691.466C552.752 692.146 553.251 692.754 553.934 693.215C556.283 694.882 559.449 694.472 561.335 692.398L596.787 717.684C595.441 720.153 596.074 723.279 598.435 724.981C599.13 725.477 599.866 725.76 600.668 725.901L596.458 769.678C594.601 769.568 592.69 770.387 591.507 772.007C590.415 773.553 590.202 775.448 590.767 777.098L551.278 795.09C550.871 794.41 550.359 793.768 549.676 793.307C547.159 791.504 543.622 792.089 541.82 794.607C540.018 797.124 540.605 800.662 543.135 802.501C543.83 802.996 544.566 803.28 545.367 803.42L541.222 846.62C539.439 846.603 537.727 847.428 536.636 848.973C534.834 851.491 535.42 855.029 537.937 856.833C540.286 858.5 543.453 858.09 545.338 856.016L580.73 881.245C579.384 883.714 580.016 886.84 582.378 888.542C584.93 890.333 588.432 889.76 590.269 887.23C591.317 885.779 591.533 884 591.063 882.395L630.622 864.377C630.991 864.952 631.464 865.49 632.052 865.907C634.4 867.574 637.567 867.164 639.453 865.09L675.073 890.512C673.727 892.981 674.407 896.129 676.721 897.809C679.238 899.613 682.775 899.027 684.577 896.51C685.647 895.011 685.873 893.15 685.355 891.523L724.844 873.53C725.226 874.141 725.76 874.735 726.395 875.174C728.912 876.977 732.449 876.392 734.251 873.874C736.053 871.357 735.466 867.819 732.949 866.015C732.302 865.542 731.601 865.246 730.881 865.114L735.104 821.372C736.948 821.447 738.777 820.618 739.925 819.012C740.995 817.514 741.221 815.653 740.691 813.991L780.18 795.998C780.574 796.643 781.095 797.203 781.73 797.642C784.247 799.445 787.784 798.86 789.586 796.342C791.388 793.825 790.802 790.286 788.284 788.483C787.65 788.044 786.936 787.713 786.217 787.582L790.371 744.3C792.046 744.238 793.688 743.439 794.771 741.975C796.573 739.458 795.987 735.92 793.457 734.082C791.108 732.414 787.941 732.825 786.056 734.899L750.759 709.713C752.105 707.245 751.472 704.118 749.124 702.451C748.536 702.034 747.931 701.782 747.281 701.625L751.546 657.354C753.476 657.555 755.47 656.745 756.662 655.044C757.811 653.438 757.986 651.437 757.326 649.744L796.675 631.802C797.083 632.482 797.582 633.089 798.264 633.55C800.613 635.218 803.78 634.808 805.678 632.768L841.069 657.998C839.724 660.466 840.356 663.593 842.718 665.295C845.235 667.098 848.772 666.513 850.609 663.982C851.678 662.484 851.87 660.636 851.352 659.008L890.841 641.016C891.236 641.661 891.757 642.221 892.391 642.66C894.909 644.463 898.445 643.877 900.247 641.36C902.036 638.808 901.463 635.304 898.933 633.466C898.298 633.027 897.585 632.696 896.865 632.565L901.019 589.283C902.695 589.221 904.372 588.409 905.407 586.924C906.521 585.33 906.708 583.365 906.083 581.658L946.682 563.14C947.026 563.646 947.474 564.114 948.013 564.509C950.53 566.312 954.067 565.726 955.857 563.174C957.658 560.657 957.072 557.119 954.555 555.315C953.812 554.797 952.994 554.505 952.158 554.377L956.315 511.212C958.159 511.286 959.988 510.458 961.137 508.852C962.206 507.353 962.433 505.493 961.915 503.865L1001.4 485.872C1001.8 486.518 1002.32 487.077 1002.95 487.516C1005.47 489.319 1009.01 488.734 1010.81 486.216C1012.6 483.664 1012.03 480.161 1009.51 478.358C1008.87 477.919 1008.16 477.588 1007.44 477.456L1011.59 434.174C1013.27 434.113 1014.91 433.313 1016 431.85C1017.8 429.332 1017.21 425.794 1014.69 423.991C1012.34 422.323 1009.18 422.734 1007.29 424.808L971.983 399.588C973.329 397.119 972.662 394.006 970.348 392.325C967.831 390.522 964.294 391.108 962.492 393.625C961.422 395.124 961.218 396.937 961.735 398.564L922.212 416.57C921.817 415.924 921.296 415.365 920.661 414.926C918.313 413.258 915.146 413.669 913.247 415.708L877.351 390.071C878.697 387.602 878.064 384.476 875.703 382.774C873.186 380.971 869.649 381.556 867.847 384.073C866.676 385.727 866.514 387.762 867.235 389.513L827.341 407.694C826.959 407.083 826.438 406.523 825.838 406.072C823.489 404.404 820.322 404.815 818.437 406.889L783.128 381.669C784.473 379.2 783.841 376.074 781.479 374.371C778.962 372.568 775.425 373.154 773.623 375.671C772.553 377.17 772.349 378.983 772.832 380.623L733.309 398.629C732.927 398.018 732.393 397.423 731.758 396.985C729.241 395.181 725.704 395.767 723.902 398.284C722.1 400.802 722.687 404.34 725.204 406.143C725.838 406.582 726.552 406.913 727.272 407.044L723.105 450.292C721.381 450.331 719.739 451.13 718.67 452.629C716.833 455.159 717.454 458.685 719.971 460.488C722.32 462.155 725.487 461.745 727.372 459.671L762.764 484.9C761.418 487.369 762.051 490.495 764.412 492.197C765.107 492.693 765.891 492.999 766.692 493.139L762.566 536.174C760.709 536.065 758.798 536.884 757.628 538.538C756.378 540.3 756.301 542.461 757.165 544.278L716.901 562.634C716.503 561.871 715.931 561.172 715.188 560.654C712.731 558.908 709.403 559.417 707.525 561.726L672.276 536.563C673.878 534.039 673.251 530.713 670.795 528.967C668.243 527.177 664.741 527.749 662.939 530.267C661.79 531.873 661.628 533.908 662.301 535.636L622.847 553.617C622.449 552.854 621.877 552.155 621.121 551.602C618.664 549.856 615.301 550.377 613.458 552.673L578.33 527.624C579.675 525.155 579.008 522.042 576.681 520.327C574.164 518.523 570.627 519.109 568.825 521.626C567.79 523.112 567.573 524.89 568.044 526.496L528.833 544.386C528.439 543.741 527.94 543.134 527.257 542.673C524.74 540.87 521.203 541.455 519.401 543.973C517.612 546.525 518.186 550.028 520.716 551.866C521.255 552.261 521.874 552.548 522.523 552.705L518.302 596.881C516.518 596.863 514.725 597.679 513.633 599.225C512.585 600.676 512.381 602.489 512.851 604.094L473.292 622.113C472.911 621.502 472.437 620.964 471.802 620.525C469.285 618.722 465.748 619.308 463.946 621.825L423.448 592.898L378.45 613.423C378.043 612.743 377.544 612.136 376.849 611.64C374.5 609.973 371.333 610.383 369.435 612.422L334.139 587.237C335.485 584.768 334.817 581.655 332.468 579.987C331.76 579.457 330.942 579.164 330.14 579.024L334.347 535.129C336.191 535.204 338.019 534.376 339.168 532.769C340.238 531.271 340.464 529.41 339.946 527.783L379.435 509.79C379.83 510.435 380.351 510.995 380.986 511.434C383.503 513.237 387.04 512.652 388.829 510.099L424.341 535.442C422.995 537.911 423.628 541.037 425.977 542.705C428.494 544.508 432.031 543.922 433.867 541.392C434.937 539.894 435.141 538.081 434.624 536.453L474.078 518.473C474.447 519.049 474.907 519.552 475.507 520.003C478.059 521.794 481.561 521.221 483.385 518.656C485.187 516.139 484.601 512.6 482.084 510.797C481.497 510.38 480.843 510.106 480.194 509.949L484.394 466.255C486.238 466.33 488.067 465.501 489.215 463.895C490.285 462.396 490.511 460.536 489.994 458.908L529.483 440.915C529.877 441.561 530.398 442.121 531.033 442.559C533.382 444.227 536.549 443.817 538.447 441.777L574.223 467.3C572.877 469.769 573.522 472.93 575.871 474.598C578.388 476.401 581.925 475.815 583.727 473.298C584.876 471.691 585.051 469.691 584.39 467.998L623.544 450.167C623.887 450.674 624.322 451.107 624.862 451.501C627.392 453.34 630.916 452.719 632.718 450.202C634.52 447.684 633.934 444.146 631.417 442.343C630.89 441.983 630.319 441.718 629.739 441.536L633.859 398.7C635.69 398.74 637.532 397.946 638.646 396.353C640.448 393.835 639.861 390.297 637.344 388.494C634.995 386.827 631.816 387.202 629.93 389.276L593.818 363.481C595.164 361.013 594.531 357.886 592.183 356.219C591.751 355.903 591.275 355.682 590.79 355.544L595.028 311.52C596.595 311.38 598.133 310.619 599.146 309.181C600.216 307.682 600.442 305.822 599.889 304.207L639.378 286.214C639.76 286.825 640.281 287.384 640.894 287.871C643.411 289.674 646.948 289.089 648.772 286.524L684.116 311.731C682.77 314.199 683.437 317.313 685.764 319.028C688.281 320.831 691.818 320.246 693.62 317.728C694.611 316.338 694.844 314.711 694.517 313.172L734.85 294.791C735.203 295.214 735.569 295.673 736.048 296.011C738.565 297.814 742.102 297.229 743.891 294.676C745.693 292.159 745.107 288.621 742.59 286.818C741.895 286.322 741.159 286.038 740.392 285.885L744.5 243.015C746.055 242.84 747.544 242.056 748.513 240.714C750.315 238.196 749.729 234.658 747.212 232.855C744.863 231.187 741.649 231.575 739.776 233.684L705.378 209.118C706.724 206.649 706.091 203.523 703.729 201.821C701.177 200.03 697.675 200.603 695.873 203.121C694.939 204.451 694.646 206.02 694.948 207.49L654.244 226.046C653.837 225.366 653.325 224.724 652.642 224.263C650.497 222.719 647.652 222.932 645.731 224.584L610.219 199.241C611.134 196.891 610.43 194.107 608.249 192.576C605.732 190.772 602.195 191.358 600.393 193.875C599.323 195.374 599.097 197.234 599.615 198.862L560.091 216.867C559.696 216.222 559.175 215.662 558.528 215.189C556.179 213.521 552.999 213.897 551.127 216.005L515.77 190.763C517.116 188.295 516.483 185.168 514.134 183.501C513.595 183.106 512.989 182.854 512.409 182.672L516.6 139.06C518.263 138.964 519.87 138.177 520.918 136.726C522.72 134.209 522.133 130.671 519.616 128.867C517.363 127.244 514.357 127.556 512.43 129.408L476.762 103.964C478.108 101.495 477.441 98.3818 475.114 96.6669C474.466 96.1931 473.765 95.897 473.046 95.7657L477.213 52.5181C478.889 52.4569 480.53 51.6575 481.613 50.1939C483.402 47.6416 482.829 44.1382 480.311 42.3349C477.963 40.6675 474.796 41.0778 472.91 43.1518L437.601 17.9319C438.947 15.4631 438.315 12.3369 435.966 10.6695C433.414 8.879 429.912 9.45175 428.11 11.9692C427.04 13.4676 426.836 15.2807 427.319 16.921L387.795 34.9266C387.413 34.316 386.879 33.7215 386.245 33.2826C383.896 31.6152 380.729 32.0255 378.843 34.0995L342.9 8.4406C344.245 5.97182 343.578 2.85844 341.264 1.17827C338.747 -0.624967 335.21 -0.0395085 333.408 2.47793C332.237 4.13184 332.088 6.20155 332.808 7.95221L293.655 25.7825C293.286 25.2067 292.765 24.6471 292.178 24.2302C289.66 22.427 286.124 23.0124 284.322 25.5299C282.52 28.0473 283.106 31.5856 285.623 33.3889C286.223 33.8405 286.911 34.1019 287.574 34.2935L283.453 77.129C281.549 76.9975 279.673 77.8038 278.467 79.4705C276.665 81.9879 277.251 85.5262 279.769 87.3295C282.117 88.9968 285.284 88.5866 287.17 86.5126L323.114 112.171C321.768 114.64 322.4 117.766 324.762 119.469C325.302 119.863 325.895 120.081 326.488 120.298L322.281 164.192C320.558 164.231 318.916 165.03 317.846 166.529C316.044 169.046 316.631 172.585 319.161 174.423C321.509 176.09 324.676 175.68 326.562 173.606L362.169 198.993C360.823 201.462 361.456 204.588 363.817 206.29C364.452 206.729 365.166 207.06 365.885 207.191L361.718 250.439C360.008 250.513 358.353 251.277 357.283 252.776C355.482 255.293 356.068 258.832 358.585 260.635C360.934 262.302 364.101 261.892 365.986 259.818L401.378 285.047C400.032 287.516 400.664 290.642 403.013 292.31C403.553 292.704 404.171 292.991 404.821 293.148L400.397 337.201C398.686 337.275 397.031 338.04 395.962 339.538C394.16 342.055 394.746 345.594 397.263 347.397C399.612 349.064 402.792 348.689 404.664 346.58L440.237 371.98C438.891 374.449 439.524 377.575 441.885 379.277C442.52 379.716 443.234 380.047 443.953 380.178L439.786 423.426C438.076 423.5 436.421 424.265 435.351 425.763C434.203 427.369 434.015 429.334 434.675 431.028L393.971 449.585C393.59 448.974 393.068 448.415 392.469 447.963C390.12 446.296 386.94 446.671 385.055 448.745L349.758 423.56C351.104 421.091 350.437 417.978 348.11 416.263C345.593 414.46 342.056 415.045 340.254 417.562C339.184 419.061 338.98 420.874 339.498 422.502L299.974 440.507C299.592 439.896 299.071 439.337 298.424 438.863C296.075 437.196 292.895 437.571 291.01 439.645L254.898 413.85C255.813 411.5 255.073 408.729 252.94 407.219C252.509 406.904 252.033 406.683 251.57 406.497L255.752 362.968C257.164 362.726 258.537 361.947 259.449 360.664C261.251 358.147 260.665 354.608 258.147 352.805C256.002 351.261 253.158 351.474 251.236 353.126L215.724 327.783C216.639 325.433 215.9 322.662 213.754 321.118C213.383 320.859 212.989 320.647 212.609 320.471L216.908 275.753C218.476 275.612 220.013 274.851 220.991 273.426C222.061 271.928 222.265 270.114 221.769 268.439L261.258 250.447C261.64 251.057 262.161 251.617 262.809 252.091C265.326 253.894 268.863 253.308 270.665 250.791C272.454 248.239 271.88 244.735 269.363 242.932C268.931 242.616 268.456 242.395 268.005 242.244L272.187 198.715C273.6 198.474 274.972 197.694 275.884 196.411C277.686 193.894 277.1 190.356 274.583 188.552C272.437 187.008 269.593 187.221 267.671 188.874L232.159 163.531C233.109 161.167 232.37 158.396 230.189 156.865C227.638 155.074 224.135 155.647 222.333 158.165C221.264 159.663 221.072 161.511 221.555 163.151L182.032 181.157C181.637 180.511 181.116 179.952 180.468 179.478C177.916 177.687 174.414 178.26 172.612 180.778C170.81 183.295 171.397 186.833 173.914 188.637C174.765 189.233 175.713 189.557 176.654 189.647L172.509 232.847C170.579 232.646 168.585 233.456 167.393 235.157C166.244 236.764 166.069 238.764 166.729 240.457L127.38 258.399C126.972 257.719 126.473 257.111 125.778 256.616C123.261 254.812 119.724 255.398 117.922 257.915C116.12 260.433 116.707 263.971 119.224 265.774C119.878 266.483 120.614 266.766 121.381 266.919ZM221.222 267.376C220.827 266.73 220.306 266.171 219.671 265.732C217.525 264.188 214.681 264.401 212.76 266.053L177.2 240.688C178.115 238.338 177.376 235.567 175.23 234.022C174.798 233.706 174.323 233.486 173.825 233.313L178.02 189.818C179.479 189.599 180.852 188.819 181.764 187.537C182.834 186.038 183.038 184.225 182.555 182.585L222.079 164.579C222.473 165.225 222.994 165.784 223.629 166.223C226.146 168.026 229.683 167.441 231.485 164.924L266.674 190.03C264.884 192.582 265.458 196.085 267.975 197.889C268.838 198.52 269.809 198.797 270.797 198.908L266.652 242.108C264.723 241.907 262.729 242.717 261.501 244.431C260.432 245.93 260.205 247.79 260.723 249.418L221.222 267.376ZM254.28 415.183L290.259 440.829C288.913 443.298 289.581 446.411 291.907 448.126C292.507 448.578 293.196 448.839 293.893 449.018L289.739 492.3C288.076 492.396 286.469 493.183 285.386 494.647C284.338 496.097 284.134 497.911 284.604 499.516L243.692 518.149C243.336 517.608 242.875 517.106 242.335 516.711C240.405 515.325 237.849 515.353 235.974 516.594L200.138 491.014C200.683 488.838 199.919 486.432 197.942 485.023C197.618 484.787 197.237 484.61 196.857 484.434L201.131 440.08C202.496 439.817 203.764 439.075 204.654 437.84C205.667 436.402 205.91 434.693 205.487 433.11L245.08 415.079C245.437 415.62 245.897 416.123 246.437 416.517C248.954 418.321 252.444 417.713 254.28 415.183ZM514.763 192.002L550.107 217.209C548.761 219.678 549.394 222.804 551.755 224.506C552.438 224.967 553.186 225.285 553.953 225.439L549.808 268.639C548.072 268.643 546.361 269.468 545.256 270.979C544.164 272.525 543.986 274.408 544.516 276.07L500.329 296.22L460.646 267.902C461.992 265.434 461.324 262.32 458.963 260.618C458.363 260.166 457.675 259.905 456.977 259.726L461.131 216.444C462.794 216.348 464.401 215.561 465.449 214.11C466.497 212.659 466.714 210.881 466.244 209.275L505.802 191.257C506.184 191.868 506.657 192.405 507.292 192.844C509.698 194.451 512.877 194.076 514.763 192.002ZM405.934 293.491C407.73 293.543 409.524 292.728 410.673 291.121C411.664 289.731 411.919 288.057 411.557 286.53L451.185 268.487C451.529 268.993 451.929 269.439 452.456 269.799C454.602 271.343 457.446 271.13 459.367 269.477L499.145 297.839L494.458 346.453C492.843 346.571 491.27 347.345 490.292 348.77C489.279 350.208 489.037 351.917 489.459 353.501L449.866 371.532C449.51 370.991 449.049 370.488 448.462 370.071C446.113 368.404 442.946 368.814 441.048 370.853L405.475 345.453C406.821 342.984 406.154 339.871 403.84 338.191C403.192 337.717 402.491 337.421 401.759 337.255L405.934 293.491ZM366.982 207.382C368.705 207.343 370.382 206.531 371.417 205.045C372.487 203.547 372.678 201.699 372.195 200.058L411.719 182.053C412.113 182.698 412.634 183.258 413.282 183.732C415.631 185.399 418.798 184.989 420.683 182.915L455.98 208.1C454.634 210.569 455.301 213.682 457.628 215.397C458.275 215.871 459.011 216.154 459.743 216.32L455.576 259.568C453.853 259.607 452.211 260.406 451.141 261.905C450.072 263.403 449.88 265.251 450.398 266.879L410.909 284.871C410.527 284.261 410.006 283.701 409.359 283.227C407.01 281.56 403.83 281.935 401.958 284.044L366.566 258.815C367.912 256.346 367.245 253.233 364.918 251.518C364.27 251.044 363.569 250.748 362.837 250.582L366.982 207.382ZM327.588 120.606C329.419 120.645 331.26 119.852 332.374 118.258C333.365 116.868 333.608 115.159 333.245 113.633L372.873 95.5888C373.23 96.1298 373.678 96.5977 374.217 96.9925C376.363 98.5368 379.207 98.3238 381.129 96.6712L416.701 122.071C415.786 124.422 416.525 127.193 418.671 128.737C419.211 129.132 419.769 129.362 420.384 129.531L416.159 173.59C414.544 173.708 412.971 174.482 411.993 175.907C410.98 177.345 410.738 179.054 411.161 180.638L371.532 198.681C371.176 198.14 370.715 197.638 370.163 197.208C367.814 195.541 364.635 195.916 362.762 198.025L327.189 172.625C328.535 170.156 327.903 167.03 325.554 165.363C324.906 164.889 324.205 164.593 323.473 164.427L327.588 120.606ZM333.151 9.20945C333.482 9.6808 333.869 10.0918 334.349 10.4297C336.697 12.0971 339.864 11.6868 341.75 9.61281L377.694 35.2717C376.348 37.7404 376.98 40.8666 379.342 42.5689C379.942 43.0205 380.63 43.2819 381.328 43.4608L377.173 86.7431C375.498 86.8043 373.89 87.591 372.856 89.0766C371.808 90.5274 371.604 92.3406 372.074 93.9461L332.515 111.964C332.134 111.354 331.66 110.816 331.025 110.377C328.676 108.71 325.497 109.085 323.624 111.194L287.68 85.5353C289.026 83.0665 288.359 79.9531 286.045 78.2729C285.565 77.935 285.042 77.6923 284.509 77.532L288.626 34.5793C290.362 34.575 292.074 33.75 293.179 32.2389C294.27 30.6929 294.497 28.8321 293.918 27.1477L333.151 9.20945ZM471.427 95.7665C469.704 95.8056 468.062 96.6051 466.992 98.1035C465.922 99.6019 465.696 101.463 466.214 103.09L426.725 121.083C426.343 120.472 425.822 119.913 425.187 119.474C422.839 117.806 419.659 118.182 417.773 120.256L382.382 95.0266C383.728 92.5578 383.095 89.4316 380.734 87.7293C380.086 87.2556 379.385 86.9595 378.653 86.7933L382.82 43.5458C384.543 43.5067 386.22 42.6944 387.29 41.1961C388.359 39.6976 388.551 37.8497 388.033 36.2221L427.557 18.2166C427.951 18.8621 428.438 19.4345 429.12 19.8955C431.469 21.5629 434.636 21.1525 436.521 19.0785L471.817 44.2636C470.471 46.7324 471.139 49.8458 473.466 51.5608C474.113 52.0346 474.849 52.318 475.581 52.4841L471.427 95.7665ZM510.834 182.578C508.99 182.503 507.196 183.319 506.048 184.925C505.057 186.315 504.814 188.024 505.189 189.585L465.561 207.629C465.205 207.088 464.757 206.62 464.217 206.226C462.071 204.681 459.227 204.894 457.306 206.547L421.794 181.204C422.709 178.853 422.004 176.07 419.837 174.573C419.297 174.178 418.691 173.926 418.076 173.757L422.301 129.698C423.929 129.614 425.523 128.793 426.536 127.355C427.549 125.917 427.779 124.173 427.356 122.59L466.915 104.571C467.271 105.112 467.732 105.615 468.319 106.032C470.668 107.699 473.835 107.289 475.72 105.215L511.328 130.602C509.76 133.113 510.387 136.439 512.809 138.198C513.504 138.694 514.24 138.977 515.007 139.13L510.834 182.578ZM693.801 311.973C693.402 311.21 692.818 310.476 692.062 309.924C689.713 308.256 686.547 308.667 684.648 310.706L649.184 285.385C650.134 283.022 649.36 280.263 647.214 278.719C646.795 278.438 646.354 278.205 645.904 278.054L650.108 234.476C651.52 234.235 652.81 233.446 653.7 232.211C654.748 230.76 654.965 228.982 654.507 227.411L695.107 208.893C695.496 209.738 696.093 210.507 696.896 211.082C699.245 212.749 702.412 212.339 704.298 210.265L738.696 234.831C737.35 237.3 738.017 240.413 740.366 242.081C741.122 242.633 741.987 242.948 742.859 243.063L738.738 285.899C737.075 285.995 735.468 286.781 734.42 288.232C733.25 289.886 733.1 291.956 733.821 293.706L693.801 311.973ZM599.104 303.033C598.709 302.388 598.188 301.828 597.553 301.389C595.407 299.845 592.563 300.058 590.642 301.71L555.082 276.345C556.032 273.982 555.293 271.211 553.112 269.679C552.68 269.364 552.205 269.143 551.707 268.97L555.902 225.475C557.361 225.256 558.734 224.476 559.646 223.194C560.716 221.695 560.92 219.882 560.402 218.255L599.926 200.249C600.321 200.895 600.842 201.454 601.476 201.893C603.993 203.696 607.53 203.111 609.332 200.593L644.521 225.7C642.732 228.252 643.305 231.755 645.835 233.593C646.698 234.225 647.669 234.502 648.657 234.613L644.512 277.813C642.548 277.625 640.589 278.422 639.361 280.136C638.292 281.634 638.065 283.495 638.596 285.157L599.104 303.033ZM589.199 355.298C587.269 355.097 585.276 355.906 584.048 357.621C582.978 359.119 582.752 360.98 583.27 362.607L543.885 380.562C543.529 380.021 543.081 379.553 542.542 379.158C540.396 377.614 537.552 377.827 535.63 379.479L500.131 354.171C501.046 351.821 500.341 349.037 498.161 347.506C497.621 347.111 497.015 346.859 496.4 346.689L501.122 297.628L545.239 277.504C545.595 278.045 546.031 278.478 546.57 278.873C548.919 280.54 552.086 280.13 553.971 278.056L589.363 303.285C588.017 305.754 588.697 308.902 591.011 310.582C591.754 311.1 592.572 311.393 593.409 311.521L589.199 355.298ZM583.56 466.919C583.217 466.413 582.769 465.945 582.229 465.55C579.88 463.883 576.701 464.258 574.815 466.332L539.04 440.809C540.386 438.341 539.718 435.227 537.369 433.56C536.769 433.108 536.068 432.812 535.384 432.668L539.538 389.385C541.201 389.289 542.808 388.503 543.856 387.052C544.903 385.601 545.12 383.823 544.65 382.217L584.104 364.237C584.435 364.709 584.87 365.142 585.362 365.514C587.711 367.182 590.878 366.772 592.798 364.685L628.898 390.445C627.552 392.913 628.197 396.074 630.546 397.742C631.086 398.137 631.679 398.354 632.272 398.571L628.151 441.407C626.307 441.332 624.478 442.16 623.295 443.779C622.146 445.386 621.984 447.421 622.644 449.114L583.56 466.919ZM489.234 457.804C488.852 457.193 488.331 456.634 487.683 456.16C485.334 454.493 482.155 454.868 480.269 456.942L444.878 431.713C446.224 429.244 445.591 426.118 443.207 424.463C442.56 423.99 441.859 423.693 441.139 423.562L445.306 380.315C447.029 380.275 448.671 379.476 449.741 377.978C450.811 376.479 451.002 374.631 450.519 372.991L490.043 354.985C490.438 355.631 490.959 356.19 491.606 356.664C493.955 358.332 497.122 357.921 499.007 355.847L534.304 381.032C532.958 383.501 533.603 386.662 535.952 388.33C536.6 388.803 537.335 389.087 538.068 389.253L533.901 432.5C532.178 432.54 530.536 433.339 529.466 434.837C528.396 436.336 528.17 438.197 528.688 439.824L489.234 457.804ZM389.314 509.052C390.229 506.702 389.49 503.931 387.344 502.387C386.865 502.049 386.354 501.841 385.856 501.668L390.051 458.173C391.511 457.954 392.931 457.196 393.865 455.866C394.935 454.368 395.148 452.472 394.631 450.845L435.404 432.262C435.76 432.803 436.208 433.271 436.748 433.666C438.894 435.21 441.738 434.997 443.659 433.345L479.219 458.71C478.269 461.073 479.008 463.844 481.189 465.376C481.729 465.77 482.287 466 482.902 466.17L478.679 509.912C476.896 509.894 475.136 510.697 474.057 512.278C472.966 513.824 472.765 515.754 473.343 517.439L433.959 535.393C433.564 534.748 433.043 534.188 432.395 533.714C430.046 532.047 426.867 532.422 424.994 534.531L389.314 509.052ZM339.221 526.666C338.839 526.055 338.318 525.496 337.718 525.044C335.369 523.376 332.202 523.787 330.304 525.826L294.913 500.597C296.259 498.128 295.591 495.014 293.277 493.334C292.629 492.861 291.928 492.564 291.196 492.398L295.363 449.151C297.086 449.112 298.728 448.312 299.798 446.814C300.868 445.315 301.059 443.467 300.542 441.84L340.065 423.834C340.46 424.48 340.981 425.039 341.628 425.513C343.977 427.18 347.144 426.77 349.03 424.696L384.326 449.881C382.98 452.35 383.648 455.464 385.974 457.179C386.622 457.652 387.358 457.936 388.09 458.102L383.936 501.384C382.212 501.423 380.571 502.223 379.501 503.721C378.431 505.22 378.205 507.08 378.723 508.708L339.221 526.666ZM328.629 579.103C327.014 579.221 325.442 579.995 324.429 581.433C323.416 582.871 323.174 584.58 323.596 586.164L283.968 604.207C283.612 603.666 283.151 603.164 282.564 602.747C280.215 601.079 277.048 601.49 275.163 603.564L239.05 577.769C240.001 575.406 239.226 572.647 237.081 571.103C236.662 570.822 236.233 570.624 235.77 570.438L239.975 526.861C241.387 526.619 242.677 525.83 243.567 524.595C244.615 523.145 244.832 521.366 244.374 519.796L285.322 501.15C285.678 501.691 286.126 502.158 286.666 502.553C288.811 504.098 291.656 503.885 293.577 502.232L329.137 527.597C328.221 529.947 328.926 532.731 331.107 534.263C331.646 534.658 332.204 534.888 332.82 535.057L328.629 579.103ZM597.623 716.627L562.171 691.34C563.517 688.872 562.85 685.758 560.523 684.043C559.876 683.569 559.175 683.273 558.455 683.142L562.622 639.895C564.298 639.833 565.974 639.021 567.022 637.57C568.092 636.072 568.296 634.259 567.778 632.631L608.182 614.224C608.474 614.591 608.849 614.967 609.281 615.283C611.319 616.748 613.989 616.599 615.882 615.194L651.623 640.73C650.917 643.004 651.662 645.575 653.7 647.04C654.239 647.435 654.845 647.687 655.46 647.857L650.693 697.329L606.505 717.479C606.123 716.869 605.615 716.344 605.015 715.892C602.688 714.177 599.544 714.54 597.623 716.627ZM568.472 527.88C568.866 528.525 569.378 529.167 570.061 529.628C572.41 531.296 575.576 530.885 577.462 528.811L612.65 553.917C611.526 556.344 612.247 559.28 614.488 560.869C615.122 561.308 615.789 561.617 616.521 561.783L612.354 605.03C610.678 605.091 609.036 605.891 607.954 607.354C606.805 608.961 606.617 610.926 607.278 612.62L567.014 630.976C566.67 630.47 566.222 630.002 565.73 629.629C563.584 628.085 560.705 628.31 558.819 629.95L523.306 604.607C524.222 602.257 523.517 599.473 521.337 597.941C520.749 597.525 520.144 597.272 519.481 597.081L523.715 552.94C525.512 552.992 527.34 552.164 528.454 550.57C529.489 549.085 529.706 547.306 529.223 545.666L568.472 527.88ZM662.89 536.922C663.234 537.428 663.669 537.861 664.209 538.256C666.45 539.844 669.468 539.567 671.36 537.728L706.717 562.97C705.593 565.397 706.314 568.333 708.555 569.921C709.202 570.395 709.951 570.713 710.718 570.866L706.551 614.114C704.828 614.153 703.138 614.93 702.046 616.476C700.898 618.083 700.735 620.118 701.408 621.846L661.954 639.826C661.556 639.064 661.019 638.352 660.229 637.812C657.772 636.066 654.409 636.587 652.565 638.883L617.256 613.663C618.859 611.14 618.232 607.814 615.775 606.068C615.14 605.629 614.439 605.332 613.742 605.154L617.909 561.906C619.584 561.845 621.261 561.033 622.309 559.582C623.3 558.191 623.533 556.565 623.205 555.026L662.89 536.922ZM767.954 493.348C769.569 493.23 771.141 492.456 772.189 491.006C773.202 489.568 773.432 487.824 773.009 486.241L812.555 468.187C812.911 468.729 813.372 469.231 813.959 469.648C816.308 471.316 819.475 470.905 821.36 468.831L861.199 497.25L856.5 546.263C854.716 546.246 852.922 547.061 851.83 548.607C850.861 549.95 850.606 551.624 850.934 553.163L811.271 571.22C810.927 570.714 810.492 570.281 810 569.908C807.854 568.364 804.975 568.589 803.089 570.229L767.097 544.548C768.443 542.079 767.81 538.953 765.461 537.286C764.969 536.913 764.411 536.683 763.879 536.523L767.954 493.348ZM773.2 381.95C773.595 382.595 774.116 383.155 774.763 383.629C777.112 385.296 780.279 384.886 782.165 382.812L817.474 408.032C816.128 410.501 816.795 413.614 819.122 415.329C819.77 415.803 820.505 416.086 821.238 416.252L817.071 459.5C815.347 459.539 813.705 460.338 812.601 461.849C811.531 463.348 811.34 465.196 811.845 466.789L772.356 484.781C771.974 484.171 771.453 483.611 770.84 483.125C768.491 481.457 765.312 481.833 763.426 483.907L728.07 458.665C729.415 456.196 728.748 453.082 726.386 451.38C725.752 450.941 725.038 450.61 724.306 450.444L728.473 407.197C730.196 407.158 731.838 406.358 732.908 404.86C733.977 403.361 734.169 401.513 733.686 399.873L773.2 381.95ZM867.786 390.694C868.117 391.165 868.517 391.611 869.044 391.971C871.393 393.638 874.56 393.228 876.445 391.154L912.376 416.778C911.03 419.247 911.698 422.36 914.025 424.075C914.659 424.514 915.313 424.788 916.01 424.967L911.856 468.249C910.193 468.345 908.551 469.145 907.503 470.596C906.456 472.046 906.252 473.86 906.722 475.465L862.395 495.666L822.461 467.203C823.377 464.852 822.672 462.069 820.492 460.537C820.012 460.199 819.537 459.979 818.991 459.783L823.186 416.289C824.659 416.104 826.066 415.312 827 413.982C828.07 412.483 828.283 410.588 827.766 408.96L867.786 390.694ZM961.338 502.615C960.956 502.004 960.435 501.444 959.8 501.005C957.451 499.338 954.285 499.748 952.386 501.788L916.995 476.558C918.341 474.089 917.673 470.976 915.346 469.261C914.699 468.787 913.998 468.491 913.266 468.325L917.433 425.078C919.156 425.038 920.798 424.239 921.868 422.741C922.938 421.242 923.129 419.394 922.646 417.754L962.17 399.748C962.564 400.394 963.085 400.953 963.733 401.427C966.082 403.095 969.248 402.684 971.134 400.61L1006.43 425.795C1005.08 428.264 1005.72 431.39 1008.08 433.093C1008.73 433.566 1009.46 433.85 1010.19 434.016L1006.03 477.263C1004.3 477.302 1002.66 478.102 1001.59 479.6C1000.52 481.099 1000.33 482.947 1000.81 484.587L961.338 502.615ZM905.436 580.433C905.08 579.892 904.632 579.425 904.08 578.995C901.934 577.451 899.055 577.676 897.168 579.316L861.656 553.973C862.571 551.623 861.867 548.839 859.686 547.307C859.147 546.913 858.541 546.661 857.926 546.491L862.647 497.43L907.483 477.003C907.839 477.544 908.287 478.012 908.827 478.407C910.973 479.951 913.852 479.726 915.738 478.086L951.298 503.451C950.383 505.801 951.122 508.572 953.268 510.117C953.795 510.476 954.366 510.741 954.981 510.911L950.817 554.276C949.215 554.428 947.712 555.177 946.699 556.615C945.55 558.221 945.375 560.221 946.036 561.915L905.436 580.433ZM850.75 657.688C850.368 657.078 849.847 656.518 849.212 656.079C846.863 654.412 843.696 654.822 841.811 656.896L806.454 631.654C807.8 629.185 807.133 626.072 804.806 624.357C804.158 623.883 803.457 623.587 802.725 623.421L806.892 580.173C808.615 580.134 810.257 579.335 811.327 577.836C812.397 576.338 812.588 574.49 812.07 572.863L851.594 554.857C851.989 555.502 852.51 556.062 853.157 556.536C855.506 558.203 858.673 557.793 860.558 555.719L895.855 580.904C894.509 583.373 895.189 586.521 897.503 588.201C898.151 588.675 898.886 588.958 899.619 589.124L895.452 632.372C893.729 632.411 892.087 633.211 891.017 634.709C889.947 636.207 889.721 638.068 890.239 639.696L850.75 657.688ZM756.679 648.519C756.336 648.013 755.888 647.545 755.348 647.15C752.999 645.483 749.833 645.893 747.947 647.967L711.787 622.15C712.946 619.71 712.225 616.774 709.972 615.151C709.505 614.848 709.029 614.627 708.532 614.454L712.714 570.925C714.173 570.706 715.546 569.926 716.493 568.631C717.484 567.24 717.739 565.566 717.329 564.018L757.872 545.56C758.164 545.927 758.526 546.268 758.91 546.562C761.056 548.106 763.9 547.893 765.822 546.24L801.813 571.921C800.468 574.39 801.1 577.516 803.462 579.219C804.062 579.67 804.75 579.932 805.447 580.11L801.293 623.393C799.617 623.454 798.01 624.241 796.975 625.726C795.928 627.177 795.689 629.003 796.194 630.596L756.679 648.519ZM745.937 701.407C744.153 701.389 742.359 702.205 741.233 703.763C740.264 705.106 740.009 706.78 740.371 708.307L700.708 726.363C700.377 725.892 699.929 725.424 699.437 725.051C697.292 723.507 694.447 723.72 692.526 725.373L652.748 697.011L657.469 647.95C659.084 647.832 660.644 647.023 661.635 645.633C662.581 644.337 662.875 642.768 662.573 641.298L702.293 623.181C702.598 623.583 702.986 623.994 703.417 624.31C705.658 625.898 708.676 625.622 710.604 623.769L746.871 649.665C745.956 652.015 746.661 654.799 748.841 656.331C749.273 656.647 749.749 656.867 750.247 657.04L745.937 701.407ZM740.174 812.797C739.792 812.186 739.271 811.627 738.637 811.188C736.288 809.52 733.121 809.931 731.223 811.97L695.866 786.728C697.212 784.259 696.544 781.146 694.195 779.478C693.548 779.005 692.847 778.708 692.115 778.542L696.282 735.295C698.005 735.256 699.647 734.456 700.717 732.958C701.786 731.459 702.013 729.599 701.495 727.971L741.019 709.966C741.413 710.611 741.899 711.183 742.582 711.644C744.931 713.312 748.097 712.902 749.983 710.828L785.279 736.013C783.933 738.482 784.579 741.642 786.928 743.31C787.575 743.784 788.311 744.067 789.043 744.233L784.876 787.481C783.153 787.52 781.511 788.319 780.406 789.83C779.337 791.329 779.133 793.142 779.628 794.817L740.174 812.797ZM684.886 890.352C684.492 889.706 683.984 889.181 683.349 888.742C681 887.075 677.833 887.485 675.935 889.524L640.315 864.102C641.661 861.634 640.993 858.52 638.679 856.84C638.105 856.458 637.486 856.171 636.871 856.002L641.035 812.637C642.65 812.519 644.175 811.723 645.2 810.319C646.191 808.929 646.468 807.208 646.059 805.659L686.357 787.29C686.714 787.831 687.162 788.299 687.701 788.694C689.847 790.238 692.726 790.012 694.648 788.36L730.207 813.725C729.292 816.075 729.997 818.859 732.177 820.391C732.717 820.785 733.275 821.016 733.89 821.185L729.671 865.044C727.948 865.083 726.306 865.883 725.201 867.394C724.131 868.892 723.905 870.753 724.423 872.381L684.886 890.352ZM591.439 778.392C591.808 778.968 592.281 779.506 592.869 779.922C595.217 781.59 598.384 781.179 600.27 779.105L635.579 804.325C634.233 806.794 634.866 809.92 637.227 811.623C637.922 812.118 638.706 812.424 639.507 812.565L635.341 855.812C633.557 855.794 631.845 856.619 630.719 858.178C629.627 859.724 629.414 861.62 629.992 863.304L590.538 881.284C590.165 880.591 589.631 879.996 588.936 879.501C586.587 877.833 583.42 878.244 581.535 880.318L546.178 855.075C547.524 852.607 546.857 849.493 544.53 847.778C543.943 847.361 543.276 847.053 542.592 846.908L546.746 803.626C548.409 803.53 549.981 802.756 551.029 801.305C552.077 799.855 552.294 798.076 551.836 796.506L591.439 778.392ZM602.091 726.011C603.753 725.915 605.361 725.129 606.374 723.691C607.421 722.24 607.638 720.461 607.181 718.891L651.542 698.677L691.225 726.995C689.879 729.464 690.512 732.59 692.873 734.292C693.508 734.731 694.162 735.005 694.859 735.184L690.705 778.467C689.029 778.528 687.422 779.315 686.352 780.813C685.317 782.299 685.1 784.077 685.571 785.682L645.341 804.026C644.972 803.45 644.499 802.912 643.864 802.473C641.718 800.929 638.874 801.142 636.953 802.795L601.44 777.452C602.356 775.101 601.616 772.33 599.471 770.786C598.991 770.448 598.42 770.183 597.888 770.023L602.091 726.011ZM512.34 708.265C511.971 707.69 511.497 707.152 510.862 706.713C508.514 705.046 505.347 705.456 503.461 707.53L468.07 682.301C469.416 679.832 468.783 676.706 466.434 675.039C465.739 674.543 465.003 674.259 464.236 674.106L468.381 630.906C470.117 630.902 471.829 630.077 472.933 628.566C474.025 627.02 474.216 625.172 473.686 623.509L513.175 605.516C513.582 606.197 514.081 606.804 514.764 607.265C517.112 608.932 520.279 608.522 522.165 606.448L557.474 631.668C556.128 634.137 556.773 637.298 559.122 638.965C559.757 639.404 560.423 639.713 561.155 639.879L557.001 683.161C555.326 683.223 553.684 684.022 552.649 685.508C551.601 686.959 551.362 688.784 551.832 690.39L512.34 708.265ZM417.684 699.547C417.341 699.041 416.893 698.573 416.353 698.179C414.004 696.511 410.838 696.921 408.939 698.96L373.164 673.437C374.51 670.969 373.842 667.855 371.493 666.188C370.893 665.736 370.192 665.44 369.508 665.296L373.662 622.014C375.325 621.918 376.932 621.131 377.98 619.68C379.027 618.229 379.244 616.451 378.774 614.845L423.101 594.645L463.108 623.199C462.192 625.55 462.897 628.334 465.077 629.865C465.509 630.181 465.985 630.402 466.483 630.575L462.288 674.07C460.828 674.289 459.455 675.068 458.556 676.386C457.486 677.884 457.282 679.697 457.765 681.338L417.684 699.547ZM279.478 612.965C281.201 612.926 282.878 612.113 283.948 610.615C285.017 609.117 285.209 607.269 284.726 605.628L324.25 587.623C324.644 588.268 325.13 588.841 325.778 589.314C328.127 590.982 331.294 590.571 333.179 588.497L368.475 613.683C367.129 616.151 367.762 619.278 370.124 620.98C370.771 621.453 371.507 621.737 372.239 621.903L368.072 665.151C366.349 665.19 364.707 665.989 363.637 667.488C362.568 668.986 362.341 670.847 362.859 672.474L323.37 690.467C322.988 689.856 322.467 689.297 321.867 688.845C319.519 687.178 316.352 687.588 314.454 689.627L279.062 664.398C280.408 661.929 279.74 658.816 277.426 657.136C276.779 656.662 276.078 656.366 275.346 656.2L279.478 612.965ZM145.803 517.847C147.263 517.627 148.636 516.848 149.535 515.53C150.605 514.032 150.809 512.219 150.326 510.578L189.85 492.573C190.244 493.218 190.765 493.778 191.4 494.217C193.917 496.02 197.454 495.435 199.256 492.917L234.444 518.023C232.642 520.541 233.229 524.079 235.759 525.917C236.609 526.514 237.592 526.825 238.568 526.902L234.423 570.102C232.493 569.901 230.5 570.711 229.272 572.425C228.202 573.923 227.976 575.784 228.494 577.412L189.005 595.404C188.611 594.759 188.089 594.199 187.455 593.76C185.309 592.216 182.465 592.429 180.543 594.082L144.983 568.717C145.899 566.366 145.159 563.595 143.014 562.051C142.582 561.735 142.106 561.514 141.608 561.341L145.803 517.847ZM56.3292 397.122C56.7273 397.884 57.2866 398.548 58.0421 399.101C60.5592 400.904 64.0961 400.319 65.8981 397.801L101.086 422.907C99.2846 425.425 99.8709 428.963 102.388 430.766C103.143 431.319 103.996 431.599 104.833 431.727L100.688 474.927C98.8442 474.852 97.0503 475.668 95.9016 477.274C94.9107 478.665 94.6683 480.373 95.0305 481.9L55.4023 499.944C55.0588 499.437 54.6109 498.97 54.084 498.61C51.9383 497.065 49.0941 497.278 47.1726 498.931L11.6128 473.566C12.563 471.203 11.8236 468.432 9.64299 466.9C9.10336 466.505 8.49759 466.253 7.88255 466.084L12.046 422.719C13.6486 422.566 15.1385 421.783 16.1642 420.38C17.3129 418.773 17.4879 416.773 16.8275 415.079L56.3292 397.122ZM150.991 406.074C151.335 406.58 151.783 407.048 152.323 407.443C154.671 409.11 157.838 408.7 159.724 406.626L195.08 431.868C193.734 434.337 194.402 437.45 196.729 439.165C197.471 439.683 198.302 440.011 199.126 440.104L194.92 483.998C193.063 483.888 191.2 484.73 190.016 486.349C189.003 487.787 188.774 489.53 189.183 491.079L149.59 509.11C149.221 508.534 148.76 508.031 148.186 507.649C146.04 506.105 143.196 506.318 141.274 507.971L105.762 482.628C106.678 480.277 105.938 477.506 103.792 475.962C103.265 475.602 102.695 475.337 102.162 475.177L106.347 431.764C107.902 431.589 109.357 430.819 110.314 429.441C111.44 427.882 111.641 425.952 111.028 424.28L150.991 406.074ZM161.619 354.058C163.079 353.839 164.451 353.059 165.363 351.777C166.433 350.278 166.637 348.465 166.12 346.837L205.643 328.832C206.025 329.443 206.524 330.05 207.159 330.489C209.676 332.292 213.213 331.706 215.002 329.154L250.191 354.26C248.389 356.778 248.975 360.316 251.505 362.154C252.355 362.751 253.338 363.062 254.314 363.139L250.169 406.339C248.24 406.138 246.246 406.948 245.018 408.662C243.949 410.16 243.722 412.021 244.24 413.649L204.751 431.641C204.369 431.031 203.848 430.471 203.201 429.997C201.055 428.453 198.211 428.666 196.255 430.331L160.682 404.931C161.632 402.568 160.858 399.81 158.712 398.266C158.281 397.95 157.805 397.729 157.307 397.556L161.619 354.058ZM122.756 267.008C124.419 266.912 126.026 266.125 127.074 264.674C128.122 263.223 128.338 261.445 127.868 259.84L167.357 241.847C167.701 242.353 168.149 242.821 168.688 243.216C171.037 244.883 174.204 244.473 176.089 242.399L211.481 267.628C210.135 270.097 210.768 273.223 213.129 274.925C213.872 275.443 214.69 275.736 215.54 275.899L211.278 320.287C209.275 319.994 207.164 320.808 205.914 322.569C204.923 323.96 204.69 325.586 205.018 327.125L165.368 345.217C165.024 344.711 164.589 344.278 164.049 343.883C162.119 342.496 159.563 342.525 157.688 343.765L122.439 318.602C123.785 316.134 123.117 313.02 120.791 311.305C120.108 310.844 119.36 310.526 118.593 310.373L122.756 267.008Z" fill="url(#paint0_linear_778_24565)"/>
<defs>
<linearGradient id="paint0_linear_778_24565" x1="343.169" y1="-2.13521" x2="674.364" y2="901.289" gradientUnits="userSpaceOnUse">
<stop stop-color="white"/>
<stop offset="1" stop-color="#2A62FE" stop-opacity="0"/>
</linearGradient>
</defs>
</svg>
