<svg width="685" height="293" viewBox="0 0 685 293" fill="none" xmlns="http://www.w3.org/2000/svg">
<path opacity="0.8" d="M36.9884 254.46L45.8748 284.332C44.7994 284.842 43.9465 285.795 43.6619 287.019C43.1447 289.17 44.4831 291.355 46.6342 291.874C48.6374 292.347 50.6242 291.225 51.3159 289.345L81.1745 296.474C81.1298 296.622 81.0477 296.768 81.0208 296.936C80.5036 299.087 81.842 301.272 84.0109 301.81C84.7345 301.977 85.4494 301.937 86.1162 301.726L94.9547 331.426C93.6228 331.811 92.5201 332.883 92.1872 334.33C91.8579 335.702 92.2613 337.054 93.1713 338.018L71.616 360.788C71.217 360.506 70.7769 360.297 70.2761 360.179C68.4405 359.732 66.5947 360.655 65.7856 362.247L35.4636 355.002C35.4582 353.182 34.2048 351.563 32.3691 351.117C30.218 350.598 28.0331 351.936 27.5159 354.087C27.2331 355.274 27.5137 356.451 28.1813 357.384L6.80269 379.994C6.43927 379.751 6.01698 379.562 5.55361 379.445C3.38471 378.907 1.2176 380.265 0.700399 382.415C0.201005 384.586 1.52162 386.752 3.69053 387.29C4.32142 387.433 4.9418 387.407 5.53018 387.267L14.3864 416.988C13.1828 417.435 12.1942 418.475 11.8668 419.81C11.3496 421.961 12.688 424.146 14.8569 424.684C17.008 425.202 19.1929 423.865 19.7101 421.714L49.829 428.893C49.3118 431.044 50.6502 433.23 52.8191 433.768C54.9702 434.286 57.1552 432.948 57.6546 430.778C57.9839 429.405 57.5627 428.034 56.6527 427.07L77.9509 404.569C78.4194 404.967 78.9681 405.256 79.599 405.4C81.7501 405.918 83.9351 404.58 84.4523 402.429L114.534 409.607C114.034 411.778 115.355 413.944 117.506 414.462C118.23 414.629 118.944 414.589 119.611 414.377L128.468 444.098C127.136 444.483 126.033 445.554 125.7 447.001C125.183 449.152 126.521 451.338 128.69 451.876C130.841 452.394 133.026 451.056 133.545 448.868L163.645 456.065C163.145 458.236 164.466 460.402 166.635 460.94C168.786 461.458 170.971 460.12 171.488 457.969C171.794 456.69 171.424 455.415 170.664 454.458L191.982 431.939C192.399 432.24 192.894 432.471 193.431 432.629C195.582 433.147 197.767 431.809 198.284 429.658L229.014 436.999C228.786 438.995 230.062 440.915 232.065 441.389C232.603 441.509 233.165 441.536 233.677 441.43L242.531 471.188C241.438 471.678 240.528 472.647 240.222 473.926C239.705 476.077 241.043 478.263 243.212 478.801C245.215 479.274 247.202 478.152 247.894 476.272L278.085 483.493C277.857 485.489 279.134 487.409 281.137 487.882C283.288 488.401 285.473 487.063 285.99 484.912C286.296 483.633 285.946 482.34 285.148 481.381L306.466 458.862C306.901 459.183 307.396 459.414 307.934 459.534C309.938 460.008 311.924 458.885 312.616 457.006L343.161 464.3C342.933 466.296 344.209 468.216 346.212 468.689C348.381 469.227 350.548 467.87 351.065 465.719C351.395 464.347 350.973 462.975 350.081 462.031L371.658 439.205C372.093 439.527 372.588 439.758 373.144 439.897C375.147 440.371 377.134 439.249 377.826 437.369L408.037 444.572C407.809 446.568 409.087 448.45 411.088 448.961C413.259 449.462 415.424 448.142 415.943 445.954C416.251 444.637 415.884 443.324 415.066 442.383L436.384 419.864C436.837 420.205 437.33 420.473 437.906 420.595C439.909 421.069 441.896 419.947 442.587 418.067L472.854 425.291C472.626 427.287 473.884 429.188 475.905 429.681C476.499 429.822 477.062 429.812 477.631 429.69L486.599 459.81C485.34 460.236 484.295 461.292 483.946 462.682C483.638 463.999 484.006 465.311 484.823 466.252L463.505 488.771C463.053 488.43 462.541 488.142 461.966 488.02C459.815 487.502 457.63 488.84 457.112 490.991C456.595 493.142 457.934 495.327 460.103 495.865C460.696 496.007 461.259 495.997 461.828 495.874L470.684 525.595C469.498 526.062 468.587 527.068 468.279 528.385C467.762 530.536 469.1 532.721 471.251 533.24C473.254 533.713 475.241 532.591 475.933 530.711L506.144 537.914C505.916 539.91 507.175 541.81 509.196 542.303C511.366 542.804 513.532 541.484 514.068 539.315C514.373 538.073 514.039 536.837 513.296 535.9L534.653 513.345C535.052 513.628 535.51 513.857 536.011 513.975C538.014 514.448 540.001 513.326 540.693 511.446L571.107 518.715C570.879 520.712 572.175 522.614 574.159 523.105C576.31 523.623 578.495 522.286 579.012 520.135C579.318 518.855 578.968 517.562 578.188 516.623L599.506 494.104C599.923 494.406 600.436 494.656 600.974 494.776C603.125 495.295 605.31 493.957 605.827 491.806C606.345 489.655 605.006 487.469 602.855 486.951C602.299 486.811 601.755 486.804 601.244 486.91L592.293 456.81C593.534 456.364 594.523 455.324 594.852 453.952C595.158 452.673 594.808 451.38 594.011 450.421L615.328 427.902C615.763 428.223 616.258 428.454 616.797 428.574C618.948 429.092 621.133 427.755 621.65 425.604C622.167 423.453 620.829 421.267 618.678 420.749C618.139 420.629 617.578 420.601 617.066 420.708L608.194 390.93C609.287 390.44 610.16 389.469 610.483 388.21C611.001 386.059 609.662 383.873 607.493 383.335C605.49 382.862 603.503 383.984 602.812 385.864L572.675 378.665C572.903 376.668 571.645 374.768 569.642 374.295C569.141 374.176 568.672 374.172 568.199 374.243L559.135 343.781C560.467 343.396 561.57 342.324 561.903 340.877C562.232 339.505 561.811 338.133 560.919 337.189L582.158 314.741C582.611 315.082 583.104 315.35 583.68 315.472C585.683 315.945 587.67 314.823 588.379 312.963L618.591 320.166C618.363 322.162 619.621 324.062 621.642 324.556C623.793 325.074 625.978 323.736 626.515 321.567C626.821 320.288 626.451 319.013 625.672 318.074L646.989 295.555C647.424 295.876 647.919 296.107 648.458 296.227C650.609 296.745 652.794 295.408 653.311 293.257C653.81 291.086 652.49 288.92 650.321 288.382C649.782 288.262 649.221 288.234 648.709 288.341L639.837 258.563C640.93 258.073 641.822 257.085 642.109 255.823C642.419 254.469 642.015 253.117 641.143 252.155L663.055 228.989C663.418 229.232 663.84 229.422 664.304 229.538C666.455 230.056 668.64 228.719 669.139 226.548C669.656 224.397 668.318 222.212 666.167 221.693C665.536 221.55 664.916 221.576 664.327 221.716L655.489 192.015C656.73 191.569 657.718 190.53 658.048 189.158C658.354 187.878 658.004 186.585 657.224 185.646L678.542 163.127C678.976 163.448 679.472 163.679 680.01 163.799C682.161 164.317 684.346 162.98 684.863 160.829C685.363 158.658 684.042 156.492 681.891 155.974C681.353 155.854 680.791 155.826 680.279 155.933L671.407 126.155C672.5 125.665 673.373 124.695 673.697 123.435C674.214 121.284 672.876 119.098 670.724 118.58C668.721 118.106 666.734 119.229 666.043 121.108L635.888 113.89C636.117 111.893 634.838 110.011 632.855 109.52C630.704 109.002 628.519 110.339 628.002 112.49C627.696 113.77 628.047 115.025 628.827 115.964L607.49 138.501C607.055 138.18 606.56 137.949 606.022 137.829C604.018 137.355 602.032 138.477 601.322 140.337L570.667 133.001C570.895 131.004 569.637 129.104 567.616 128.611C565.465 128.093 563.28 129.43 562.762 131.581C562.431 132.991 562.87 134.382 563.818 135.348L542.282 158.1C541.865 157.798 541.37 157.568 540.851 157.43C538.848 156.956 536.861 158.079 536.17 159.958L506.015 152.74C506.243 150.743 504.985 148.843 502.964 148.35C500.813 147.832 498.628 149.169 498.111 151.32C497.805 152.6 498.156 153.855 498.917 154.812L477.579 177.349C477.162 177.047 476.649 176.797 476.111 176.677C473.96 176.159 471.775 177.496 471.258 179.647C470.741 181.798 472.079 183.984 474.23 184.502C474.768 184.622 475.33 184.65 475.842 184.543L484.696 214.301C483.565 214.79 482.693 215.76 482.387 217.04C481.85 219.208 483.208 221.376 485.359 221.894C487.362 222.368 489.349 221.246 490.041 219.366L520.252 226.569C520.024 228.565 521.283 230.465 523.304 230.958C523.897 231.1 524.498 231.092 525.066 230.969L533.891 260.576C532.632 261.002 531.586 262.057 531.255 263.467C530.901 264.969 531.431 266.421 532.49 267.392L510.757 290.36C510.288 289.962 509.722 289.653 509.091 289.51C506.995 289.013 504.928 290.244 504.304 292.277L474.204 285.079C474.588 282.978 473.28 280.944 471.184 280.448C469.013 279.947 466.848 281.267 466.331 283.418C466.001 284.79 466.44 286.181 467.35 287.145L446.052 309.647C445.584 309.248 445.017 308.939 444.368 308.776C442.272 308.279 440.186 309.528 439.581 311.543L409.592 304.389C409.821 302.393 408.543 300.51 406.541 299.999C404.39 299.481 402.205 300.819 401.688 302.97C401.402 304.232 401.736 305.467 402.478 306.404L381.317 328.781C380.882 328.46 380.389 328.192 379.813 328.07C377.662 327.551 375.477 328.889 374.96 331.04C374.461 333.211 375.781 335.377 377.95 335.914C378.414 336.031 378.9 336.055 379.373 335.984L388.44 366.371C387.255 366.839 386.286 367.86 385.978 369.177C385.674 370.42 386.025 371.675 386.768 372.612L365.411 395.167C364.994 394.865 364.536 394.636 363.998 394.516C361.847 393.998 359.662 395.335 359.144 397.486L324.558 389.206L300.272 414.882C299.82 414.541 299.326 414.273 298.733 414.131C296.73 413.658 294.743 414.78 294.033 416.64L263.897 409.441C264.125 407.445 262.847 405.562 260.844 405.089C260.232 404.928 259.612 404.954 259.043 405.076L250.041 374.879C251.282 374.434 252.271 373.394 252.6 372.022C252.906 370.742 252.556 369.449 251.776 368.51L273.094 345.991C273.529 346.313 274.024 346.543 274.563 346.663C276.714 347.182 278.899 345.844 279.398 343.673L309.72 350.919C309.492 352.915 310.75 354.816 312.753 355.289C314.904 355.807 317.089 354.47 317.626 352.301C317.932 351.021 317.58 349.766 316.801 348.827L338.099 326.326C338.498 326.608 338.938 326.817 339.457 326.955C341.627 327.455 343.793 326.136 344.312 323.947C344.829 321.796 343.49 319.611 341.339 319.092C340.838 318.974 340.332 318.968 339.86 319.039L330.908 288.976C332.149 288.53 333.137 287.491 333.467 286.118C333.773 284.839 333.423 283.546 332.643 282.607L353.961 260.088C354.395 260.409 354.891 260.64 355.429 260.76C357.432 261.234 359.419 260.111 360.128 258.251L390.673 265.545C390.445 267.542 391.721 269.462 393.724 269.935C395.875 270.453 398.06 269.116 398.578 266.965C398.907 265.592 398.486 264.221 397.593 263.277L418.733 240.955C419.096 241.198 419.501 241.368 419.964 241.484C422.133 242.022 424.3 240.665 424.817 238.514C425.335 236.363 423.996 234.177 421.845 233.659C421.4 233.562 420.95 233.54 420.517 233.575L411.743 204.103C412.966 203.638 413.972 202.618 414.282 201.263C414.799 199.112 413.461 196.927 411.31 196.409C409.306 195.935 407.302 197.038 406.61 198.917L375.769 191.534C375.998 189.537 374.739 187.637 372.736 187.164C372.365 187.071 371.991 187.052 371.633 187.091L362.617 156.8C363.617 156.286 364.431 155.369 364.715 154.145C365.021 152.865 364.671 151.572 363.872 150.652L385.19 128.132C385.607 128.434 386.102 128.665 386.638 128.822C388.789 129.34 390.974 128.003 391.493 125.814L421.668 133.015C421.439 135.012 422.717 136.894 424.719 137.405C426.87 137.923 429.055 136.586 429.572 134.435C429.855 133.248 429.572 132.108 428.942 131.177L450.715 108.173C451.063 108.359 451.428 108.565 451.836 108.66C453.987 109.178 456.172 107.84 456.671 105.67C457.189 103.519 455.85 101.333 453.699 100.815C453.106 100.673 452.542 100.683 451.993 100.788L443.201 71.2956C444.184 70.7621 444.96 69.8434 445.241 68.694C445.758 66.543 444.42 64.3574 442.268 63.8392C440.265 63.3659 438.241 64.4861 437.567 66.3855L408.191 59.355C408.42 57.3588 407.161 55.4585 405.14 54.9655C402.97 54.4651 400.804 55.7848 400.287 57.9358C400.026 59.0674 400.253 60.1855 400.847 61.0776L378.876 84.2967C378.424 83.9556 377.913 83.6679 377.337 83.5458C375.501 83.0994 373.675 84.0042 372.846 85.6146L342.524 78.369C342.499 76.5667 341.285 74.9124 339.43 74.4838C337.279 73.9656 335.094 75.3032 334.577 77.4542C334.271 78.7337 334.621 80.0266 335.401 80.9653L314.063 103.503C313.628 103.181 313.133 102.95 312.577 102.811C310.574 102.337 308.569 103.44 307.895 105.339L277.703 98.1185C277.932 96.1223 276.673 94.222 274.67 93.7486C274.207 93.632 273.738 93.6278 273.305 93.6629L264.368 63.6573C265.444 63.1471 266.297 62.1946 266.601 60.9525C267.118 58.8016 265.78 56.616 263.629 56.0978C261.7 55.6281 259.794 56.6415 259.015 58.3857L228.563 51.1149C228.791 49.1186 227.513 47.2361 225.512 46.7253C224.956 46.5855 224.412 46.5776 223.9 46.6839L215.046 16.9261C216.139 16.4356 217.011 15.4653 217.335 14.2054C217.835 12.0348 216.514 9.86882 214.363 9.35065C212.36 8.87725 210.373 9.99939 209.681 11.8791L179.527 4.66042C179.755 2.66416 178.497 0.763839 176.493 0.290446C174.323 -0.209911 172.157 1.10984 171.64 3.26079C171.334 4.54033 171.686 5.79579 172.446 6.75236L151.109 29.2896C150.692 28.9877 150.179 28.7374 149.64 28.6172C147.637 28.1438 145.65 29.2659 144.959 31.1457L114.266 23.8068C114.494 21.8105 113.216 19.9281 111.233 19.4369C109.082 18.9187 106.897 20.2562 106.379 22.4072C106.048 23.8168 106.505 25.2276 107.453 26.1933L86.3132 48.515C85.9141 48.2328 85.4188 48.0022 84.918 47.8838C82.7669 47.3657 80.582 48.7032 80.0647 50.8541C79.5476 53.0051 80.886 55.1907 83.0371 55.7089C83.5557 55.8469 84.0816 55.8351 84.5718 55.7841L93.3463 85.2565C92.05 85.6808 91.024 86.7186 90.6733 88.146C90.1561 90.297 91.4945 92.4826 93.6456 93.0008C95.6488 93.4742 97.6356 92.3521 98.3273 90.4723L129.02 97.8112C128.792 99.8074 130.05 101.708 132.071 102.201C132.535 102.317 132.986 102.302 133.437 102.286L142.439 132.483C141.308 132.972 140.435 133.942 140.129 135.221C139.612 137.372 140.951 139.558 143.119 140.096C145.123 140.569 147.11 139.447 147.801 137.567L178.198 144.817C177.97 146.813 179.228 148.713 181.249 149.206C181.787 149.326 182.349 149.354 182.861 149.248L191.715 179.005C190.602 179.514 189.712 180.464 189.406 181.744C188.889 183.895 190.227 186.081 192.378 186.599C194.381 187.072 196.368 185.95 197.06 184.07L227.271 191.273C227.043 193.269 228.302 195.17 230.305 195.643C230.768 195.759 231.255 195.783 231.727 195.713L240.627 226.073C239.515 226.581 238.624 227.532 238.318 228.811C237.801 230.962 239.139 233.148 241.291 233.666C243.294 234.14 245.298 233.037 245.972 231.138L276.35 238.405C276.121 240.401 277.38 242.301 279.401 242.794C279.939 242.915 280.5 242.942 281.012 242.836L289.867 272.594C288.754 273.102 287.863 274.053 287.557 275.332C287.228 276.704 287.631 278.056 288.524 279L266.553 302.22C266.136 301.918 265.64 301.687 265.122 301.549C263.119 301.076 261.114 302.178 260.422 304.058L230.286 296.859C230.514 294.863 229.236 292.98 227.234 292.469C225.083 291.951 222.898 293.289 222.381 295.44C222.075 296.719 222.427 297.975 223.207 298.913L201.869 321.45C201.453 321.149 200.957 320.918 200.401 320.778C198.398 320.305 196.393 321.407 195.702 323.287L164.861 315.903C164.836 314.101 163.602 312.465 161.784 312.038C161.414 311.945 161.039 311.926 160.683 311.928L151.763 281.979C152.633 281.44 153.333 280.555 153.592 279.461C154.109 277.31 152.771 275.124 150.62 274.606C148.784 274.16 146.958 275.065 146.129 276.675L115.807 269.429C115.782 267.627 114.548 265.991 112.713 265.544C112.397 265.472 112.08 265.438 111.781 265.423L102.619 234.656C103.619 234.142 104.433 233.226 104.698 232.019C105.004 230.74 104.652 229.484 103.874 228.508L125.192 205.988C125.609 206.29 126.104 206.521 126.66 206.661C128.811 207.179 130.996 205.841 131.513 203.69C132.013 201.52 130.692 199.354 128.541 198.836C128.17 198.742 127.796 198.724 127.457 198.745L118.537 168.797C119.408 168.258 120.107 167.373 120.367 166.278C120.884 164.127 119.545 161.942 117.394 161.424C115.559 160.977 113.733 161.882 112.904 163.492L82.5818 156.247C82.5764 154.427 81.3426 152.79 79.4874 152.362C77.3167 151.861 75.1514 153.181 74.6342 155.332C74.3281 156.611 74.6977 157.887 75.458 158.843L54.1205 181.38C53.6858 181.059 53.1905 180.828 52.6344 180.688C50.4637 180.188 48.2984 181.508 47.7812 183.659C47.264 185.81 48.6025 187.995 50.7536 188.513C51.4771 188.68 52.192 188.64 52.8392 188.447L61.6955 218.167C60.3635 218.552 59.2609 219.624 58.928 221.071C58.5987 222.443 59.0198 223.814 59.912 224.759L38.6727 247.207C38.2202 246.866 37.7267 246.598 37.1332 246.456C34.9821 245.938 32.7972 247.275 32.28 249.426C31.7628 251.577 33.1012 253.763 35.2523 254.281C35.8759 254.574 36.4392 254.564 36.9884 254.46ZM103.226 227.951C102.791 227.629 102.296 227.399 101.758 227.278C99.922 226.832 98.0957 227.737 97.2671 229.347L66.9076 222.1C66.8826 220.297 65.6488 218.661 63.8132 218.215C63.4425 218.121 63.0681 218.103 62.692 218.122L53.7896 188.193C54.6974 187.656 55.397 186.771 55.6566 185.677C55.9626 184.397 55.6108 183.142 54.8505 182.185L76.188 159.648C76.6227 159.97 77.1181 160.2 77.6563 160.32C79.8074 160.839 81.9923 159.501 82.5095 157.35L112.554 164.526C112.054 166.696 113.375 168.862 115.526 169.381C116.267 169.567 116.984 169.49 117.669 169.298L126.525 199.018C125.193 199.403 124.09 200.475 123.738 201.94C123.432 203.219 123.782 204.512 124.561 205.451L103.226 227.951ZM164.81 316.951L195.523 324.273C195.294 326.269 196.572 328.151 198.574 328.662C199.092 328.8 199.618 328.788 200.128 328.72L209 358.497C207.925 359.007 207.072 359.96 206.748 361.219C206.444 362.462 206.796 363.717 207.538 364.654L185.449 387.98C185.068 387.717 184.628 387.508 184.165 387.392C182.514 386.992 180.829 387.697 179.921 389.022L149.321 381.707C149.097 380.12 147.945 378.731 146.258 378.33C145.98 378.26 145.68 378.245 145.381 378.23L136.301 347.711C137.134 347.17 137.774 346.339 138.032 345.282C138.317 344.058 138.018 342.861 137.313 341.926L158.69 319.353C159.071 319.616 159.511 319.825 159.975 319.941C162.126 320.46 164.273 319.12 164.81 316.951ZM277.369 99.2091L307.543 106.41C307.315 108.406 308.573 110.306 310.594 110.8C311.17 110.922 311.751 110.931 312.3 110.827L321.157 140.547C320.008 141.016 319.096 142.022 318.771 143.319C318.463 144.636 318.85 145.931 319.648 146.89L295.798 172.099L261.915 164.003C262.143 162.007 260.865 160.125 258.844 159.632C258.326 159.494 257.8 159.505 257.29 159.574L248.418 129.797C249.493 129.287 250.346 128.334 250.65 127.092C250.954 125.85 250.62 124.614 249.878 123.677L271.235 101.122C271.652 101.424 272.11 101.653 272.648 101.773C274.673 102.191 276.677 101.089 277.369 99.2091ZM232.556 195.641C233.76 195.193 234.729 194.171 235.058 192.799C235.341 191.612 235.06 190.435 234.411 189.522L255.807 166.931C256.17 167.174 256.555 167.362 257.001 167.459C258.836 167.905 260.663 167 261.491 165.39L295.449 173.489L305.4 206.94C304.362 207.452 303.528 208.387 303.264 209.593C302.979 210.818 303.277 212.014 303.982 212.949L282.606 235.522C282.224 235.259 281.784 235.05 281.283 234.932C279.28 234.459 277.293 235.581 276.584 237.441L246.207 230.174C246.435 228.177 245.157 226.295 243.173 225.804C242.617 225.664 242.074 225.656 241.544 225.743L232.556 195.641ZM183.638 149.079C184.769 148.591 185.661 147.603 185.947 146.341C186.253 145.061 185.884 143.786 185.123 142.83L206.461 120.292C206.896 120.614 207.391 120.845 207.947 120.984C209.95 121.458 211.937 120.336 212.629 118.456L242.765 125.655C242.537 127.651 243.815 129.534 245.817 130.045C246.373 130.184 246.936 130.175 247.465 130.088L256.32 159.846C255.189 160.334 254.317 161.305 254.011 162.584C253.705 163.864 254.074 165.139 254.854 166.078L233.536 188.597C233.119 188.295 232.624 188.064 232.068 187.925C230.065 187.451 228.06 188.554 227.386 190.453L197.175 183.25C197.403 181.254 196.125 179.372 194.124 178.861C193.568 178.721 193.024 178.713 192.494 178.8L183.638 149.079ZM134.248 102.195C135.471 101.729 136.477 100.709 136.787 99.355C137.07 98.1682 136.771 96.9716 136.122 96.058L157.518 73.4674C157.899 73.73 158.322 73.9195 158.785 74.0361C160.621 74.4825 162.447 73.5776 163.275 71.9673L193.653 79.2344C193.678 81.0367 194.912 82.6731 196.747 83.1195C197.211 83.236 197.642 83.2384 198.095 83.1855L207.129 113.496C206.091 114.008 205.257 114.943 204.992 116.149C204.708 117.374 205.006 118.57 205.711 119.505L184.315 142.096C183.934 141.833 183.494 141.624 183.012 141.488C181.009 141.015 179.005 142.117 178.331 144.016L147.953 136.749C148.182 134.753 146.923 132.853 144.92 132.379C144.364 132.24 143.82 132.232 143.291 132.318L134.248 102.195ZM108.017 26.9339C108.363 27.1572 108.73 27.3252 109.138 27.4203C111.141 27.8937 113.128 26.7716 113.819 24.8918L144.512 32.2307C144.284 34.227 145.542 36.1273 147.563 36.6203C148.082 36.7583 148.608 36.7465 149.118 36.6777L157.99 66.4551C156.897 66.9456 156.044 67.8981 155.757 69.1599C155.453 70.4019 155.805 71.6574 156.547 72.5943L135.19 95.1493C134.773 94.8475 134.316 94.6186 133.777 94.4985C131.774 94.0251 129.769 95.1275 129.096 97.0269L98.4029 89.688C98.6312 87.6918 97.3531 85.8093 95.3695 85.3181C94.9614 85.2231 94.5496 85.2029 94.1539 85.2398L85.3455 55.6907C86.494 55.2216 87.4058 54.2157 87.7315 52.9184C88.0393 51.6014 87.6894 50.3085 86.8543 49.3483L108.017 26.9339ZM222.828 47.1191C221.698 47.6078 220.825 48.5781 220.519 49.8577C220.213 51.1372 220.563 52.4301 221.343 53.3689L200.025 75.8883C199.608 75.5864 199.113 75.3557 198.575 75.2356C196.572 74.7622 194.567 75.8646 193.875 77.7444L163.664 70.5416C163.892 68.5454 162.633 66.6451 160.612 66.1521C160.056 66.0123 159.513 66.0044 158.983 66.091L150.129 36.3333C151.259 35.8446 152.152 34.8564 152.458 33.5769C152.764 32.2974 152.394 31.0223 151.614 30.0835L172.952 7.54633C173.386 7.86783 173.862 8.11629 174.438 8.23832C176.441 8.71171 178.428 7.58958 179.119 5.70983L209.256 12.9089C209.028 14.9052 210.306 16.7876 212.307 17.2985C212.863 17.4383 213.427 17.4284 213.956 17.3418L222.828 47.1191ZM272.237 94.0233C270.995 94.469 270.026 95.4909 269.697 96.8631C269.414 98.05 269.713 99.2466 270.38 100.18L248.984 122.77C248.603 122.508 248.18 122.318 247.717 122.202C245.881 121.755 244.055 122.66 243.227 124.271L212.905 117.025C212.88 115.223 211.665 113.568 209.828 113.159C209.365 113.043 208.896 113.039 208.443 113.092L199.409 82.7809C200.465 82.2886 201.3 81.3164 201.584 80.0921C201.869 78.8678 201.553 77.6516 200.848 76.7165L222.205 54.1615C222.586 54.4241 223.026 54.6333 223.527 54.7516C225.53 55.225 227.517 54.103 228.209 52.2232L258.606 59.4725C258.242 61.5559 259.55 63.59 261.626 64.1045C262.22 64.2461 262.783 64.2362 263.332 64.1318L272.237 94.0233ZM428.146 130.575C427.678 130.177 427.093 129.848 426.444 129.685C424.441 129.211 422.454 130.334 421.745 132.194L391.46 124.95C391.455 123.13 390.202 121.511 388.366 121.065C388.013 120.991 387.658 120.955 387.32 120.976L378.401 90.9899C379.272 90.451 379.914 89.5819 380.172 88.5252C380.476 87.2831 380.142 86.0472 379.418 85.1299L401.33 61.9642C401.814 62.4195 402.416 62.768 403.102 62.9329C405.106 63.4063 407.092 62.2842 407.784 60.4045L437.16 67.4349C436.931 69.4312 438.21 71.3136 440.213 71.787C440.861 71.9502 441.519 71.9261 442.127 71.7683L450.902 101.241C449.826 101.751 448.973 102.703 448.669 103.945C448.338 105.355 448.795 106.766 449.742 107.732L428.146 130.575ZM363.036 150.085C362.602 149.764 362.106 149.533 361.568 149.413C359.733 148.967 357.906 149.871 357.078 151.482L326.718 144.234C326.713 142.414 325.479 140.778 323.624 140.349C323.253 140.256 322.879 140.238 322.503 140.257L313.6 110.328C314.508 109.791 315.208 108.906 315.467 107.811C315.773 106.532 315.421 105.276 314.642 104.338L335.979 81.8004C336.414 82.1219 336.909 82.3526 337.447 82.4728C339.598 82.9909 341.783 81.6534 342.3 79.5024L372.345 86.6782C371.845 88.8488 373.166 91.0148 375.335 91.5526C376.076 91.739 376.793 91.6616 377.477 91.47L386.334 121.19C384.982 121.593 383.899 122.647 383.546 124.112C383.24 125.391 383.59 126.684 384.388 127.643L363.036 150.085ZM370.513 187.355C369.181 187.74 368.078 188.812 367.726 190.276C367.42 191.556 367.77 192.849 368.55 193.788L347.291 216.254C346.909 215.991 346.487 215.802 346.024 215.685C344.188 215.239 342.362 216.143 341.533 217.754L311.229 210.528C311.204 208.725 309.99 207.071 308.135 206.643C307.671 206.526 307.202 206.522 306.75 206.575L296.701 172.819L320.512 147.645C320.893 147.907 321.297 148.077 321.761 148.194C323.764 148.667 325.751 147.545 326.442 145.665L356.654 152.868C356.426 154.864 357.722 156.766 359.705 157.258C360.336 157.401 360.956 157.375 361.545 157.235L370.513 187.355ZM396.754 262.785C396.391 262.542 395.969 262.353 395.505 262.236C393.502 261.763 391.497 262.865 390.806 264.745L360.261 257.451C360.489 255.455 359.211 253.572 357.208 253.099C356.689 252.961 356.146 252.953 355.654 253.042L346.781 223.264C347.857 222.754 348.71 221.801 349.014 220.559C349.318 219.317 348.984 218.081 348.242 217.145L369.54 194.643C369.886 194.866 370.29 195.036 370.716 195.151C372.719 195.624 374.706 194.502 375.417 192.605L406.24 199.969C406.012 201.965 407.288 203.885 409.291 204.358C409.755 204.475 410.206 204.459 410.657 204.444L419.431 233.916C418.19 234.362 417.202 235.402 416.853 236.792C416.523 238.164 416.962 239.555 417.855 240.499L396.754 262.785ZM331.843 282.08C331.426 281.778 330.931 281.548 330.375 281.408C328.371 280.934 326.367 282.037 325.675 283.917L295.464 276.714C295.692 274.718 294.433 272.817 292.411 272.362C291.855 272.222 291.311 272.214 290.799 272.32L281.945 242.563C283.075 242.074 283.948 241.104 284.254 239.824C284.56 238.545 284.19 237.27 283.43 236.313L304.768 213.776C305.202 214.097 305.698 214.328 306.254 214.468C308.257 214.941 310.244 213.819 310.935 211.939L341.072 219.138C340.844 221.135 342.12 223.054 344.123 223.528C344.679 223.668 345.243 223.658 345.772 223.571L354.627 253.329C353.496 253.818 352.623 254.788 352.317 256.067C352.011 257.347 352.361 258.64 353.141 259.579L331.843 282.08ZM279.438 342.85C279.413 341.048 278.179 339.411 276.343 338.965C275.935 338.87 275.541 338.869 275.165 338.888L266.263 308.959C267.171 308.422 267.908 307.539 268.169 306.407C268.475 305.128 268.107 303.815 267.327 302.877L289.338 279.622C289.719 279.884 290.141 280.074 290.605 280.191C292.44 280.637 294.266 279.732 295.095 278.122L325.455 285.369C325.46 287.189 326.694 288.826 328.549 289.254C329.012 289.371 329.444 289.373 329.897 289.32L338.847 319.421C337.661 319.888 336.712 320.892 336.422 322.228C336.114 323.545 336.5 324.878 337.335 325.838L316.076 348.304C315.641 347.982 315.146 347.752 314.59 347.612C312.586 347.139 310.582 348.241 309.908 350.14L279.438 342.85ZM250.996 367.966C250.579 367.664 250.084 367.433 249.565 367.295C247.562 366.822 245.575 367.944 244.866 369.804L214.654 362.601C214.883 360.605 213.605 358.723 211.621 358.231C211.065 358.092 210.521 358.084 209.992 358.17L201.137 328.413C202.268 327.924 203.14 326.954 203.447 325.674C203.753 324.394 203.383 323.119 202.603 322.181L223.941 299.643C224.375 299.965 224.871 300.196 225.427 300.335C227.43 300.809 229.417 299.687 230.108 297.807L260.245 305.006C260.017 307.002 261.295 308.885 263.296 309.396C263.852 309.535 264.416 309.525 264.945 309.439L273.817 339.216C272.687 339.705 271.814 340.675 271.508 341.955C271.202 343.234 271.552 344.527 272.332 345.466L250.996 367.966ZM258.064 405.534C257.026 406.046 256.193 406.981 255.908 408.205C255.624 409.43 255.922 410.626 256.627 411.561L235.231 434.152C234.849 433.889 234.409 433.68 233.909 433.562C231.905 433.088 229.919 434.21 229.227 436.09L198.386 428.707C198.381 426.887 197.127 425.268 195.292 424.821C194.939 424.748 194.602 424.731 194.246 424.733L185.327 394.747C186.198 394.208 186.84 393.339 187.098 392.282C187.402 391.04 187.068 389.804 186.343 388.887L208.452 365.543C208.833 365.806 209.255 365.995 209.719 366.112C211.554 366.558 213.38 365.653 214.209 364.043L244.569 371.29C244.594 373.093 245.808 374.747 247.663 375.176C248.126 375.292 248.558 375.294 249.011 375.242L258.064 405.534ZM473.124 424.366L442.857 417.142C443.086 415.146 441.808 413.263 439.806 412.752C439.25 412.613 438.707 412.605 438.195 412.711L429.34 382.953C430.434 382.463 431.326 381.475 431.63 380.232C431.936 378.953 431.584 377.697 430.804 376.759L452.616 353.719C452.909 353.884 453.258 354.032 453.629 354.126C455.372 354.549 457.1 353.733 457.976 352.294L488.502 359.606C488.644 361.301 489.828 362.804 491.571 363.227C492.035 363.343 492.503 363.348 492.956 363.295L503.085 397.336L479.235 422.546C478.818 422.244 478.34 422.033 477.822 421.895C475.821 421.384 473.835 422.469 473.124 424.366ZM403.133 307.206C403.568 307.527 404.079 307.815 404.655 307.937C406.658 308.41 408.645 307.288 409.336 305.408L439.381 312.584C439.288 314.493 440.554 316.244 442.464 316.694C443.002 316.814 443.526 316.84 444.056 316.753L452.91 346.511C451.817 347.001 450.945 347.972 450.621 349.232C450.291 350.604 450.695 351.956 451.587 352.9L429.853 375.868C429.49 375.625 429.068 375.435 428.642 375.321C426.806 374.874 424.96 375.797 424.151 377.389L393.829 370.144C393.804 368.342 392.59 366.687 390.735 366.259C390.234 366.14 389.765 366.136 389.275 366.187L380.225 335.819C381.428 335.372 382.417 334.332 382.727 332.978C383.013 331.716 382.679 330.48 381.919 329.524L403.133 307.206ZM468.086 287.838C468.449 288.081 468.854 288.251 469.317 288.367C471.227 288.817 473.152 287.823 473.911 286.097L504.103 293.318C504.01 295.227 505.276 296.977 507.187 297.427C507.743 297.567 508.324 297.577 508.873 297.472L517.727 327.23C516.597 327.719 515.687 328.687 515.379 330.004C515.05 331.376 515.489 332.768 516.399 333.731L495.1 356.233C494.632 355.835 494.085 355.508 493.417 355.363C491.321 354.866 489.234 356.114 488.629 358.13L458.475 350.911C458.858 348.81 457.55 346.776 455.454 346.279C454.916 346.159 454.372 346.151 453.862 346.22L445.008 316.462C446.101 315.972 446.993 314.983 447.298 313.741C447.58 312.554 447.298 311.415 446.668 310.484L468.086 287.838ZM525.958 230.769C526.996 230.257 527.829 229.323 528.133 228.08C528.418 226.856 528.102 225.64 527.397 224.705L548.736 202.13C549.117 202.393 549.557 202.602 550.058 202.72C552.061 203.194 554.048 202.072 554.74 200.192L588.753 208.313L598.803 242.031C597.617 242.498 596.649 243.52 596.341 244.837C596.06 245.987 596.34 247.164 596.97 248.095L575.554 270.703C575.191 270.461 574.786 270.291 574.361 270.176C572.525 269.73 570.679 270.652 569.87 272.245L539.14 264.904C539.368 262.908 538.11 261.007 536.106 260.534C535.681 260.419 535.249 260.417 534.853 260.454L525.958 230.769ZM499.517 155.592C499.951 155.913 500.447 156.144 501.003 156.284C503.006 156.757 504.993 155.635 505.684 153.755L535.839 160.974C535.611 162.97 536.889 164.853 538.89 165.363C539.446 165.503 540.009 165.493 540.539 165.407L549.393 195.165C548.263 195.653 547.39 196.623 547.065 197.921C546.758 199.2 547.128 200.476 547.89 201.395L526.572 223.914C526.155 223.612 525.66 223.382 525.124 223.224C523.12 222.751 521.116 223.853 520.424 225.733L490.232 218.512C490.461 216.516 489.182 214.633 487.161 214.14C486.623 214.02 486.062 213.993 485.532 214.079L476.678 184.322C477.808 183.833 478.681 182.863 478.987 181.583C479.293 180.304 478.923 179.028 478.163 178.072L499.517 155.592ZM564.5 135.982C564.845 136.205 565.23 136.393 565.676 136.489C567.679 136.963 569.666 135.841 570.357 133.961L601.032 141.28C600.804 143.276 602.082 145.159 604.084 145.67C604.622 145.79 605.128 145.796 605.638 145.727L614.51 175.505C613.435 176.015 612.562 176.985 612.258 178.227C611.954 179.469 612.306 180.725 613.048 181.662L589.12 206.942L555.032 198.818C555.007 197.016 553.793 195.361 551.937 194.933C551.529 194.838 551.155 194.819 550.741 194.837L541.839 164.908C542.765 164.39 543.484 163.487 543.745 162.356C544.051 161.076 543.683 159.764 542.904 158.825L564.5 135.982ZM656.506 184.973C656.089 184.671 655.594 184.441 655.056 184.321C653.052 183.847 651.066 184.969 650.356 186.829L620.145 179.627C620.373 177.63 619.095 175.748 617.093 175.237C616.537 175.097 615.994 175.089 615.464 175.176L606.61 145.418C607.74 144.93 608.613 143.959 608.919 142.68C609.225 141.4 608.856 140.125 608.095 139.169L629.433 116.631C629.867 116.953 630.363 117.183 630.919 117.323C632.922 117.797 634.909 116.675 635.6 114.795L665.737 121.994C665.509 123.99 666.767 125.89 668.788 126.383C669.344 126.523 669.908 126.513 670.437 126.427L679.292 156.185C678.161 156.673 677.288 157.644 676.982 158.923C676.676 160.203 677.046 161.478 677.806 162.434L656.506 184.973ZM640.386 251.517C640.004 251.255 639.582 251.065 639.101 250.929C637.265 250.483 635.419 251.405 634.61 252.998L604.288 245.752C604.263 243.95 603.049 242.296 601.194 241.867C600.731 241.75 600.262 241.746 599.809 241.799L589.76 208.043L613.965 182.476C614.347 182.738 614.769 182.928 615.232 183.044C617.068 183.491 618.914 182.568 619.723 180.976L650.082 188.223C650.107 190.025 651.341 191.662 653.177 192.108C653.622 192.205 654.071 192.227 654.524 192.174L663.412 222.009C662.392 222.54 661.598 223.439 661.314 224.664C660.984 226.036 661.406 227.407 662.298 228.352L640.386 251.517ZM624.918 317.362C624.501 317.06 624.006 316.829 623.468 316.709C621.465 316.236 619.478 317.358 618.786 319.237L588.594 312.017C588.822 310.021 587.544 308.138 585.543 307.627C584.987 307.488 584.443 307.48 583.914 307.566L575.059 277.809C576.19 277.32 577.062 276.35 577.369 275.07C577.675 273.79 577.305 272.515 576.525 271.577L597.863 249.039C598.297 249.361 598.793 249.592 599.349 249.731C601.352 250.205 603.339 249.083 604.03 247.203L634.167 254.402C633.939 256.398 635.235 258.3 637.218 258.792C637.774 258.931 638.338 258.921 638.867 258.835L647.721 288.593C646.591 289.081 645.718 290.052 645.412 291.331C645.106 292.611 645.456 293.903 646.236 294.842L624.918 317.362ZM560.162 336.552C559.798 336.309 559.376 336.119 558.913 336.003C556.91 335.529 554.923 336.651 554.231 338.531L523.353 331.145C523.465 329.219 522.2 327.468 520.271 326.998C519.881 326.923 519.507 326.905 519.13 326.924L510.21 296.975C511.118 296.438 511.818 295.553 512.097 294.441C512.38 293.254 512.099 292.077 511.412 291.162L533.303 268.051C533.595 268.216 533.926 268.345 534.259 268.436C536.095 268.882 537.921 267.977 538.75 266.367L569.48 273.708C569.252 275.704 570.51 277.604 572.531 278.097C573.05 278.235 573.576 278.224 574.086 278.155L582.958 307.932C581.865 308.423 581.012 309.375 580.725 310.637C580.421 311.879 580.753 313.152 581.515 314.071L560.162 336.552ZM567.251 374.459C566.065 374.926 565.096 375.948 564.769 377.283C564.488 378.432 564.768 379.609 565.418 380.523L544.002 403.131C543.656 402.908 543.234 402.718 542.808 402.604C540.973 402.157 539.146 403.062 538.318 404.672L504.36 396.573L494.312 362.817C495.349 362.305 496.165 361.351 496.448 360.164C496.727 359.052 496.5 357.934 495.905 357.042L517.343 334.378C517.653 334.562 518.02 334.73 518.39 334.823C520.301 335.273 522.225 334.28 523.004 332.535L553.975 339.944C554 341.747 555.214 343.401 557.069 343.829C557.44 343.923 557.814 343.941 558.19 343.922L567.251 374.459ZM593.348 449.77C592.931 449.468 592.436 449.237 591.898 449.117C589.894 448.644 587.908 449.766 587.198 451.626L557.006 444.405C557.234 442.409 555.956 440.527 553.953 440.053C553.397 439.913 552.853 439.905 552.324 439.992L543.47 410.234C544.6 409.746 545.473 408.775 545.779 407.496C546.085 406.216 545.735 404.923 544.955 403.985L566.292 381.447C566.727 381.769 567.203 382.017 567.778 382.139C569.782 382.613 571.769 381.491 572.46 379.611L602.597 386.81C602.369 388.806 603.645 390.726 605.648 391.2C606.204 391.339 606.767 391.329 607.297 391.243L616.151 421.001C615.021 421.489 614.148 422.459 613.822 423.757C613.516 425.036 613.868 426.292 614.646 427.268L593.348 449.77ZM577.563 515.974C577.128 515.652 576.651 515.441 576.113 515.321C574.109 514.848 572.123 515.97 571.413 517.83L540.998 510.561C541.227 508.565 539.949 506.682 537.965 506.191C537.482 506.092 536.995 506.068 536.543 506.121L527.654 476.287C528.692 475.775 529.488 474.838 529.791 473.634C530.073 472.447 529.795 471.232 529.107 470.317L550.861 447.331C551.242 447.594 551.664 447.783 552.128 447.9C553.963 448.346 555.809 447.423 556.638 445.813L586.997 453.061C587.022 454.863 588.236 456.517 590.092 456.946C590.555 457.062 590.986 457.065 591.439 457.012L600.423 487.189C599.293 487.677 598.42 488.648 598.094 489.945C597.788 491.224 598.138 492.517 598.918 493.456L577.563 515.974ZM485.615 466.928C486.015 467.211 486.472 467.439 486.973 467.558C488.976 468.031 490.963 466.909 491.655 465.029L521.809 472.248C521.581 474.244 522.84 476.145 524.861 476.638C525.454 476.779 526.055 476.771 526.624 476.649L535.478 506.407C534.292 506.874 533.38 507.88 533.053 509.215C532.745 510.532 533.113 511.844 533.948 512.804L512.65 535.306C512.217 534.947 511.704 534.697 511.11 534.555C509.107 534.082 507.12 535.204 506.429 537.084L476.237 529.863C476.465 527.867 475.187 525.984 473.185 525.473C472.685 525.355 472.161 525.329 471.669 525.418L462.796 495.64C463.872 495.13 464.705 494.196 465.009 492.954C465.313 491.711 464.979 490.476 464.255 489.558L485.615 466.928ZM478.603 429.381C479.678 428.871 480.531 427.919 480.816 426.694C481.12 425.452 480.786 424.216 480.061 423.299L504.009 398.001L537.892 406.096C537.664 408.092 538.922 409.993 540.943 410.486C541.482 410.606 541.988 410.612 542.498 410.543L551.37 440.321C550.277 440.811 549.424 441.764 549.118 443.043C548.831 444.305 549.165 445.541 549.908 446.478L528.194 469.428C527.795 469.146 527.337 468.917 526.799 468.797C524.963 468.35 523.137 469.255 522.308 470.865L491.986 463.62C491.961 461.817 490.727 460.181 488.892 459.735C488.483 459.64 488.034 459.618 487.639 459.654L478.603 429.381ZM414.404 441.732C414.005 441.45 413.547 441.221 413.009 441.101C411.005 440.627 409.018 441.749 408.327 443.629L378.115 436.426C378.344 434.43 377.085 432.53 375.082 432.056C374.488 431.915 373.925 431.925 373.376 432.029L364.52 402.309C365.668 401.84 366.58 400.834 366.906 399.537C367.213 398.22 366.844 396.944 366.046 395.986L387.364 373.467C387.817 373.808 388.31 374.076 388.886 374.198C390.889 374.671 392.876 373.549 393.567 371.669L423.722 378.888C423.494 380.884 424.77 382.804 426.773 383.278C427.311 383.398 427.835 383.424 428.365 383.337L437.237 413.114C436.144 413.605 435.271 414.575 434.985 415.837C434.681 417.079 435.013 418.352 435.755 419.289L414.404 441.732ZM349.381 461.378C349.018 461.135 348.596 460.945 348.132 460.829C346.129 460.355 344.142 461.477 343.433 463.338L312.888 456.043C313.116 454.047 311.838 452.165 309.835 451.691C309.316 451.553 308.773 451.545 308.281 451.634L299.408 421.857C300.484 421.346 301.337 420.394 301.641 419.152C301.945 417.91 301.611 416.674 300.869 415.737L324.797 390.456L358.958 398.622C358.983 400.424 360.197 402.078 362.052 402.507C362.423 402.6 362.797 402.618 363.174 402.599L372.076 432.528C371.168 433.065 370.469 433.95 370.227 435.064C369.921 436.344 370.273 437.599 371.033 438.556L349.381 461.378ZM234.609 441.157C235.74 440.668 236.632 439.68 236.938 438.401C237.244 437.121 236.874 435.846 236.114 434.889L257.452 412.352C257.886 412.674 258.362 412.922 258.918 413.062C260.921 413.535 262.908 412.413 263.6 410.533L293.736 417.732C293.508 419.729 294.767 421.629 296.788 422.122C297.344 422.262 297.907 422.252 298.437 422.165L307.291 451.923C306.16 452.412 305.288 453.382 304.982 454.662C304.676 455.941 305.026 457.234 305.806 458.173L284.488 480.692C284.071 480.39 283.575 480.16 283.057 480.022C281.054 479.548 279.067 480.67 278.357 482.531L248.146 475.328C248.374 473.332 247.096 471.449 245.112 470.958C244.556 470.818 244.013 470.81 243.483 470.897L234.609 441.157ZM120.546 414.067C121.454 413.53 122.153 412.645 122.395 411.531C122.701 410.251 122.349 408.996 121.589 408.039L142.926 385.502C143.361 385.823 143.856 386.054 144.395 386.174C146.546 386.692 148.731 385.355 149.248 383.204L179.292 390.38C178.775 392.531 180.113 394.716 182.282 395.254C183.006 395.421 183.74 395.363 184.407 395.152L193.263 424.872C191.931 425.257 190.829 426.329 190.476 427.794C190.17 429.073 190.52 430.366 191.3 431.305L169.982 453.824C169.547 453.503 169.052 453.272 168.514 453.152C166.678 452.705 164.852 453.61 164.023 455.221L133.664 447.973C133.639 446.171 132.405 444.534 130.569 444.088C130.199 443.995 129.824 443.976 129.448 443.996L120.546 414.067ZM28.8757 358.15C29.3442 358.548 29.8929 358.837 30.5416 359.001C32.6927 359.519 34.8777 358.181 35.3949 356.03L65.4389 363.206C64.9217 365.357 66.2601 367.543 68.4112 368.061C69.0599 368.224 69.6999 368.18 70.2883 368.04L79.1446 397.76C77.9035 398.206 76.9346 399.228 76.6053 400.6C76.3225 401.787 76.6208 402.984 77.2706 403.897L55.8742 426.488C55.5108 426.245 55.0886 426.055 54.643 425.959C52.8074 425.512 50.9811 426.417 50.1525 428.027L19.793 420.78C19.7876 418.96 18.5538 417.323 16.6986 416.895C16.2352 416.778 15.7664 416.774 15.3135 416.827L6.42529 386.992C7.44544 386.461 8.22171 385.542 8.52411 384.337C8.85341 382.965 8.43222 381.594 7.54004 380.649L28.8757 358.15ZM93.9657 338.657C94.3291 338.9 94.7514 339.09 95.2147 339.206C97.2179 339.68 99.2048 338.557 99.8964 336.678L130.088 343.898C129.86 345.895 131.138 347.777 133.14 348.288C133.77 348.431 134.409 348.425 134.979 348.265L143.981 378.462C142.722 378.888 141.714 379.945 141.365 381.335C141.081 382.56 141.397 383.776 142.084 384.691L120.707 407.264C120.308 406.982 119.868 406.773 119.385 406.674C117.549 406.228 115.723 407.133 114.895 408.743L84.5726 401.497C84.5475 399.695 83.3138 398.059 81.4781 397.612C81.0326 397.515 80.5834 397.493 80.1876 397.53L71.3012 367.658C72.2839 367.125 73.0405 366.224 73.3037 365.055C73.6312 363.72 73.2456 362.388 72.3909 361.445L93.9657 338.657ZM87.0346 301.358C87.9425 300.821 88.6421 299.936 88.9016 298.842C89.2076 297.562 88.8559 296.307 88.076 295.368L109.413 272.831C109.83 273.132 110.324 273.401 110.862 273.521C113.013 274.039 115.198 272.701 115.697 270.531L145.742 277.707C145.224 279.858 146.563 282.043 148.732 282.581C149.455 282.748 150.19 282.69 150.857 282.479L159.713 312.199C158.381 312.584 157.278 313.656 156.926 315.12C156.62 316.4 156.97 317.693 157.749 318.632L136.432 341.151C136.015 340.849 135.519 340.619 134.963 340.479C133.128 340.032 131.302 340.937 130.453 342.565L100.076 335.298C100.071 333.478 98.8172 331.859 96.9815 331.413C96.6108 331.32 96.2365 331.302 95.8604 331.321L87.0346 301.358ZM37.9227 254.149C38.9981 253.639 39.8511 252.687 40.1553 251.445C40.4595 250.202 40.1256 248.967 39.3831 248.03L60.701 225.51C61.0644 225.753 61.4867 225.943 61.9501 226.059C63.9533 226.533 65.9401 225.411 66.6318 223.531L96.8433 230.734C96.615 232.73 97.8735 234.63 99.8945 235.123C100.525 235.267 101.146 235.241 101.752 235.12L110.85 265.659C109.445 266.003 108.266 267.109 107.911 268.611C107.628 269.798 107.911 270.937 108.541 271.869L87.1427 294.497C86.7793 294.254 86.3748 294.084 85.9115 293.967C84.2612 293.567 82.576 294.273 81.6674 295.598L51.5681 288.401C51.7964 286.404 50.5183 284.522 48.5169 284.011C47.9412 283.889 47.3601 283.879 46.811 283.984L37.9227 254.149Z" fill="url(#paint0_linear_778_24354)"/>
<defs>
<linearGradient id="paint0_linear_778_24354" x1="907.879" y1="885.202" x2="127.281" y2="44.879" gradientUnits="userSpaceOnUse">
<stop stop-color="white"/>
<stop offset="1" stop-color="#D6E5FD"/>
</linearGradient>
</defs>
</svg>
