<svg width="348" height="603" viewBox="0 0 348 603" fill="none" xmlns="http://www.w3.org/2000/svg">
<path opacity="0.8" d="M211.107 -216.172L183.173 -184.964C181.832 -185.836 180.141 -186.141 178.539 -185.605C175.713 -184.682 174.153 -181.611 175.075 -178.784C175.944 -176.157 178.628 -174.673 181.266 -175.206L194.134 -136.008C193.933 -135.955 193.708 -135.946 193.497 -135.859C190.671 -134.936 189.112 -131.865 190.024 -129.004C190.342 -128.058 190.891 -127.268 191.603 -126.653L163.831 -95.6204C162.452 -96.8738 160.449 -97.3813 158.558 -96.7433C156.756 -96.1539 155.493 -94.7402 155.03 -93.0198L113.787 -101.657C113.829 -102.312 113.758 -102.963 113.541 -103.62C112.759 -106.035 110.403 -107.498 108.011 -107.303L94.9505 -147.113C97.03 -148.401 98 -150.975 97.2183 -153.391C96.2965 -156.218 93.2268 -157.777 90.4006 -156.854C88.8429 -156.342 87.6933 -155.192 87.0952 -153.771L46.1596 -162.318C46.1817 -162.905 46.1013 -163.522 45.9083 -164.135C44.9965 -166.996 41.9169 -168.521 39.0906 -167.598C36.2544 -166.641 34.7052 -163.604 35.617 -160.743C35.8971 -159.919 36.3636 -159.228 36.9382 -158.653L9.15657 -127.586C7.79661 -128.648 5.91037 -129.047 4.15195 -128.482C1.32569 -127.56 -0.233443 -124.488 0.67839 -121.627C1.60015 -118.8 4.66984 -117.241 7.49611 -118.164L20.4891 -78.6329C17.6628 -77.7101 16.1037 -74.6389 17.0155 -71.7776C17.9373 -68.9505 21.0069 -67.3915 23.8431 -68.3485C25.6457 -68.9379 26.9189 -70.3859 27.3813 -72.1063L68.1361 -63.5742C68.0102 -62.7576 68.0653 -61.9255 68.3453 -61.1023C69.2671 -58.2752 72.3368 -56.7163 75.163 -57.639L88.1318 -18.1523C85.2956 -17.1954 83.7463 -14.1584 84.6681 -11.3313C84.9868 -10.3856 85.536 -9.59556 86.2474 -8.98097L58.4657 22.0862C57.0871 20.8327 55.0839 20.3253 53.1931 20.9633C50.3668 21.886 48.8077 24.9573 49.7195 27.8186C50.6413 30.6457 53.711 32.2046 56.5814 31.2575L69.5401 70.7785C66.7039 71.7355 65.1547 74.7724 66.0666 77.6337C66.9883 80.4608 70.058 82.0198 72.8843 81.097C74.5644 80.5462 75.7637 79.2252 76.3232 77.6813L117.112 86.2234C117.06 86.9131 117.145 87.6425 117.342 88.3675C118.264 91.1946 121.334 92.7536 124.16 91.8308L137.399 132.175C134.953 133.319 133.654 136.132 134.523 138.759C134.765 139.459 135.129 140.121 135.611 140.632L107.785 171.724C106.454 170.818 104.704 170.458 103.024 171.009C100.198 171.932 98.6386 175.003 99.5504 177.864C100.419 180.491 103.103 181.975 105.742 181.442L118.739 221.086C116.293 222.23 114.994 225.043 115.863 227.67C116.785 230.497 119.855 232.056 122.681 231.133C124.361 230.582 125.595 229.271 126.13 227.683L166.919 236.225C166.857 236.949 166.942 237.678 167.183 238.379C168.052 241.005 170.736 242.489 173.374 241.957L186.536 282.056C184.09 283.201 182.791 286.014 183.66 288.64C184.572 291.501 187.652 293.026 190.478 292.103C192.281 291.514 193.554 290.066 194.006 288.38L235.328 297.002C235.266 297.726 235.351 298.456 235.583 299.191C236.451 301.817 239.135 303.301 241.774 302.769L254.805 342.422C252.359 343.567 251.105 346.355 251.93 349.006C252.886 351.843 255.921 353.392 258.791 352.445C260.516 351.87 261.759 350.524 262.26 348.927L303.049 357.468C302.977 358.227 303.018 358.98 303.284 359.725C304.152 362.351 306.836 363.835 309.475 363.303L322.521 403.035C320.075 404.18 318.786 406.958 319.645 409.619C319.901 410.398 320.309 411.036 320.849 411.6L292.689 443.077C291.315 441.936 289.37 441.483 287.533 442.062C285.809 442.637 284.566 443.983 284.065 445.581L243.276 437.039C243.348 436.28 243.317 435.492 243.051 434.748C242.129 431.921 239.06 430.362 236.233 431.284C233.407 432.207 231.848 435.278 232.76 438.14C233.016 438.919 233.424 439.556 233.964 440.121L206.183 471.189C204.813 470.16 203.019 469.825 201.295 470.4C198.469 471.323 196.909 474.394 197.831 477.221C198.7 479.847 201.384 481.331 204.022 480.799L217.054 520.452C214.608 521.597 213.319 524.376 214.178 527.036C215.134 529.873 218.17 531.422 221.03 530.509C222.666 529.983 223.845 528.73 224.395 527.221L265.252 535.783C265.21 536.438 265.271 537.123 265.488 537.78C266.357 540.406 269.041 541.89 271.679 541.358L284.778 581.291C282.332 582.435 281.068 585.258 281.902 587.874C282.824 590.701 285.894 592.26 288.72 591.338C290.4 590.787 291.634 589.476 292.159 587.922L332.948 596.464C332.896 597.154 332.971 597.917 333.212 598.618C334.134 601.445 337.204 603.004 340.03 602.081C342.856 601.159 344.416 598.087 343.494 595.26C343.262 594.525 342.888 593.897 342.406 593.387L370.557 561.944C371.941 563.051 373.827 563.45 375.63 562.861C377.31 562.31 378.543 560.999 379.078 559.411L419.867 567.953C419.805 568.677 419.89 569.406 420.132 570.107C421.054 572.934 424.123 574.493 426.949 573.57C429.776 572.648 431.335 569.576 430.413 566.749C430.172 566.049 429.808 565.386 429.326 564.876L457.161 533.75C458.493 534.656 460.218 534.971 461.888 534.455C464.714 533.532 466.274 530.461 465.362 527.599C464.493 524.973 461.809 523.489 459.171 524.021L446.188 484.456C448.633 483.312 449.922 480.533 449.053 477.907C448.836 477.25 448.511 476.711 448.097 476.22L476.582 444.392C477.96 445.646 479.963 446.153 481.854 445.515C483.657 444.926 484.93 443.478 485.382 441.792L526.035 450.294C525.963 451.052 526.004 451.806 526.269 452.55C527.138 455.177 529.822 456.661 532.45 456.163L545.482 495.816C543.036 496.961 541.747 499.739 542.606 502.4C543.528 505.227 546.598 506.786 549.458 505.873C551.138 505.322 552.338 504.001 552.863 502.448L593.652 510.99C593.59 511.713 593.675 512.443 593.916 513.144C594.838 515.971 597.908 517.53 600.734 516.607C603.57 515.65 605.119 512.613 604.208 509.752C603.966 509.051 603.602 508.389 603.12 507.878L630.956 476.752C632.287 477.658 634.047 477.984 635.693 477.423C637.461 476.824 638.724 475.41 639.211 473.734L681.158 482.501C681.136 483.088 681.216 483.705 681.409 484.317C682.331 487.144 685.401 488.703 688.237 487.746C691.063 486.823 692.622 483.752 691.701 480.925C691.42 480.102 690.954 479.41 690.379 478.835L718.151 447.802C719.535 448.909 721.422 449.308 723.224 448.719C724.904 448.168 726.138 446.857 726.663 445.303L767.452 453.845C767.39 454.569 767.475 455.298 767.716 455.999C768.638 458.826 771.708 460.385 774.534 459.462C777.37 458.505 778.919 455.469 777.998 452.641C777.756 451.941 777.392 451.279 776.91 450.768L804.746 419.642C806.077 420.548 807.803 420.863 809.473 420.347C812.299 419.424 813.858 416.353 812.936 413.526C812.068 410.9 809.384 409.416 806.745 409.948L793.772 370.348C796.218 369.204 797.472 366.415 796.638 363.799C795.716 360.972 792.646 359.413 789.82 360.336C788.14 360.886 786.951 362.173 786.425 363.727L745.602 355.175C745.664 354.451 745.579 353.722 745.338 353.021C744.469 350.395 741.785 348.911 739.157 349.409L725.966 309.153C728.412 308.008 729.701 305.23 728.842 302.569C727.92 299.742 724.85 298.183 722.024 299.106C720.178 299.719 718.894 301.202 718.456 302.966L677.247 294.339C677.299 293.649 677.214 292.92 677.007 292.229C676.138 289.603 673.454 288.119 670.816 288.651L657.843 249.052C660.288 247.907 661.577 245.129 660.718 242.468C659.796 239.641 656.727 238.082 653.901 239.005C652.22 239.556 651.031 240.842 650.472 242.386L609.648 233.834C609.7 233.145 609.625 232.381 609.384 231.68C608.462 228.853 605.393 227.294 602.566 228.217C599.74 229.14 598.181 232.211 599.103 235.038C599.344 235.739 599.708 236.401 600.19 236.912L572.364 268.003C571.009 267.053 569.283 266.738 567.603 267.288C564.743 268.201 563.218 271.282 564.14 274.109C565.009 276.736 567.692 278.22 570.331 277.688L583.362 317.341C580.917 318.486 579.628 321.264 580.487 323.925C580.743 324.704 581.175 325.386 581.715 325.951L554.042 356.901C552.668 355.76 550.723 355.306 548.876 355.92C546.907 356.573 545.618 358.201 545.253 360.098L503.658 351.396C503.784 350.58 503.738 349.714 503.458 348.89C502.551 346.142 499.686 344.642 496.92 345.36L483.961 305.839C486.636 304.798 488.043 301.868 487.136 299.119C486.18 296.282 483.144 294.733 480.318 295.656C478.515 296.245 477.232 297.728 476.77 299.448L436.015 290.916C436.141 290.099 436.096 289.233 435.826 288.376C434.918 285.627 432.019 284.118 429.287 284.845L416.357 245.481C418.803 244.336 420.057 241.548 419.233 238.897C418.311 236.07 415.241 234.511 412.415 235.434C410.769 235.994 409.59 237.247 409.04 238.757L368.525 230.294C368.586 229.57 368.546 228.816 368.28 228.072C367.358 225.244 364.289 223.686 361.462 224.608C358.626 225.565 357.077 228.602 357.989 231.464C358.182 232.076 358.497 232.65 358.911 233.141L330.514 264.92C329.145 263.891 327.293 263.502 325.568 264.077C323.932 264.604 322.743 265.89 322.193 267.4L281.336 258.838C281.388 258.148 281.327 257.463 281.086 256.762C280.164 253.935 277.095 252.376 274.268 253.299L259.389 207.879L212.897 198.163C212.969 197.405 212.928 196.652 212.672 195.873C211.803 193.246 209.12 191.762 206.491 192.26L193.508 152.695C195.954 151.551 197.208 148.762 196.34 146.136C196.094 145.322 195.627 144.631 195.087 144.066L223.311 112.496C224.695 113.603 226.581 114.002 228.384 113.413C230.064 112.862 231.297 111.551 231.823 109.997L272.612 118.539C272.55 119.263 272.635 119.993 272.876 120.693C273.798 123.52 276.868 125.08 279.704 124.123L292.764 163.932C290.318 165.077 289.029 167.856 289.898 170.482C290.82 173.309 293.89 174.868 296.75 173.955C298.43 173.405 299.62 172.118 300.145 170.564L340.9 179.096C340.858 179.752 340.928 180.403 341.135 181.093C342.091 183.93 345.127 185.479 347.997 184.532C350.824 183.61 352.383 180.538 351.461 177.711C351.244 177.055 350.894 176.471 350.48 175.98L378.587 144.562C379.971 145.669 381.857 146.068 383.66 145.479C385.34 144.928 386.573 143.617 387.098 142.063L427.887 150.605C427.825 151.329 427.91 152.058 428.152 152.759C429.021 155.385 431.704 156.869 434.333 156.371L447.495 196.47C445.049 197.615 443.75 200.428 444.619 203.054C445.541 205.881 448.61 207.44 451.437 206.517C453.239 205.928 454.512 204.48 454.965 202.794L495.402 211.271C495.38 211.858 495.47 212.441 495.663 213.053C496.575 215.914 499.655 217.439 502.481 216.516C505.307 215.594 506.866 212.522 505.945 209.695C505.742 209.117 505.451 208.587 505.105 208.116L532.661 177.317C534.055 178.39 535.931 178.823 537.7 178.224C540.526 177.301 542.085 174.23 541.163 171.403C540.294 168.777 537.621 167.258 534.982 167.791L521.715 127.29C524.16 126.145 525.449 123.366 524.58 120.74C524.426 120.25 524.183 119.809 523.887 119.426L552.209 87.774C553.502 88.5573 555.124 88.8431 556.726 88.3066C558.406 87.7558 559.64 86.4447 560.131 84.881L600.92 93.4231C600.868 94.1128 600.952 94.8422 601.15 95.5672C602.072 98.3943 605.141 99.9532 608.012 99.0062L621.019 138.615C618.573 139.76 617.319 142.549 618.143 145.199C619.065 148.026 622.135 149.585 624.961 148.662C626.519 148.15 627.624 147.025 628.247 145.647L669.91 154.369C669.942 154.898 669.964 155.461 670.143 155.995C671.064 158.822 674.134 160.381 676.97 159.424C679.797 158.501 681.356 155.43 680.434 152.603C680.178 151.824 679.77 151.186 679.264 150.631L706.829 119.798C708.132 120.547 709.73 120.788 711.244 120.3C714.07 119.378 715.629 116.307 714.707 113.479C713.839 110.853 711.131 109.325 708.482 109.891L695.842 71.3161C698.288 70.1716 699.577 67.3929 698.718 64.7324C697.762 61.8954 694.726 60.3463 691.9 61.269C690.421 61.7669 689.301 62.8142 688.698 64.123L646.649 55.3262C646.72 54.5681 646.69 53.7802 646.424 53.0353C645.642 50.6198 643.32 49.1667 640.894 49.3523L627.833 9.54232C629.879 8.24441 630.917 5.68967 630.101 3.26425C629.179 0.437146 626.11 -1.12181 623.283 -0.199032C621.603 0.351735 620.37 1.66284 619.845 3.21662L579.021 -5.33536C579.083 -6.05927 578.998 -6.7887 578.767 -7.52362C577.898 -10.1499 575.224 -11.6681 572.576 -11.1017L559.578 -50.7451C562.024 -51.8896 563.313 -54.6684 562.444 -57.2946C562.251 -57.9071 561.926 -58.4466 561.581 -58.9178L589.633 -90.2774C590.974 -89.4057 592.665 -89.1002 594.301 -89.6267C597.127 -90.5495 598.686 -93.6207 597.764 -96.4478C596.944 -98.9858 594.441 -100.454 591.896 -100.118L578.773 -140.094C581.219 -141.239 582.474 -144.027 581.649 -146.678C581.418 -147.413 581.044 -148.041 580.562 -148.552L608.388 -179.643C609.719 -178.737 611.444 -178.422 613.114 -178.938C615.95 -179.895 617.5 -182.932 616.578 -185.759C615.709 -188.386 613.025 -189.869 610.387 -189.337L597.414 -228.937C599.859 -230.081 601.148 -232.86 600.279 -235.486C599.323 -238.323 596.288 -239.872 593.462 -238.949C591.781 -238.399 590.592 -237.112 590.033 -235.568L549.209 -244.12C549.261 -244.81 549.187 -245.573 548.945 -246.274C548.076 -248.9 545.393 -250.384 542.754 -249.852L529.539 -290.152C531.985 -291.297 533.24 -294.085 532.405 -296.702C531.483 -299.529 528.414 -301.088 525.587 -300.165C523.741 -299.551 522.448 -298.035 522.009 -296.27L481.572 -304.747C481.614 -305.403 481.53 -306.132 481.312 -306.789C480.391 -309.616 477.321 -311.175 474.495 -310.252C471.668 -309.329 470.109 -306.258 471.031 -303.431C471.238 -302.74 471.622 -302.147 472.026 -301.621L444.47 -270.822C443.072 -272.007 441.161 -272.451 439.28 -271.847C436.454 -270.924 434.895 -267.853 435.817 -265.026C436.686 -262.4 439.369 -260.916 442.008 -261.448L455.222 -221.148C452.777 -220.003 451.488 -217.225 452.347 -214.564C452.54 -213.952 452.875 -213.446 453.21 -212.941L424.986 -181.372C423.631 -182.322 421.905 -182.637 420.225 -182.086C417.399 -181.164 415.84 -178.093 416.752 -175.231C417.621 -172.605 420.304 -171.121 422.943 -171.653L436.052 -131.755C433.606 -130.61 432.317 -127.832 433.176 -125.171C433.417 -124.47 433.781 -123.808 434.263 -123.297L406.437 -92.206C405.072 -93.1218 403.357 -93.4715 401.677 -92.9207C398.85 -91.9979 397.291 -88.9267 398.213 -86.0996C399.082 -83.4733 401.765 -81.9894 404.404 -82.5215L417.436 -42.8682C414.99 -41.7237 413.701 -38.9449 414.57 -36.3186C414.763 -35.7062 415.078 -35.1325 415.492 -34.6414L387.009 -3.07324C385.643 -3.98903 383.928 -4.33872 382.248 -3.78792C379.422 -2.86514 377.862 0.206032 378.784 3.03314C379.653 5.65939 382.327 7.17764 384.975 6.61131L398.05 46.4996C395.604 47.6442 394.315 50.4229 395.174 53.0834C395.416 53.7841 395.78 54.4462 396.262 54.957L368.436 86.0484C367.07 85.1326 365.355 84.783 363.675 85.3338C361.872 85.9232 360.609 87.3369 360.157 89.0231L318.107 80.2263C318.159 79.5366 318.074 78.8072 317.867 78.1164C316.998 75.4901 314.324 73.9719 311.685 74.504L298.702 34.939C301.148 33.7945 302.403 31.0058 301.578 28.3553C300.656 25.5282 297.587 23.9692 294.76 24.8919C293.08 25.4427 291.891 26.7295 291.366 28.2833L250.542 19.7314C250.594 19.0417 250.51 18.3123 250.278 17.5774C249.409 14.9511 246.736 13.4329 244.097 13.965L230.829 -26.5358C232.875 -27.8337 233.879 -30.3983 233.087 -32.7796C232.933 -33.2696 232.69 -33.7109 232.438 -34.1181L260.436 -65.4191C261.665 -64.8024 263.171 -64.6249 264.606 -65.0984C267.433 -66.0212 268.992 -69.0924 268.07 -71.9195C267.288 -74.335 264.966 -75.7881 262.54 -75.6025L249.479 -115.412C251.525 -116.71 252.529 -119.275 251.747 -121.69C251.607 -122.102 251.423 -122.489 251.229 -122.843L279.994 -154.997C281.286 -154.213 282.909 -153.928 284.477 -154.474C286.157 -155.025 287.346 -156.312 287.915 -157.89L328.704 -149.348C328.652 -148.658 328.737 -147.928 328.969 -147.194C329.891 -144.366 332.96 -142.808 335.786 -143.73C338.623 -144.687 340.172 -147.724 339.25 -150.551C339.096 -151.041 338.853 -151.483 338.591 -151.856L366.589 -183.157C367.818 -182.54 369.324 -182.362 370.759 -182.836C373.586 -183.759 375.145 -186.83 374.223 -189.657C373.441 -192.073 371.119 -193.526 368.693 -193.34L355.632 -233.15C357.712 -234.438 358.716 -237.003 357.9 -239.428C356.944 -242.265 353.909 -243.814 351.082 -242.891C349.402 -242.341 348.203 -241.02 347.644 -239.476L306.82 -248.028C306.882 -248.752 306.797 -249.481 306.566 -250.216C305.61 -253.053 302.574 -254.602 299.748 -253.679C296.922 -252.756 295.363 -249.685 296.285 -246.858C296.603 -245.912 297.152 -245.122 297.83 -244.518L270.048 -213.451C268.669 -214.704 266.666 -215.212 264.775 -214.574C262.973 -213.984 261.7 -212.536 261.247 -210.85L220.595 -219.352C220.667 -220.11 220.626 -220.864 220.37 -221.643C219.448 -224.47 216.379 -226.029 213.553 -225.107C210.726 -224.184 209.167 -221.113 210.089 -218.285C210.192 -217.365 210.6 -216.727 211.107 -216.172ZM288.096 -159.024C288.158 -159.748 288.074 -160.477 287.832 -161.178C287.05 -163.594 284.728 -165.047 282.302 -164.861L269.217 -204.715C271.263 -206.013 272.267 -208.578 271.485 -210.993C271.331 -211.483 271.088 -211.925 270.801 -212.342L298.789 -243.609C300.043 -242.948 301.549 -242.77 302.984 -243.244C304.664 -243.794 305.854 -245.081 306.413 -246.625L347.236 -238.073C347.174 -237.349 347.259 -236.62 347.501 -235.919C348.423 -233.092 351.492 -231.533 354.318 -232.456L367.263 -193.013C364.427 -192.056 362.878 -189.019 363.799 -186.192C364.108 -185.212 364.701 -184.447 365.403 -183.798L337.621 -152.731C336.242 -153.984 334.239 -154.491 332.314 -153.863C330.634 -153.313 329.401 -152.002 328.875 -150.448L288.096 -159.024ZM229.594 -25.8559L242.843 14.454C240.397 15.5985 239.142 18.3871 239.967 21.0377C240.174 21.7285 240.558 22.3221 240.996 22.8573L213.16 53.9829C211.819 53.1113 210.128 52.8057 208.458 53.3223C206.822 53.8488 205.632 55.1356 205.083 56.6452L162.828 47.7888C162.86 47.1675 162.789 46.5165 162.597 45.9041C161.892 43.7336 159.898 42.3014 157.741 42.1945L144.565 2.01708C146.225 0.644199 147.003 -1.65227 146.274 -3.86695C146.158 -4.23439 145.964 -4.58749 145.77 -4.94059L174.308 -36.8266C175.514 -36.254 176.917 -36.1062 178.308 -36.5555C179.91 -37.0919 181.069 -38.2761 181.643 -39.7416L222.535 -31.1698C222.503 -30.5485 222.573 -29.8975 222.766 -29.285C223.688 -26.4579 226.733 -24.9431 229.594 -25.8559ZM558.095 -50.3598L571.102 -10.7507C568.656 -9.60612 567.367 -6.82738 568.226 -4.16689C568.492 -3.42205 568.89 -2.75007 569.396 -2.19505L541.615 28.872C540.269 27.8878 538.475 27.5525 536.761 28.0934C535.037 28.6684 533.828 30.0237 533.293 31.6116L487.641 22.0658L473.046 -22.4184C475.492 -23.563 476.747 -26.3516 475.888 -29.0121C475.68 -29.7029 475.297 -30.2965 474.859 -30.8317L502.695 -61.9573C504.036 -61.0856 505.727 -60.7801 507.363 -61.3066C508.999 -61.8331 510.178 -63.0857 510.728 -64.5954L551.585 -56.0335C551.533 -55.3438 551.594 -54.6585 551.835 -53.9578C552.782 -51.3459 555.456 -49.8277 558.095 -50.3598ZM416.158 -33.7432C417.518 -32.6807 419.37 -32.2913 421.173 -32.8807C422.73 -33.3929 423.88 -34.5428 424.468 -35.9299L465.394 -27.3482C465.372 -26.7611 465.428 -26.1884 465.631 -25.6102C466.412 -23.1947 468.734 -21.7416 471.161 -21.9272L485.805 22.6454L454.523 57.5927C453.206 56.7652 451.55 56.4696 449.982 57.016C448.38 57.5524 447.221 58.7366 446.647 60.2021L405.755 51.6303C405.787 51.009 405.717 50.3579 405.5 49.7013C404.631 47.0751 401.947 45.5911 399.318 46.089L386.244 6.20068C388.69 5.05613 389.944 2.2675 389.11 -0.348855C388.878 -1.08377 388.504 -1.71163 388.032 -2.25672L416.158 -33.7432ZM435.003 -122.526C436.359 -121.576 438.118 -121.251 439.764 -121.811C441.444 -122.362 442.644 -123.683 443.203 -125.227L484.026 -116.675C483.964 -115.951 484.049 -115.222 484.281 -114.487C485.15 -111.861 487.833 -110.377 490.472 -110.909L503.455 -71.3438C501.009 -70.1993 499.755 -67.4106 500.579 -64.76C500.811 -64.0251 501.219 -63.3873 501.691 -62.8422L473.865 -31.7508C472.51 -32.7008 470.784 -33.0163 469.104 -32.4655C467.424 -31.9147 466.225 -30.5937 465.7 -29.0399L424.911 -37.582C424.963 -38.2717 424.878 -39.0011 424.646 -39.736C423.777 -42.3622 421.104 -43.8804 418.455 -43.3141L405.424 -82.9674C407.869 -84.1119 409.124 -86.9006 408.299 -89.5511C408.068 -90.286 407.694 -90.9139 407.222 -91.459L435.003 -122.526ZM453.886 -212.077C455.28 -211.005 457.157 -210.571 458.925 -211.17C460.483 -211.683 461.642 -212.867 462.23 -214.254L503.156 -205.672C503.124 -205.051 503.204 -204.434 503.397 -203.822C504.179 -201.406 506.501 -199.953 508.928 -200.139L522.002 -160.25C519.957 -158.952 518.953 -156.388 519.735 -153.972C519.927 -153.36 520.229 -152.864 520.608 -152.383L492.276 -120.697C490.959 -121.525 489.302 -121.82 487.734 -121.274C486.133 -120.737 484.973 -119.553 484.399 -118.088L443.474 -126.669C443.506 -127.291 443.435 -127.942 443.252 -128.588C442.383 -131.215 439.71 -132.733 437.061 -132.167L423.986 -172.055C426.432 -173.199 427.721 -175.978 426.852 -178.604C426.621 -179.339 426.247 -179.967 425.775 -180.512L453.886 -212.077ZM521.559 -295.103C521.547 -294.55 521.613 -294.011 521.792 -293.477C522.661 -290.851 525.344 -289.367 527.983 -289.899L541.197 -249.599C538.752 -248.455 537.463 -245.676 538.322 -243.016C538.529 -242.325 538.913 -241.731 539.351 -241.196L511.515 -210.07C510.184 -210.976 508.493 -211.282 506.847 -210.721C505.211 -210.195 504.021 -208.908 503.472 -207.398L462.615 -215.96C462.666 -216.65 462.606 -217.335 462.364 -218.036C461.496 -220.662 458.822 -222.18 456.173 -221.614L442.959 -261.914C445.404 -263.058 446.659 -265.847 445.824 -268.463C445.646 -268.997 445.379 -269.483 445.058 -269.91L472.678 -300.802C474.023 -299.817 475.817 -299.482 477.531 -300.023C479.255 -300.598 480.489 -301.909 481 -303.541L521.559 -295.103ZM579.309 -149.472C577.953 -150.422 576.228 -150.737 574.548 -150.186C572.868 -149.636 571.634 -148.325 571.109 -146.771L530.32 -155.313C530.372 -156.002 530.287 -156.732 530.046 -157.433C529.177 -160.059 526.503 -161.577 523.865 -161.045L510.833 -200.698C513.279 -201.843 514.568 -204.622 513.709 -207.282C513.477 -208.017 513.103 -208.645 512.631 -209.19L540.457 -240.281C541.812 -239.331 543.572 -239.006 545.252 -239.557C546.932 -240.107 548.131 -241.428 548.657 -242.982L589.48 -234.43C589.418 -233.706 589.469 -232.987 589.734 -232.242C590.603 -229.616 593.287 -228.132 595.925 -228.664L608.908 -189.099C606.463 -187.954 605.208 -185.166 606.033 -182.515C606.264 -181.78 606.672 -181.142 607.144 -180.597L579.309 -149.472ZM560.416 -59.8866C559.032 -60.9933 557.18 -61.3827 555.377 -60.7932C553.819 -60.2811 552.66 -59.0969 552.062 -57.6755L511.136 -66.2573C511.168 -66.8786 511.088 -67.4954 510.895 -68.1078C510.113 -70.5233 507.791 -71.9764 505.364 -71.7908L492.304 -111.601C494.35 -112.899 495.388 -115.453 494.562 -117.845C494.369 -118.457 494.044 -118.997 493.664 -119.478L521.997 -151.164C523.304 -150.302 525.005 -150.031 526.606 -150.567C528.208 -151.104 529.378 -152.322 529.951 -153.788L570.809 -145.226C570.777 -144.605 570.847 -143.954 571.064 -143.297C571.933 -140.671 574.617 -139.187 577.256 -139.719L590.364 -99.8205C587.723 -98.7698 586.316 -95.8399 587.19 -93.101C587.445 -92.322 587.854 -91.6842 588.36 -91.1292L560.416 -59.8866ZM628.375 144.312C628.501 143.495 628.465 142.595 628.195 141.738C627.326 139.111 624.643 137.627 622.014 138.125L608.978 98.3594C611.058 97.0715 612.028 94.4969 611.246 92.0814C611.082 91.6257 610.873 91.1942 610.611 90.8213L638.653 59.4959C639.883 60.1126 641.33 60.2361 642.721 59.7868C644.357 59.2603 645.536 58.0078 646.076 56.5323L688.023 65.2994C687.843 66.1745 687.868 67.1091 688.163 68.0107C689.032 70.637 691.715 72.121 694.354 71.5888L706.994 110.164C704.548 111.309 703.294 114.097 704.163 116.724C704.433 117.581 704.923 118.317 705.532 118.902L677.977 149.701C676.635 148.829 674.944 148.523 673.309 149.05C671.462 149.664 670.169 151.18 669.731 152.945L628.375 144.312ZM560.19 83.5259C560.252 82.802 560.167 82.0726 559.926 81.3719C559.144 78.9564 556.822 77.5033 554.396 77.6889L541.311 37.8347C543.391 36.5468 544.395 33.9822 543.579 31.5567C543.425 31.0668 543.182 30.6254 542.895 30.2083L570.883 -1.05859C572.137 -0.397723 573.643 -0.220144 575.078 -0.693689C576.758 -1.24446 577.948 -2.53125 578.473 -4.08502L619.296 4.46696C619.234 5.19086 619.319 5.92024 619.561 6.62096C620.482 9.44804 623.552 11.007 626.378 10.0842L639.323 49.5268C636.486 50.4837 634.937 53.5208 635.849 56.3821C636.158 57.362 636.751 58.1278 637.453 58.7765L609.671 89.8436C608.258 88.5802 606.289 88.0827 604.364 88.7108C602.684 89.2616 601.451 90.5726 600.915 92.1606L560.19 83.5259ZM522.796 118.33C521.417 117.077 519.414 116.569 517.489 117.197C515.809 117.748 514.575 119.059 514.05 120.613L473.364 112.101C473.396 111.48 473.315 110.863 473.122 110.25C472.341 107.835 470.019 106.382 467.592 106.567L454.522 66.7915C456.567 65.4936 457.606 62.9389 456.79 60.5135C456.597 59.901 456.271 59.3615 455.892 58.8804L487.454 23.6064L533.036 33.1323C533.004 33.7536 533.095 34.3362 533.288 34.9487C534.157 37.5749 536.84 39.0589 539.479 38.5268L552.51 78.1801C550.065 79.3246 548.8 82.1475 549.635 84.7639C549.915 85.587 550.381 86.2789 550.956 86.8538L522.796 118.33ZM454.936 201.487C454.959 200.9 454.878 200.283 454.685 199.671C453.816 197.045 451.143 195.527 448.504 196.059L435.342 155.96C437.788 154.815 439.043 152.026 438.174 149.4C437.967 148.709 437.593 148.081 437.145 147.581L464.981 116.455C466.322 117.327 468.013 117.632 469.649 117.106C471.285 116.579 472.464 115.326 473.014 113.817L513.769 122.349C513.756 122.902 513.847 123.484 514.015 124.053C514.884 126.679 517.568 128.163 520.241 127.641L533.518 168.107C531.072 169.252 529.774 172.065 530.643 174.691C530.835 175.304 531.171 175.809 531.506 176.314L503.951 207.113C502.566 206.007 500.68 205.607 498.843 206.187C497.041 206.776 495.758 208.258 495.305 209.945L454.936 201.487ZM387.138 140.776C387.19 140.086 387.105 139.357 386.874 138.622C386.005 135.996 383.331 134.478 380.693 135.01L367.661 95.3566C370.107 94.212 371.396 91.4333 370.493 88.7971C370.261 88.0622 369.887 87.4343 369.405 86.9234L397.231 55.832C398.587 56.782 400.312 57.0975 401.992 56.5467C403.672 55.9959 404.871 54.6749 405.431 53.1311L446.254 61.683C446.192 62.4069 446.277 63.1363 446.508 63.8712C447.377 66.4975 450.061 67.9815 452.7 67.4493L465.683 107.014C463.237 108.159 461.938 110.972 462.807 113.598C463.038 114.333 463.447 114.971 463.919 115.516L436.093 146.607C434.737 145.657 433.012 145.342 431.332 145.893C429.652 146.443 428.418 147.755 427.893 149.308L387.138 140.776ZM280.675 123.588C282.72 122.29 283.724 119.726 282.942 117.31C282.764 116.776 282.487 116.325 282.2 115.908L310.188 84.641C311.442 85.3019 312.972 85.5235 314.452 85.0257C316.132 84.4749 317.375 83.1296 317.9 81.5758L360.019 90.3926C359.986 91.0138 360.067 91.6307 360.26 92.2431C361.042 94.6586 363.363 96.1118 365.79 95.9261L378.875 135.78C376.795 137.068 375.791 139.633 376.607 142.058C376.8 142.671 377.101 143.166 377.48 143.647L349.33 175.09C347.96 174.061 346.142 173.682 344.408 174.291C342.684 174.866 341.431 176.246 340.92 177.878L300.233 169.366C300.295 168.642 300.21 167.912 299.979 167.177C299.11 164.551 296.436 163.033 293.788 163.599L280.675 123.588ZM231.897 108.721C231.949 108.031 231.864 107.302 231.657 106.611C230.788 103.985 228.104 102.5 225.475 102.998L212.444 63.3451C214.89 62.2006 216.144 59.4119 215.31 56.7956C215.078 56.0606 214.704 55.4328 214.232 54.8877L242.058 23.7963C243.414 24.7463 245.139 25.0618 246.819 24.511C248.499 23.9602 249.698 22.6392 250.223 21.0854L291.047 29.6373C290.985 30.3613 291.07 31.0906 291.301 31.8255C292.17 34.4518 294.854 35.9358 297.492 35.4037L310.475 74.9687C308.03 76.1133 306.775 78.9019 307.6 81.5525C307.831 82.2874 308.239 82.9252 308.711 83.4703L280.876 114.596C279.52 113.646 277.795 113.33 276.115 113.881C274.435 114.432 273.201 115.743 272.676 117.297L231.897 108.721ZM193.872 143.268C192.555 142.44 190.899 142.145 189.297 142.681C187.695 143.218 186.536 144.402 185.962 145.867L145.036 137.286C145.068 136.664 144.998 136.013 144.78 135.357C143.911 132.73 141.228 131.246 138.589 131.779L125.322 91.2779C127.401 89.9899 128.371 87.4153 127.589 84.9998C127.425 84.5441 127.207 84.1469 126.954 83.7397L154.996 52.4143C156.226 53.031 157.673 53.1545 159.064 52.7053C160.7 52.1788 161.88 50.9262 162.419 49.4508L204.709 58.3171C204.677 58.9384 204.757 59.5552 204.95 60.1677C205.732 62.5832 208.053 64.0363 210.48 63.8507L223.565 103.705C221.519 105.003 220.481 107.557 221.297 109.983C221.49 110.595 221.791 111.091 222.17 111.572L193.872 143.268ZM323.769 402.693L310.724 362.961C313.169 361.817 314.424 359.028 313.599 356.377C313.368 355.642 312.994 355.015 312.512 354.504L340.338 323.412C341.669 324.318 343.428 324.644 345.064 324.117C346.744 323.566 347.934 322.279 348.459 320.726L390.191 329.467C390.209 329.918 390.285 330.422 390.439 330.912C391.182 333.205 393.333 334.608 395.598 334.598L408.725 374.687C406.885 376.045 405.999 378.458 406.742 380.751C406.935 381.364 407.26 381.903 407.64 382.384L375.808 417.951L330.157 408.405C330.209 407.715 330.114 407.02 329.906 406.329C329.082 403.679 326.442 402.171 323.769 402.693ZM408.584 240.071C408.522 240.795 408.553 241.583 408.819 242.328C409.688 244.954 412.371 246.438 415.01 245.906L427.954 285.348C425.704 286.587 424.591 289.268 425.422 291.772C425.663 292.473 426.003 293.091 426.475 293.636L398.649 324.727C397.318 323.821 395.593 323.506 393.922 324.022C392.12 324.612 390.857 326.026 390.404 327.712L348.809 319.01C348.831 318.423 348.751 317.806 348.582 317.237C347.8 314.822 345.444 313.359 343.052 313.554L329.991 273.745C332.037 272.447 333.075 269.892 332.259 267.466C332.042 266.81 331.717 266.27 331.313 265.745L359.699 234C361.059 235.063 362.945 235.462 364.714 234.863C366.36 234.302 367.539 233.05 368.099 231.506L408.584 240.071ZM476.495 300.778C476.473 301.365 476.563 301.947 476.756 302.56C477.586 305.064 480.079 306.566 482.59 306.22L495.587 345.863C493.337 347.101 492.224 349.783 493.055 352.287C493.286 353.022 493.684 353.694 494.19 354.249L466.365 385.34C465.009 384.39 463.26 384.03 461.535 384.606C459.733 385.195 458.45 386.677 457.987 388.398L417.233 379.865C417.358 379.049 417.347 378.193 417.043 377.325C416.136 374.576 413.237 373.067 410.505 373.795L397.531 334.195C400.207 333.154 401.613 330.225 400.706 327.476C400.465 326.775 400.091 326.147 399.653 325.612L427.479 294.521C428.81 295.427 430.569 295.752 432.205 295.225C433.763 294.713 434.868 293.588 435.491 292.21L476.495 300.778ZM582.572 326.83C583.889 327.658 585.546 327.953 587.182 327.427C588.784 326.89 589.953 325.672 590.527 324.206L631.394 332.734C631.362 333.355 631.433 334.006 631.65 334.663C632.519 337.289 635.202 338.773 637.841 338.241L652.499 382.892L620.982 418.142C619.612 417.113 617.76 416.724 616.036 417.299C614.522 417.787 613.372 418.937 612.75 420.314L571.79 411.722C571.812 411.135 571.722 410.553 571.553 409.984C570.771 407.569 568.415 406.106 566.023 406.301L552.784 365.957C555.23 364.813 556.519 362.034 555.65 359.408C555.481 358.839 555.18 358.344 554.859 357.917L582.572 326.83ZM650.001 243.622C649.94 244.346 650.024 245.076 650.256 245.81C651.125 248.437 653.808 249.921 656.447 249.389L669.42 288.988C666.974 290.132 665.72 292.921 666.545 295.572C666.776 296.307 667.184 296.944 667.656 297.489L639.83 328.581C638.475 327.631 636.75 327.315 635.035 327.856C633.355 328.407 632.156 329.728 631.641 331.248L590.852 322.706C590.904 322.016 590.819 321.286 590.621 320.561C589.753 317.935 587.079 316.417 584.44 316.949L571.443 277.306C573.889 276.161 575.143 273.373 574.284 270.712C574.043 270.011 573.679 269.349 573.207 268.804L601.033 237.713C602.388 238.663 604.113 238.978 605.793 238.428C607.474 237.877 608.673 236.556 609.232 235.012L650.001 243.622ZM718.211 304.193C718.199 304.746 718.255 305.319 718.458 305.897C719.327 308.523 722.01 310.007 724.649 309.475L737.874 349.741C735.428 350.885 734.173 353.674 734.998 356.325C735.239 357.025 735.589 357.609 736.027 358.144L708.191 389.27C706.85 388.398 705.125 388.083 703.489 388.609C701.853 389.136 700.663 390.423 700.114 391.932L654.326 382.347L639.619 337.608C641.665 336.31 642.703 333.755 641.887 331.33C641.709 330.795 641.466 330.354 641.155 329.893L669.143 298.626C670.387 299.321 671.927 299.508 673.406 299.011C675.086 298.46 676.33 297.115 676.855 295.561L718.211 304.193ZM726.928 444.008C726.98 443.318 726.895 442.588 726.653 441.888C725.785 439.261 723.101 437.778 720.472 438.275L707.441 398.622C709.886 397.478 711.141 394.689 710.316 392.038C710.085 391.303 709.711 390.676 709.239 390.131L737.065 359.039C738.42 359.989 740.146 360.305 741.826 359.754C743.506 359.203 744.705 357.882 745.264 356.338L786.088 364.89C786.026 365.614 786.11 366.343 786.342 367.078C787.211 369.705 789.895 371.189 792.533 370.656L805.516 410.221C803.071 411.366 801.782 414.145 802.641 416.805C802.872 417.54 803.28 418.178 803.752 418.723L775.926 449.814C774.571 448.864 772.846 448.549 771.166 449.1C769.486 449.65 768.286 450.971 767.727 452.515L726.928 444.008ZM639.407 472.418C639.439 471.797 639.359 471.18 639.176 470.533C638.394 468.118 636.038 466.655 633.646 466.85L620.585 427.04C622.631 425.743 623.669 423.188 622.853 420.762C622.66 420.15 622.335 419.61 621.956 419.129L653.517 383.855L699.828 393.555C699.796 394.177 699.876 394.794 700.069 395.406C700.851 397.822 703.207 399.285 705.6 399.089L718.684 438.943C716.639 440.241 715.635 442.806 716.416 445.221C716.619 445.799 716.91 446.329 717.29 446.81L689.4 477.994C688.073 477.201 686.485 476.925 684.883 477.462C683.08 478.051 681.807 479.499 681.355 481.185L639.407 472.418ZM553.148 501.084C553.2 500.394 553.115 499.664 552.873 498.964C552.005 496.337 549.321 494.854 546.682 495.386L533.685 455.742C536.131 454.598 537.385 451.809 536.561 449.159C536.329 448.424 535.955 447.796 535.483 447.251L563.309 416.159C564.664 417.109 566.39 417.425 568.07 416.874C569.75 416.323 570.949 415.002 571.474 413.448L612.298 422C612.236 422.724 612.321 423.454 612.552 424.189C613.421 426.815 616.104 428.299 618.743 427.767L631.726 467.332C629.28 468.476 628.016 471.299 628.851 473.915C629.082 474.65 629.49 475.288 629.962 475.833L602.136 506.925C600.781 505.975 599.056 505.659 597.376 506.21C595.695 506.761 594.462 508.072 593.937 509.626L553.148 501.084ZM485.579 440.476C485.601 439.889 485.521 439.272 485.328 438.66C484.459 436.034 481.775 434.55 479.137 435.082L465.845 394.537C468.13 393.308 469.242 390.627 468.421 388.089C468.233 387.589 467.99 387.147 467.704 386.73L495.701 355.429C496.956 356.09 498.461 356.268 499.931 355.804C501.488 355.292 502.638 354.142 503.202 352.711L545.071 361.492C545.088 361.942 545.174 362.412 545.304 362.858C546.086 365.274 548.408 366.727 550.835 366.541L564.074 406.885C561.628 408.03 560.339 410.809 561.198 413.469C561.405 414.16 561.789 414.754 562.227 415.289L534.391 446.414C533.06 445.508 531.369 445.203 529.723 445.764C528.087 446.29 526.863 447.567 526.348 449.087L485.579 440.476ZM447.182 475.286C445.812 474.258 443.96 473.868 442.201 474.434C440.688 474.921 439.538 476.071 438.95 477.459L397.99 468.867C398.002 468.314 397.922 467.697 397.753 467.129C396.971 464.713 394.65 463.26 392.223 463.446L377.579 418.873L409.141 383.599C410.458 384.427 412.124 384.688 413.682 384.176C415.151 383.712 416.271 382.665 416.874 381.356L457.912 389.934C457.92 390.418 457.986 390.957 458.14 391.447C458.97 393.95 461.463 395.453 464.008 395.116L477.338 435.784C475.293 437.081 474.255 439.636 475.071 442.062C475.225 442.552 475.468 442.993 475.754 443.41L447.182 475.286ZM379.358 558.194C379.41 557.504 379.325 556.775 379.083 556.074C378.214 553.448 375.531 551.964 372.902 552.462L359.905 512.818C362.35 511.674 363.605 508.885 362.736 506.259C362.505 505.524 362.131 504.896 361.659 504.351L389.485 473.26C390.84 474.21 392.565 474.525 394.245 473.974C395.925 473.423 397.159 472.112 397.684 470.559L438.507 479.11C438.446 479.834 438.496 480.554 438.762 481.299C439.631 483.925 442.314 485.409 444.953 484.877L457.936 524.442C455.49 525.586 454.192 528.399 455.06 531.026C455.292 531.761 455.7 532.398 456.172 532.943L428.346 564.035C426.991 563.085 425.266 562.769 423.551 563.31C421.871 563.861 420.682 565.148 420.112 566.726L379.358 558.194ZM292.463 586.749C292.524 586.025 292.43 585.33 292.188 584.629C291.319 582.003 288.636 580.519 286.007 581.017L272.908 541.084C275.354 539.94 276.609 537.151 275.774 534.535C275.547 533.912 275.231 533.339 274.852 532.858L302.742 501.673C304.059 502.501 305.691 502.752 307.283 502.25C308.841 501.738 310.035 500.564 310.598 499.132L352.228 507.844C352.196 508.466 352.276 509.082 352.469 509.695C353.251 512.11 355.607 513.573 358.034 513.388L371.118 553.242C369.073 554.54 368.034 557.095 368.85 559.52C369.043 560.132 369.344 560.628 369.724 561.109L341.51 592.644C340.154 591.694 338.429 591.379 336.715 591.919C335.035 592.47 333.801 593.781 333.276 595.335L292.463 586.749ZM283.848 446.964C283.806 447.62 283.867 448.305 284.084 448.962C284.953 451.588 287.637 453.072 290.275 452.54L303.248 492.139C300.803 493.284 299.514 496.062 300.373 498.723C300.629 499.502 301.061 500.184 301.601 500.749L273.776 531.84C272.406 530.812 270.612 530.476 268.854 531.042C267.129 531.617 265.886 532.962 265.375 534.594L224.62 526.062C224.726 525.314 224.651 524.55 224.396 523.771C223.527 521.145 220.843 519.661 218.204 520.193L205.207 480.55C207.653 479.405 208.907 476.616 208.083 473.966C207.866 473.309 207.526 472.691 207.078 472.19L234.914 441.065C236.255 441.937 237.912 442.232 239.548 441.706C241.184 441.179 242.363 439.926 242.903 438.451L283.848 446.964ZM321.887 412.495C323.228 413.367 324.919 413.673 326.521 413.136C328.157 412.61 329.337 411.357 329.876 409.882L375.698 419.477L390.293 463.961C387.848 465.106 386.559 467.885 387.418 470.545C387.659 471.246 388.009 471.829 388.447 472.365L360.611 503.49C359.28 502.584 357.589 502.279 355.909 502.83C354.263 503.39 353.083 504.643 352.534 506.153L310.973 497.461C311.015 496.805 310.954 496.12 310.713 495.419C309.931 493.004 307.609 491.55 305.182 491.736L292.122 451.926C294.167 450.628 295.172 448.064 294.39 445.648C294.211 445.114 293.92 444.584 293.599 444.157L321.887 412.495ZM262.539 347.709C262.581 347.054 262.521 346.369 262.279 345.668C261.41 343.042 258.727 341.558 256.088 342.09L243.057 302.436C245.502 301.292 246.791 298.513 245.922 295.887C245.667 295.108 245.258 294.47 244.752 293.915L272.534 262.848C273.88 263.832 275.673 264.167 277.387 263.627C279.112 263.052 280.311 261.73 280.846 260.142L321.635 268.685C321.563 269.443 321.604 270.196 321.87 270.941C322.739 273.567 325.422 275.051 328.061 274.519L341.034 314.119C338.588 315.263 337.289 318.076 338.158 320.702C338.4 321.403 338.739 322.021 339.211 322.566L311.376 353.692C310.044 352.786 308.319 352.47 306.673 353.031C305.037 353.558 303.814 354.834 303.264 356.344L262.539 347.709ZM194.261 287.119C194.283 286.531 194.203 285.915 194.01 285.302C193.141 282.676 190.458 281.192 187.829 281.69L174.667 241.591C177.113 240.446 178.368 237.657 177.499 235.031C177.291 234.34 176.918 233.713 176.47 233.212L204.306 202.086C205.647 202.958 207.338 203.263 208.974 202.737C210.61 202.21 211.789 200.958 212.339 199.448L258.127 209.033L272.837 253.885C270.792 255.183 269.754 257.738 270.57 260.163C270.724 260.653 270.967 261.095 271.253 261.512L243.265 292.779C242.011 292.118 240.506 291.94 239.06 292.448C237.38 292.999 236.191 294.285 235.632 295.829L194.261 287.119ZM136.58 141.507C137.936 142.457 139.695 142.783 141.375 142.232C143.055 141.681 144.255 140.36 144.814 138.816L185.637 147.368C185.575 148.092 185.626 148.812 185.857 149.547C186.726 152.173 189.41 153.657 192.049 153.125L205.032 192.69C202.586 193.834 201.297 196.613 202.156 199.273C202.388 200.008 202.796 200.646 203.268 201.191L175.442 232.283C174.086 231.333 172.361 231.017 170.681 231.568C169.001 232.119 167.767 233.43 167.242 234.984L126.453 226.442C126.505 225.752 126.42 225.022 126.213 224.332C125.344 221.705 122.661 220.221 120.032 220.719L107 181.066C109.446 179.921 110.701 177.133 109.866 174.516C109.634 173.782 109.261 173.154 108.788 172.609L136.58 141.507ZM87.261 -8.13023C88.5151 -7.46934 90.0208 -7.29181 91.466 -7.79955C93.1461 -8.35036 94.3354 -9.63717 94.8949 -11.181L135.718 -2.62903C135.656 -1.90514 135.741 -1.17568 135.982 -0.474999C136.904 2.3521 139.974 3.91109 142.8 2.98832L155.745 42.4308C152.918 43.3536 151.359 46.4248 152.271 49.2861C152.59 50.2318 153.173 51.0318 153.885 51.6464L126.103 82.7134C124.724 81.46 122.721 80.9526 120.796 81.5807C119.116 82.1315 117.882 83.4425 117.357 84.9963L76.5682 76.4542C76.6301 75.7303 76.5453 75.0009 76.3038 74.3002C75.5221 71.8847 73.2003 70.4316 70.7734 70.6172L57.689 30.7631C59.7343 29.4652 60.7385 26.9006 59.9568 24.4851C59.8024 23.9951 59.5598 23.5537 59.273 23.1366L87.261 -8.13023ZM86.7078 -152.436C86.582 -151.62 86.637 -150.788 86.9071 -149.93C87.8289 -147.103 90.8986 -145.544 93.7248 -146.467L106.669 -107.025C103.843 -106.102 102.284 -103.031 103.206 -100.204C103.476 -99.3462 103.976 -98.6444 104.551 -98.0695L76.7694 -67.0024C75.3852 -68.1091 73.5332 -68.4985 71.7307 -67.909C70.173 -67.3969 69.0135 -66.2127 68.4253 -64.8256L27.4996 -73.4073C27.5217 -73.9944 27.4413 -74.6112 27.2384 -75.1894C26.4567 -77.6049 24.1349 -79.058 21.708 -78.8725L8.62354 -118.727C10.7031 -120.015 11.7073 -122.579 10.8913 -125.005C10.6984 -125.617 10.3731 -126.157 9.99367 -126.638L37.8835 -157.822C39.2104 -157.029 40.8087 -156.787 42.4006 -157.289C44.2031 -157.879 45.4763 -159.327 45.9288 -161.013L86.7078 -152.436ZM154.858 -91.6603C154.836 -91.0732 154.916 -90.4564 155.109 -89.8439C155.978 -87.2177 158.662 -85.7336 161.3 -86.2657L174.298 -46.6224C171.852 -45.4779 170.597 -42.6892 171.422 -40.0387C171.702 -39.2154 172.159 -38.4894 172.743 -37.9487L144.519 -6.37948C143.145 -7.5204 141.224 -7.92965 139.388 -7.35015C137.786 -6.81369 136.616 -5.59531 136.053 -4.164L95.161 -12.7358C95.203 -13.3913 95.1325 -14.0424 94.9053 -14.6647C94.1236 -17.0802 91.8018 -18.5334 89.375 -18.3478L76.3147 -58.1577C78.3601 -59.4556 79.3643 -62.0203 78.5825 -64.4358C78.3797 -65.014 78.0885 -65.5437 77.7676 -65.9707L105.702 -97.1791C107.004 -96.4299 108.568 -96.1983 110.092 -96.7204C111.85 -97.2855 113.103 -98.665 113.58 -100.307L154.858 -91.6603ZM192.67 -125.861C193.925 -125.2 195.43 -125.023 196.865 -125.496C198.546 -126.047 199.735 -127.334 200.26 -128.888L241.083 -120.336C241.031 -119.646 241.072 -118.892 241.314 -118.192C242.235 -115.364 245.305 -113.805 248.141 -114.762L261.086 -75.3198C258.259 -74.3971 256.7 -71.3259 257.612 -68.4646C257.931 -67.5189 258.514 -66.719 259.226 -66.1044L231.444 -35.0372C230.065 -36.2907 228.062 -36.7981 226.137 -36.1701C224.457 -35.6193 223.224 -34.3082 222.698 -32.7544L181.909 -41.2965C181.961 -41.9861 181.876 -42.7155 181.645 -43.4505C180.863 -45.866 178.541 -47.3191 176.08 -47.1434L163.006 -87.0318C165.085 -88.3197 166.055 -90.8943 165.274 -93.3098C165.119 -93.7997 164.877 -94.2411 164.59 -94.6582L192.67 -125.861ZM212.12 -215.322C213.462 -214.45 215.153 -214.144 216.789 -214.671C218.425 -215.197 219.604 -216.45 220.153 -217.96L260.942 -209.418C260.92 -208.831 261.001 -208.214 261.194 -207.601C262.063 -204.975 264.746 -203.491 267.385 -204.023L280.416 -164.37C277.971 -163.225 276.682 -160.447 277.541 -157.786C277.821 -156.963 278.287 -156.271 278.852 -155.662L250.304 -123.742C248.92 -125.108 246.825 -125.679 244.856 -125.027C243.298 -124.515 242.192 -123.389 241.57 -122.012L200.6 -130.569C200.622 -131.156 200.532 -131.739 200.339 -132.351C199.634 -134.522 197.64 -135.954 195.484 -136.061L182.525 -175.582C184.971 -176.726 186.225 -179.515 185.401 -182.166C185.135 -182.91 184.737 -183.582 184.231 -184.138L212.12 -215.322Z" fill="url(#paint0_linear_778_24564)"/>
<defs>
<linearGradient id="paint0_linear_778_24564" x1="535.764" y1="-298.182" x2="278.099" y2="589.225" gradientUnits="userSpaceOnUse">
<stop stop-color="white"/>
<stop offset="1" stop-color="#2A62FE" stop-opacity="0"/>
</linearGradient>
</defs>
</svg>
