<svg width="255" height="244" viewBox="0 0 255 244" fill="none" xmlns="http://www.w3.org/2000/svg">
<path d="M109.023 14.8207L112.017 11.9276L116.475 7.3691C116.71 7.12718 116.81 6.83713 116.774 6.49903L116.602 4.86662C116.559 4.49041 116.614 4.12777 116.767 3.77874C118.739 -0.656559 124.134 0.171566 125.228 4.84972C125.303 5.17388 125.494 5.4044 125.799 5.54137C133.554 8.96166 141.57 11.5723 149.845 13.3732C150.219 13.4568 150.572 13.3986 150.905 13.1988L152.976 11.9727C153.29 11.7872 153.629 11.7098 153.993 11.7404C158.656 12.1803 160.22 16.4632 156.808 19.6641C156.686 19.7774 156.594 19.9187 156.54 20.0755C156.486 20.2322 156.472 20.3995 156.499 20.5624L157.627 28.0341L159.62 37.3106L161.95 45.5817C161.993 45.7336 162.067 45.8746 162.169 45.9951C162.271 46.1156 162.397 46.2128 162.54 46.2801C168.336 49.0236 165.656 56.19 160.402 54.6689C160.145 54.5942 159.876 54.5808 159.615 54.6299C159.353 54.679 159.109 54.7892 158.9 54.9514C152.25 60.0703 146.007 65.6384 140.17 71.6553C139.957 71.8723 139.802 72.1378 139.716 72.4289C139.63 72.72 139.616 73.0279 139.676 73.3262C139.736 73.6244 139.868 73.9039 140.06 74.1407C140.252 74.3775 140.498 74.5643 140.778 74.6852C148.696 78.0856 156.848 80.7802 165.234 82.769C165.592 82.8543 165.926 82.7926 166.234 82.5838C168.476 81.0259 170.647 81.3106 172.731 79.9298C182.231 73.6818 191.05 66.586 199.187 58.6423C199.718 58.1238 200.507 56.7525 201.554 54.5282C201.704 54.2065 201.757 53.8681 201.714 53.513C200.926 46.8631 199.562 40.3302 197.623 33.9141C197.569 33.735 197.473 33.5717 197.343 33.4384C197.213 33.3052 197.053 33.2059 196.876 33.1493C193.011 31.9001 193.037 27.0898 197.223 26.2454C197.526 26.1822 197.841 26.2267 198.112 26.371C199.059 26.8711 199.859 26.8801 200.512 26.3979C204.792 23.2442 209.709 18.8353 215.265 13.171C215.5 12.9291 215.61 12.6393 215.596 12.3016C215.345 6.77718 221.311 6.12087 222.364 11.0923C222.439 11.4376 222.642 11.6621 222.973 11.7658L241.83 18.0147C242.108 18.1075 242.407 18.1198 242.691 18.05C242.975 17.9802 243.233 17.8312 243.435 17.6205C246.595 14.3512 251.496 19.2494 247.77 22.8265C247.65 22.9414 247.559 23.0829 247.505 23.2391C247.452 23.3954 247.436 23.5619 247.46 23.7248C248.38 30.4005 249.806 36.9695 251.736 43.4318C251.822 43.7097 252.001 43.9464 252.241 44.1C256.92 47.1465 255.251 51.7746 249.808 50.9613C249.48 50.9082 249.192 50.9931 248.943 51.2157L234.124 64.5361C233.999 64.6488 233.904 64.7904 233.845 64.949C233.787 65.1076 233.768 65.2783 233.789 65.4465C234.281 69.1034 230.757 71.6061 228.006 68.9279C227.775 68.7039 227.612 68.4338 227.52 68.1178C227.133 66.8405 226.158 65.9202 224.597 65.357C219.035 63.3478 214.201 61.7499 210.094 60.5633C207.381 59.7773 203.918 60.529 201.879 61.8728C192.022 68.3476 182.911 75.7463 174.547 84.0692C174.293 84.3255 174.18 84.6321 174.209 84.9891C174.345 86.7146 173.742 88.0992 172.4 89.143C172.259 89.2504 172.148 89.3937 172.081 89.558C172.013 89.7223 171.99 89.9016 172.014 90.0777C173.136 98.6511 174.955 107.076 177.47 115.353C177.581 115.697 177.79 115.966 178.096 116.16C180.17 117.461 181.334 119.139 183.613 119.983C195.785 124.495 208.307 127.744 221.18 129.732C221.49 129.779 221.807 129.759 222.111 129.673C222.414 129.587 222.696 129.437 222.939 129.233L229.435 123.692C229.529 123.611 229.602 123.509 229.647 123.393C229.692 123.277 229.707 123.153 229.692 123.03C229.313 120.219 232.619 120.176 233.205 122.317C233.293 122.645 233.5 122.868 233.827 122.984L242.823 126.188C243.2 126.323 243.543 126.264 243.852 126.013C245.997 124.283 248.075 126.881 246.458 128.502C246.227 128.731 246.126 129.007 246.153 129.328C246.506 133.88 247.236 139.193 249.278 141.088C249.49 141.282 249.638 141.536 249.702 141.816C249.767 142.096 249.745 142.389 249.639 142.656C249.534 142.923 249.349 143.152 249.111 143.312C248.873 143.472 248.592 143.557 248.304 143.554C247.647 143.553 247.006 143.672 246.384 143.91C246.333 143.934 246.283 143.963 246.236 143.996C243.502 145.831 240.998 147.933 238.725 150.301C238.612 150.422 238.524 150.564 238.467 150.719C238.41 150.873 238.385 151.038 238.394 151.202C238.504 153.725 235.602 153.647 234.828 151.588C234.72 151.295 234.518 151.096 234.223 150.991L225.246 147.793C224.862 147.657 224.495 147.685 224.143 147.878C222.872 148.565 221.853 148.237 221.086 146.895C221.002 146.755 220.961 146.592 220.967 146.427C220.974 146.262 221.027 146.101 221.12 145.963L221.766 145.015C221.951 144.734 222.014 144.427 221.956 144.095L220.418 135.267C220.384 135.072 220.299 134.889 220.17 134.737C220.042 134.585 219.875 134.469 219.686 134.402C206.963 129.859 194.995 126.085 181.669 123.653C181.303 123.587 180.969 123.652 180.665 123.848C179.031 124.9 177.259 125.267 175.348 124.947C174.968 124.883 174.621 124.972 174.309 125.214C167.535 130.501 161.153 136.232 155.16 142.406C154.904 142.669 154.782 142.983 154.793 143.348C154.952 149.964 148.242 151.428 145.954 144.976C145.903 144.828 145.822 144.691 145.716 144.575C145.609 144.458 145.48 144.365 145.336 144.3C137.481 140.9 129.4 138.206 121.092 136.217C120.706 136.129 120.348 136.189 120.019 136.397C118.499 137.349 116.833 137.863 115.022 137.94C114.642 137.954 114.308 138.079 114.018 138.315C105.707 145.001 97.9317 152.256 90.6934 160.081C90.4626 160.331 90.3797 160.624 90.4446 160.958C90.9932 163.73 90.0495 165.902 87.6136 167.476C87.5104 167.542 87.4272 167.635 87.3731 167.745C87.319 167.855 87.296 167.977 87.3067 168.099C88.3875 179.51 90.4599 190.74 93.5239 201.788C93.5926 202.039 93.7193 202.271 93.894 202.464C94.0686 202.657 94.2862 202.806 94.5292 202.9C102.255 205.885 98.0059 216.356 90.3429 213.372C90.006 213.245 89.6878 213.284 89.3884 213.489C80.1515 219.951 71.6044 227.228 63.747 235.321C63.5144 235.557 63.4243 235.84 63.4766 236.17C64.7972 244.771 53.8523 246.531 52.453 238.687C52.3832 238.287 52.1643 238.008 51.7964 237.848C41.3839 233.205 30.6772 229.389 19.6764 226.398C19.5191 226.354 19.3525 226.352 19.1919 226.392C19.0314 226.431 18.8821 226.51 18.7577 226.622C13.2879 231.638 5.35142 224.385 11.6583 218.033C11.9186 217.778 12.0325 217.469 11.9998 217.103C10.9645 205.843 8.99891 194.751 6.10319 183.826C6.05626 183.641 5.96146 183.473 5.82854 183.338C5.69563 183.203 5.52946 183.106 5.34712 183.058C-0.421745 181.491 -0.558965 173.799 5.07981 171.976C6.62719 171.476 7.79818 172.063 9.42222 172.301C9.76711 172.346 10.0776 172.269 10.3537 172.071C19.889 165.347 28.3235 158.217 35.6571 150.68C36.1115 150.219 36.2745 149.672 36.1461 149.039C34.6658 141.602 44.7899 138.987 47.2063 147.671C47.3008 148.002 47.5037 148.237 47.815 148.376C58.0249 153.031 68.5696 156.727 79.4491 159.462C79.6231 159.506 79.8058 159.498 79.9754 159.439C80.1449 159.381 80.294 159.275 80.4046 159.134C82.2686 156.762 84.6435 156.164 87.5294 157.34C87.6805 157.404 87.8465 157.424 88.0101 157.4C88.1736 157.376 88.3287 157.309 88.4589 157.204C96.6597 150.472 104.331 143.191 111.472 135.36C111.705 135.103 111.824 134.798 111.829 134.446C111.855 132.686 112.456 131.156 113.634 129.856C113.753 129.729 113.842 129.577 113.896 129.41C113.949 129.244 113.966 129.068 113.945 128.894C112.963 120.088 111.183 111.443 108.607 102.96C108.559 102.8 108.472 102.653 108.353 102.535C108.234 102.417 108.087 102.33 107.925 102.282C100.972 100.283 104.527 91.019 110.86 94.0708C111.013 94.1445 111.185 94.1741 111.356 94.1564C111.527 94.1387 111.691 94.0743 111.83 93.9703C118.61 88.8414 124.958 83.2186 130.873 77.102C131.111 76.8546 131.287 76.5534 131.384 76.2241C131.481 75.8949 131.497 75.5473 131.431 75.211C131.366 74.8748 131.219 74.5598 131.006 74.293C130.792 74.0262 130.516 73.8154 130.203 73.6787C122.397 70.2405 114.322 67.6086 105.978 65.7831C105.604 65.6995 105.279 65.7888 105.001 66.051C100.508 70.321 94.6889 64.0977 99.2894 59.5263C99.4047 59.4076 99.4922 59.2654 99.5457 59.1101C99.5992 58.9547 99.6173 58.7901 99.5987 58.628C98.5139 49.7918 96.8019 41.5142 94.4628 33.7953C94.1844 32.8682 93.5574 32.2839 92.5818 32.0426C92.2755 31.9689 91.9977 31.8346 91.7487 31.6398C87.4171 28.303 91.0905 22.0427 96.5649 24.555C96.8763 24.6942 97.1617 24.6579 97.4212 24.446L109.023 14.8207ZM82.3713 167.382C80.9841 166.647 80.1042 165.541 79.7316 164.064C79.6512 163.736 79.4434 163.453 79.1531 163.274C78.4074 162.824 77.4179 162.334 76.1846 161.803C66.643 157.675 56.9286 154.212 47.0414 151.412C46.7462 151.326 46.4338 151.32 46.1358 151.392C45.8378 151.465 45.5647 151.615 45.344 151.827C43.48 153.583 41.3759 153.927 39.0318 152.859C38.8499 152.775 38.6492 152.74 38.4503 152.759C38.2515 152.778 38.0618 152.849 37.9005 152.966C28.7709 159.544 20.2486 166.841 12.3337 174.856C12.2175 174.974 12.1337 175.118 12.0906 175.276C12.0474 175.434 12.0464 175.599 12.0877 175.756C12.8417 178.586 12.0169 180.773 9.61321 182.316C9.29902 182.523 9.16139 182.81 9.20028 183.177C10.3635 194.476 12.4793 205.594 15.5477 216.53C15.5915 216.683 15.6727 216.822 15.7841 216.936C15.8955 217.049 16.0335 217.134 16.186 217.182C18.671 217.954 20.0828 219.603 20.4214 222.13C20.4692 222.473 20.652 222.715 20.9696 222.856C31.4207 227.47 42.1601 231.284 53.1878 234.299C53.5296 234.393 53.8295 234.316 54.0876 234.068C55.9673 232.267 58.1307 231.906 60.578 232.982C60.9207 233.133 61.2429 233.103 61.5445 232.892C70.8971 226.442 79.5158 219.123 87.4005 210.934C87.515 210.813 87.596 210.663 87.6354 210.501C87.6747 210.338 87.6712 210.167 87.625 210.005C86.8792 207.39 87.6045 205.274 89.801 203.657C90.077 203.459 90.2006 203.191 90.1716 202.855C89.1927 191.615 87.2043 180.557 84.2064 169.681C83.9216 168.652 83.3099 167.886 82.3713 167.382ZM168.908 89.9479C166.938 89.3594 165.786 88.0929 165.452 86.1483C165.422 85.9589 165.344 85.7801 165.225 85.6284C165.107 85.4767 164.952 85.3571 164.774 85.2805C156.679 81.7605 148.337 79.0155 139.746 77.0458C139.602 77.0102 139.449 77.0146 139.305 77.0583C139.16 77.1021 139.03 77.1837 138.925 77.2947C137.501 78.8113 135.795 79.1486 133.809 78.3068C133.672 78.2486 133.521 78.2283 133.372 78.248C133.223 78.2678 133.082 78.3269 132.962 78.4193C130.022 80.684 112.785 94.1195 112.751 98.7462C112.744 99.0624 112.661 99.3548 112.502 99.6236L111.363 101.479C111.2 101.739 111.138 102.022 111.178 102.326C112.343 112.33 114.128 120.889 116.534 128.002C116.839 128.895 117.684 129.572 119.071 130.03C119.465 130.156 119.739 130.41 119.893 130.79L120.932 133.358C121.039 133.615 121.217 133.799 121.468 133.909C129.49 137.375 137.766 140.061 146.294 141.966C146.647 142.049 146.945 141.957 147.189 141.69C148.476 140.301 150.046 139.905 151.9 140.502C152.137 140.58 152.39 140.596 152.636 140.551C152.882 140.505 153.114 140.398 153.31 140.24C159.765 135.023 167.479 128.981 172.698 122.613C172.794 122.494 172.863 122.356 172.901 122.208C172.939 122.06 172.945 121.907 172.918 121.757C172.582 119.939 173.104 118.444 174.483 117.272C174.782 117.011 174.909 116.684 174.864 116.293C173.834 107.64 172.117 99.13 169.71 90.7645C169.655 90.5723 169.553 90.3969 169.413 90.2543C169.273 90.1117 169.099 90.0063 168.908 89.9479ZM246.305 136.441C245.749 132.995 245.454 128.251 242.688 127.223C239.664 126.097 236.898 125.111 234.389 124.267C233.514 123.972 232.581 123.893 231.671 124.037C230.76 124.18 229.899 124.541 229.16 125.09C225.884 127.522 220.605 130.78 221.491 136.308C221.897 138.777 222.263 143.143 223.846 145.076C226.21 147.977 235.378 151.264 238.901 148.825C244.076 145.233 247.307 142.658 246.305 136.441ZM156.181 28.6657L155.209 25.3152C155.034 22.1319 153.764 20.1333 151.4 19.3197C151.241 19.2632 151.097 19.1718 150.978 19.0523C150.859 18.9327 150.768 18.788 150.712 18.6288L149.959 16.4816C149.906 16.3293 149.822 16.1898 149.713 16.0721C149.603 15.9543 149.469 15.861 149.321 15.798C141.517 12.3746 133.463 9.70417 125.158 7.78665C124.739 7.69373 124.371 7.79273 124.055 8.08361C122.647 9.39385 121.006 9.72935 119.132 9.09015C118.973 9.03356 118.801 9.018 118.632 9.04491C118.463 9.07182 118.302 9.14033 118.164 9.24433C111.243 14.4084 104.85 20.1599 98.9829 26.4989C98.7709 26.7268 98.6364 27.021 98.5988 27.3388C98.4002 28.9099 97.8656 30.3613 96.9949 31.693C96.788 32.0157 96.706 32.3651 96.749 32.7413C97.8224 41.3116 99.5925 49.7337 102.059 58.0077C102.176 58.3959 102.422 58.6603 102.796 58.8008C104.642 59.5005 105.748 60.8041 106.116 62.7115C106.154 62.9005 106.237 63.0767 106.359 63.224C106.481 63.3713 106.637 63.4849 106.814 63.5544C115.228 66.9544 123.259 69.5991 130.909 71.4885C131.689 71.6816 132.303 71.4294 132.749 70.7322C132.928 70.449 133.177 70.2475 133.495 70.1274C134.63 69.7036 135.78 69.6743 136.945 70.0397C137.269 70.1412 137.572 70.0862 137.853 69.8747C144.695 64.6332 151.095 58.9018 157.055 52.6807C157.335 52.3912 157.431 52.0505 157.344 51.6586C156.941 49.8306 157.464 48.3611 158.915 47.2499C159.047 47.1467 159.15 47.01 159.211 46.8542C159.272 46.6983 159.29 46.5293 159.262 46.3651L156.181 28.6657ZM245.162 23.5008C243.495 22.9565 242.533 21.8531 242.276 20.1904C242.247 20.0076 242.17 19.8361 242.052 19.6948C241.934 19.5535 241.779 19.4477 241.606 19.3891L222.981 13.2652C222.549 13.1257 222.157 13.1946 221.803 13.4721C220.489 14.4975 219.037 14.8115 217.444 14.4142C217.113 14.3315 216.811 14.394 216.539 14.6014C211.067 18.7597 205.982 23.3497 201.285 28.3715C201.065 28.6116 200.946 28.8949 200.929 29.2214C200.867 30.4094 200.485 31.4801 199.785 32.4337C199.553 32.7474 199.464 33.0946 199.52 33.4752C200.419 40.2496 201.836 46.9112 203.771 53.46C203.87 53.7784 204.067 54.0111 204.361 54.1584C205.799 54.8688 206.785 55.9664 207.318 57.4512C207.441 57.7996 207.672 58.0447 208.011 58.1866C214.245 60.8104 220.643 62.9051 227.205 64.4708C227.338 64.5021 227.478 64.4969 227.608 64.4556C227.739 64.4143 227.856 64.3384 227.947 64.2361C228.951 63.0863 230.193 62.7785 231.673 63.3126C231.811 63.3622 231.961 63.3755 232.107 63.3514C232.253 63.3272 232.391 63.2664 232.507 63.1746C237.965 58.9401 243.1 54.3469 247.914 49.395C248.005 49.3029 248.074 49.1897 248.113 49.065C248.151 48.9403 248.16 48.8077 248.137 48.6784C247.88 47.136 248.368 45.8449 249.602 44.8052C249.739 44.6904 249.842 44.5408 249.9 44.3725C249.958 44.2041 249.969 44.0236 249.931 43.8504L245.957 24.3995C245.865 23.9421 245.6 23.6426 245.162 23.5008Z" fill="url(#paint0_linear_778_24376)"/>
<defs>
<linearGradient id="paint0_linear_778_24376" x1="-42.5" y1="312" x2="213.913" y2="-1.07791" gradientUnits="userSpaceOnUse">
<stop stop-color="white"/>
<stop offset="1" stop-color="#B8CBFF"/>
</linearGradient>
</defs>
</svg>
