<svg width="289" height="348" viewBox="0 0 289 348" fill="none" xmlns="http://www.w3.org/2000/svg">
<path opacity="0.8" d="M191.073 13.6382L205.842 23.3842C206.32 22.9189 206.999 22.6447 207.724 22.7101C208.999 22.8163 209.954 23.8836 209.843 25.0807C209.736 26.1939 208.755 27.0225 207.596 27.0531L206.031 43.6584C206.12 43.661 206.216 43.6441 206.313 43.6592C207.588 43.7653 208.543 44.8327 208.44 46.0424C208.399 46.4437 208.246 46.8048 208.007 47.1115L222.692 56.8033C223.147 56.1842 223.938 55.8021 224.794 55.8812C225.607 55.9493 226.276 56.3909 226.638 57.0263L243.095 49.8717C243.013 49.6174 242.979 49.3546 243.006 49.0763C243.098 48.0541 243.943 47.2635 244.966 47.1228L246.552 30.2587C245.554 29.9408 244.895 29.0154 244.987 27.9931C245.097 26.796 246.232 25.9028 247.508 26.0089C248.212 26.0688 248.806 26.417 249.196 26.9222L265.533 19.8308C265.466 19.6017 265.439 19.3515 265.46 19.0927C265.563 17.8831 266.706 17.0024 267.982 17.1085C269.265 17.2272 270.212 18.282 270.109 19.4917C270.072 19.8413 269.944 20.1562 269.759 20.4349L284.451 30.1391C284.918 29.597 285.67 29.2681 286.463 29.3306C287.739 29.4367 288.693 30.5041 288.59 31.7137C288.48 32.9108 287.345 33.804 286.069 33.6979L284.484 50.4459C285.76 50.552 286.714 51.6194 286.611 52.8291C286.501 54.0261 285.366 54.9194 284.082 54.8007C283.268 54.7327 282.593 54.2784 282.231 53.6431L265.968 60.7119C266.101 61.022 266.159 61.3547 266.122 61.7043C266.012 62.9014 264.877 63.7946 263.601 63.6885L262.022 80.4169C263.305 80.5356 264.252 81.5904 264.142 82.7875C264.1 83.1889 263.947 83.5499 263.709 83.8567L278.401 93.561C278.856 92.9419 279.647 92.5598 280.503 92.6389C281.779 92.745 282.733 93.8124 282.63 95.0221C282.52 96.2192 281.385 97.1124 280.088 97.0007L278.516 113.742C279.799 113.86 280.746 114.915 280.643 116.125C280.533 117.322 279.398 118.215 278.122 118.109C277.363 118.045 276.731 117.634 276.345 117.077L260.07 124.153C260.159 124.42 260.195 124.715 260.183 125.018C260.073 126.215 258.938 127.109 257.662 127.002L256.053 144.093C257.191 144.321 258.011 145.31 257.903 146.424C257.87 146.722 257.782 147.015 257.63 147.26L272.343 156.97C272.813 156.492 273.511 156.192 274.27 156.256C275.546 156.362 276.5 157.429 276.397 158.639C276.29 159.752 275.309 160.58 274.15 160.611L272.574 177.404C273.712 177.632 274.532 178.621 274.424 179.734C274.314 180.932 273.178 181.825 271.903 181.719C271.144 181.655 270.498 181.251 270.119 180.674L253.843 187.75C253.94 188.029 253.975 188.324 253.943 188.622C253.835 189.735 252.854 190.564 251.695 190.595L250.095 207.582C251.233 207.81 252.053 208.799 251.945 209.912C251.842 211.122 250.699 212.003 249.424 211.897C248.61 211.829 247.934 211.374 247.579 210.752L231.088 217.908C231.185 218.187 231.221 218.482 231.196 218.792C231.088 219.906 230.107 220.734 228.948 220.765L227.359 237.565C228.497 237.793 229.296 238.776 229.209 239.895C229.085 241.099 227.963 241.986 226.667 241.874C225.887 241.804 225.234 241.388 224.867 240.804L208.592 247.88C208.696 248.172 208.753 248.473 208.714 248.79C208.606 249.903 207.626 250.732 206.467 250.762L204.879 267.594C206.017 267.822 206.829 268.799 206.729 269.925C206.698 270.255 206.589 270.543 206.418 270.815L221.308 280.646C221.773 280.072 222.545 279.716 223.372 279.777C224.151 279.847 224.805 280.263 225.171 280.847L241.446 273.771C241.342 273.479 241.278 273.166 241.317 272.848C241.427 271.651 242.562 270.758 243.838 270.864C245.114 270.97 246.068 272.038 245.965 273.247C245.934 273.577 245.826 273.866 245.654 274.137L260.346 283.842C260.82 283.312 261.54 283.017 262.319 283.086C263.595 283.192 264.549 284.26 264.439 285.457C264.331 286.57 263.351 287.399 262.192 287.429L260.602 304.229C261.74 304.457 262.553 305.434 262.452 306.56C262.329 307.764 261.207 308.65 259.918 308.551C259.18 308.492 258.563 308.107 258.185 307.562L241.882 314.652C241.964 314.906 242.006 315.182 241.979 315.46C241.871 316.573 240.89 317.402 239.731 317.432L238.141 334.348C239.279 334.576 240.085 335.573 239.991 336.679C239.881 337.876 238.745 338.769 237.47 338.663C236.711 338.599 236.065 338.195 235.693 337.631L219.418 344.707C219.507 344.974 219.55 345.281 219.517 345.579C219.407 346.776 218.272 347.67 216.996 347.563C215.72 347.457 214.766 346.39 214.876 345.193C214.901 344.882 214.997 344.601 215.149 344.356L200.266 334.538C199.793 335.099 199.041 335.428 198.227 335.36C197.469 335.296 196.823 334.892 196.443 334.316L180.168 341.392C180.265 341.671 180.3 341.966 180.267 342.264C180.157 343.461 179.022 344.354 177.746 344.248C176.47 344.142 175.516 343.075 175.626 341.877C175.659 341.58 175.747 341.286 175.899 341.041L161.179 331.318C160.709 331.796 160.016 332.077 159.265 332.026C157.989 331.92 157.035 330.853 157.138 329.643C157.245 328.53 158.226 327.701 159.385 327.671L160.963 310.91C159.825 310.682 159.012 309.705 159.12 308.592C159.147 308.314 159.231 308.071 159.356 307.84L144.295 297.901C143.839 298.52 143.049 298.902 142.193 298.823C141.379 298.755 140.704 298.301 140.349 297.678L124.127 304.726C124.231 305.018 124.288 305.318 124.249 305.635C124.142 306.749 123.161 307.577 122.009 307.62L120.42 324.42C121.558 324.648 122.37 325.625 122.27 326.751C122.16 327.948 121.024 328.841 119.735 328.742C118.977 328.678 118.344 328.267 117.972 327.703L101.697 334.779C101.793 335.058 101.829 335.353 101.796 335.651C101.686 336.848 100.551 337.742 99.2749 337.635C97.9915 337.517 97.0447 336.462 97.1475 335.252C97.1802 334.954 97.2682 334.661 97.4204 334.416L82.7002 324.693C82.2303 325.171 81.524 325.459 80.7788 325.388C79.9783 325.313 79.3102 324.872 78.9421 324.256L62.2027 331.526C62.2694 331.755 62.296 332.005 62.2749 332.264C62.1647 333.461 61.0294 334.354 59.746 334.235C58.4702 334.129 57.5159 333.062 57.6261 331.865C57.6632 331.515 57.7912 331.2 57.976 330.922L43.2917 321.23C42.8192 321.792 42.067 322.121 41.2532 322.053C40.4946 321.989 39.8489 321.585 39.4766 321.021L23.2011 328.096C23.2979 328.376 23.3336 328.671 23.3009 328.969C23.1906 330.166 22.0553 331.059 20.7795 330.953C19.4961 330.834 18.5493 329.779 18.6596 328.582C18.6924 328.284 18.7803 327.991 18.9325 327.746L4.21223 318.023C3.74234 318.501 3.04947 318.782 2.29835 318.731C1.02252 318.625 0.0681463 317.557 0.178403 316.36C0.286091 315.247 1.26676 314.419 2.4257 314.388L3.99601 297.615C2.85811 297.387 2.05913 296.403 2.15345 295.297C2.2637 294.1 3.39902 293.206 4.67484 293.312C5.43349 293.376 6.05821 293.775 6.4305 294.339L22.7194 287.256C22.6226 286.977 22.5869 286.682 22.6197 286.384C22.7274 285.271 23.708 284.442 24.8594 284.399L26.4567 267.347C25.3188 267.119 24.5064 266.142 24.6066 265.017C24.7169 263.82 25.8521 262.926 27.128 263.033C27.9626 263.106 28.6458 263.573 29.0021 264.228L45.4456 257.08C45.3564 256.813 45.3207 256.518 45.3401 256.228C45.4478 255.114 46.4285 254.286 47.5874 254.255L49.1577 237.482C48.0198 237.254 47.2074 236.277 47.3076 235.151C47.4179 233.954 48.5531 233.061 49.829 233.167C50.5876 233.231 51.2123 233.63 51.598 234.187L67.8869 227.104C67.7977 226.837 67.7544 226.529 67.7872 226.231C67.8975 225.034 69.0328 224.141 70.3086 224.247C71.5844 224.353 72.5387 225.421 72.4285 226.618C72.3957 226.916 72.3078 227.21 72.1555 227.455L86.8683 237.164C87.344 236.667 88.0369 236.386 88.7956 236.45C90.0848 236.549 91.0257 237.623 90.9155 238.82C90.8078 239.933 89.8271 240.762 88.6682 240.793L87.0787 257.592C88.2166 257.82 89.0289 258.797 88.9287 259.923C88.8976 260.253 88.7829 260.561 88.6114 260.833L103.247 270.501C103.711 269.926 104.483 269.571 105.318 269.644C106.207 269.722 106.907 270.246 107.246 270.96L123.844 263.748C123.711 263.437 123.646 263.092 123.683 262.743C123.795 261.578 124.85 260.727 126.08 260.757L127.652 244.016C126.428 243.85 125.552 242.824 125.664 241.659C125.787 240.455 126.909 239.569 128.185 239.675C128.999 239.743 129.682 240.21 130.044 240.845L146.306 233.777C146.174 233.467 146.108 233.121 146.137 232.759C146.249 231.594 147.318 230.736 148.535 230.774L150.11 214.097C148.972 213.869 148.173 212.885 148.26 211.766C148.37 210.569 149.506 209.676 150.782 209.782C151.527 209.853 152.144 210.239 152.522 210.784L168.691 203.764C168.594 203.484 168.537 203.184 168.576 202.866C168.686 201.669 169.822 200.776 171.097 200.882C172.381 201.001 173.328 202.056 173.225 203.265C173.204 203.524 173.128 203.779 173.002 204.01L188.021 213.938C188.495 213.409 189.234 213.087 190.014 213.156C190.752 213.215 191.376 213.613 191.754 214.158L208.057 207.068C207.967 206.801 207.926 206.526 207.959 206.228C208.069 205.031 209.204 204.137 210.48 204.243L212.281 185.005L230.834 176.948C230.73 176.656 230.673 176.355 230.704 176.025C230.812 174.912 231.793 174.084 232.944 174.04L234.522 157.28C233.384 157.052 232.585 156.068 232.693 154.955C232.716 154.612 232.844 154.297 233.016 154.026L218.089 144.164C217.617 144.726 216.864 145.054 216.051 144.986C215.292 144.922 214.646 144.519 214.274 143.955L197.999 151.03C198.095 151.31 198.131 151.605 198.098 151.903C197.988 153.1 196.853 153.993 195.569 153.874L193.983 170.738C195.121 170.966 195.933 171.943 195.826 173.056C195.716 174.253 194.58 175.147 193.291 175.048C192.532 174.984 191.908 174.585 191.535 174.021L175.273 181.09C175.355 181.344 175.389 181.607 175.37 181.898C175.246 183.102 174.124 183.988 172.827 183.877C171.552 183.771 170.597 182.703 170.707 181.506C170.734 181.228 170.824 180.966 170.949 180.735L156.087 170.922C155.615 171.484 154.863 171.813 154.049 171.745C153.29 171.681 152.644 171.277 152.272 170.713L135.997 177.789C136.093 178.068 136.129 178.363 136.096 178.661C135.989 179.774 135.008 180.603 133.857 180.646L132.256 197.633C133.394 197.861 134.214 198.851 134.106 199.964C133.996 201.161 132.861 202.054 131.585 201.948C130.771 201.88 130.095 201.426 129.741 200.803L113.606 207.821C113.673 208.05 113.692 208.288 113.671 208.547C113.568 209.756 112.426 210.637 111.15 210.531C109.874 210.425 108.92 209.357 109.03 208.16C109.058 207.914 109.129 207.679 109.227 207.462L94.6567 197.843C94.1767 198.392 93.432 198.733 92.6316 198.658C91.3558 198.552 90.4014 197.485 90.5117 196.288C90.6194 195.175 91.5925 194.334 92.7515 194.303L94.3571 177.148C93.2192 176.92 92.4068 175.943 92.5145 174.83C92.5314 174.623 92.59 174.427 92.677 174.249L77.7012 164.364C77.2355 164.79 76.5828 165.05 75.8584 164.985C75.0997 164.921 74.4541 164.517 74.0952 163.946L57.8197 171.022C57.9089 171.288 57.9446 171.583 57.9328 171.887C57.8225 173.084 56.6872 173.977 55.3905 173.865L53.8068 190.646C54.9447 190.874 55.7437 191.858 55.6569 192.976C55.5467 194.173 54.4114 195.067 53.1356 194.96C52.4321 194.901 51.8582 194.558 51.4625 194.072L34.8376 201.299C34.8759 201.51 34.9217 201.733 34.899 201.96C34.7888 203.157 33.6535 204.05 32.3702 203.931C31.0943 203.825 30.14 202.758 30.2503 201.561C30.2814 201.231 30.3902 200.943 30.5483 200.678L15.97 191.046C15.4968 191.46 14.8499 191.7 14.1673 191.646C12.8915 191.54 11.9372 190.472 12.0474 189.275C12.1551 188.162 13.1416 187.314 14.3081 187.296L15.8388 170.956C14.7009 170.728 13.8886 169.751 13.9887 168.626C14.1124 167.422 15.2343 166.535 16.5101 166.641C17.1793 166.703 17.7515 167.013 18.1322 167.474L34.9117 160.183C34.8074 159.891 34.7433 159.578 34.782 159.26C34.8737 158.238 35.7056 157.455 36.7418 157.307L38.328 140.443C37.3431 140.118 36.6577 139.206 36.7628 138.177C36.8731 136.98 38.0084 136.087 39.2842 136.193C40.0428 136.257 40.6884 136.661 41.0607 137.225L57.3496 130.142C57.2529 129.863 57.2172 129.568 57.2424 129.257C57.3501 128.144 58.3233 127.303 59.4897 127.285L61.0659 110.492C59.928 110.264 59.1156 109.287 59.2233 108.174C59.2444 107.915 59.3281 107.673 59.4268 107.456L44.593 97.6614C44.1156 98.1267 43.4361 98.4009 42.6983 98.3425C41.4225 98.2364 40.4682 97.169 40.5784 95.9719C40.6744 94.8979 41.5806 94.0919 42.6812 93.9929L44.2774 77.0575C43.1395 76.8294 42.3406 75.8455 42.4274 74.7268C42.4527 74.4164 42.5481 74.1351 42.7003 73.8901L27.9876 64.1803C27.5177 64.6581 26.8248 64.9393 26.0737 64.8879C24.7903 64.7693 23.8435 63.7144 23.9538 62.5174C24.0614 61.4042 25.0421 60.5756 26.2011 60.545L27.7713 43.7718C26.6334 43.5438 25.8211 42.5669 25.9288 41.4537C26.0524 40.2496 27.1743 39.3634 28.4501 39.4695C29.2088 39.5335 29.8335 39.9319 30.2192 40.4889L46.5081 33.406C46.4189 33.1392 46.3756 32.8317 46.4084 32.5338C46.5161 31.4206 47.4967 30.592 48.6557 30.5614L50.2587 13.4904C49.1208 13.2623 48.3219 12.2785 48.4162 11.1723C48.5264 9.97523 49.6617 9.08197 50.9375 9.18809C51.7722 9.26167 52.4629 9.74104 52.8192 10.396L68.9535 3.37774C68.8718 3.12346 68.836 2.82854 68.863 2.55025C68.9732 1.35317 70.1085 0.459908 71.3843 0.56602C72.6601 0.672139 73.6145 1.73952 73.5042 2.9366C73.4848 3.22746 73.3819 3.49615 73.2639 3.7397L87.8347 13.359C88.3055 12.7651 89.0636 12.4166 89.9116 12.4831C91.1874 12.5892 92.1418 13.6566 92.0315 14.8537C91.9238 15.9669 90.9432 16.7955 89.7842 16.8261L88.1812 33.8971C89.3191 34.1252 90.1314 35.102 90.0312 36.2278C90.0102 36.4865 89.919 36.716 89.8277 36.9455L104.754 46.8072C105.23 46.3098 105.923 46.0286 106.682 46.0925C107.957 46.1986 108.912 47.266 108.809 48.4757C108.701 49.5888 107.721 50.4174 106.562 50.4481L104.964 67.3513C106.102 67.5794 106.914 68.5562 106.814 69.6819C106.781 69.9798 106.693 70.2736 106.541 70.5187L121.254 80.2285C121.737 79.7436 122.422 79.4498 123.181 79.5138C124.457 79.6199 125.411 80.6873 125.301 81.8844C125.193 82.9976 124.212 83.8261 123.053 83.8568L121.464 100.657C122.602 100.885 123.414 101.861 123.307 102.975C123.285 103.233 123.209 103.488 123.084 103.719L138.119 113.557C138.602 113.072 139.288 112.778 140.046 112.842C141.322 112.948 142.276 114.015 142.166 115.212C142.058 116.326 141.085 117.167 139.919 117.185L138.334 134.081C139.472 134.309 140.285 135.286 140.184 136.412C140.152 136.71 140.064 137.003 139.911 137.249L154.624 146.958C155.107 146.473 155.793 146.18 156.551 146.244C157.365 146.312 158.033 146.753 158.388 147.376L175.168 140.085C175.078 139.818 175.043 139.523 175.062 139.232C175.17 138.119 176.143 137.278 177.302 137.248L178.88 120.487C177.742 120.259 176.943 119.275 177.03 118.156C177.14 116.959 178.275 116.066 179.551 116.172C180.31 116.236 180.934 116.635 181.307 117.198L197.595 110.116C197.506 109.849 197.47 109.554 197.496 109.243C197.603 108.13 198.577 107.289 199.736 107.258L201.341 90.1035C200.356 89.7786 199.684 88.8602 199.783 87.8505C199.8 87.6435 199.859 87.4476 199.925 87.2643L185.12 77.4876C184.664 77.8424 184.05 78.0493 183.401 77.9935C182.126 77.8874 181.171 76.82 181.281 75.6229C181.373 74.6006 182.205 73.8172 183.241 73.6694L184.828 56.8053C183.843 56.4804 183.171 55.562 183.262 54.5397C183.281 54.3649 183.32 54.1956 183.367 54.0389L168.157 43.9961C167.691 44.4222 167.038 44.6824 166.327 44.6099C165.569 44.546 164.944 44.1475 164.551 43.578L148.275 50.6538C148.364 50.9207 148.4 51.2156 148.375 51.5261C148.265 52.7231 147.129 53.6164 145.853 53.5103C144.57 53.3916 143.623 52.3368 143.734 51.1397C143.75 50.9327 143.809 50.7368 143.883 50.5661L129.077 40.7894C128.622 41.1442 128.007 41.3511 127.359 41.2953C126.083 41.1892 125.129 40.1218 125.239 38.9247C125.331 37.9024 126.163 37.1189 127.199 36.9712L128.785 20.1071C127.787 19.7892 127.115 18.8708 127.22 17.8415C127.344 16.6374 128.465 15.7512 129.741 15.8573C130.5 15.9213 131.132 16.3323 131.518 16.8892L147.807 9.80634C147.71 9.52693 147.674 9.232 147.699 8.92155C147.823 7.71745 148.945 6.83123 150.221 6.93734C151.497 7.04346 152.451 8.11085 152.341 9.30792C152.3 9.70929 152.146 10.0704 151.921 10.3701L166.613 20.0744C167.069 19.4553 167.86 19.0732 168.715 19.1523C169.529 19.2204 170.205 19.6746 170.56 20.2974L186.782 13.2496C186.677 12.9576 186.621 12.6571 186.652 12.3271C186.762 11.13 187.897 10.2368 189.173 10.3429C190.449 10.449 191.403 11.5164 191.293 12.7135C191.34 13.0853 191.231 13.3735 191.073 13.6382ZM164.364 43.1478C164.267 42.8684 164.231 42.5734 164.264 42.2755C164.356 41.2533 165.188 40.4698 166.224 40.322L167.816 23.4384C166.831 23.1135 166.159 22.195 166.251 21.1728C166.268 20.9658 166.326 20.7699 166.406 20.5796L151.608 10.8154C151.146 11.1898 150.532 11.3967 149.884 11.3409C149.125 11.277 148.5 10.8785 148.115 10.3215L131.826 17.4044C131.923 17.6838 131.958 17.9788 131.925 18.2767C131.815 19.4737 130.68 20.367 129.404 20.2609L127.831 36.9697C129.114 37.0884 130.061 38.1432 129.95 39.3403C129.917 39.7542 129.743 40.1097 129.512 40.4291L144.204 50.1333C144.66 49.5143 145.45 49.1322 146.319 49.2043C147.078 49.2682 147.723 49.6722 148.096 50.2362L164.364 43.1478ZM201.926 90.2587L200.309 107.337C201.447 107.565 202.246 108.549 202.16 109.667C202.14 109.958 202.037 110.227 201.906 110.478L216.626 120.2C217.104 119.735 217.783 119.46 218.534 119.512C219.272 119.57 219.897 119.969 220.275 120.513L237.135 113.18C237.06 112.938 237.026 112.676 237.047 112.417C237.131 111.498 237.827 110.753 238.721 110.514L240.32 93.495C239.49 93.1054 238.939 92.272 239.028 91.3336C239.041 91.1784 239.088 91.0217 239.135 90.865L224.045 80.9072C223.595 81.2424 223.021 81.4283 222.394 81.378C221.669 81.3125 221.067 80.9518 220.683 80.427L204.368 87.5239C204.442 87.7656 204.476 88.0284 204.455 88.2871C204.345 89.4842 203.215 90.3578 201.926 90.2587ZM61.7259 110.509L60.1423 127.289C61.2802 127.517 62.0925 128.494 61.9923 129.62C61.9537 129.937 61.8524 130.238 61.6943 130.502L76.3862 140.207C76.8544 139.697 77.574 139.401 78.346 139.458C79.1256 139.528 79.7653 139.951 80.1451 140.528L98.3622 132.614L100.135 113.77C98.9973 113.542 98.1983 112.558 98.2985 111.432C98.3179 111.142 98.4209 110.873 98.5522 110.622L83.832 100.9C83.3546 101.365 82.6751 101.639 81.9373 101.581C81.1995 101.523 80.5823 101.137 80.2042 100.592L63.9019 107.682C63.9911 107.949 64.0328 108.224 64 108.522C63.858 109.637 62.8849 110.478 61.7259 110.509ZM122.892 104.133C122.426 104.675 121.687 104.997 120.873 104.929C120.169 104.869 119.575 104.521 119.192 104.029L102.863 111.132C102.93 111.362 102.963 111.592 102.934 111.838C102.842 112.861 102.01 113.644 100.974 113.792L99.1893 132.675L115.729 143.589C116.2 143.143 116.866 142.876 117.577 142.949C118.302 143.014 118.904 143.375 119.288 143.9L135.604 136.803C135.529 136.561 135.495 136.298 135.522 136.02C135.63 134.907 136.611 134.078 137.762 134.035L139.347 117.139C138.209 116.911 137.41 115.927 137.504 114.821C137.529 114.51 137.625 114.229 137.769 113.971L122.892 104.133ZM106.306 70.8897C105.83 71.3872 105.124 71.6754 104.379 71.6044C103.62 71.5405 102.988 71.1295 102.602 70.5725L86.3131 77.6554C86.4098 77.9348 86.4456 78.2297 86.4203 78.5402C86.3126 79.6534 85.332 80.4819 84.173 80.5126L82.5952 97.2731C83.7331 97.5012 84.5321 98.4851 84.4453 99.6038C84.42 99.9142 84.3112 100.203 84.1665 100.46L98.8792 110.17C99.355 109.672 100.048 109.391 100.807 109.455C101.565 109.519 102.197 109.93 102.57 110.494L118.845 103.418C118.756 103.151 118.72 102.857 118.746 102.546C118.853 101.433 119.826 100.592 120.993 100.574L122.582 83.774C121.444 83.5459 120.645 82.562 120.732 81.4433C120.758 81.1329 120.853 80.8516 120.998 80.594L106.306 70.8897ZM89.6286 37.3472C89.1486 37.8964 88.4039 38.2379 87.6035 38.1628C86.9 38.1029 86.2978 37.7422 85.9154 37.2495L69.5864 44.3535C69.6606 44.5952 69.6872 44.8454 69.6662 45.1041C69.5744 46.1264 68.7425 46.9099 67.7063 47.0577L66.1217 63.9539C67.1067 64.2788 67.7787 65.1972 67.6869 66.2195C67.6659 66.4782 67.588 66.7007 67.4759 66.9246L82.4592 76.8226C82.9308 76.3769 83.5969 76.1097 84.3079 76.1822C85.0323 76.2476 85.6345 76.6083 86.0185 77.1331L102.348 70.0292C102.273 69.7875 102.239 69.5247 102.253 69.2534C102.36 68.1403 103.334 67.2991 104.5 67.281L106.085 50.3849C104.947 50.1568 104.134 49.1799 104.242 48.0668C104.267 47.7563 104.363 47.4751 104.508 47.2175L89.6286 37.3472ZM53.1223 10.8147C53.1815 11.0313 53.2064 11.2493 53.1837 11.4759C53.076 12.5891 52.0953 13.4176 50.9364 13.4483L49.3333 30.5193C50.4712 30.7474 51.2836 31.7242 51.1834 32.85C51.164 33.1408 51.061 33.4095 50.9297 33.6601L65.6499 43.3825C66.1198 42.9046 66.7993 42.6304 67.5446 42.7014C68.2824 42.7598 68.9071 43.1582 69.2852 43.7026L85.5875 36.6127C85.4983 36.3459 85.4566 36.0705 85.4894 35.7727C85.5971 34.6595 86.5703 33.8184 87.7367 33.8003L89.3398 16.7293C88.2019 16.5012 87.4029 15.5173 87.4972 14.4112C87.52 14.1846 87.5844 13.9692 87.6773 13.7718L73.0706 4.12185C72.6024 4.63185 71.8828 4.92713 71.1108 4.87018C70.3312 4.80068 69.6856 4.3967 69.3117 3.80055L53.1223 10.8147ZM43.1359 73.4137C43.6117 72.9163 44.3046 72.635 45.0632 72.699C45.8219 72.763 46.4675 73.167 46.8398 73.7309L63.1153 66.6551C63.0261 66.3882 62.9903 66.0933 63.0231 65.7954C63.1308 64.6822 64.1039 63.8411 65.2629 63.8104L66.8524 47.0107C65.7145 46.7826 64.9022 45.8058 65.0023 44.6801C65.0276 44.3696 65.1231 44.0884 65.2678 43.8308L50.555 34.1209C50.0793 34.6184 49.373 34.9066 48.6144 34.8427C47.8557 34.7787 47.2235 34.3677 46.8512 33.8037L30.5623 40.8866C30.6591 41.166 30.7082 41.4539 30.6695 41.7714C30.5619 42.8846 29.5812 43.7131 28.4222 43.7438L26.8445 60.5043C27.9823 60.7324 28.7813 61.7163 28.6945 62.835C28.6692 63.1454 28.5604 63.4337 28.4157 63.6913L43.1359 73.4137ZM59.8207 106.969C60.2931 106.407 61.032 106.085 61.8458 106.153C62.5493 106.213 63.1515 106.574 63.5414 107.079L79.8704 99.9751C79.7962 99.7334 79.7696 99.4832 79.7906 99.2245C79.8824 98.2022 80.7143 97.4187 81.7505 97.2709L83.3367 80.4068C82.3518 80.082 81.6664 79.1705 81.779 78.1538C81.8001 77.8951 81.8838 77.653 81.9959 77.4291L67.0126 67.5311C66.5486 67.9894 65.8615 68.251 65.1372 68.1856C64.4128 68.1201 63.8031 67.7468 63.4191 67.222L47.1168 74.3119C47.191 74.5536 47.2251 74.8164 47.1982 75.0947C47.0905 76.2079 46.1098 77.0365 44.9509 77.0671L43.3529 93.9703C44.5636 94.1437 45.4402 95.1693 45.3417 96.3272C45.3105 96.6573 45.2017 96.9455 45.0436 97.2102L59.8207 106.969ZM51.2782 193.558C51.1455 193.248 51.0723 192.89 51.1017 192.528C51.2094 191.415 52.1901 190.586 53.3415 190.543L54.9219 173.699C53.9236 173.381 53.2649 172.455 53.3567 171.433C53.3811 171.239 53.4263 171.05 53.4999 170.879L38.6736 161.097C38.218 161.452 37.623 161.632 36.9955 161.582C36.2577 161.523 35.6405 161.137 35.2699 160.606L18.5305 167.876C18.6915 168.204 18.7723 168.574 18.737 168.956C18.6293 170.069 17.6486 170.898 16.4897 170.928L14.959 187.268C16.0969 187.496 16.8959 188.48 16.7882 189.593C16.7587 189.955 16.6248 190.29 16.4265 190.575L30.9973 200.195C31.4747 199.729 32.1542 199.455 32.892 199.513C33.7266 199.587 34.4173 200.066 34.7737 200.721L51.2782 193.558ZM73.9376 163.418C73.8409 163.138 73.8051 162.843 73.8379 162.545C73.9297 161.523 74.7616 160.74 75.7978 160.592L77.3898 143.708C76.3916 143.39 75.7196 142.472 75.8247 141.443C75.8415 141.236 75.9001 141.04 75.9796 140.849L61.1817 131.085C60.7202 131.46 60.106 131.667 59.4576 131.611C58.699 131.547 58.0742 131.148 57.702 130.584L41.4131 137.667C41.5098 137.947 41.5455 138.242 41.5128 138.539C41.4025 139.737 40.2672 140.63 38.9914 140.524L37.4178 157.233C38.7011 157.351 39.648 158.406 39.5452 159.616C39.5115 160.03 39.3375 160.385 39.1067 160.704L53.7986 170.409C54.2677 169.783 55.045 169.408 55.914 169.48C56.6726 169.544 57.3182 169.948 57.698 170.524L73.9376 163.418ZM93.0275 173.719C93.4833 173.1 94.274 172.717 95.1429 172.789C95.9015 172.853 96.5471 173.257 96.9194 173.821L113.155 166.767C113.081 166.525 113.054 166.275 113.075 166.016C113.167 164.994 113.999 164.21 115.035 164.062L116.629 147.211C115.644 146.886 114.958 145.975 115.063 144.945C115.085 144.687 115.168 144.445 115.28 144.221L98.5916 133.204L80.4013 141.103C80.4755 141.345 80.4945 141.583 80.4734 141.842C80.3658 142.955 79.3851 143.783 78.2262 143.814L76.6367 160.614C77.7745 160.842 78.581 161.838 78.4867 162.944C78.4497 163.294 78.3217 163.609 78.1368 163.887L93.0275 173.719ZM129.625 200.286C129.558 200.057 129.532 199.806 129.553 199.548C129.66 198.435 130.633 197.593 131.792 197.563L133.393 180.576C132.255 180.348 131.456 179.364 131.564 178.251C131.583 177.96 131.679 177.678 131.817 177.44L117.097 167.718C116.62 168.183 115.94 168.458 115.203 168.399C114.465 168.341 113.848 167.955 113.469 167.41L97.2073 174.479C97.2665 174.696 97.2855 174.934 97.2703 175.173C97.1626 176.286 96.182 177.114 95.0097 177.152L93.3965 194.294C94.5344 194.522 95.3542 195.512 95.2466 196.625C95.2255 196.884 95.1343 197.113 95.043 197.343L109.614 206.962C110.086 206.4 110.839 206.071 111.666 206.132C112.479 206.2 113.163 206.667 113.517 207.29L129.625 200.286ZM152.13 170.21C152.04 169.943 152.005 169.648 152.03 169.338C152.138 168.224 153.111 167.383 154.27 167.353L155.859 150.553C154.721 150.325 153.909 149.348 154.03 148.228C154.055 147.917 154.151 147.636 154.303 147.391L139.59 137.681C139.115 138.179 138.422 138.46 137.663 138.396C136.904 138.332 136.272 137.921 135.886 137.364L119.598 144.447C119.694 144.726 119.73 145.021 119.705 145.332C119.597 146.445 118.616 147.273 117.457 147.304L115.88 164.065C117.018 164.293 117.837 165.282 117.73 166.395C117.704 166.706 117.596 166.994 117.451 167.252L132.164 176.961C132.639 176.464 133.332 176.183 134.091 176.247C134.85 176.311 135.495 176.715 135.868 177.279L152.13 170.21ZM195.11 153.752C194.125 153.427 193.453 152.509 193.545 151.487C193.567 151.26 193.639 151.057 193.719 150.867L178.921 141.103C178.46 141.477 177.839 141.704 177.17 141.642C176.412 141.578 175.758 141.162 175.386 140.598L158.58 147.903C158.654 148.144 158.681 148.395 158.66 148.653C158.568 149.676 157.736 150.459 156.7 150.607L155.108 167.491C156.106 167.808 156.778 168.727 156.673 169.756C156.652 170.015 156.574 170.237 156.462 170.461L171.345 180.28C171.819 179.75 172.545 179.435 173.332 179.517C174.111 179.587 174.772 180.016 175.146 180.612L191.381 173.557C191.284 173.278 191.249 172.983 191.274 172.673C191.382 171.559 192.355 170.718 193.521 170.7L195.11 153.752ZM214.118 143.459C214.029 143.192 213.993 142.897 214.013 142.606C214.12 141.493 215.101 140.664 216.252 140.621L217.842 123.821C216.704 123.593 215.905 122.609 215.999 121.503C216.025 121.193 216.12 120.911 216.265 120.654L201.552 110.944C201.076 111.441 200.383 111.723 199.625 111.659C198.866 111.595 198.234 111.184 197.862 110.62L181.573 117.703C181.669 117.982 181.705 118.277 181.68 118.587C181.572 119.701 180.592 120.529 179.433 120.56L177.855 137.32C178.993 137.548 179.792 138.532 179.705 139.651C179.68 139.961 179.571 140.25 179.426 140.507L194.146 150.23C194.622 149.732 195.315 149.451 196.074 149.515C196.832 149.579 197.478 149.983 197.85 150.547L214.118 143.459ZM233.447 153.601C233.919 153.155 234.585 152.888 235.309 152.953C236.034 153.019 236.636 153.38 237.02 153.904L253.349 146.8C253.275 146.559 253.24 146.296 253.267 146.018C253.375 144.905 254.356 144.076 255.515 144.045L257.12 126.89C256.122 126.573 255.463 125.647 255.555 124.625C255.579 124.43 255.632 124.254 255.698 124.071L240.872 114.289C240.416 114.643 239.821 114.824 239.194 114.773C238.456 114.715 237.839 114.329 237.468 113.797L220.595 121.137C220.669 121.379 220.696 121.629 220.675 121.888C220.583 122.91 219.751 123.694 218.715 123.842L217.123 140.725C218.108 141.05 218.793 141.962 218.688 142.991C218.667 143.249 218.589 143.472 218.477 143.696L233.447 153.601ZM204.322 267.573L205.91 250.741C204.772 250.513 203.973 249.529 204.06 248.411C204.085 248.1 204.18 247.819 204.332 247.574L189.62 237.864C189.15 238.342 188.444 238.63 187.706 238.572C186.947 238.508 186.322 238.109 185.95 237.545L169.299 244.786C169.335 244.965 169.353 245.17 169.336 245.377C169.248 246.348 168.483 247.096 167.532 247.298L165.945 264.278C166.85 264.645 167.457 265.515 167.37 266.485C167.349 266.744 167.265 266.986 167.153 267.21L183.984 278.317L202.201 270.404C202.112 270.137 202.083 269.855 202.103 269.564C202.19 268.445 203.149 267.611 204.322 267.573ZM152.842 211.26C152.939 211.539 153.003 211.852 152.964 212.169C152.856 213.283 151.876 214.111 150.717 214.142L149.143 230.851C150.208 231.133 150.937 232.088 150.834 233.15C150.801 233.447 150.719 233.722 150.574 233.979L165.287 243.689C165.757 243.211 166.45 242.93 167.201 242.981C168.015 243.049 168.683 243.491 169.037 244.114L185.636 236.902C185.569 236.672 185.542 236.422 185.558 236.183C185.649 235.161 186.495 234.37 187.517 234.23L189.104 217.366C188.119 217.041 187.433 216.129 187.538 215.1C187.565 214.822 187.649 214.58 187.767 214.336L172.755 204.42C172.289 204.962 171.536 205.291 170.736 205.216C169.991 205.145 169.374 204.759 168.988 204.202L152.842 211.26ZM130.289 241.344C130.356 241.573 130.375 241.811 130.354 242.069C130.251 243.131 129.352 243.95 128.265 244.042L126.689 260.834C127.754 261.117 128.483 262.072 128.379 263.133C128.354 263.444 128.253 263.744 128.094 264.009L142.807 273.719C143.283 273.221 143.982 272.921 144.761 272.99C145.575 273.058 146.258 273.525 146.62 274.16L162.883 267.091C162.75 266.781 162.671 266.443 162.714 266.074C162.826 264.909 163.894 264.051 165.111 264.089L166.682 247.315C165.458 247.149 164.581 246.124 164.693 244.959C164.726 244.661 164.821 244.379 164.952 244.129L150.24 234.419C149.77 234.897 149.064 235.185 148.326 235.127C147.622 235.067 147.048 234.724 146.653 234.239L130.289 241.344ZM88.3379 261.257C87.8664 261.703 87.2003 261.97 86.4625 261.911C85.7381 261.846 85.1284 261.473 84.7444 260.948L68.4346 268.025C68.5088 268.267 68.5429 268.53 68.516 268.808C68.4083 269.921 67.4276 270.75 66.2687 270.78L64.4856 289.696L81.1535 300.707C81.6277 300.177 82.3665 299.856 83.146 299.925C83.8286 299.979 84.4233 300.328 84.8191 300.813L101.161 293.702C101.095 293.473 101.076 293.236 101.091 292.996C101.183 291.974 102.028 291.184 103.051 291.043L104.66 273.952C103.522 273.724 102.709 272.747 102.817 271.634C102.832 271.395 102.91 271.173 103.003 270.975L88.3379 261.257ZM51.9161 234.63C52.0128 234.91 52.0485 235.205 52.0233 235.515C51.9156 236.628 50.9349 237.457 49.776 237.488L48.2057 254.261C49.3436 254.489 50.1426 255.473 50.0558 256.591C50.0305 256.902 49.9217 257.19 49.7769 257.448L64.4897 267.158C64.9655 266.66 65.6583 266.379 66.4304 266.436C67.189 266.5 67.8213 266.911 68.186 267.462L84.4615 260.386C84.3723 260.12 84.3366 259.825 84.3485 259.521C84.4562 258.408 85.4293 257.567 86.5882 257.536L88.1644 240.743C87.0265 240.515 86.2275 239.532 86.3277 238.406C86.3605 238.108 86.4484 237.814 86.5931 237.557L71.8804 227.847C71.4046 228.344 70.7118 228.625 69.9531 228.561C69.1945 228.497 68.5622 228.086 68.1766 227.529L51.9161 234.63ZM29.2249 264.689C29.2841 264.905 29.3166 265.136 29.288 265.382C29.1803 266.495 28.1996 267.324 27.0407 267.354L25.4301 284.413C26.568 284.641 27.367 285.625 27.2802 286.744C27.2474 287.041 27.1578 287.303 27.0265 287.554L41.7467 297.276C42.2241 296.811 42.917 296.53 43.6548 296.588C44.3925 296.646 45.0173 297.045 45.3954 297.589L63.666 289.647L65.4608 270.693C64.4759 270.368 63.7905 269.456 63.8956 268.427C63.9183 268.201 63.9769 268.005 64.0623 267.795L49.2644 258.031C48.8104 258.418 48.1828 258.631 47.5135 258.57C46.7549 258.506 46.1018 258.09 45.7295 257.526L29.2249 264.689ZM39.2389 320.535C39.1496 320.268 39.1139 319.973 39.1467 319.675C39.2544 318.562 40.235 317.733 41.3864 317.69L42.9759 300.89C41.8381 300.662 41.0391 299.678 41.1259 298.56C41.1512 298.249 41.2466 297.968 41.3914 297.71L26.6786 288C26.2028 288.498 25.51 288.779 24.7513 288.715C23.9927 288.651 23.3604 288.24 22.9748 287.683L6.68589 294.766C6.78263 295.046 6.81838 295.34 6.7931 295.651C6.68541 296.764 5.70474 297.593 4.5458 297.623L2.968 314.384C4.10587 314.612 4.91823 315.589 4.81806 316.715C4.79277 317.025 4.68395 317.313 4.53921 317.571L19.252 327.281C19.7278 326.783 20.4206 326.502 21.1793 326.566C21.9379 326.63 22.5702 327.041 22.9558 327.598L39.2389 320.535ZM78.731 323.756C78.6568 323.514 78.6303 323.264 78.6438 322.993C78.7355 321.97 79.5808 321.18 80.6036 321.039L82.1898 304.175C81.2049 303.85 80.5195 302.939 80.6247 301.909C80.6457 301.651 80.7294 301.409 80.8416 301.185L64.1528 290.168L45.6741 298.202C45.7483 298.444 45.7749 298.694 45.7538 298.953C45.6621 299.975 44.8168 300.766 43.794 300.907L42.2019 317.79C43.1868 318.115 43.8588 319.034 43.7671 320.056C43.7385 320.302 43.6682 320.537 43.556 320.761L58.3047 330.501C58.7837 330.068 59.4231 329.815 60.1475 329.881C60.9613 329.949 61.637 330.403 61.9917 331.026L78.731 323.756ZM117.719 327.192C117.63 326.925 117.594 326.63 117.627 326.332C117.735 325.219 118.715 324.391 119.874 324.36L121.45 307.567C120.313 307.339 119.514 306.355 119.6 305.237C119.626 304.926 119.721 304.645 119.866 304.387L105.153 294.677C104.677 295.175 103.984 295.456 103.226 295.392C102.467 295.328 101.835 294.917 101.463 294.353L85.1738 301.436C85.2705 301.715 85.3062 302.01 85.281 302.321C85.1733 303.434 84.1926 304.263 83.0337 304.293L81.4559 321.054C82.5938 321.282 83.4003 322.278 83.306 323.384C83.2807 323.695 83.1719 323.983 83.0271 324.241L97.7399 333.951C98.2156 333.453 98.9085 333.172 99.6672 333.236C100.426 333.3 101.071 333.704 101.444 334.268L117.719 327.192ZM140.138 297.178C140.071 296.949 140.045 296.698 140.066 296.44C140.173 295.326 141.154 294.498 142.313 294.467L143.924 277.293C142.846 277.017 142.117 276.062 142.213 274.988C142.243 274.774 142.302 274.578 142.381 274.388L127.576 264.611C127.115 264.986 126.5 265.193 125.839 265.144C125.135 265.084 124.54 264.736 124.164 264.224L107.459 271.492C107.495 271.671 107.505 271.864 107.494 272.051C107.403 273.073 106.571 273.857 105.534 274.005L103.926 291.095C105.063 291.323 105.876 292.3 105.776 293.426C105.756 293.717 105.653 293.986 105.522 294.236L120.242 303.959C120.712 303.481 121.392 303.206 122.137 303.277C122.875 303.336 123.513 303.727 123.877 304.279L140.138 297.178ZM159.649 307.39C160.123 306.86 160.862 306.538 161.655 306.601C162.337 306.655 162.932 307.003 163.314 307.496L179.657 300.385C179.598 300.168 179.571 299.918 179.586 299.679C179.678 298.657 180.51 297.873 181.546 297.725L183.331 278.842L166.642 267.825C166.171 268.271 165.497 268.525 164.793 268.466C164.132 268.417 163.559 268.106 163.179 267.646L146.802 274.758C146.846 274.95 146.871 275.168 146.854 275.375C146.751 276.436 145.852 277.255 144.752 277.354L143.136 294.58C144.121 294.905 144.806 295.816 144.701 296.846C144.684 297.053 144.626 297.248 144.546 297.439L159.649 307.39ZM196.207 333.862C196.118 333.595 196.082 333.3 196.115 333.002C196.223 331.889 197.203 331.06 198.355 331.017L199.931 314.225C198.793 313.996 197.994 313.013 198.102 311.899C198.127 311.589 198.222 311.308 198.367 311.05L183.654 301.34C183.179 301.838 182.486 302.119 181.727 302.055C180.968 301.991 180.323 301.587 179.951 301.023L163.662 308.106C163.758 308.385 163.808 308.673 163.769 308.991C163.661 310.104 162.681 310.933 161.522 310.963L159.944 327.724C161.082 327.952 161.902 328.941 161.794 330.054C161.769 330.365 161.66 330.653 161.515 330.911L176.228 340.621C176.704 340.123 177.396 339.842 178.168 339.899C178.927 339.963 179.552 340.361 179.945 340.931L196.207 333.862ZM235.451 337.197C235.354 336.917 235.326 336.635 235.359 336.337C235.467 335.224 236.447 334.395 237.599 334.352L239.189 317.436C238.051 317.208 237.252 316.225 237.347 315.118C237.381 314.853 237.457 314.598 237.569 314.374L222.821 304.634C222.349 305.079 221.689 305.327 220.972 305.274C220.268 305.214 219.653 304.86 219.276 304.348L202.665 311.567C202.739 311.809 202.766 312.059 202.745 312.318C202.653 313.34 201.808 314.131 200.771 314.279L199.179 331.162C200.164 331.487 200.85 332.398 200.744 333.428C200.723 333.686 200.646 333.909 200.533 334.133L215.453 343.982C215.928 343.485 216.621 343.203 217.393 343.26C218.152 343.324 218.797 343.728 219.17 344.292L235.451 337.197ZM225.397 281.372C225.479 281.626 225.52 281.902 225.493 282.18C225.386 283.293 224.405 284.122 223.246 284.152L221.676 300.925C222.814 301.154 223.626 302.13 223.526 303.256C223.495 303.586 223.38 303.894 223.209 304.166L237.921 313.875C238.395 313.346 239.115 313.051 239.908 313.113C240.688 313.183 241.341 313.599 241.715 314.195L257.977 307.126C257.859 306.841 257.816 306.534 257.847 306.204C257.955 305.091 258.935 304.262 260.094 304.232L261.67 287.439C260.533 287.211 259.734 286.227 259.82 285.108C259.847 284.83 259.929 284.556 260.068 284.318L245.348 274.595C244.871 275.061 244.204 275.328 243.467 275.269C242.729 275.211 242.112 274.825 241.741 274.293L225.397 281.372ZM206.07 271.262C205.592 271.727 204.913 272.001 204.188 271.936C203.451 271.877 202.833 271.492 202.463 270.96L184.179 278.908L182.406 297.753C183.544 297.981 184.356 298.958 184.256 300.083C184.223 300.381 184.134 300.643 184.002 300.893L198.723 310.616C199.192 310.138 199.872 309.864 200.631 309.928C201.376 309.999 201.993 310.385 202.371 310.929L218.956 303.724C218.874 303.47 218.833 303.194 218.865 302.896C218.957 301.874 219.789 301.091 220.825 300.943L222.411 284.079C221.427 283.754 220.755 282.835 220.846 281.813C220.869 281.587 220.939 281.352 221.032 281.154L206.07 271.262ZM224.631 240.35C224.55 240.096 224.508 239.821 224.541 239.523C224.648 238.41 225.629 237.581 226.788 237.55L228.378 220.751C227.24 220.523 226.427 219.546 226.535 218.433C226.566 218.103 226.675 217.814 226.833 217.55L212.141 207.845C211.673 208.355 210.953 208.651 210.181 208.594C209.402 208.524 208.77 208.113 208.39 207.537L192.114 214.613C192.218 214.905 192.275 215.205 192.236 215.523C192.129 216.636 191.148 217.464 189.989 217.495L188.419 234.268C189.557 234.496 190.377 235.486 190.269 236.599C190.236 236.897 190.154 237.171 190.009 237.428L204.73 247.151C205.2 246.673 205.892 246.392 206.638 246.463C207.375 246.521 208.014 246.913 208.392 247.457L224.631 240.35ZM247.349 210.278C247.282 210.049 247.256 209.799 247.277 209.54C247.385 208.427 248.365 207.598 249.517 207.555L251.117 190.568C249.979 190.34 249.18 189.356 249.288 188.243C249.307 187.952 249.403 187.671 249.542 187.433L234.821 177.71C234.344 178.176 233.665 178.45 232.927 178.391C232.189 178.333 231.572 177.947 231.194 177.403L212.923 185.344L211.137 204.344C212.122 204.669 212.808 205.58 212.703 206.61C212.686 206.817 212.627 207.012 212.548 207.203L227.346 216.967C227.807 216.593 228.421 216.386 229.077 216.454C229.836 216.518 230.461 216.916 230.846 217.473L247.349 210.278ZM257.309 147.693C256.833 148.191 256.127 148.479 255.368 148.415C254.609 148.351 253.977 147.94 253.592 147.383L237.303 154.466C237.399 154.745 237.449 155.033 237.423 155.344C237.316 156.457 236.335 157.285 235.176 157.316L233.598 174.077C234.736 174.305 235.548 175.281 235.448 176.407C235.423 176.718 235.314 177.006 235.169 177.264L249.882 186.973C250.358 186.476 251.051 186.195 251.809 186.259C252.568 186.323 253.214 186.727 253.586 187.291L269.861 180.215C269.772 179.948 269.737 179.653 269.756 179.362C269.864 178.249 270.844 177.42 271.996 177.377L273.585 160.577C272.447 160.349 271.648 159.365 271.743 158.259C271.768 157.949 271.863 157.668 272.008 157.41L257.309 147.693ZM263.367 84.2839C262.905 84.6583 262.291 84.8652 261.635 84.7968C260.877 84.7329 260.252 84.3344 259.866 83.7775L243.577 90.8603C243.674 91.1398 243.71 91.4347 243.677 91.7326C243.567 92.9297 242.431 93.8229 241.156 93.7168L239.582 110.426C240.858 110.532 241.812 111.599 241.709 112.809C241.668 113.21 241.502 113.578 241.263 113.885L255.955 123.589C256.411 122.97 257.202 122.588 258.071 122.66C258.829 122.724 259.475 123.128 259.847 123.692L276.123 116.616C276.026 116.337 275.99 116.042 276.023 115.744C276.115 114.722 276.947 113.938 277.983 113.79L279.575 96.9068C278.59 96.5819 277.918 95.6635 278.01 94.6412C278.027 94.4343 278.085 94.2384 278.165 94.0481L263.367 84.2839ZM249.489 27.4123C249.622 27.7224 249.68 28.055 249.651 28.4172C249.54 29.6143 248.405 30.5075 247.129 30.4014L245.556 47.1102C246.831 47.2163 247.786 48.2837 247.676 49.4808C247.646 49.843 247.505 50.1649 247.32 50.4435L262.012 60.1478C262.484 59.5861 263.223 59.2642 264.037 59.3322C264.74 59.3921 265.342 59.7529 265.725 60.2455L282.054 53.1416C281.987 52.9124 281.961 52.6622 281.989 52.4161C282.081 51.3938 282.913 50.6103 283.949 50.4625L285.541 33.5789C284.543 33.261 283.871 32.3426 283.976 31.3133C283.997 31.0546 284.081 30.8125 284.193 30.5885L269.444 20.848C268.965 21.2812 268.318 21.5217 267.601 21.4689C266.787 21.4008 266.112 20.9466 265.757 20.3238L249.489 27.4123ZM226.843 57.5459C226.91 57.775 226.936 58.0252 226.915 58.2839C226.808 59.3971 225.827 60.2257 224.668 60.2564L223.092 77.0491C224.23 77.2771 225.029 78.261 224.942 79.3797C224.905 79.7293 224.784 80.0568 224.592 80.3229L239.519 90.1846C239.984 89.6103 240.749 89.2744 241.576 89.3354C242.301 89.4008 242.91 89.7741 243.287 90.2864L259.602 83.1894C259.521 82.9352 259.487 82.6724 259.521 82.4067C259.613 81.3844 260.445 80.6009 261.481 80.4531L263.067 63.5891C262.082 63.2642 261.41 62.3457 261.502 61.3235C261.531 61.0773 261.601 60.8423 261.694 60.6449L246.924 50.8989C246.451 51.3124 245.818 51.546 245.127 51.4791C244.335 51.4166 243.674 50.9875 243.313 50.3843L226.843 57.5459ZM207.637 47.5207C207.175 47.895 206.561 48.102 205.913 48.0462C205.154 47.9822 204.529 47.5837 204.157 47.0198L187.868 54.1026C187.957 54.3695 188.014 54.67 187.981 54.9678C187.871 56.1649 186.736 57.0582 185.452 56.9395L183.879 73.6483C185.155 73.7544 186.109 74.8218 186.006 76.0315C185.965 76.4328 185.799 76.8009 185.56 77.1077L200.252 86.812C200.708 86.1929 201.499 85.8108 202.367 85.8829C203.126 85.9469 203.772 86.3508 204.144 86.9148L220.42 79.839C220.33 79.5721 220.295 79.2772 220.32 78.9667C220.412 77.9445 221.244 77.161 222.293 77.0062L223.878 60.11C222.879 59.7921 222.221 58.8666 222.312 57.8444C222.329 57.6374 222.388 57.4415 222.467 57.2512L207.637 47.5207ZM190.731 14.0654C190.253 14.5307 189.574 14.8049 188.836 14.7465C188.098 14.688 187.481 14.3022 187.103 13.7578L170.827 20.8336C170.894 21.0628 170.921 21.313 170.9 21.5717C170.792 22.6849 169.811 23.5135 168.652 23.5441L167.063 40.3438C168.201 40.5719 169.013 41.5487 168.913 42.6745C168.876 43.0241 168.748 43.339 168.57 43.6302L183.667 53.6006C184.114 52.9369 184.937 52.5211 185.827 52.5987C186.531 52.6586 187.104 53.0013 187.5 53.4869L203.85 46.3885C203.783 46.1594 203.764 45.9217 203.785 45.663C203.869 44.7442 204.565 43.9988 205.459 43.7604L207.031 27.0195C205.893 26.7914 205.094 25.8075 205.181 24.6888C205.22 24.3713 205.321 24.0705 205.479 23.8059L190.731 14.0654Z" fill="url(#paint0_linear_778_24579)"/>
<defs>
<linearGradient id="paint0_linear_778_24579" x1="46.8624" y1="10.8952" x2="223.132" y2="346.623" gradientUnits="userSpaceOnUse">
<stop stop-color="white"/>
<stop offset="1" stop-color="#2A62FE" stop-opacity="0"/>
</linearGradient>
</defs>
</svg>
