<svg width="56" height="73" viewBox="0 0 56 73" fill="none" xmlns="http://www.w3.org/2000/svg">
<path d="M44.7229 60.6769C44.5233 59.9994 44.4424 59.372 44.1722 58.7254C42.2831 54.219 40.2024 49.7691 37.93 45.3756C37.9131 45.3428 37.886 45.3165 37.8528 45.3006C37.8196 45.2848 37.782 45.2803 37.7459 45.2878C36.127 45.6341 35.3605 44.9289 34.5541 43.644C34.5336 43.6123 34.5065 43.5856 34.4746 43.5659C34.4427 43.5461 34.4069 43.5336 34.3697 43.5295C28.7271 42.9661 23.0821 42.9432 17.4345 43.4607C17.3506 43.4689 17.292 43.5111 17.2585 43.5872C15.5804 47.5218 10.0196 44.4306 12.5251 40.9499C12.5744 40.8828 12.5819 40.812 12.5476 40.7374C10.2204 35.5432 7.41331 30.6261 4.12617 25.9862C4.10754 25.9594 4.08179 25.9382 4.05172 25.9251C4.02164 25.9119 3.9884 25.9072 3.95561 25.9116C-0.291697 26.4614 -0.308842 20.0179 3.98374 20.486C4.06652 20.4949 4.13187 20.4655 4.1798 20.3977C7.43005 15.7822 10.2232 10.9047 12.5594 5.76506C12.5941 5.68966 12.5831 5.62048 12.5262 5.55759C9.27494 1.93816 15.5507 -1.57227 17.0177 2.67981C17.0335 2.72386 17.0615 2.76252 17.0985 2.79137C17.1355 2.82022 17.1799 2.8381 17.2268 2.84298C22.9727 3.39174 28.7192 3.36538 34.4663 2.76389C34.5446 2.75609 34.6007 2.71685 34.6345 2.64618C36.5332 -1.25918 41.8037 2.1153 39.2788 5.4151C39.2305 5.4774 39.2219 5.54403 39.253 5.61503C41.5497 10.8164 44.3667 15.7162 47.7043 20.3145C47.7258 20.3437 47.7546 20.3667 47.7875 20.381C47.8204 20.3954 47.8564 20.4007 47.8918 20.3963C52.1661 19.8408 52.0185 26.3139 48.0405 25.8125C47.9952 25.8071 47.9492 25.8142 47.9075 25.8332C47.8659 25.8522 47.8302 25.8823 47.8043 25.9201C44.6909 30.466 41.9357 35.2047 39.5388 40.136C39.3566 40.5108 39.1216 40.6164 39.3751 41.0545C40.184 42.4461 39.9704 43.7054 38.7343 44.8322C38.6806 44.8825 38.668 44.9424 38.6965 45.0119C40.6971 49.7453 42.905 54.38 45.3201 58.9161C45.5244 59.2993 45.7922 59.6289 46.1234 59.9049C46.1864 59.9572 46.2594 59.9861 46.3424 59.9916C47.8195 60.0948 49.2966 60.0857 50.7734 59.9642C50.8489 59.9583 50.9136 59.9284 50.9675 59.8747C51.5174 59.3515 52.3019 59.0938 52.5271 60.1016C52.5439 60.1734 52.5382 60.2488 52.5106 60.3175L52.372 60.6671C52.3405 60.7461 52.3428 60.8243 52.379 60.9018C53.0054 62.2288 53.7333 63.4959 54.5626 64.703C54.5937 64.7472 54.6354 64.7827 54.6838 64.8065C54.7323 64.8303 54.7859 64.8416 54.8399 64.8393C55.8465 64.7999 56.0531 66.0728 55.0706 66.386C54.3126 66.6299 52.8501 69.6335 52.3901 70.4393C52.3505 70.5095 52.3305 70.5891 52.3324 70.6695C52.3342 70.75 52.3578 70.8283 52.4006 70.8962C52.8792 71.6525 51.6544 72.4994 50.9414 71.4593C50.9259 71.4356 50.9047 71.4161 50.8798 71.4026C50.8549 71.3892 50.827 71.3821 50.7987 71.3822L46.3098 71.3682C46.2285 71.369 46.1658 71.4044 46.1218 71.4745C45.6844 72.1819 44.9125 72.3038 44.5479 71.4277C44.5208 71.3659 44.5179 71.296 44.5396 71.2319L44.7322 70.6562C44.7437 70.6217 44.7482 70.5851 44.7454 70.5484C44.7426 70.5117 44.7325 70.4757 44.7157 70.4426C44.3012 69.6287 43.6042 68.4209 42.6246 66.8193C42.5062 66.6254 42.3675 66.5153 42.2087 66.489C41.095 66.3074 41.2277 65.0131 42.2726 64.9347C42.3556 64.9279 42.4208 64.8912 42.4679 64.8248C43.3332 63.5971 44.0788 62.3011 44.7047 60.9369C44.7414 60.8554 44.7479 60.7632 44.7229 60.6769ZM45.9035 60.6239C45.738 60.7582 45.4821 60.8969 45.1358 61.04C45.1084 61.0517 45.0856 61.072 45.0707 61.0978L42.8416 64.945C42.8002 65.0166 42.7932 65.0913 42.8205 65.1689L42.9881 65.6369C43.0143 65.7104 43.0088 65.7823 42.9716 65.8528C42.8394 66.1 42.8479 66.3746 42.9972 66.6764C43.7114 68.1195 44.4268 69.3441 45.1436 70.3502C45.1636 70.3793 45.1911 70.4023 45.2233 70.4166C45.2555 70.431 45.291 70.4362 45.326 70.4316C45.6963 70.3873 45.9413 70.534 46.061 70.8718C46.0716 70.9025 46.0907 70.9293 46.1158 70.949C46.141 70.9687 46.1711 70.9804 46.2026 70.9828C47.7196 71.1054 49.2365 71.1017 50.7535 70.9716C50.8476 70.964 50.9239 70.9232 50.9825 70.8491C51.198 70.5793 51.4803 70.4285 51.8292 70.3966C51.9123 70.3898 51.9753 70.3492 52.0182 70.275L54.267 66.357C54.2843 66.3271 54.2941 66.2935 54.2956 66.2592C54.297 66.2249 54.29 66.1908 54.2752 66.1601C54.1161 65.8296 54.1023 65.4972 54.2337 65.1629C54.2663 65.0792 54.2639 64.9965 54.2266 64.9149C53.5951 63.5602 52.8529 62.2707 52.0001 61.0464C51.9781 61.0158 51.9489 60.9913 51.915 60.9749C51.8812 60.9586 51.8437 60.9511 51.8061 60.9529C51.475 60.9721 51.2225 60.837 51.0486 60.5474C51.0009 60.4686 50.9308 60.4255 50.8384 60.4181C49.918 60.3402 46.5568 60.0862 45.9035 60.6239ZM16.8168 4.72253C16.3014 5.67313 15.5152 6.17304 14.4582 6.22222C14.4184 6.2241 14.3794 6.23503 14.3441 6.25416C14.3089 6.27329 14.2783 6.30014 14.2546 6.33273C10.9143 11.0005 8.02912 15.9354 5.59893 21.1375C5.57372 21.1923 5.56323 21.2526 5.56849 21.3124C5.57376 21.3723 5.59461 21.4295 5.62895 21.4783C6.44418 22.6367 6.43271 23.8093 5.59453 24.9961C5.55098 25.0594 5.54513 25.1259 5.57699 25.1955C7.90866 30.3605 10.728 35.2413 14.0349 39.8378C14.0596 39.873 14.0931 39.9009 14.1319 39.9187C14.1708 39.9364 14.2136 39.9435 14.256 39.939C15.6904 39.8089 16.6844 40.4049 17.238 41.727C17.2546 41.7669 17.2819 41.8015 17.317 41.8269C17.3521 41.8523 17.3936 41.8676 17.4371 41.871C23.0868 42.3519 28.7348 42.2996 34.3812 41.7142C34.4616 41.7059 34.5191 41.6657 34.5536 41.5937C35.1527 40.352 36.1162 39.7811 37.444 39.8812C37.5351 39.8879 37.6065 39.854 37.6583 39.7795C40.896 35.0791 43.7386 30.1496 46.1859 24.991C46.2062 24.9491 46.2146 24.9025 46.2103 24.856C46.2059 24.8096 46.189 24.7652 46.1613 24.7276C45.5382 23.8728 45.4423 22.9441 45.8736 21.9413C45.9923 21.6625 46.3961 21.3971 46.2229 21.0027C44.0019 15.9263 41.2048 11.0681 37.8316 6.42795C37.7913 6.37286 37.7381 6.34922 37.672 6.35705C36.2541 6.51965 35.2355 5.95272 34.616 4.65628C34.5796 4.58224 34.5207 4.54116 34.4392 4.53302C28.6434 3.95192 22.8466 3.96338 17.0488 4.56742C16.9444 4.57782 16.867 4.62951 16.8168 4.72253Z" fill="#56BDFF"/>
</svg>
