<svg width="514" height="366" viewBox="0 0 514 366" fill="none" xmlns="http://www.w3.org/2000/svg">
<path opacity="0.5" d="M198.621 215.589L237.096 228.044C236.851 229.569 237.243 231.181 238.343 232.385C240.262 234.519 243.583 234.694 245.719 232.775C247.697 230.981 247.958 228.032 246.456 225.91L276.027 199.221C276.152 199.378 276.248 199.573 276.408 199.725C278.328 201.859 281.649 202.034 283.818 200.11C284.528 199.459 285.011 198.665 285.275 197.797L323.532 210.177C322.965 211.884 323.3 213.851 324.603 215.271C325.828 216.632 327.57 217.194 329.27 216.929L337.775 256.716C337.18 256.936 336.633 257.253 336.138 257.701C334.311 259.336 333.941 261.988 335.05 264.024L305.013 291.122C303.063 289.79 300.411 289.941 298.584 291.576C296.449 293.495 296.273 296.815 298.193 298.949C299.254 300.123 300.719 300.689 302.208 300.661L310.672 340.141C310.145 340.351 309.632 340.664 309.167 341.073C306.997 342.997 306.856 346.312 308.776 348.446C310.73 350.576 314.016 350.756 316.186 348.832C316.803 348.263 317.231 347.58 317.514 346.848L355.805 359.224C355.399 360.84 355.784 362.661 356.971 363.992C358.891 366.126 362.212 366.302 364.381 364.378C366.516 362.458 366.692 359.139 364.772 357.005L394.588 330.074C396.508 332.209 399.829 332.384 401.998 330.46C404.133 328.54 404.309 325.221 402.355 323.091C401.13 321.731 399.354 321.173 397.654 321.437L389.247 282.123C390.017 281.914 390.73 281.54 391.348 280.971C393.483 279.052 393.659 275.732 391.739 273.598L421.525 246.707C423.479 248.836 426.766 249.016 428.901 247.097C429.612 246.446 430.094 245.652 430.359 244.783L468.65 257.159C468.082 258.866 468.418 260.833 469.72 262.253C471.64 264.387 474.961 264.562 477.131 262.638C479.266 260.719 479.442 257.399 477.483 255.235L507.304 228.339C509.258 230.469 512.545 230.649 514.714 228.725C516.849 226.805 517.025 223.486 515.105 221.352C513.962 220.084 512.326 219.542 510.745 219.652L502.333 180.303C502.963 180.079 503.573 179.719 504.136 179.261C506.271 177.342 506.447 174.022 504.527 171.888L534.965 144.423C536.932 146.134 539.923 146.181 541.902 144.386C542.426 143.899 542.868 143.319 543.13 142.694L581.46 155.099C581.181 156.628 581.548 158.313 582.691 159.581C584.611 161.715 587.932 161.89 590.101 159.966C592.08 158.172 592.341 155.223 590.839 153.101L620.752 126.123C622.719 127.835 625.71 127.881 627.689 126.087C629.824 124.168 630 120.848 628.08 118.714C626.937 117.446 625.297 116.87 623.686 117.019L615.275 77.6698C615.938 77.4413 616.549 77.0812 617.073 76.594C619.051 74.7998 619.312 71.8504 617.81 69.7291L648.062 42.4277C650.029 44.1392 653.02 44.1856 654.999 42.3915C657.168 40.4675 657.31 37.1525 655.39 35.0184C654.164 33.6577 652.388 33.0999 650.723 33.3599L642.174 -6.49074C642.837 -6.71925 643.448 -7.07938 644.006 -7.57118C645.985 -9.36531 646.245 -12.3147 644.744 -14.436L674.653 -41.4482C676.62 -39.7367 679.572 -39.7198 681.589 -41.4844C683.72 -43.4379 683.901 -46.7234 681.942 -48.887C680.76 -50.1842 679.086 -50.7557 677.479 -50.5731L669.068 -89.922C669.765 -90.1551 670.415 -90.4858 670.968 -91.0116C672.947 -92.8058 673.208 -95.7552 671.706 -97.8765L701.679 -124.932C703.646 -123.22 706.603 -123.17 708.615 -124.968C709.203 -125.499 709.606 -126.108 709.894 -126.806L748.694 -114.257C748.225 -112.598 748.585 -110.704 749.815 -109.309C750.997 -108.012 752.671 -107.44 754.277 -107.623L762.689 -68.2738C761.991 -68.0407 761.308 -67.7054 760.754 -67.1795C758.619 -65.2601 758.443 -61.9405 760.363 -59.8064C762.283 -57.6723 765.604 -57.497 767.773 -59.421C768.361 -59.9515 768.764 -60.5611 769.052 -61.2592L807.343 -48.8838C806.971 -47.2723 807.376 -45.5578 808.558 -44.2606C810.478 -42.1265 813.799 -41.9512 815.934 -43.8706C817.913 -45.6647 818.173 -48.6141 816.672 -50.7354L846.581 -77.7476C848.548 -76.0361 851.505 -75.9851 853.517 -77.7838C855.648 -79.7373 855.828 -83.0228 853.904 -85.191C852.799 -86.4293 851.232 -86.9806 849.685 -86.8753L841.264 -126.292C841.859 -126.512 842.44 -126.833 842.935 -127.282C844.914 -129.076 845.174 -132.025 843.672 -134.146L873.802 -161.327C875.769 -159.616 878.755 -159.603 880.739 -161.363C882.874 -163.283 883.05 -166.602 881.13 -168.736C879.986 -170.004 878.346 -170.58 876.769 -170.436L868.358 -209.785C868.987 -210.009 869.632 -210.374 870.156 -210.861C872.292 -212.78 872.467 -216.1 870.547 -218.234C868.627 -220.368 865.306 -220.544 863.171 -218.624C862.613 -218.132 862.205 -217.557 861.942 -216.932L823.176 -229.485C823.612 -231.14 823.226 -232.962 822.001 -234.322C820.858 -235.59 819.218 -236.166 817.607 -236.018L809.195 -275.367C809.859 -275.595 810.47 -275.955 810.994 -276.442C813.129 -278.362 813.305 -281.681 811.385 -283.815C809.465 -285.95 806.144 -286.125 804.009 -284.205C803.484 -283.718 803.042 -283.138 802.78 -282.513L764.416 -294.913C764.695 -296.443 764.299 -298.089 763.19 -299.361C761.27 -301.495 757.949 -301.671 755.779 -299.747C753.801 -297.953 753.54 -295.003 755.042 -292.882L725.192 -265.947C723.225 -267.658 720.268 -267.71 718.289 -265.915C717.795 -265.467 717.445 -264.969 717.174 -264.411L677.937 -277.11C678.504 -278.817 678.169 -280.784 676.866 -282.204C675.641 -283.564 673.865 -284.122 672.199 -283.862L663.806 -323.075C664.503 -323.308 665.153 -323.639 665.706 -324.164C667.685 -325.959 667.946 -328.908 666.478 -331.034L696.387 -358.046C698.354 -356.335 701.311 -356.284 703.324 -358.082C705.459 -360.002 705.635 -363.321 703.71 -365.489C702.567 -366.757 700.932 -367.299 699.355 -367.155L690.943 -406.504C691.607 -406.733 692.217 -407.093 692.741 -407.58C694.877 -409.499 695.052 -412.819 693.132 -414.953C691.178 -417.083 687.892 -417.263 685.722 -415.339C685.198 -414.851 684.756 -414.271 684.493 -413.646L646.13 -426.046C646.409 -427.576 646.008 -429.256 644.869 -430.49C643.649 -431.816 641.907 -432.379 640.236 -432.153L631.571 -472.612C632.098 -472.822 632.611 -473.135 633.076 -473.544C635.211 -475.464 635.387 -478.783 633.433 -480.913C631.513 -483.047 628.192 -483.222 626.057 -481.303C625.44 -480.734 625.011 -480.051 624.729 -479.319L586.472 -491.699C586.907 -493.354 586.522 -495.175 585.297 -496.536C584.154 -497.804 582.514 -498.38 580.937 -498.236L572.525 -537.585C573.189 -537.813 573.799 -538.173 574.323 -538.661C576.459 -540.58 576.634 -543.9 574.714 -546.034C572.76 -548.163 569.474 -548.343 567.338 -546.424C566.814 -545.936 566.372 -545.356 566.109 -544.731L527.746 -557.131C528.025 -558.661 527.629 -560.307 526.519 -561.58C524.599 -563.714 521.278 -563.889 519.143 -561.97C517.165 -560.175 516.904 -557.226 518.406 -555.105L488.522 -528.165C486.555 -529.877 483.602 -529.894 481.619 -528.134C479.484 -526.214 479.308 -522.895 481.228 -520.761C482.371 -519.493 483.972 -518.946 485.549 -519.09L493.965 -479.707C493.302 -479.479 492.691 -479.119 492.167 -478.631C490.189 -476.837 489.928 -473.888 491.396 -471.762L461.017 -444.374C459.05 -446.085 456.093 -446.136 454.08 -444.338C451.945 -442.418 451.769 -439.099 453.689 -436.965C454.953 -435.574 456.763 -435.021 458.492 -435.324L466.993 -395.571C466.364 -395.348 465.753 -394.987 465.224 -394.534C463.246 -392.74 462.985 -389.791 464.487 -387.669L434.603 -360.73C432.636 -362.442 429.679 -362.492 427.666 -360.694C425.531 -358.774 425.355 -355.455 427.275 -353.321C428.418 -352.053 430.019 -351.506 431.601 -351.616L440.017 -312.233C439.388 -312.009 438.743 -311.645 438.219 -311.157C436.084 -309.238 435.908 -305.918 437.828 -303.784C439.748 -301.65 443.069 -301.475 445.204 -303.394C445.728 -303.881 446.17 -304.462 446.433 -305.087L484.762 -292.682C484.454 -291.114 484.85 -289.468 485.993 -288.2C487.918 -286.032 491.234 -285.89 493.37 -287.81C495.348 -289.604 495.609 -292.553 494.107 -294.675L524.016 -321.687C525.983 -319.975 528.94 -319.924 530.953 -321.723C531.541 -322.254 531.973 -322.902 532.261 -323.6L570.406 -311.274C569.937 -309.615 570.297 -307.721 571.561 -306.33C572.907 -304.847 574.849 -304.347 576.666 -304.766L585.252 -264.643C584.482 -264.435 583.734 -264.056 583.117 -263.487C581.046 -261.611 580.842 -258.495 582.558 -256.334L552.737 -229.438C550.772 -231.392 547.635 -231.488 545.564 -229.612C543.433 -227.659 543.253 -224.373 545.173 -222.239C546.398 -220.878 548.208 -220.325 549.908 -220.59L558.314 -181.275C557.544 -181.067 556.797 -180.688 556.146 -180.114C554.074 -178.238 553.875 -175.089 555.586 -172.961L525.893 -146.152C523.926 -147.863 520.973 -147.88 518.956 -146.116C516.821 -144.196 516.645 -140.877 518.565 -138.743C519.704 -137.509 521.271 -136.958 522.818 -137.063L531.193 -97.9865C530.529 -97.7581 529.88 -97.4274 529.326 -96.9015C527.191 -94.9821 527.016 -91.6625 528.935 -89.5284C530.889 -87.3989 534.176 -87.219 536.346 -89.143C536.811 -89.5529 537.194 -90.0557 537.466 -90.6128L576.625 -77.9733C576.253 -76.3618 576.634 -74.5746 577.816 -73.2774C578.92 -72.0391 580.522 -71.4923 582.069 -71.5976L590.49 -32.1806C589.861 -31.9568 589.279 -31.6353 588.755 -31.1481C586.62 -29.2287 586.444 -25.9091 588.364 -23.775L554.087 7.12382L563.693 51.9661C562.995 52.1992 562.346 52.5299 561.758 53.0604C559.779 54.8545 559.519 57.8039 560.987 59.9298L531.136 86.8646C529.17 85.1532 526.217 85.1362 524.238 86.9303C523.617 87.4654 523.188 88.1478 522.901 88.8459L483.994 76.2763C484.429 74.6215 484.044 72.8002 482.819 71.4394C481.676 70.1717 480.036 69.5956 478.459 69.7395L470.047 30.3906C470.711 30.1621 471.321 29.802 471.845 29.3148C473.981 27.3954 474.156 24.0758 472.202 21.9463L502.239 -5.15244C504.205 -3.44098 507.163 -3.38996 509.141 -5.18407C511.276 -7.10343 511.452 -10.423 509.528 -12.5912C508.384 -13.859 506.783 -14.4056 505.206 -14.2617L496.799 -53.5765C497.395 -53.7958 497.942 -54.1127 498.47 -54.5658C500.601 -56.5192 500.781 -59.8047 498.823 -61.9683C496.903 -64.1025 493.582 -64.2777 491.447 -62.3584C490.952 -61.9098 490.573 -61.3729 490.302 -60.8158L451.574 -73.3402C452.01 -74.995 451.625 -76.8163 450.399 -78.1771C449.256 -79.4448 447.616 -80.021 446.039 -79.8771L437.628 -119.226C438.291 -119.454 438.902 -119.815 439.426 -120.302C441.405 -122.096 441.665 -125.045 440.197 -127.171L470.449 -154.473C472.416 -152.761 475.407 -152.715 477.386 -154.509C479.521 -156.428 479.697 -159.748 477.777 -161.882C476.552 -163.243 474.775 -163.8 473.11 -163.54L464.779 -202.553C465.306 -202.763 465.785 -203.071 466.25 -203.481C468.419 -205.405 468.561 -208.72 466.641 -210.854C464.721 -212.988 461.4 -213.163 459.265 -211.244C458.834 -210.839 458.48 -210.374 458.199 -209.885L420.233 -222.166C420.635 -223.816 420.284 -225.642 419.063 -226.969C417.143 -229.103 413.822 -229.278 411.687 -227.359C409.708 -225.565 409.414 -222.611 410.915 -220.489L380.35 -192.937C378.384 -194.649 375.426 -194.7 373.448 -192.906C373.076 -192.578 372.781 -192.191 372.559 -191.779L333.54 -204.403C333.726 -205.851 333.344 -207.395 332.244 -208.599C331.101 -209.867 329.461 -210.443 327.888 -210.265L319.477 -249.614C320.106 -249.838 320.717 -250.198 321.28 -250.656C323.415 -252.575 323.591 -255.895 321.632 -258.058L351.512 -285.032C353.478 -283.32 356.431 -283.303 358.448 -285.068C360.584 -286.987 360.759 -290.307 358.839 -292.441C357.778 -293.616 356.352 -294.152 354.893 -294.162L346.298 -334.354C346.752 -334.589 347.24 -334.828 347.642 -335.195C349.777 -337.114 349.953 -340.434 347.999 -342.563C346.079 -344.697 342.758 -344.873 340.623 -342.953C340.035 -342.423 339.632 -341.813 339.34 -341.149L301.34 -353.425C301.492 -354.868 301.08 -356.373 300.057 -357.519C298.137 -359.653 294.816 -359.828 292.681 -357.909C290.703 -356.115 290.412 -353.127 291.948 -351.01L262.838 -324.765C260.871 -326.476 257.914 -326.527 255.901 -324.729C253.771 -322.775 253.59 -319.49 255.51 -317.356C256.528 -316.244 257.891 -315.665 259.282 -315.645L267.961 -275.084C267.264 -274.851 266.58 -274.515 266.027 -273.99C264.2 -272.355 263.825 -269.737 264.938 -267.667L234.902 -240.568C232.956 -241.866 230.295 -241.784 228.473 -240.115C226.338 -238.196 226.162 -234.876 228.082 -232.742C229.225 -231.474 230.865 -230.898 232.442 -231.042L240.858 -191.659C240.195 -191.431 239.584 -191.07 239.026 -190.579C237.047 -188.784 236.753 -185.83 238.288 -183.714L208.375 -156.736C206.408 -158.447 203.451 -158.498 201.472 -156.704C201.007 -156.294 200.658 -155.796 200.377 -155.307L161.722 -167.807C161.967 -169.332 161.575 -170.944 160.471 -172.182C158.551 -174.316 155.23 -174.491 153.095 -172.572C151.175 -170.855 150.857 -168.072 152.15 -165.957L121.991 -138.737C120.024 -140.449 117.072 -140.466 115.054 -138.701C114.496 -138.209 114.088 -137.634 113.826 -137.008L75.496 -149.413C75.775 -150.943 75.3788 -152.589 74.2696 -153.862C72.3155 -155.991 69.0286 -156.171 66.8934 -154.252C64.9148 -152.457 64.6543 -149.508 66.156 -147.387L36.2718 -120.447C34.3049 -122.159 31.3477 -122.21 29.3691 -120.416C27.2385 -118.462 27.0581 -115.177 28.9781 -113.043C30.1214 -111.775 31.7225 -111.228 33.3042 -111.338L41.7202 -71.955C41.091 -71.7312 40.4461 -71.3665 39.922 -70.8792C37.9433 -69.0851 37.6828 -66.1357 39.1845 -64.0144L8.77618 -36.5878C6.80928 -38.2992 3.85684 -38.3162 1.87358 -36.5561C-0.26166 -34.6368 -0.437435 -31.3172 1.4825 -29.1831C2.74649 -27.7929 4.5908 -27.2444 6.3199 -27.5476L14.6511 11.4651C14.056 11.6844 13.4452 12.0445 12.9506 12.4931C10.8153 14.4124 10.6396 17.732 12.5595 19.8662C14.4794 22.0003 17.8004 22.1755 19.9357 20.2562C20.4644 19.803 20.8384 19.232 21.1442 18.6703L59.11 30.9509C58.6108 32.649 58.9664 34.509 60.235 35.9332C62.155 38.0673 65.4759 38.2426 67.6112 36.3233C69.5898 34.5292 69.8503 31.5797 68.3486 29.4585L98.757 2.03182C100.724 3.74324 103.681 3.7943 105.694 1.99559C106.159 1.58573 106.474 1.09211 106.789 0.598502L145.696 13.1681C145.388 14.7363 145.784 16.3826 146.927 17.6504C148.847 19.7845 152.168 19.9598 154.337 18.0358C156.316 16.2417 156.577 13.2922 155.075 11.1709L185.17 -16.0052C187.137 -14.2937 190.094 -14.2427 192.107 -16.0414C192.631 -16.5286 193.073 -17.1088 193.336 -17.7341L231.665 -5.32926C231.391 -3.76564 231.753 -2.11469 232.896 -0.846918C234.816 1.28719 238.137 1.46246 240.272 -0.456906C242.251 -2.25101 242.511 -5.20045 241.01 -7.32177L270.919 -34.3339C272.886 -32.6224 275.843 -32.5714 277.821 -34.3655C278.287 -34.7754 278.67 -35.2782 278.942 -35.8354L317.949 -23.0365C317.675 -21.4729 318.037 -19.822 319.18 -18.5542C321.1 -16.4201 324.421 -16.2448 326.556 -18.1642C328.535 -19.9583 328.83 -22.9123 327.294 -25.0291L357.394 -52.1711C359.361 -50.4596 362.318 -50.4086 364.33 -52.2073C364.854 -52.6945 365.297 -53.2747 365.559 -53.9L403.889 -41.4951C403.614 -39.9315 403.976 -38.2806 405.12 -37.0129C406.345 -35.6521 408.087 -35.0898 409.753 -35.3497L418.432 5.21179C417.803 5.43565 417.192 5.79582 416.663 6.24896C414.685 8.04306 414.39 10.9971 415.892 13.1184L386.042 40.0532C384.075 38.3418 381.122 38.3248 379.105 40.0895C376.97 42.0088 376.794 45.3284 378.714 47.4625C379.857 48.7303 381.458 49.277 383.036 49.133L391.451 88.5159C390.822 88.7398 390.212 89.1 389.653 89.5918C387.675 91.3859 387.38 94.34 388.882 96.4613L358.317 124.013C356.371 122.715 353.714 122.832 351.922 124.462C351.55 124.79 351.255 125.177 350.994 125.559L312.412 113.084C312.476 111.757 312.044 110.358 311.064 109.277C309.144 107.142 305.823 106.967 303.688 108.887C301.861 110.521 301.487 113.139 302.6 115.209L272.563 142.308C270.618 141.01 267.961 141.126 266.134 142.761C265.826 143.046 265.556 143.36 265.32 143.669L225.685 130.851C225.871 129.404 225.489 127.859 224.393 126.689C223.25 125.421 221.649 124.875 220.033 124.989L211.622 85.6405C212.251 85.4166 212.862 85.0564 213.42 84.5646C215.555 82.6452 215.731 79.3256 213.811 77.1915C211.857 75.062 208.57 74.8821 206.435 76.8015C206.063 77.1294 205.768 77.5162 205.541 77.8938L166.959 65.419C167.023 64.0921 166.591 62.6934 165.611 61.6116C163.691 59.4775 160.37 59.3022 158.235 61.2216C156.408 62.8564 156.034 65.4744 157.147 67.5441L127.11 94.6429C125.16 93.3108 122.503 93.4273 120.681 95.0962C118.551 97.0496 118.37 100.335 120.29 102.469C121.434 103.737 123.069 104.279 124.65 104.169L133.066 143.552C132.403 143.781 131.792 144.141 131.234 144.633C129.104 146.586 128.923 149.872 130.843 152.006C132.763 154.14 136.084 154.315 138.219 152.396C138.93 151.745 139.412 150.951 139.681 150.116L177.972 162.492C177.405 164.199 177.74 166.166 179.043 167.586C180.268 168.946 182.044 169.504 183.71 169.244L192.103 208.457C191.405 208.69 190.756 209.02 190.168 209.551C188.033 211.47 187.857 214.79 189.777 216.924C191.697 219.058 195.018 219.233 197.153 217.314C197.925 216.863 198.329 216.253 198.621 215.589ZM218.961 125.273C218.297 125.502 217.687 125.862 217.163 126.349C215.336 127.984 214.961 130.602 216.074 132.671L186.008 159.809C184.063 158.511 181.406 158.627 179.579 160.262C179.207 160.59 178.912 160.977 178.656 161.393L140.108 148.914C140.201 147.548 139.769 146.149 138.79 145.068C137.647 143.8 136.046 143.253 134.464 143.363L126.048 103.98C126.711 103.752 127.322 103.392 127.846 102.904C129.981 100.985 130.157 97.6654 128.237 95.5313L157.994 68.6784C159.948 70.8079 163.235 70.9878 165.37 69.0685C166.115 68.4127 166.559 67.5894 166.857 66.7164L205.148 79.0918C204.581 80.7991 204.916 82.7659 206.223 84.2197C207.367 85.4874 209.006 86.0636 210.584 85.9196L218.961 125.273ZM359.4 124.838L389.804 97.3773C391.771 99.0888 394.723 99.1057 396.741 97.3411C397.269 96.8879 397.643 96.317 397.945 95.7212L436.308 108.121C436.063 109.646 436.455 111.259 437.564 112.531C438.669 113.769 440.27 114.316 441.818 114.211L450.525 154.977C449.964 155.191 449.416 155.508 448.951 155.918C447.311 157.389 446.826 159.709 447.575 161.655L417.26 189C415.399 188.072 413.068 188.283 411.398 189.793C411.118 190.038 410.883 190.348 410.647 190.657L371.337 177.934C371.371 176.646 370.953 175.349 370.012 174.297C368.912 173.093 367.413 172.532 365.895 172.599L357.47 133.148C358.031 132.933 358.578 132.616 359.043 132.206C361.179 130.287 361.325 127.006 359.4 124.838ZM209.295 -155.576L239.175 -182.55C241.142 -180.839 244.099 -180.788 246.111 -182.586C246.665 -183.112 247.102 -183.726 247.394 -184.39L285.685 -172.015C285.343 -170.442 285.748 -168.728 286.896 -167.426C288.078 -166.129 289.747 -165.591 291.359 -165.74L300.785 -121.706L267.223 -91.4241C265.256 -93.1356 262.304 -93.1526 260.291 -91.3538C259.762 -90.9007 259.388 -90.3297 259.087 -89.7339L220.723 -102.134C220.968 -103.659 220.577 -105.271 219.472 -106.51C218.367 -107.748 216.8 -108.299 215.253 -108.194L206.832 -147.611C207.461 -147.835 208.043 -148.156 208.567 -148.643C210.502 -150.501 210.797 -153.455 209.295 -155.576ZM279.474 -36.7747C279.88 -38.3909 279.5 -40.1781 278.274 -41.5388C277.213 -42.7136 275.748 -43.2787 274.294 -43.2554L265.864 -82.7406C266.391 -82.9506 266.874 -83.2242 267.305 -83.6294C269.132 -85.2642 269.507 -87.8821 268.394 -89.952L302.015 -120.311L345.1 -106.364C344.885 -104.878 345.272 -103.299 346.367 -102.129C347.467 -100.925 348.966 -100.364 350.484 -100.431L358.909 -60.9799C358.348 -60.7652 357.801 -60.4484 357.307 -59.9999C355.328 -58.2057 355.067 -55.2563 356.535 -53.1304L326.435 -25.9884C324.468 -27.6998 321.516 -27.7168 319.533 -25.9567C318.974 -25.4649 318.566 -24.8893 318.27 -24.2594L279.474 -36.7747ZM193.727 -18.689C194.035 -20.2572 193.635 -21.9377 192.496 -23.1714C191.353 -24.4392 189.717 -24.9812 188.136 -24.8714L179.72 -64.2543C180.383 -64.4828 180.994 -64.8429 181.552 -65.3347C183.531 -67.1288 183.791 -70.0783 182.29 -72.1996L212.14 -99.1344C214.107 -97.4229 217.059 -97.406 219.076 -99.1706C219.635 -99.6625 220.038 -100.272 220.335 -100.902L258.664 -88.4972C258.356 -86.929 258.752 -85.2825 259.895 -84.0148C261.039 -82.747 262.674 -82.205 264.251 -82.3489L272.662 -43.0001C272.033 -42.7762 271.422 -42.416 270.864 -41.9242C268.885 -40.1301 268.591 -37.1761 270.127 -35.0594L240.218 -8.04723C238.251 -9.75869 235.298 -9.77563 233.281 -8.01097C232.723 -7.51914 232.314 -6.94356 232.018 -6.31365L193.727 -18.689ZM107.287 -0.33625C107.689 -1.98641 107.338 -3.81237 106.117 -5.13902C105.056 -6.31383 103.557 -6.87429 102.102 -6.85102L93.6725 -46.3362C94.2335 -46.5508 94.7466 -46.863 95.2118 -47.2729C97.0385 -48.9077 97.4132 -51.5256 96.3003 -53.5955L126.4 -80.7375C128.346 -79.4395 131.002 -79.556 132.829 -81.1907C133.294 -81.6006 133.614 -82.0602 133.89 -82.5832L172.943 -69.964C172.728 -68.4778 173.115 -66.8995 174.21 -65.7294C175.31 -64.5251 176.809 -63.9646 178.327 -64.0311L186.757 -24.5461C186.196 -24.3314 185.649 -24.0145 185.149 -23.6001C183.171 -21.806 182.876 -18.8519 184.412 -16.7352L154.312 10.4068C152.345 8.6953 149.388 8.64431 147.409 10.4384C146.851 10.9302 146.443 11.5058 146.147 12.1357L107.287 -0.33625ZM7.5267 -27.6068C8.01953 -27.8122 8.46906 -28.0812 8.87068 -28.4478C10.8493 -30.2419 11.1098 -33.1913 9.60812 -35.3126L40.0165 -62.7392C41.9834 -61.0277 44.9405 -60.9767 46.9532 -62.7755C47.4819 -63.2286 47.8559 -63.7996 48.1571 -64.3954L86.5208 -51.9951C86.2418 -50.4656 86.6334 -48.8533 87.7721 -47.6196C88.8767 -46.3813 90.4778 -45.8346 92.0254 -45.9399L100.446 -6.52293C99.8168 -6.29904 99.2355 -5.97759 98.7114 -5.49037C96.7327 -3.69624 96.4381 -0.742246 97.9739 1.37447L67.5656 28.8011C65.5987 27.0896 62.6462 27.0727 60.663 28.8327C60.2614 29.1993 59.9371 29.6247 59.6856 30.0751L21.613 17.7742C21.9556 16.2014 21.5502 14.4869 20.4023 13.1851C19.2203 11.8879 17.5805 11.3117 15.9398 11.4989L7.5267 -27.6068ZM113.503 -135.542C113.195 -133.974 113.591 -132.328 114.734 -131.06C115.878 -129.792 117.517 -129.216 119.095 -129.36L127.506 -90.0112C126.877 -89.7874 126.266 -89.4272 125.742 -88.94C123.763 -87.1459 123.468 -84.1919 124.97 -82.0706L95.0611 -55.0584C93.0943 -56.7698 90.1372 -56.8209 88.1244 -55.0222C87.5662 -54.5304 87.1582 -53.9548 86.8616 -53.3249L48.5319 -65.7297C48.8404 -67.2979 48.4396 -68.9784 47.2963 -70.2461C46.153 -71.5139 44.5178 -72.0559 42.9407 -71.912L34.5248 -111.295C35.188 -111.523 35.8034 -111.849 36.357 -112.375C38.3357 -114.169 38.5962 -117.119 37.0945 -119.24L66.9446 -146.175C68.9115 -144.464 71.8639 -144.447 73.8813 -146.211C74.4395 -146.703 74.843 -147.313 75.1396 -147.943L113.503 -135.542ZM199.977 -153.9C199.541 -152.245 199.922 -150.458 201.147 -149.097C202.209 -147.922 203.707 -147.362 205.196 -147.39L213.626 -107.904C213.065 -107.69 212.552 -107.378 212.087 -106.968C210.26 -105.333 209.885 -102.715 210.998 -100.645L180.962 -73.5465C179.016 -74.8445 176.355 -74.7621 174.567 -73.0978C174.102 -72.688 173.753 -72.1898 173.476 -71.6667L134.424 -84.2859C134.673 -85.7768 134.247 -87.3845 133.147 -88.5887C132.047 -89.7929 130.514 -90.3488 128.996 -90.2822L120.576 -129.699C121.137 -129.914 121.684 -130.231 122.179 -130.679C124.157 -132.473 124.418 -135.423 122.916 -137.544L153.011 -164.72C154.972 -162.8 158.108 -162.704 160.185 -164.546C160.772 -165.076 161.176 -165.686 161.468 -166.35L199.977 -153.9ZM353.664 -293.753C352.894 -293.545 352.113 -293.162 351.461 -292.588C349.483 -290.794 349.222 -287.845 350.69 -285.719L320.683 -258.659C318.733 -259.991 316.081 -259.84 314.254 -258.205C313.916 -257.882 313.617 -257.529 313.39 -257.152L274.769 -269.656C274.833 -270.983 274.376 -272.309 273.435 -273.361C272.33 -274.599 270.763 -275.151 269.25 -275.05L260.584 -315.509C261.427 -315.693 262.242 -316.081 262.923 -316.693C264.902 -318.487 265.162 -321.437 263.661 -323.558L292.771 -349.803C294.738 -348.091 297.69 -348.074 299.669 -349.869C300.32 -350.442 300.778 -351.163 301.056 -351.93L339.022 -339.649C338.777 -338.124 339.169 -336.512 340.273 -335.274C341.537 -333.883 343.382 -333.335 345.111 -333.638L353.664 -293.753ZM326.669 -209.788C326.005 -209.559 325.395 -209.199 324.87 -208.712C323.044 -207.077 322.669 -204.459 323.782 -202.39L293.716 -175.252C291.766 -176.584 289.109 -176.468 287.287 -174.799C286.915 -174.471 286.62 -174.084 286.364 -173.668L247.816 -186.147C247.909 -187.513 247.477 -188.912 246.498 -189.993C245.354 -191.261 243.753 -191.808 242.176 -191.664L233.76 -231.047C234.424 -231.275 235.034 -231.635 235.558 -232.123C237.694 -234.042 237.869 -237.362 235.95 -239.496L265.707 -266.349C267.661 -264.219 270.948 -264.039 273.117 -265.963C273.861 -266.619 274.305 -267.442 274.604 -268.315L312.894 -255.94C312.332 -254.198 312.663 -252.266 313.97 -250.812C315.113 -249.544 316.753 -248.968 318.364 -249.117L326.669 -209.788ZM372.018 -190.388C371.451 -188.681 371.786 -186.714 373.094 -185.26C374.237 -183.992 375.877 -183.416 377.454 -183.56L385.851 -144.314C385.29 -144.099 384.777 -143.787 384.312 -143.377C382.485 -141.742 382.111 -139.124 383.224 -137.054L353.221 -109.96C351.276 -111.258 348.614 -111.176 346.792 -109.507C346.327 -109.097 345.978 -108.599 345.702 -108.076L302.219 -122.143L292.801 -166.108C293.362 -166.323 293.841 -166.631 294.306 -167.04C296.285 -168.835 296.546 -171.784 295.044 -173.905L324.953 -200.917C326.92 -199.206 329.906 -199.194 331.89 -200.954C332.507 -201.523 332.935 -202.205 333.218 -202.937L372.018 -190.388ZM471.968 -163.004C471.441 -162.794 470.928 -162.482 470.462 -162.072C468.484 -160.278 468.189 -157.324 469.691 -155.203L439.439 -127.901C437.472 -129.613 434.52 -129.63 432.541 -127.836C432.012 -127.382 431.604 -126.807 431.337 -126.216L392.974 -138.616C393.218 -140.141 392.827 -141.753 391.722 -142.991C390.618 -144.23 389.051 -144.781 387.503 -144.676L379.096 -183.99C379.589 -184.196 380.068 -184.504 380.504 -184.875C382.483 -186.669 382.743 -189.618 381.237 -191.774L411.768 -219.321C413.734 -217.61 416.726 -217.563 418.704 -219.357C419.169 -219.767 419.484 -220.261 419.799 -220.754L457.765 -208.474C457.33 -206.819 457.715 -204.998 458.945 -203.603C460.17 -202.242 461.98 -201.689 463.646 -201.949L471.968 -163.004ZM444.888 -79.4091C444.258 -79.1852 443.648 -78.825 443.089 -78.3332C441.111 -76.5391 440.816 -73.5851 442.318 -71.4638L412.409 -44.4516C410.442 -46.1631 407.485 -46.2141 405.511 -44.3859C404.953 -43.8941 404.544 -43.3185 404.282 -42.6932L365.952 -55.0981C366.261 -56.6663 365.865 -58.3127 364.721 -59.5804C363.578 -60.8482 361.943 -61.3902 360.361 -61.2804L351.945 -100.663C352.609 -100.892 353.219 -101.252 353.777 -101.744C355.756 -103.538 356.017 -106.487 354.515 -108.609L384.365 -135.543C386.332 -133.832 389.323 -133.785 391.302 -135.58C391.86 -136.071 392.263 -136.681 392.56 -137.311L430.89 -124.906C430.581 -123.338 430.977 -121.692 432.121 -120.424C433.264 -119.156 434.904 -118.58 436.481 -118.724L444.888 -79.4091ZM471.351 21.2982C469.405 20.0002 466.749 20.1167 464.922 21.7515C464.52 22.1181 464.23 22.5389 463.974 22.9552L425.426 10.4758C425.519 9.11019 425.117 7.67286 424.099 6.56162C422.955 5.29385 421.281 4.72231 419.704 4.86625L411.016 -35.7634C411.577 -35.9781 412.09 -36.2903 412.555 -36.7002C414.382 -38.335 414.756 -40.9529 413.643 -43.0227L443.709 -70.1602C445.659 -68.8281 448.316 -68.9446 450.138 -70.6134C450.603 -71.0233 450.923 -71.4828 451.199 -72.0059L489.966 -59.452C489.594 -57.8405 489.969 -56.0873 491.185 -54.7947C492.367 -53.4975 494.076 -52.9306 495.716 -53.1178L504.114 -13.8711C503.45 -13.6426 502.84 -13.2824 502.281 -12.7906C500.303 -10.9965 500.008 -8.0425 501.544 -5.92582L471.351 21.2982ZM477.303 70.1734C476.673 70.3973 476.063 70.7574 475.534 71.2106C473.555 73.0047 473.295 75.9541 474.762 78.08L444.853 105.092C442.886 103.381 439.934 103.364 437.951 105.124C437.392 105.616 436.984 106.191 436.688 106.821L398.358 94.4163C398.667 92.8481 398.27 91.2017 397.127 89.9339C395.984 88.6662 394.349 88.1241 392.772 88.268L384.356 48.8851C385.019 48.6566 385.63 48.2965 386.188 47.8047C388.166 46.0106 388.427 43.0611 386.925 40.9398L416.775 14.005C418.742 15.7165 421.695 15.7334 423.712 13.9688C424.27 13.4769 424.674 12.8673 424.97 12.2374L463.334 24.6376C463.026 26.2058 463.422 27.8522 464.565 29.12C465.708 30.3877 467.348 30.9638 468.925 30.8199L477.303 70.1734ZM522.672 90.2299C522.456 91.7161 522.843 93.2944 523.943 94.4986C525.043 95.7028 526.542 96.2633 528.06 96.1968L536.49 135.682C535.929 135.897 535.382 136.213 534.887 136.662C532.908 138.456 532.648 141.406 534.15 143.527L503.585 171.079C501.634 169.747 498.982 169.897 497.156 171.532C496.817 171.855 496.552 172.203 496.292 172.586L457.671 160.081C457.734 158.754 457.277 157.428 456.337 156.376C455.232 155.138 453.665 154.587 452.152 154.687L443.44 113.887C444.001 113.673 444.514 113.36 444.979 112.95C446.806 111.316 447.18 108.698 446.068 106.628L476.133 79.4905C478.079 80.7885 480.74 80.706 482.562 79.0372C483.028 78.6273 483.347 78.1678 483.623 77.6447L522.672 90.2299ZM700.888 -125.9L670.916 -98.8451C668.949 -100.557 665.996 -100.574 663.979 -98.8089C663.421 -98.317 663.013 -97.7414 662.75 -97.1162L624.42 -109.521C624.7 -111.051 624.299 -112.731 623.194 -113.969C622.051 -115.237 620.45 -115.784 618.872 -115.64L610.269 -155.899C610.659 -156.091 611.075 -156.355 611.447 -156.683C613.18 -158.236 613.578 -160.683 612.684 -162.679L642.94 -189.946C644.858 -188.852 647.335 -189.014 649.069 -190.567C649.534 -190.977 649.883 -191.475 650.159 -191.998L694.006 -177.807L703.433 -133.773C702.804 -133.549 702.227 -133.194 701.698 -132.741C699.681 -130.976 699.382 -128.056 700.888 -125.9ZM524.157 -137.174C524.82 -137.403 525.504 -137.738 526.057 -138.264C528.036 -140.058 528.296 -143.008 526.795 -145.129L556.552 -171.982C558.525 -170.479 561.327 -170.546 563.213 -172.258C563.737 -172.746 564.15 -173.287 564.446 -173.917L602.776 -161.512C602.497 -159.983 602.893 -158.336 604.003 -157.064C605.228 -155.703 606.97 -155.141 608.635 -155.401L617.221 -115.278C616.694 -115.068 616.181 -114.755 615.745 -114.384C613.918 -112.749 613.548 -110.097 614.657 -108.062L584.62 -80.9628C582.675 -82.2608 580.013 -82.1784 578.191 -80.5095C577.697 -80.061 577.347 -79.5628 577.042 -79.001L537.916 -91.6451C538.322 -93.2612 537.937 -95.0826 536.716 -96.4092C535.578 -97.6429 534.011 -98.1942 532.429 -98.0844L524.157 -137.174ZM551.189 -220.867C551.716 -221.077 552.195 -221.385 552.66 -221.795C554.546 -223.507 554.897 -226.295 553.609 -228.376L583.523 -255.354C585.497 -253.852 588.299 -253.919 590.184 -255.631C590.743 -256.123 591.18 -256.737 591.472 -257.401L629.802 -244.996C629.493 -243.428 629.86 -241.743 631.042 -240.445C632.267 -239.085 634.078 -238.532 635.777 -238.796L644.184 -199.481C643.414 -199.273 642.662 -198.929 642.015 -198.321C639.944 -196.445 639.745 -193.295 641.456 -191.168L611.572 -164.228C609.607 -166.183 606.47 -166.279 604.398 -164.403C603.874 -163.916 603.466 -163.34 603.165 -162.744L564.835 -175.149C565.114 -176.679 564.713 -178.359 563.609 -179.597C562.547 -180.772 561.121 -181.308 559.662 -181.319L551.189 -220.867ZM532.702 -324.7C532.917 -326.187 532.53 -327.765 531.426 -329.003C530.326 -330.207 528.793 -330.763 527.275 -330.697L518.82 -370.109C519.381 -370.324 519.928 -370.641 520.423 -371.089C522.402 -372.883 522.662 -375.833 521.16 -377.954L554.845 -408.356L598.29 -394.319C597.918 -392.707 598.298 -390.92 599.48 -389.623C600.503 -388.478 601.968 -387.912 603.427 -387.902L611.861 -348.382C611.334 -348.172 610.855 -347.865 610.419 -347.494C608.593 -345.859 608.223 -343.207 609.331 -341.171L578.893 -313.706C576.926 -315.417 573.969 -315.468 571.99 -313.674C571.555 -313.303 571.235 -312.843 570.984 -312.393L532.702 -324.7ZM432.876 -351.684C433.539 -351.913 434.15 -352.273 434.708 -352.765C436.687 -354.559 436.947 -357.508 435.446 -359.63L465.33 -386.569C467.297 -384.858 470.249 -384.841 472.267 -386.605C472.825 -387.097 473.228 -387.707 473.525 -388.337L511.854 -375.932C511.546 -374.364 511.942 -372.717 513.09 -371.416C514.233 -370.148 515.869 -369.606 517.412 -369.745L525.823 -330.396C525.194 -330.172 524.583 -329.812 524.02 -329.354C522.042 -327.56 521.747 -324.606 523.249 -322.485L493.335 -295.507C491.368 -297.218 488.416 -297.235 486.403 -295.437C485.879 -294.949 485.437 -294.369 485.14 -293.739L446.81 -306.144C447.119 -307.712 446.723 -309.359 445.579 -310.626C444.436 -311.894 442.801 -312.436 441.219 -312.326L432.876 -351.684ZM459.671 -435.588C460.164 -435.793 460.648 -436.067 461.079 -436.472C463.058 -438.266 463.318 -441.216 461.816 -443.337L492.191 -470.759C494.158 -469.048 497.11 -469.031 499.127 -470.795C499.652 -471.283 500.03 -471.82 500.331 -472.415L538.695 -460.015C538.45 -458.49 538.846 -456.844 539.951 -455.606C541.056 -454.367 542.657 -453.821 544.204 -453.926L553.65 -409.756L519.906 -379.276C517.96 -380.574 515.299 -380.492 513.477 -378.823C513.075 -378.456 512.78 -378.069 512.495 -377.614L473.947 -390.094C474.074 -391.464 473.637 -392.897 472.619 -394.008C471.476 -395.276 469.802 -395.847 468.225 -395.703L459.671 -435.588ZM579.689 -497.963C579.06 -497.739 578.449 -497.379 577.925 -496.892C575.947 -495.098 575.686 -492.148 577.154 -490.022L547.245 -463.01C545.278 -464.722 542.325 -464.739 540.308 -462.974C539.75 -462.482 539.342 -461.907 539.045 -461.277L500.715 -473.682C501.024 -475.25 500.628 -476.896 499.484 -478.164C498.341 -479.432 496.706 -479.974 495.124 -479.864L486.708 -519.247C487.372 -519.475 487.982 -519.835 488.54 -520.327C490.519 -522.121 490.78 -525.071 489.278 -527.192L519.128 -554.127C521.095 -552.415 524.052 -552.364 526.065 -554.163C526.623 -554.655 527.026 -555.265 527.323 -555.895L565.653 -543.49C565.344 -541.921 565.74 -540.275 566.884 -539.007C568.027 -537.74 569.662 -537.198 571.244 -537.307L579.689 -497.963ZM638.998 -431.812C638.437 -431.597 637.924 -431.285 637.425 -430.871C635.598 -429.236 635.228 -426.584 636.336 -424.548L606.3 -397.449C604.355 -398.747 601.693 -398.665 599.871 -396.996C599.406 -396.586 599.057 -396.088 598.781 -395.565L555.298 -409.632L545.749 -454.308C546.31 -454.523 546.823 -454.835 547.288 -455.245C549.115 -456.88 549.485 -459.532 548.377 -461.568L578.443 -488.705C580.388 -487.407 583.045 -487.523 584.872 -489.158C585.303 -489.563 585.656 -490.028 585.933 -490.551L624.369 -478.126C624.188 -476.644 624.566 -475.134 625.666 -473.93C626.891 -472.569 628.667 -472.011 630.333 -472.271L638.998 -431.812ZM698.039 -366.873C697.41 -366.65 696.799 -366.289 696.275 -365.802C694.296 -364.008 694.036 -361.059 695.538 -358.937L665.624 -331.959C663.657 -333.671 660.705 -333.688 658.687 -331.923C658.129 -331.431 657.721 -330.855 657.424 -330.226L619.095 -342.63C619.403 -344.199 619.007 -345.845 617.864 -347.113C616.72 -348.381 615.085 -348.923 613.508 -348.779L605.092 -388.162C605.755 -388.39 606.366 -388.75 606.924 -389.242C608.903 -391.036 609.164 -393.986 607.662 -396.107L637.512 -423.042C639.479 -421.33 642.465 -421.318 644.449 -423.078C645.007 -423.57 645.41 -424.179 645.707 -424.809L684.037 -412.405C683.728 -410.836 684.124 -409.19 685.268 -407.922C686.411 -406.654 688.051 -406.078 689.628 -406.222L698.039 -366.873ZM670.961 -283.521C670.434 -283.311 669.921 -282.999 669.456 -282.589C667.477 -280.795 667.217 -277.846 668.718 -275.724L638.124 -248.134C636.146 -249.67 633.343 -249.603 631.424 -247.887C631.056 -247.525 630.762 -247.138 630.505 -246.722L591.924 -259.196C592.016 -260.562 591.584 -261.961 590.6 -263.076C589.539 -264.251 588.074 -264.816 586.59 -264.754L577.968 -305.15C578.358 -305.342 578.74 -305.602 579.082 -305.891C580.909 -307.526 581.284 -310.144 580.171 -312.213L610.609 -339.679C612.576 -337.967 615.533 -337.916 617.545 -339.715C618.074 -340.168 618.448 -340.739 618.749 -341.335L657.113 -328.935C656.834 -327.405 657.226 -325.793 658.364 -324.559C659.469 -323.321 661.075 -322.74 662.618 -322.879L670.961 -283.521ZM716.708 -263.238C716.336 -261.627 716.716 -259.84 717.903 -258.508C718.925 -257.363 720.39 -256.798 721.845 -256.821L730.279 -217.302C729.786 -217.096 729.273 -216.784 728.838 -216.413C727.011 -214.778 726.636 -212.16 727.749 -210.09L694.128 -179.731L650.645 -193.798C650.86 -195.285 650.439 -196.858 649.378 -198.033C648.394 -199.149 647.031 -199.728 645.64 -199.748L637.163 -239.331C637.587 -239.527 638.037 -239.796 638.409 -240.124C640.295 -241.836 640.646 -244.624 639.354 -246.739L670.041 -274.411C671.987 -273.113 674.648 -273.196 676.47 -274.865C676.842 -275.193 677.137 -275.579 677.393 -275.996L716.708 -263.238ZM816.423 -235.788C815.794 -235.564 815.183 -235.204 814.659 -234.717C812.68 -232.923 812.42 -229.973 813.888 -227.847L783.974 -200.869C782.007 -202.581 779.054 -202.598 777.076 -200.804C776.518 -200.312 776.11 -199.736 775.813 -199.106L737.483 -211.511C737.792 -213.079 737.396 -214.726 736.252 -215.994C735.109 -217.261 733.469 -217.837 731.892 -217.694L723.476 -257.076C724.139 -257.305 724.755 -257.631 725.308 -258.157C727.287 -259.951 727.548 -262.9 726.046 -265.022L755.896 -291.957C757.863 -290.245 760.854 -290.199 762.833 -291.993C763.391 -292.485 763.794 -293.094 764.091 -293.724L802.421 -281.319C802.112 -279.751 802.508 -278.105 803.656 -276.803C804.799 -275.535 806.401 -274.988 808.016 -275.103L816.423 -235.788ZM875.615 -170.246C874.952 -170.017 874.375 -169.662 873.851 -169.174C871.872 -167.38 871.612 -164.431 873.08 -162.305L842.95 -135.124C840.983 -136.836 838.031 -136.853 836.048 -135.093C835.587 -134.649 835.204 -134.146 834.928 -133.623L796.491 -146.048C796.707 -147.534 796.29 -149.074 795.224 -150.282C794.163 -151.457 792.659 -152.052 791.175 -151.99L782.585 -192.147C783.146 -192.362 783.659 -192.674 784.124 -193.084C785.951 -194.719 786.321 -197.371 785.208 -199.44L815.274 -226.578C817.22 -225.28 819.881 -225.362 821.703 -227.031C822.168 -227.441 822.488 -227.901 822.764 -228.424L861.637 -215.849C861.329 -214.281 861.725 -212.635 862.873 -211.333C864.016 -210.065 865.656 -209.489 867.233 -209.633L875.615 -170.246ZM755.583 -107.973C756.178 -108.192 756.76 -108.514 757.254 -108.962C759.233 -110.756 759.494 -113.706 757.992 -115.827L787.876 -142.766C789.843 -141.055 792.8 -141.004 794.813 -142.803C795.401 -143.333 795.834 -143.981 796.121 -144.679L834.45 -132.275C834.078 -130.663 834.484 -128.949 835.67 -127.617C836.852 -126.32 838.526 -125.749 840.167 -125.936L848.574 -86.621C847.872 -86.4219 847.227 -86.0572 846.639 -85.5267C844.661 -83.7326 844.4 -80.7831 845.902 -78.6618L815.988 -51.6837C814.021 -53.3952 811.069 -53.4121 809.051 -51.6475C808.557 -51.199 808.144 -50.6575 807.877 -50.0662L769.513 -62.4665C769.758 -63.9914 769.371 -65.5696 768.267 -66.8079C767.162 -68.0462 765.595 -68.5975 764.081 -68.4968L755.583 -107.973ZM710.278 -128.073C710.523 -129.597 710.131 -131.21 709.031 -132.414C707.927 -133.652 706.36 -134.204 704.846 -134.103L695.396 -178.307L728.959 -208.589C730.925 -206.877 733.883 -206.826 735.895 -208.625C736.419 -209.112 736.798 -209.649 737.099 -210.245L775.463 -197.845C775.184 -196.315 775.576 -194.703 776.719 -193.435C777.858 -192.202 779.425 -191.65 780.972 -191.756L789.553 -151.666C788.958 -151.447 788.377 -151.126 787.853 -150.638C786.026 -149.004 785.651 -146.386 786.764 -144.316L756.728 -117.217C754.782 -118.515 752.125 -118.399 750.299 -116.764C749.897 -116.397 749.543 -115.933 749.292 -115.483L710.278 -128.073ZM676.296 -50.3436C675.701 -50.1243 675.119 -49.8029 674.595 -49.3157C672.617 -47.5216 672.356 -44.5721 673.858 -42.4508L643.949 -15.4387C641.982 -17.1501 639.025 -17.2012 637.046 -15.407C636.458 -14.8766 636.055 -14.2669 635.763 -13.6029L597.472 -25.9783C597.815 -27.5512 597.409 -29.2656 596.261 -30.5675C595.079 -31.8647 593.444 -32.4068 591.833 -32.2582L583.422 -71.6071C584.119 -71.8402 584.768 -72.1708 585.322 -72.6967C587.301 -74.4909 587.561 -77.4403 586.059 -79.5616L615.944 -106.501C617.91 -104.79 620.902 -104.743 622.88 -106.537C623.404 -107.024 623.817 -107.566 624.114 -108.196L662.477 -95.7956C662.198 -94.2661 662.595 -92.6197 663.733 -91.386C664.838 -90.1478 666.444 -89.567 667.991 -89.6723L676.296 -50.3436ZM649.51 33.6281C648.983 33.8381 648.47 34.1504 648.004 34.5603C646.026 36.3544 645.765 39.3038 647.233 41.4297L616.981 68.7311C615.014 67.0196 612.062 67.0027 610.083 68.7968C609.554 69.2499 609.146 69.8255 608.879 70.4167L570.515 58.0165C570.76 56.4916 570.369 54.8793 569.264 53.641C568.16 52.4027 566.592 51.8514 565.045 51.9566L555.6 7.78657L589.441 -22.7411C591.387 -21.4431 594.048 -21.5255 595.87 -23.1944C596.242 -23.5222 596.537 -23.909 596.793 -24.3253L635.341 -11.8459C635.248 -10.4803 635.68 -9.08169 636.694 -8.00453C637.837 -6.73676 639.438 -6.19005 641.02 -6.29993L649.51 33.6281ZM543.524 141.496C543.832 139.927 543.431 138.247 542.288 136.979C541.145 135.711 539.51 135.169 537.928 135.279L529.512 95.8963C530.175 95.6678 530.791 95.3418 531.349 94.8499C533.327 93.0558 533.588 90.1064 532.086 87.9851L561.936 61.0503C563.903 62.7618 566.86 62.8128 568.873 61.014C569.431 60.5222 569.835 59.9126 570.131 59.2827L608.461 71.6875C608.152 73.2557 608.549 74.9021 609.692 76.1699C610.835 77.4376 612.475 78.0138 614.052 77.8698L622.463 117.219C621.834 117.443 621.224 117.803 620.695 118.256C618.716 120.05 618.456 122.999 619.923 125.125L590.014 152.137C588.047 150.426 585.095 150.409 583.112 152.169C582.553 152.661 582.145 153.237 581.849 153.866L543.524 141.496ZM430.713 243.556C430.806 242.19 430.374 240.792 429.361 239.714C428.217 238.447 426.616 237.9 425.034 238.01L416.619 198.627C417.282 198.398 417.893 198.038 418.417 197.551C420.552 195.632 420.728 192.312 418.808 190.178L448.565 163.325C450.485 165.459 453.806 165.635 455.975 163.711C456.685 163.059 457.163 162.232 457.428 161.363L495.719 173.739C495.151 175.446 495.487 177.413 496.794 178.866C497.937 180.134 499.577 180.71 501.154 180.566L509.565 219.915C508.902 220.144 508.291 220.504 507.767 220.991C505.941 222.626 505.566 225.244 506.679 227.314L476.613 254.451C474.668 253.153 472.011 253.27 470.184 254.904C469.812 255.232 469.517 255.619 469.261 256.035L430.713 243.556ZM303.537 300.481C304.307 300.273 305.02 299.899 305.672 299.325C307.807 297.406 307.983 294.086 306.063 291.952L335.82 265.099C337.74 267.233 341.061 267.408 343.196 265.489C343.847 264.915 344.271 264.199 344.554 263.467L382.845 275.842C382.409 277.497 382.789 279.284 384.015 280.645C385.076 281.82 386.575 282.38 388.03 282.357L396.459 321.842C395.932 322.052 395.419 322.364 394.988 322.769C393.162 324.404 392.787 327.022 393.9 329.092L363.834 356.229C361.884 354.897 359.227 355.014 357.405 356.683C356.94 357.093 356.591 357.591 356.314 358.114L317.878 345.689C318.059 344.207 317.647 342.702 316.581 341.493C315.356 340.132 313.58 339.574 311.914 339.834L303.537 300.481ZM330.537 216.55C331.064 216.34 331.577 216.027 332.042 215.617C334.021 213.823 334.282 210.874 332.78 208.753L362.694 181.775C364.66 183.486 367.613 183.503 369.63 181.738C370.247 181.169 370.71 180.482 370.958 179.755L409.866 192.324C409.396 193.984 409.786 195.839 411.016 197.234C412.116 198.438 413.649 198.994 415.133 198.932L423.558 238.383C422.963 238.602 422.416 238.919 421.955 239.363C420.128 240.998 419.754 243.616 420.866 245.686L390.83 272.784C388.885 271.486 386.228 271.603 384.401 273.238C383.97 273.643 383.616 274.107 383.365 274.557L344.89 262.103C345.042 260.66 344.634 259.188 343.578 258.048C342.391 256.716 340.683 256.15 339.047 256.371L330.537 216.55ZM285.557 196.545C285.65 195.179 285.218 193.78 284.238 192.699C283.095 191.431 281.494 190.884 279.917 191.028L271.501 151.645C272.13 151.421 272.78 151.091 273.304 150.603C275.439 148.684 275.615 145.364 273.661 143.235L303.418 116.382C305.338 118.516 308.659 118.691 310.828 116.767C311.538 116.116 312.016 115.288 312.281 114.42L350.571 126.795C350.004 128.503 350.34 130.47 351.647 131.923C352.79 133.191 354.43 133.767 356.007 133.623L364.418 172.972C363.789 173.196 363.178 173.556 362.62 174.048C360.794 175.683 360.419 178.301 361.536 180.405L331.437 207.547C329.486 206.215 326.834 206.365 325.008 208C324.635 208.328 324.341 208.715 324.085 209.131L285.557 196.545ZM198.975 214.362C199.22 212.837 198.829 211.224 197.724 209.986C196.619 208.748 195.052 208.196 193.505 208.302L185.093 168.953C185.62 168.743 186.133 168.431 186.599 168.021C188.577 166.227 188.838 163.277 187.336 161.156L217.245 134.144C219.212 135.855 222.169 135.906 224.182 134.107C224.799 133.538 225.227 132.856 225.544 132.119L264.888 144.838C264.223 146.593 264.538 148.667 265.884 150.15C266.946 151.325 268.372 151.86 269.831 151.871L278.299 191.386C277.772 191.596 277.293 191.903 276.828 192.313C275.188 193.784 274.703 196.105 275.452 198.05L245.632 224.946C243.665 223.235 240.712 223.218 238.695 224.983C238.141 225.508 237.704 226.123 237.412 226.787L198.975 214.362Z" fill="url(#paint0_linear_778_24355)"/>
<defs>
<linearGradient id="paint0_linear_778_24355" x1="1513.24" y1="-252.066" x2="40.8759" y2="-35.0159" gradientUnits="userSpaceOnUse">
<stop stop-color="white"/>
<stop offset="1" stop-color="#D6E5FD"/>
</linearGradient>
</defs>
</svg>
