<svg width="104" height="80" viewBox="0 0 104 80" fill="none" xmlns="http://www.w3.org/2000/svg">
<path d="M87.3723 16.205C86.391 16.4942 85.4822 16.6114 84.5456 17.0028C78.0184 19.7389 71.5728 22.7528 65.209 26.0443C65.1615 26.0687 65.1234 26.108 65.1005 26.1561C65.0775 26.2042 65.071 26.2586 65.0819 26.3109C65.5834 28.6558 64.5621 29.7661 62.7008 30.934C62.655 30.9637 62.6164 31.0031 62.5877 31.0493C62.559 31.0955 62.541 31.1474 62.535 31.2012C61.7191 39.3742 61.6858 47.5508 62.4354 55.7311C62.4472 55.8525 62.5083 55.9375 62.6187 55.9859C68.3177 58.4167 63.8403 66.4711 58.7986 62.8421C58.7015 62.7707 58.5988 62.7599 58.4908 62.8096C50.9672 66.1803 43.8451 70.2463 37.1244 75.0076C37.0855 75.0345 37.0549 75.0718 37.0358 75.1154C37.0168 75.159 37.01 75.2071 37.0163 75.2546C37.8127 81.4066 28.4795 81.4315 29.1576 75.2139C29.1705 75.094 29.1279 74.9993 29.0297 74.9299C22.3444 70.222 15.2796 66.1762 7.83499 62.7925C7.72577 62.7421 7.62558 62.7581 7.53448 62.8405C2.29189 67.5498 -2.79279 58.4597 3.36615 56.3348C3.42995 56.3118 3.48594 56.2713 3.52773 56.2177C3.56952 56.1642 3.59543 56.0998 3.60248 56.0319C4.39734 47.7092 4.35916 39.3857 3.48794 31.0613C3.47664 30.9478 3.41979 30.8666 3.31743 30.8177C-2.3393 28.0675 2.54847 20.4333 7.32809 24.0906C7.41832 24.1605 7.51484 24.173 7.61767 24.1279C15.1516 20.8014 22.2487 16.721 28.9092 11.8867C28.9515 11.8554 28.9848 11.8138 29.0056 11.7661C29.0264 11.7184 29.034 11.6663 29.0276 11.6151C28.2231 5.42394 37.599 5.6377 36.8728 11.3997C36.865 11.4653 36.8753 11.5319 36.9028 11.5923C36.9303 11.6526 36.9738 11.7043 37.0287 11.7418C43.6132 16.2514 50.4769 20.2422 57.6197 23.714C58.1626 23.9779 58.3156 24.3183 58.9501 23.9512C60.9658 22.7795 62.7898 23.0889 64.4219 24.8793C64.4948 24.957 64.5816 24.9753 64.6822 24.9341C71.5383 22.0363 78.2515 18.8383 84.8218 15.34C85.3768 15.044 85.8542 14.6562 86.2541 14.1765C86.3299 14.0853 86.3717 13.9795 86.3796 13.8593C86.5291 11.7197 86.5159 9.58033 86.3399 7.44123C86.3314 7.33186 86.2882 7.23816 86.2103 7.1601C85.4525 6.3635 85.0792 5.22724 86.5389 4.90104C86.643 4.87663 86.7522 4.88497 86.8516 4.92493L87.358 5.12562C87.4725 5.17133 87.5858 5.168 87.698 5.11561C89.6201 4.20822 91.4554 3.15393 93.2039 1.95277C93.2678 1.90762 93.3193 1.84723 93.3538 1.77708C93.3883 1.70692 93.4046 1.62923 93.4013 1.55101C93.3442 0.0930758 95.188 -0.206283 95.6416 1.21696C95.9949 2.31489 100.345 4.43321 101.513 5.09945C101.614 5.15685 101.73 5.18576 101.846 5.18307C101.963 5.18039 102.076 5.14625 102.174 5.08424C103.27 4.39107 104.497 6.16515 102.99 7.19782C102.956 7.22032 102.928 7.25099 102.908 7.28707C102.889 7.32315 102.878 7.36352 102.878 7.40458L102.858 13.9065C102.859 14.0243 102.911 14.1151 103.012 14.1788C104.037 14.8124 104.213 15.9305 102.944 16.4585C102.855 16.4977 102.754 16.502 102.661 16.4706L101.827 16.1916C101.777 16.1749 101.724 16.1684 101.671 16.1725C101.618 16.1765 101.565 16.1911 101.517 16.2154C100.338 16.8158 98.5891 17.8255 96.2693 19.2444C95.9884 19.4159 95.829 19.6167 95.7908 19.8468C95.5279 21.46 93.653 21.2676 93.5395 19.7543C93.5296 19.6339 93.4765 19.5396 93.3803 19.4713C91.602 18.2179 89.7249 17.138 87.7489 16.2314C87.6308 16.1782 87.4973 16.1689 87.3723 16.205ZM87.2955 14.4951C87.4901 14.7347 87.691 15.1054 87.8981 15.6071C87.9152 15.6466 87.9446 15.6797 87.982 15.7013L93.5545 18.9301C93.6582 18.9899 93.7663 19.0001 93.8787 18.9606L94.5566 18.7178C94.663 18.6799 94.7673 18.6879 94.8693 18.7417C95.2274 18.9332 95.6251 18.9208 96.0623 18.7047C98.1525 17.6702 99.9263 16.6339 101.384 15.5957C101.426 15.5668 101.459 15.5268 101.48 15.4802C101.501 15.4336 101.508 15.3821 101.502 15.3314C101.437 14.7951 101.65 14.4403 102.139 14.2669C102.184 14.2515 102.222 14.2239 102.251 14.1875C102.279 14.151 102.296 14.1073 102.3 14.0617C102.478 11.8645 102.472 9.66726 102.284 7.47C102.273 7.33377 102.214 7.22321 102.106 7.13838C101.715 6.82616 101.497 6.41733 101.451 5.91186C101.441 5.79153 101.382 5.70031 101.275 5.63821L95.5996 2.38082C95.5563 2.35573 95.5077 2.34157 95.4579 2.33951C95.4082 2.33745 95.3589 2.34757 95.3144 2.36902C94.8357 2.59944 94.3543 2.61946 93.8701 2.42906C93.7488 2.38194 93.629 2.38536 93.5107 2.43935C91.5485 3.35414 89.6807 4.42916 87.9074 5.66439C87.8632 5.6962 87.8276 5.73853 87.804 5.78759C87.7803 5.83665 87.7694 5.89088 87.7721 5.94535C87.7999 6.42495 87.6041 6.7907 87.1846 7.04261C87.0705 7.1117 87.0081 7.2132 86.9974 7.34709C86.8846 8.68019 86.5167 13.5488 87.2955 14.4951ZM6.32493 56.6257C7.70183 57.3723 8.42592 58.5111 8.49716 60.0421C8.49989 60.0998 8.51571 60.1563 8.54342 60.2073C8.57114 60.2584 8.61002 60.3027 8.65724 60.337C15.4183 65.1752 22.5663 69.3543 30.1012 72.8743C30.1806 72.9108 30.268 72.926 30.3547 72.9184C30.4413 72.9108 30.5242 72.8806 30.5949 72.8308C32.2728 71.65 33.9713 71.6666 35.6903 72.8807C35.782 72.9438 35.8782 72.9523 35.9791 72.9061C43.4604 69.5288 50.5299 65.4452 57.1878 60.6553C57.2387 60.6195 57.2792 60.571 57.3049 60.5147C57.3307 60.4584 57.3408 60.3963 57.3344 60.3349C57.1459 58.2574 58.0092 56.8176 59.9242 56.0156C59.982 55.9916 60.0321 55.9521 60.0689 55.9012C60.1057 55.8504 60.1278 55.7902 60.1328 55.7273C60.8293 47.544 60.7536 39.3631 59.9057 31.1846C59.8936 31.0681 59.8354 30.9848 59.7311 30.9348C57.9325 30.067 57.1057 28.6715 57.2507 26.7483C57.2603 26.6163 57.2112 26.5128 57.1034 26.4378C50.2951 21.7481 43.1549 17.6308 35.6829 14.086C35.6222 14.0566 35.5546 14.0444 35.4873 14.0507C35.4201 14.0569 35.3557 14.0815 35.3013 14.1216C34.0632 15.0241 32.718 15.163 31.2656 14.5384C30.8617 14.3663 30.4772 13.7814 29.906 14.0323C22.5531 17.2494 15.5162 21.3009 8.79515 26.1868C8.71536 26.2452 8.68112 26.3222 8.69246 26.4179C8.92797 28.4717 8.10681 29.9472 6.22897 30.8445C6.12172 30.8972 6.06222 30.9825 6.05044 31.1005C5.20873 39.4954 5.22534 47.8918 6.10026 56.2897C6.11532 56.441 6.1902 56.553 6.32493 56.6257Z" fill="#FAFCFF"/>
</svg>
