<svg width="862" height="242" viewBox="0 0 862 242" fill="none" xmlns="http://www.w3.org/2000/svg">
<path opacity="0.8" d="M72.9253 34.5884L100.853 63.2545C99.9343 64.4762 99.5327 66.0682 99.9395 67.6302C100.635 70.3847 103.461 72.0715 106.216 71.3773C108.776 70.7204 110.366 68.259 110.031 65.7089L148.238 56.001C148.275 56.1959 148.269 56.411 148.338 56.6175C149.033 59.372 151.859 61.0588 154.646 60.3763C155.569 60.1342 156.358 59.6622 156.99 59.0241L184.761 87.5243C183.476 88.7567 182.861 90.6332 183.346 92.4773C183.79 94.2341 185.056 95.5306 186.666 96.0838L175.74 134.837C175.118 134.754 174.493 134.779 173.853 134.943C171.499 135.531 169.95 137.681 169.981 139.975L131.178 149.827C130.086 147.76 127.695 146.667 125.341 147.255C122.586 147.949 120.899 150.774 121.594 153.528C121.981 155.047 123.002 156.218 124.318 156.88L113.498 195.346C112.94 195.287 112.346 195.323 111.75 195.467C108.963 196.15 107.308 198.986 108.004 201.74C108.731 204.507 111.525 206.182 114.312 205.499C115.115 205.286 115.805 204.886 116.39 204.376L144.193 232.888C143.091 234.115 142.588 235.887 143.012 237.6C143.707 240.355 146.533 242.041 149.32 241.359C152.075 240.665 153.762 237.84 153.066 235.086L191.599 225.28C192.294 228.034 195.12 229.721 197.907 229.039C200.663 228.344 202.349 225.52 201.622 222.754C201.178 220.997 199.88 219.689 198.271 219.135L209.064 180.841C209.834 181.014 210.631 181.016 211.434 180.803C214.189 180.109 215.876 177.284 215.181 174.53L253.67 164.744C254.397 167.51 257.191 169.185 259.946 168.491C260.868 168.249 261.657 167.777 262.29 167.139L290.092 195.651C288.807 196.883 288.193 198.76 288.678 200.604C289.373 203.358 292.199 205.045 294.986 204.363C297.741 203.668 299.428 200.844 298.712 198.046L337.233 188.272C337.96 191.038 340.754 192.713 343.541 192.031C346.297 191.336 347.983 188.512 347.288 185.757C346.873 184.12 345.692 182.89 344.256 182.256L355.062 143.93C355.716 144.024 356.417 143.991 357.121 143.85C359.876 143.156 361.562 140.332 360.867 137.577L400.191 127.59C401.122 129.996 403.719 131.418 406.279 130.761C406.963 130.576 407.618 130.273 408.137 129.847L435.96 158.402C435.009 159.612 434.552 161.256 434.968 162.894C435.663 165.648 438.489 167.335 441.276 166.653C443.836 165.996 445.426 163.534 445.091 160.984L483.731 151.181C484.662 153.588 487.259 155.009 489.82 154.353C492.575 153.658 494.261 150.834 493.566 148.079C493.151 146.442 491.981 145.18 490.503 144.566L501.308 106.24C501.994 106.346 502.695 106.313 503.378 106.129C505.939 105.472 507.529 103.01 507.194 100.46L546.279 90.5306C547.21 92.9368 549.807 94.3585 552.367 93.7017C555.155 93.0192 556.809 90.1829 556.114 87.4284C555.67 85.6716 554.372 84.3634 552.795 83.8219L563.711 44.9931C564.397 45.0993 565.098 45.066 565.814 44.8933C568.374 44.2365 569.964 41.7751 569.629 39.2249L608.281 29.3901C609.212 31.7963 611.789 33.1744 614.369 32.5612C617.136 31.8351 618.811 29.0425 618.096 26.2443C617.66 24.5631 616.459 23.29 614.968 22.7081L625.773 -15.6182C626.491 -15.5003 627.213 -15.4899 627.94 -15.6946C630.5 -16.3514 632.09 -18.8128 631.755 -21.363L670.482 -31.2062C671.414 -28.8001 673.979 -27.3901 676.571 -28.0353C677.33 -28.2283 677.965 -28.5756 678.539 -29.0539L706.707 -0.154628C705.53 1.08102 704.971 2.90526 705.403 4.69403C705.839 6.37527 707.04 7.64838 708.531 8.2303L697.725 46.5565C697.007 46.4386 696.254 46.4165 695.527 46.6212C692.772 47.3154 691.085 50.1399 691.78 52.8944C692.476 55.6489 695.302 57.3356 698.089 56.6532C698.848 56.4602 699.483 56.1128 700.057 55.6345L727.859 84.1463C726.79 85.3851 726.353 87.073 726.789 88.7542C727.484 91.5087 730.31 93.1954 733.065 92.5013C735.625 91.8444 737.215 89.383 736.88 86.8328L775.532 76.9981C776.463 79.4043 779.028 80.8143 781.62 80.1692C784.387 79.4431 786.062 76.6504 785.379 73.864C784.983 72.27 783.866 71.064 782.463 70.4416L793.292 32.0514C793.914 32.1343 794.571 32.1213 795.211 31.9571C797.772 31.3003 799.361 28.8388 799.026 26.2886L837.949 16.4081C838.88 18.8143 841.489 20.204 844.037 19.5791C846.792 18.8849 848.479 16.0604 847.784 13.3059C847.368 11.6683 846.199 10.4069 844.752 9.80475L855.557 -28.5215C856.211 -28.427 856.944 -28.4485 857.628 -28.633C860.383 -29.3272 862.07 -32.1518 861.375 -34.9062C860.679 -37.6607 857.853 -39.3475 855.098 -38.6533C854.382 -38.4806 853.759 -38.1652 853.241 -37.739L825.105 -66.6265C826.25 -67.8739 826.754 -69.646 826.309 -71.4028C825.894 -73.0404 824.725 -74.3018 823.246 -74.9157L834.051 -113.242C834.737 -113.136 835.438 -113.169 836.122 -113.353C838.877 -114.048 840.564 -116.872 839.868 -119.627C839.173 -122.381 836.347 -124.068 833.592 -123.374C832.908 -123.189 832.253 -122.886 831.735 -122.459L803.88 -151.026C804.83 -152.236 805.244 -153.861 804.86 -155.486C804.165 -158.241 801.339 -159.928 798.552 -159.245C795.992 -158.588 794.402 -156.127 794.737 -153.577L756.172 -143.782C755.241 -146.189 752.676 -147.599 750.116 -146.942C749.476 -146.778 748.94 -146.503 748.445 -146.14L719.963 -175.372C721.248 -176.604 721.863 -178.481 721.378 -180.325C720.934 -182.082 719.637 -183.39 718.059 -183.931L728.817 -222.13C729.535 -222.012 730.256 -222.002 730.984 -222.206C733.544 -222.863 735.134 -225.324 734.831 -227.863L773.482 -237.698C774.414 -235.291 776.979 -233.881 779.571 -234.527C782.326 -235.221 784.013 -238.045 783.329 -240.832C782.914 -242.469 781.733 -243.699 780.286 -244.301L791.091 -282.627C791.777 -282.521 792.478 -282.554 793.162 -282.739C795.917 -283.433 797.604 -286.257 796.908 -289.012C796.181 -291.778 793.387 -293.453 790.6 -292.771C789.916 -292.586 789.261 -292.283 788.743 -291.856L760.888 -320.423C761.838 -321.633 762.264 -323.289 761.836 -324.895C761.38 -326.62 760.115 -327.917 758.549 -328.49L769.644 -367.906C770.203 -367.846 770.796 -367.883 771.392 -368.027C774.148 -368.721 775.834 -371.545 775.107 -374.312C774.412 -377.066 771.586 -378.753 768.831 -378.059C768.028 -377.845 767.338 -377.446 766.752 -376.935L738.981 -405.436C740.127 -406.683 740.63 -408.455 740.186 -410.212C739.771 -411.849 738.601 -413.111 737.155 -413.713L747.96 -452.039C748.646 -451.933 749.347 -451.966 750.03 -452.151C752.786 -452.845 754.472 -455.669 753.777 -458.424C753.05 -461.19 750.256 -462.865 747.501 -462.171C746.817 -461.986 746.162 -461.683 745.643 -461.257L717.789 -489.824C718.739 -491.034 719.152 -492.658 718.769 -494.284C718.074 -497.038 715.248 -498.725 712.493 -498.031C709.932 -497.374 708.342 -494.913 708.677 -492.362L670.081 -482.58C669.15 -484.986 666.573 -486.364 664.024 -485.739C661.269 -485.045 659.583 -482.22 660.278 -479.466C660.693 -477.828 661.842 -476.611 663.289 -476.008L652.472 -437.65C651.786 -437.756 651.085 -437.723 650.402 -437.539C647.841 -436.882 646.251 -434.42 646.555 -431.882L607.318 -421.935C606.387 -424.341 603.822 -425.751 601.23 -425.106C598.474 -424.412 596.788 -421.588 597.483 -418.833C597.948 -417.033 599.277 -415.713 600.93 -415.18L590.016 -376.458C589.362 -376.553 588.662 -376.52 587.989 -376.367C585.429 -375.71 583.839 -373.249 584.174 -370.699L545.578 -360.916C544.647 -363.323 542.082 -364.732 539.489 -364.087C536.734 -363.393 535.048 -360.569 535.743 -357.814C536.158 -356.176 537.307 -354.959 538.743 -354.325L527.926 -315.966C527.272 -316.061 526.539 -316.039 525.855 -315.855C523.1 -315.161 521.413 -312.336 522.108 -309.582C522.804 -306.827 525.63 -305.14 528.385 -305.835C529.069 -306.019 529.723 -306.323 530.242 -306.749L558.065 -278.194C557.071 -276.963 556.657 -275.339 557.073 -273.702C557.756 -270.915 560.594 -269.26 563.349 -269.955C565.909 -270.611 567.499 -273.073 567.164 -275.623L605.816 -285.458C606.748 -283.052 609.312 -281.642 611.905 -282.287C612.664 -282.48 613.342 -282.847 613.916 -283.326L641.614 -254.925C640.437 -253.689 639.878 -251.865 640.342 -250.064C640.836 -248.144 642.304 -246.81 644.089 -246.338L633.079 -207.253C632.308 -207.426 631.48 -207.44 630.677 -207.227C627.997 -206.541 626.381 -203.908 626.884 -201.224L588.363 -191.45C587.546 -194.068 584.844 -195.6 582.165 -194.915C579.398 -194.189 577.723 -191.396 578.418 -188.642C578.863 -186.885 580.192 -185.565 581.802 -185.012L571.008 -146.717C570.238 -146.891 569.409 -146.904 568.574 -146.703C565.894 -146.017 564.266 -143.352 564.781 -140.7L526.412 -130.943C525.481 -133.349 522.904 -134.727 520.323 -134.114C517.568 -133.42 515.882 -130.595 516.577 -127.841C517.004 -126.235 518.121 -125.029 519.524 -124.407L508.813 -86.3361C508.127 -86.4424 507.405 -86.4527 506.678 -86.248C503.923 -85.5538 502.236 -82.7293 502.931 -79.9748C503.659 -77.2086 506.453 -75.5336 509.24 -76.2161C509.836 -76.36 510.404 -76.6232 510.899 -76.9854L539.34 -47.8414C538.27 -46.6026 537.778 -44.8625 538.214 -43.1813C538.609 -41.5874 539.758 -40.3695 541.161 -39.7471L530.333 -1.35699C529.679 -1.45152 529.021 -1.43853 528.338 -1.25406C525.582 -0.559876 523.896 2.26469 524.591 5.01918L480.321 16.2391L468.025 59.9252C467.307 59.8073 466.586 59.7969 465.826 59.9899C463.266 60.6467 461.676 63.1082 461.979 65.6466L423.415 75.4409C422.484 73.0347 419.907 71.6566 417.347 72.3134C416.555 72.4947 415.865 72.8943 415.292 73.3726L387.039 44.4063C388.184 43.159 388.688 41.3869 388.244 39.6301C387.829 37.9925 386.659 36.7311 385.212 36.1289L396.018 -2.19733C396.704 -2.09111 397.405 -2.12437 398.088 -2.30885C400.843 -3.00304 402.53 -5.82756 401.803 -8.59375L440.606 -18.4456C441.537 -16.0394 444.102 -14.6294 446.662 -15.2862C449.418 -15.9804 451.104 -18.8049 450.421 -21.5914C450.005 -23.229 448.856 -24.4467 447.409 -25.0489L458.203 -63.3432C458.825 -63.2604 459.45 -63.2851 460.122 -63.4376C462.889 -64.1638 464.564 -66.9563 463.849 -69.7545C463.153 -72.5089 460.327 -74.1957 457.572 -73.5015C456.932 -73.3373 456.353 -73.0421 455.858 -72.6799L427.742 -101.524C428.887 -102.771 429.391 -104.543 428.947 -106.3C428.531 -107.938 427.362 -109.199 425.915 -109.801L436.72 -148.127C437.406 -148.021 438.107 -148.054 438.791 -148.239C441.351 -148.896 442.941 -151.357 442.638 -153.896L481.723 -163.825C482.655 -161.419 485.251 -159.997 487.812 -160.654C490.567 -161.348 492.253 -164.173 491.558 -166.927C491.114 -168.684 489.817 -169.992 488.239 -170.534L498.959 -208.529C499.517 -208.47 500.079 -208.518 500.675 -208.662C503.462 -209.344 505.117 -212.18 504.422 -214.935C503.727 -217.689 500.9 -219.376 498.145 -218.682C497.581 -218.526 497.057 -218.283 496.585 -217.985L469.023 -246.264C470.137 -247.523 470.672 -249.283 470.217 -251.008C469.521 -253.762 466.695 -255.449 463.94 -254.755C461.38 -254.098 459.758 -251.648 460.093 -249.098L420.618 -239.094C419.687 -241.5 417.122 -242.91 414.562 -242.253C414.084 -242.138 413.648 -241.936 413.263 -241.678L384.938 -270.743C385.77 -271.924 386.148 -273.452 385.741 -275.014C385.326 -276.652 384.156 -277.913 382.698 -278.484L393.503 -316.81C394.157 -316.715 394.858 -316.749 395.562 -316.889C398.317 -317.584 400.004 -320.408 399.288 -323.206L437.896 -333.021C438.828 -330.615 441.404 -329.237 443.985 -329.85C446.74 -330.544 448.426 -333.368 447.731 -336.123C447.345 -337.641 446.344 -338.769 445.072 -339.452L456.105 -378.6C456.611 -378.596 457.149 -378.58 457.67 -378.716C460.425 -379.41 462.112 -382.234 461.385 -385.001C460.689 -387.755 457.863 -389.442 455.108 -388.748C454.349 -388.555 453.714 -388.207 453.152 -387.761L425.558 -416.051C426.358 -417.244 426.692 -418.752 426.326 -420.227C425.631 -422.981 422.805 -424.668 420.049 -423.974C417.489 -423.317 415.856 -420.835 416.223 -418.273L378.624 -408.742C377.693 -411.148 375.128 -412.558 372.536 -411.913C369.769 -411.186 368.094 -408.394 368.789 -405.639C369.167 -404.197 370.092 -403.061 371.301 -402.401L360.17 -362.89C359.452 -363.007 358.699 -363.03 357.972 -362.825C355.618 -362.237 354.081 -360.119 354.1 -357.793L315.297 -347.941C314.193 -349.976 311.825 -351.133 309.46 -350.513C306.705 -349.819 305.018 -346.994 305.713 -344.24C306.129 -342.602 307.298 -341.341 308.745 -340.739L297.928 -302.38C297.242 -302.487 296.541 -302.453 295.825 -302.281C293.265 -301.624 291.643 -299.174 292.01 -296.612L253.37 -286.809C252.439 -289.216 249.874 -290.626 247.314 -289.969C246.717 -289.825 246.182 -289.55 245.71 -289.252L217.646 -318.04C218.565 -319.262 218.966 -320.854 218.571 -322.448C217.876 -325.202 215.05 -326.889 212.295 -326.195C209.822 -325.579 208.258 -323.289 208.413 -320.841L169.447 -310.94C168.516 -313.346 165.94 -314.724 163.359 -314.111C162.643 -313.938 162.02 -313.623 161.502 -313.196L133.679 -341.752C134.629 -342.962 135.043 -344.586 134.659 -346.212C133.932 -348.978 131.138 -350.653 128.383 -349.959C125.822 -349.302 124.233 -346.841 124.568 -344.29L85.9713 -334.508C85.0398 -336.914 82.475 -338.324 79.9147 -337.667C77.1478 -336.941 75.473 -334.148 76.1682 -331.394C76.5836 -329.756 77.7326 -328.539 79.1678 -327.905L68.3508 -289.546C67.6968 -289.641 66.9639 -289.619 66.2802 -289.435C63.7198 -288.778 62.1301 -286.317 62.4651 -283.766L23.185 -273.799C22.2535 -276.206 19.677 -277.584 17.1284 -276.959C14.3732 -276.265 12.6866 -273.44 13.3819 -270.686C13.8464 -268.885 15.2075 -267.553 16.861 -267.021L6.14069 -229.026C5.51857 -229.108 4.8177 -229.075 4.17761 -228.911C1.42241 -228.217 -0.264152 -225.392 0.431048 -222.638C1.12625 -219.883 3.95222 -218.196 6.70743 -218.891C7.37948 -219.043 7.97046 -219.37 8.49751 -219.721L36.0594 -191.442C34.8384 -190.186 34.2909 -188.394 34.7438 -186.562C35.439 -183.807 38.2649 -182.12 41.0202 -182.814C43.5805 -183.471 45.1702 -185.933 44.8352 -188.483L84.1153 -198.45C85.0468 -196.044 87.6116 -194.634 90.2039 -195.279C90.8003 -195.423 91.304 -195.709 91.8076 -195.996L120.06 -167.03C119.066 -165.799 118.653 -164.175 119.068 -162.538C119.763 -159.783 122.589 -158.097 125.376 -158.779C127.937 -159.436 129.527 -161.897 129.192 -164.448L168.082 -174.34C169.013 -171.934 171.578 -170.524 174.17 -171.169C174.854 -171.353 175.509 -171.657 176.028 -172.083L203.851 -143.528C202.888 -142.286 202.443 -140.673 202.859 -139.036C203.554 -136.281 206.38 -134.595 209.135 -135.289C211.695 -135.946 213.285 -138.407 212.95 -140.957L251.602 -150.792C252.533 -148.386 255.098 -146.976 257.658 -147.633C258.255 -147.777 258.822 -148.04 259.317 -148.402L287.552 -119.189C286.59 -117.947 286.144 -116.334 286.56 -114.697C287.255 -111.942 290.081 -110.256 292.836 -110.95C295.397 -111.607 297.018 -114.056 296.651 -116.618L335.53 -126.479C336.461 -124.072 339.026 -122.662 341.619 -123.307C342.302 -123.492 342.957 -123.796 343.476 -124.222L371.299 -95.6663C370.336 -94.4244 369.891 -92.8121 370.307 -91.1745C370.751 -89.4177 372.016 -88.1211 373.594 -87.5797L362.463 -48.0681C361.809 -48.1627 361.109 -48.1294 360.436 -47.9769C357.876 -47.3201 356.254 -44.8704 356.589 -42.3202L318.025 -32.526C317.094 -34.9322 314.517 -36.3102 311.936 -35.697C309.181 -35.0028 307.495 -32.1783 308.19 -29.4238C308.605 -27.7863 309.754 -26.5685 311.201 -25.9663L300.384 12.3919C299.73 12.2974 299.029 12.3306 298.314 12.5034C295.753 13.1602 294.132 15.6099 294.467 18.1601L254.992 28.1644C253.888 26.1299 251.508 25.0052 249.187 25.6045C248.71 25.7197 248.273 25.9221 247.868 26.1363L219.857 -2.59687C220.525 -3.72904 220.792 -5.15283 220.435 -6.55189C219.74 -9.30637 216.914 -10.9931 214.158 -10.2989C211.805 -9.71138 210.268 -7.59286 210.286 -5.26727L171.483 4.58455C170.38 2.55003 168 1.42535 165.647 2.0129C165.245 2.11954 164.864 2.26981 164.515 2.43179L135.74 -27.088C136.571 -28.2692 136.949 -29.7974 136.531 -31.3274C136.115 -32.965 134.966 -34.1828 133.499 -34.8286L144.304 -73.1548C144.958 -73.0603 145.659 -73.0936 146.375 -73.2663C149.13 -73.9605 150.817 -76.785 150.121 -79.5395C149.394 -82.3057 146.6 -83.9808 143.845 -83.2866C143.368 -83.1715 142.931 -82.969 142.559 -82.7431L114.547 -111.476C115.215 -112.608 115.483 -114.032 115.125 -115.431C114.43 -118.186 111.604 -119.873 108.849 -119.178C106.495 -118.591 104.958 -116.472 104.977 -114.147L66.1737 -104.295C65.0817 -106.361 62.7024 -107.486 60.337 -106.866C57.5701 -106.14 55.8952 -103.348 56.5905 -100.593C57.0059 -98.9557 58.1869 -97.7262 59.6221 -97.0921L48.8051 -58.7339C48.119 -58.8401 47.4181 -58.8069 46.7024 -58.6341C43.9355 -57.908 42.2607 -55.1154 42.9559 -52.3609C43.6511 -49.6064 46.4771 -47.9197 49.2323 -48.6138C50.1546 -48.8559 50.9436 -49.3279 51.5642 -49.934L79.367 -21.4222C78.082 -20.1898 77.4676 -18.3133 77.9524 -16.4692C78.3966 -14.7123 79.6938 -13.4041 81.2717 -12.8627L70.5131 25.3358C69.7951 25.2178 69.0739 25.2074 68.3146 25.4004C65.5594 26.0946 63.8729 28.9192 64.5681 31.6737C65.2633 34.4282 68.0892 36.1149 70.8445 35.4207C71.7285 35.3821 72.3632 35.0347 72.9253 34.5884ZM132.429 -35.0753C131.743 -35.1815 131.042 -35.1483 130.359 -34.9638C128.005 -34.3762 126.468 -32.2577 126.487 -29.9321L87.6401 -20.0601C86.5363 -22.0946 84.1571 -23.2193 81.8034 -22.6317C81.3262 -22.5165 80.8896 -22.3141 80.4733 -22.0679L52.4936 -50.7894C53.2055 -51.9418 53.473 -53.3656 53.1153 -54.7647C52.6998 -56.4022 51.5508 -57.62 50.1155 -58.2541L60.9326 -96.6123C61.6186 -96.5061 62.3195 -96.5393 63.0033 -96.7238C65.7585 -97.418 67.445 -100.243 66.7498 -102.997L105.195 -112.762C105.922 -109.996 108.716 -108.321 111.471 -109.015C112.426 -109.246 113.194 -109.761 113.859 -110.388L141.661 -81.876C140.376 -80.6435 139.762 -78.767 140.235 -76.891C140.65 -75.2534 141.82 -73.992 143.267 -73.3898L132.429 -35.0753ZM255.559 29.3867L294.851 19.3877C295.782 21.7939 298.359 23.1719 300.939 22.5587C301.611 22.4063 302.202 22.0791 302.741 21.6967L330.596 50.2638C329.678 51.4855 329.276 53.0775 329.659 54.7034C330.055 56.2974 331.204 57.5151 332.607 58.1376L321.406 97.8408C320.816 97.7696 320.191 97.7944 319.594 97.9383C317.479 98.4683 315.984 100.276 315.741 102.325L276.58 112.263C275.38 110.592 273.241 109.7 271.083 110.25C270.725 110.337 270.376 110.499 270.026 110.661L241.492 81.3738C242.117 80.2619 242.349 78.934 242.012 77.5785C241.605 76.0166 240.552 74.8339 239.192 74.1912L250.033 35.7691C250.623 35.8403 251.248 35.8156 251.844 35.6716C254.6 34.9774 256.243 32.1731 255.559 29.3867ZM253.641 -285.37L292.249 -295.184C293.18 -292.778 295.745 -291.368 298.337 -292.013C299.065 -292.218 299.731 -292.554 300.293 -293L328.096 -264.488C327.07 -263.27 326.633 -261.582 327.037 -259.912C327.473 -258.231 328.686 -256.99 330.165 -256.376L318.085 -213.48L274.726 -202.47C273.795 -204.876 271.218 -206.255 268.626 -205.609C267.954 -205.457 267.363 -205.13 266.824 -204.747L238.969 -233.314C239.888 -234.536 240.289 -236.128 239.894 -237.722C239.499 -239.316 238.382 -240.522 236.978 -241.144L247.807 -279.535C248.461 -279.44 249.119 -279.453 249.802 -279.638C252.354 -280.37 253.976 -282.82 253.641 -285.37ZM260.217 -148.978C261.319 -150.205 261.811 -151.946 261.367 -153.702C260.98 -155.221 259.959 -156.392 258.675 -157.043L269.527 -195.497C270.085 -195.437 270.635 -195.454 271.199 -195.609C273.553 -196.197 275.09 -198.315 275.071 -200.641L318.518 -211.691L349.791 -179.59C348.916 -178.389 348.526 -176.829 348.945 -175.299C349.352 -173.737 350.405 -172.554 351.764 -171.911L340.924 -133.489C340.334 -133.56 339.708 -133.536 339.068 -133.371C336.508 -132.715 334.918 -130.253 335.221 -127.715L296.343 -117.854C295.411 -120.26 292.835 -121.639 290.286 -121.014C289.571 -120.841 288.948 -120.525 288.397 -120.111L260.217 -148.978ZM176.811 -172.738C177.805 -173.968 178.23 -175.624 177.803 -177.23C177.388 -178.868 176.207 -180.097 174.771 -180.731L185.588 -219.089C186.275 -218.983 186.975 -219.016 187.691 -219.189C190.251 -219.846 191.841 -222.307 191.506 -224.858L230.071 -234.652C231.002 -232.246 233.579 -230.868 236.159 -231.481C236.875 -231.654 237.509 -232.001 238.06 -232.415L265.883 -203.86C264.889 -202.63 264.475 -201.006 264.891 -199.368C265.306 -197.73 266.487 -196.501 267.934 -195.899L257.129 -157.573C256.475 -157.667 255.774 -157.634 255.058 -157.461C252.498 -156.804 250.876 -154.355 251.243 -151.793L212.591 -141.958C211.66 -144.364 209.083 -145.742 206.503 -145.129C205.787 -144.956 205.164 -144.641 204.614 -144.226L176.811 -172.738ZM92.6754 -196.584C93.7888 -197.843 94.3245 -199.603 93.8686 -201.328C93.482 -202.847 92.4288 -204.029 91.1448 -204.681L101.997 -243.135C102.587 -243.063 103.18 -243.1 103.777 -243.244C106.131 -243.831 107.667 -245.95 107.649 -248.275L146.527 -258.136C147.631 -256.101 150.01 -254.977 152.364 -255.564C152.961 -255.708 153.452 -255.963 153.936 -256.293L182.293 -227.216C181.418 -226.015 181.028 -224.455 181.447 -222.925C181.854 -221.363 182.907 -220.18 184.266 -219.537L173.414 -181.083C172.824 -181.154 172.199 -181.13 171.57 -180.997C169.01 -180.341 167.388 -177.891 167.755 -175.329L128.877 -165.469C127.945 -167.875 125.38 -169.285 122.82 -168.628C122.104 -168.455 121.481 -168.14 120.931 -167.725L92.6754 -196.584ZM17.9446 -266.515C18.4709 -266.467 18.9885 -266.495 19.5093 -266.631C22.0696 -267.288 23.6594 -269.749 23.3244 -272.299L62.6045 -282.266C63.536 -279.86 66.1008 -278.45 68.6931 -279.095C69.3651 -279.248 69.9561 -279.575 70.4948 -279.957L98.3498 -251.39C97.3993 -250.18 96.9977 -248.588 97.4248 -246.982C97.8199 -245.388 98.969 -244.171 100.372 -243.548L89.5436 -205.158C88.8895 -205.253 88.2322 -205.24 87.5485 -205.055C84.9882 -204.398 83.3664 -201.949 83.7334 -199.387L44.4533 -189.42C43.5218 -191.826 40.9454 -193.204 38.3967 -192.579C37.876 -192.444 37.3957 -192.221 36.9677 -191.943L9.3216 -220.289C10.3477 -221.507 10.7844 -223.195 10.3807 -224.865C9.945 -226.546 8.77569 -227.807 7.25315 -228.401L17.9446 -266.515ZM160.543 -312.062C159.549 -310.832 159.135 -309.208 159.551 -307.57C159.966 -305.933 161.136 -304.671 162.582 -304.069L151.777 -265.743C151.123 -265.837 150.422 -265.804 149.738 -265.62C147.178 -264.963 145.556 -262.513 145.891 -259.963L107.24 -250.128C106.308 -252.534 103.743 -253.944 101.151 -253.299C100.435 -253.126 99.8125 -252.811 99.262 -252.397L71.439 -280.952C72.4331 -282.182 72.8581 -283.838 72.4427 -285.476C72.0273 -287.113 70.8463 -288.343 69.3994 -288.945L80.2164 -327.303C80.9024 -327.197 81.5916 -327.198 82.319 -327.403C84.8793 -328.06 86.4692 -330.521 86.1341 -333.071L124.698 -342.866C125.63 -340.459 128.206 -339.081 130.787 -339.695C131.503 -339.867 132.137 -340.215 132.688 -340.629L160.543 -312.062ZM244.71 -288.205C243.565 -286.957 243.073 -285.217 243.517 -283.46C243.904 -281.942 244.957 -280.759 246.273 -280.096L235.421 -241.642C234.831 -241.713 234.237 -241.677 233.641 -241.533C231.287 -240.945 229.751 -238.827 229.769 -236.501L190.966 -226.65C189.862 -228.684 187.495 -229.841 185.161 -229.21C184.565 -229.066 184.029 -228.791 183.546 -228.46L155.189 -257.537C156.096 -258.727 156.465 -260.331 156.058 -261.893C155.652 -263.455 154.566 -264.649 153.207 -265.292L164.036 -303.682C164.626 -303.611 165.251 -303.636 165.891 -303.8C168.451 -304.457 170.041 -306.918 169.706 -309.468L208.597 -319.361C209.426 -316.774 212.127 -315.242 214.795 -315.896C215.554 -316.089 216.189 -316.436 216.751 -316.882L244.71 -288.205ZM443.807 -339.661C443.037 -339.834 442.176 -339.86 441.341 -339.658C438.781 -339.001 437.191 -336.54 437.494 -334.001L398.735 -324.17C397.643 -326.236 395.252 -327.329 392.898 -326.741C392.453 -326.615 392.028 -326.444 391.655 -326.218L363.623 -354.995C364.292 -356.127 364.504 -357.499 364.166 -358.854C363.771 -360.448 362.654 -361.654 361.283 -362.265L372.378 -401.681C373.201 -401.452 374.093 -401.415 374.972 -401.637C377.532 -402.294 379.122 -404.755 378.787 -407.305L416.385 -416.837C417.317 -414.431 419.893 -413.053 422.454 -413.71C423.289 -413.911 424.022 -414.331 424.62 -414.873L452.181 -386.595C451.263 -385.373 450.861 -383.781 451.256 -382.187C451.721 -380.386 453.082 -379.055 454.736 -378.522L443.807 -339.661ZM381.41 -278.629C380.724 -278.735 380.023 -278.702 379.339 -278.518C376.985 -277.93 375.449 -275.812 375.467 -273.486L336.62 -263.614C335.528 -265.68 333.149 -266.805 330.784 -266.185C330.307 -266.07 329.87 -265.868 329.454 -265.622L301.474 -294.343C302.186 -295.496 302.453 -296.919 302.096 -298.318C301.68 -299.956 300.531 -301.174 299.084 -301.776L309.901 -340.134C310.587 -340.028 311.288 -340.061 311.972 -340.246C314.727 -340.94 316.414 -343.764 315.718 -346.519L354.164 -356.284C354.891 -353.518 357.685 -351.843 360.472 -352.526C361.426 -352.756 362.195 -353.272 362.859 -353.898L390.662 -325.386C389.365 -324.122 388.762 -322.277 389.236 -320.401C389.651 -318.764 390.82 -317.502 392.299 -316.888L381.41 -278.629ZM412.148 -240.709C410.863 -239.477 410.248 -237.601 410.721 -235.724C411.137 -234.087 412.306 -232.825 413.753 -232.223L402.983 -193.993C402.393 -194.064 401.799 -194.028 401.203 -193.884C398.849 -193.296 397.313 -191.178 397.331 -188.852L358.56 -178.988C357.456 -181.023 355.089 -182.18 352.723 -181.56C352.127 -181.416 351.591 -181.141 351.108 -180.811L319.541 -213.201L331.598 -256.033C332.188 -255.961 332.749 -256.01 333.346 -256.154C335.906 -256.81 337.496 -259.272 337.161 -261.822L375.812 -271.657C376.744 -269.25 379.352 -267.861 381.901 -268.486C382.704 -268.699 383.394 -269.098 383.979 -269.609L412.148 -240.709ZM486.991 -170.592C486.433 -170.651 485.84 -170.615 485.244 -170.471C482.683 -169.814 481.062 -167.365 481.397 -164.814L442.311 -154.885C441.38 -157.291 438.803 -158.669 436.243 -158.012C435.571 -157.86 434.948 -157.544 434.441 -157.15L406.586 -185.717C407.505 -186.939 407.906 -188.531 407.511 -190.125C407.116 -191.719 405.999 -192.925 404.596 -193.547L415.389 -231.842C415.916 -231.794 416.477 -231.842 417.03 -231.966C419.59 -232.623 421.18 -235.084 420.857 -237.666L460.3 -247.682C461.231 -245.276 463.828 -243.854 466.388 -244.511C466.985 -244.655 467.488 -244.942 467.992 -245.228L495.554 -216.95C494.408 -215.702 493.905 -213.93 494.337 -212.141C494.781 -210.385 496.111 -209.065 497.688 -208.523L486.991 -170.592ZM424.691 -109.923C424.037 -110.018 423.336 -109.984 422.62 -109.812C420.06 -109.155 418.438 -106.705 418.773 -104.155L380.121 -94.3203C379.19 -96.7265 376.625 -98.1365 374.053 -97.4477C373.337 -97.2749 372.715 -96.9595 372.196 -96.5334L344.373 -125.089C345.367 -126.319 345.78 -127.943 345.365 -129.581C344.95 -131.218 343.769 -132.448 342.333 -133.082L353.15 -171.44C353.837 -171.334 354.537 -171.367 355.253 -171.54C357.813 -172.197 359.403 -174.658 359.068 -177.208L397.633 -187.002C398.564 -184.596 401.161 -183.175 403.721 -183.831C404.437 -184.004 405.071 -184.351 405.622 -184.766L433.445 -156.211C432.451 -154.98 432.037 -153.356 432.453 -151.719C432.868 -150.081 434.038 -148.82 435.485 -148.217L424.691 -109.923ZM401.357 -9.55407C400.253 -11.5886 397.874 -12.7132 395.52 -12.1257C394.999 -11.9903 394.551 -11.7558 394.135 -11.5097L366.155 -40.2312C366.867 -41.3836 367.178 -42.8276 366.8 -44.2704C366.385 -45.9079 365.183 -47.1811 363.737 -47.7832L374.89 -87.3587C375.481 -87.2876 376.074 -87.324 376.67 -87.4679C379.024 -88.0555 380.561 -90.174 380.542 -92.4996L419.389 -102.372C420.481 -100.305 422.86 -99.1805 425.226 -99.8C425.822 -99.944 426.314 -100.199 426.797 -100.529L454.934 -71.6414C453.864 -70.4026 453.384 -68.6944 453.851 -67.0015C454.287 -65.3203 455.52 -64.0355 457.043 -63.4418L446.273 -25.2114C445.587 -25.3176 444.886 -25.2844 444.17 -25.1116C441.61 -24.4548 439.988 -22.0051 440.355 -19.4432L401.357 -9.55407ZM384 35.975C383.346 35.8804 382.645 35.9137 381.973 36.0662C379.413 36.7231 377.823 39.1844 378.126 41.7229L339.474 51.5576C338.543 49.1514 335.966 47.7734 333.418 48.3983C332.702 48.571 332.079 48.8864 331.529 49.3008L303.706 20.7454C304.7 19.5152 305.113 17.8912 304.698 16.2536C304.282 14.616 303.101 13.3866 301.654 12.7844L312.471 -25.5738C313.157 -25.4676 313.858 -25.5008 314.574 -25.6736C317.134 -26.3304 318.724 -28.7919 318.389 -31.342L356.953 -41.1362C357.885 -38.7301 360.461 -37.352 363.042 -37.9652C363.758 -38.1379 364.392 -38.4853 364.943 -38.8997L392.798 -10.3326C391.804 -9.10237 391.39 -7.47834 391.806 -5.84079C392.221 -4.2032 393.39 -2.94182 394.837 -2.33963L384 35.975ZM414.452 74.4782C413.577 75.6797 413.187 77.2398 413.594 78.8017C414.001 80.3637 415.054 81.5464 416.414 82.1891L405.561 120.643C404.971 120.572 404.346 120.597 403.706 120.761C401.146 121.418 399.556 123.879 399.891 126.429L360.416 136.434C359.324 134.367 356.933 133.274 354.579 133.862C354.134 133.989 353.741 134.171 353.336 134.385L325.304 105.608C325.973 104.476 326.185 103.105 325.847 101.749C325.452 100.155 324.335 98.9493 322.964 98.3386L334.176 58.6034C334.766 58.6746 335.36 58.6381 335.956 58.4942C338.31 57.9066 339.847 55.7881 339.828 53.4625L378.675 43.5904C379.778 45.6249 382.146 46.7816 384.511 46.1621C385.108 46.0181 385.6 45.7634 386.083 45.4332L414.452 74.4782ZM670.238 -32.419L631.51 -22.5758C630.579 -24.982 628.002 -26.36 625.422 -25.7468C624.706 -25.5741 624.083 -25.2586 623.565 -24.8325L595.742 -53.3879C596.692 -54.5979 597.117 -56.2539 596.722 -57.8478C596.307 -59.4854 595.158 -60.7031 593.711 -61.3053L604.768 -100.518C605.198 -100.505 605.684 -100.545 606.161 -100.66C608.395 -101.218 609.874 -103.177 610.012 -105.337L649.086 -115.234C650.259 -113.392 652.502 -112.389 654.737 -112.948C655.333 -113.092 655.869 -113.367 656.352 -113.697L688.18 -81.0309L676.1 -38.135C675.446 -38.2295 674.777 -38.1846 674.105 -38.0321C671.524 -37.4189 669.914 -35.0011 670.238 -32.419ZM520.747 -123.886C521.434 -123.78 522.187 -123.758 522.914 -123.963C525.474 -124.62 527.064 -127.081 526.729 -129.631L565.174 -139.397C566.208 -137.17 568.692 -135.935 571.133 -136.563C571.816 -136.748 572.428 -137.031 572.978 -137.446L600.801 -108.89C599.851 -107.68 599.437 -106.056 599.821 -104.43C600.265 -102.673 601.53 -101.377 603.108 -100.835L592.098 -61.7509C591.539 -61.8103 590.946 -61.7739 590.393 -61.6502C588.04 -61.0627 586.491 -58.9122 586.521 -56.6186L547.719 -46.7667C546.615 -48.8013 544.247 -49.9579 541.882 -49.3384C541.242 -49.1742 540.706 -48.8993 540.179 -48.5487L511.77 -77.6811C512.871 -78.9082 513.375 -80.6802 512.919 -82.4051C512.492 -84.0107 511.375 -85.2168 509.94 -85.8509L520.747 -123.886ZM583.051 -184.663C583.609 -184.603 584.171 -184.652 584.767 -184.796C587.208 -185.424 588.803 -187.702 588.637 -190.118L627.277 -199.921C628.31 -197.694 630.794 -196.459 633.235 -197.087C633.951 -197.26 634.618 -197.595 635.18 -198.042L663.003 -169.487C662.009 -168.256 661.552 -166.612 661.987 -164.931C662.432 -163.174 663.761 -161.854 665.371 -161.301L654.577 -123.007C653.807 -123.18 652.99 -123.225 652.143 -122.992C649.463 -122.306 647.835 -119.641 648.35 -116.989L609.754 -107.207C608.936 -109.825 606.235 -111.357 603.556 -110.671C602.872 -110.487 602.249 -110.172 601.71 -109.789L573.887 -138.345C574.838 -139.555 575.263 -141.211 574.868 -142.804C574.481 -144.323 573.48 -145.45 572.208 -146.133L583.051 -184.663ZM614.81 -284.085C615.685 -285.287 616.075 -286.847 615.68 -288.441C615.273 -290.003 614.188 -291.197 612.828 -291.84L623.625 -330.242C624.215 -330.17 624.841 -330.195 625.481 -330.359C628.041 -331.016 629.631 -333.478 629.296 -336.028L672.818 -347.087L704.364 -314.741C703.294 -313.502 702.802 -311.762 703.238 -310.081C703.604 -308.606 704.625 -307.435 705.898 -306.752L695.034 -268.266C694.476 -268.325 693.914 -268.277 693.362 -268.153C691.008 -267.566 689.459 -265.415 689.49 -263.122L650.166 -253.134C649.234 -255.541 646.67 -256.951 644.109 -256.294C643.556 -256.17 643.065 -255.915 642.637 -255.637L614.81 -284.085ZM539.89 -353.796C540.576 -353.69 541.277 -353.723 541.993 -353.896C544.553 -354.552 546.143 -357.014 545.808 -359.564L584.404 -369.347C585.336 -366.94 587.912 -365.562 590.493 -366.175C591.209 -366.348 591.843 -366.696 592.394 -367.11L620.217 -338.555C619.222 -337.324 618.809 -335.7 619.213 -334.031C619.628 -332.393 620.809 -331.164 622.224 -330.573L611.419 -292.247C610.765 -292.342 610.064 -292.308 609.36 -292.167C606.8 -291.511 605.178 -289.061 605.513 -286.511L566.873 -276.708C565.941 -279.114 563.365 -280.492 560.773 -279.847C560.089 -279.663 559.434 -279.359 558.884 -278.944L531.061 -307.5C532.055 -308.73 532.468 -310.354 532.053 -311.992C531.637 -313.629 530.456 -314.859 529.021 -315.493L539.89 -353.796ZM602.084 -414.866C602.61 -414.818 603.16 -414.834 603.724 -414.99C606.285 -415.647 607.874 -418.108 607.539 -420.659L646.788 -430.637C647.719 -428.231 650.296 -426.853 652.876 -427.466C653.56 -427.651 654.139 -427.946 654.678 -428.328L682.533 -399.761C681.614 -398.539 681.201 -396.915 681.596 -395.322C681.991 -393.728 683.14 -392.51 684.544 -391.887L672.417 -348.864L628.808 -337.764C627.704 -339.799 625.337 -340.956 622.971 -340.336C622.45 -340.201 622.014 -339.998 621.554 -339.732L593.574 -368.453C594.318 -369.594 594.597 -371.05 594.219 -372.492C593.804 -374.13 592.602 -375.403 591.155 -376.005L602.084 -414.866ZM735.937 -414.05C735.283 -414.145 734.582 -414.111 733.898 -413.927C731.338 -413.27 729.748 -410.809 730.051 -408.27L691.399 -398.435C690.468 -400.842 687.891 -402.22 685.311 -401.606C684.595 -401.434 683.972 -401.118 683.422 -400.704L655.599 -429.259C656.593 -430.49 657.006 -432.114 656.591 -433.751C656.175 -435.389 654.994 -436.618 653.559 -437.252L664.376 -475.611C665.062 -475.504 665.763 -475.538 666.479 -475.71C669.039 -476.367 670.629 -478.829 670.294 -481.379L708.858 -491.173C709.79 -488.767 712.354 -487.357 714.947 -488.002C715.662 -488.175 716.297 -488.522 716.847 -488.937L744.67 -460.381C743.676 -459.151 743.263 -457.527 743.678 -455.889C744.094 -454.252 745.275 -453.022 746.71 -452.388L735.937 -414.05ZM757.308 -328.763C756.718 -328.834 756.125 -328.798 755.496 -328.666C753.142 -328.078 751.594 -325.928 751.624 -323.634L712.821 -313.782C711.717 -315.817 709.35 -316.973 706.984 -316.354C706.388 -316.21 705.852 -315.935 705.369 -315.605L673.803 -347.994L686.072 -391.509C686.663 -391.438 687.256 -391.474 687.852 -391.618C690.206 -392.206 691.754 -394.356 691.724 -396.65L730.571 -406.522C731.675 -404.487 734.054 -403.363 736.408 -403.95C736.972 -404.106 737.496 -404.349 737.979 -404.679L765.887 -376.057C765.044 -374.843 764.677 -373.347 765.084 -371.785C765.528 -370.028 766.825 -368.72 768.403 -368.179L757.308 -328.763ZM779.004 -244.662C778.35 -244.756 777.649 -244.723 776.966 -244.538C774.405 -243.881 772.815 -241.42 773.15 -238.87L734.51 -229.067C733.579 -231.473 731.002 -232.851 728.422 -232.238C727.706 -232.065 727.083 -231.75 726.533 -231.336L698.71 -259.891C699.704 -261.121 700.117 -262.745 699.702 -264.383C699.286 -266.02 698.105 -267.25 696.659 -267.852L707.476 -306.21C708.162 -306.104 708.863 -306.137 709.578 -306.31C712.138 -306.967 713.728 -309.428 713.393 -311.979L751.958 -321.773C752.889 -319.367 755.498 -317.977 758.046 -318.602C758.762 -318.774 759.397 -319.122 759.947 -319.536L787.77 -290.981C786.776 -289.751 786.363 -288.127 786.778 -286.489C787.193 -284.851 788.363 -283.59 789.81 -282.988L779.004 -244.662ZM716.818 -184.205C716.259 -184.264 715.666 -184.228 715.07 -184.084C712.509 -183.427 710.919 -180.965 711.255 -178.415L671.736 -168.391C670.714 -170.649 668.23 -171.884 665.757 -171.268C665.268 -171.121 664.832 -170.918 664.415 -170.672L636.404 -199.405C637.116 -200.558 637.383 -201.981 637.037 -203.413C636.651 -204.931 635.629 -206.102 634.302 -206.733L645.406 -246.073C645.836 -246.06 646.29 -246.112 646.723 -246.206C649.077 -246.794 650.614 -248.912 650.595 -251.238L689.919 -261.225C690.85 -258.819 693.415 -257.409 696.008 -258.054C696.68 -258.207 697.271 -258.534 697.809 -258.916L725.664 -230.349C724.714 -229.139 724.312 -227.547 724.739 -225.942C725.134 -224.348 726.272 -223.098 727.687 -222.507L716.818 -184.205ZM747.495 -145.329C746.426 -144.09 745.934 -142.35 746.358 -140.637C746.724 -139.162 747.745 -137.991 749.029 -137.34L738.165 -98.8538C737.639 -98.9016 737.046 -98.8651 736.493 -98.7414C734.139 -98.1538 732.602 -96.0353 732.621 -93.7098L689.175 -82.6594L657.608 -115.049C658.483 -116.25 658.841 -117.822 658.454 -119.341C658.108 -120.772 657.183 -121.908 655.975 -122.567L666.83 -161.129C667.292 -161.105 667.81 -161.132 668.287 -161.248C670.728 -161.876 672.323 -164.154 672.168 -166.602L711.806 -176.655C712.91 -174.621 715.278 -173.464 717.643 -174.084C718.12 -174.199 718.557 -174.401 718.973 -174.647L747.495 -145.329ZM822.104 -75.2613C821.45 -75.3558 820.749 -75.3226 820.065 -75.1382C817.505 -74.4813 815.915 -72.0199 816.218 -69.4814L777.578 -59.6786C776.647 -62.0848 774.07 -63.4629 771.51 -62.806C770.794 -62.6333 770.171 -62.3179 769.621 -61.9035L741.798 -90.4589C742.792 -91.6891 743.205 -93.3131 742.79 -94.9507C742.374 -96.5882 741.205 -97.8497 739.758 -98.4519L750.575 -136.81C751.261 -136.704 751.95 -136.705 752.678 -136.91C755.238 -137.567 756.828 -140.028 756.493 -142.578L795.057 -152.372C795.989 -149.966 798.585 -148.545 801.146 -149.201C801.861 -149.374 802.496 -149.722 803.046 -150.136L830.869 -121.581C829.875 -120.35 829.462 -118.726 829.866 -117.057C830.281 -115.419 831.43 -114.201 832.897 -113.556L822.104 -75.2613ZM843.654 9.43884C842.968 9.3326 842.299 9.37752 841.615 9.56199C839.054 10.2188 837.465 12.6802 837.768 15.2187L798.846 25.0993C797.914 22.6931 795.338 21.315 792.789 21.9399C792.181 22.1159 791.613 22.3791 791.13 22.7094L763.223 -5.91315C764.097 -7.11457 764.444 -8.65446 764.069 -10.2047C763.682 -11.7231 762.641 -12.9376 761.313 -13.5686L772.335 -52.6851C772.925 -52.614 773.519 -52.6503 774.115 -52.7943C776.469 -53.3819 778.017 -55.5323 777.999 -57.8579L816.845 -67.73C817.949 -65.6955 820.317 -64.5389 822.682 -65.1583C823.279 -65.3023 823.771 -65.557 824.254 -65.8872L852.475 -36.9326C851.481 -35.7024 851.067 -34.0784 851.471 -32.4089C851.886 -30.7713 853.056 -29.5098 854.503 -28.9077L843.654 9.43884ZM709.836 8.5269C710.458 8.60972 711.115 8.59678 711.755 8.43253C714.316 7.7757 715.905 5.3143 715.57 2.76413L754.167 -7.01839C755.098 -4.6122 757.663 -3.20221 760.255 -3.84735C761.015 -4.04038 761.693 -4.40795 762.267 -4.88624L790.09 23.6691C789.02 24.9079 788.583 26.5958 789.007 28.309C789.443 29.9902 790.644 31.2633 792.167 31.857L781.373 70.1513C780.667 70.0014 779.934 70.0229 779.175 70.216C776.614 70.8728 775.024 73.3342 775.36 75.8844L736.719 85.6871C735.788 83.2809 733.211 81.9029 730.631 82.5161C729.991 82.6803 729.38 82.9638 728.873 83.3579L701.018 54.7908C701.936 53.5691 702.326 52.009 701.931 50.4151C701.536 48.8212 700.419 47.6151 699.048 47.0044L709.836 8.5269ZM679.46 -29.9848C680.378 -31.2065 680.78 -32.7986 680.373 -34.3606C679.978 -35.9545 678.861 -37.1606 677.489 -37.7714L689.627 -80.827L732.987 -91.8369C733.918 -89.4306 736.483 -88.0206 739.075 -88.6658C739.759 -88.8502 740.338 -89.1454 740.877 -89.5279L768.732 -60.9607C767.781 -59.7507 767.38 -58.1587 767.795 -56.5211C768.222 -54.9155 769.339 -53.7094 770.743 -53.087L759.744 -14.0344C759.122 -14.1173 758.465 -14.1043 757.781 -13.9199C755.427 -13.3323 753.89 -11.2138 753.909 -8.88818L715.106 0.96363C714.002 -1.07089 711.623 -2.19559 709.269 -1.60802C708.748 -1.4726 708.224 -1.22962 707.796 -0.951522L679.46 -29.9848ZM613.826 22.3624C613.204 22.2796 612.547 22.2926 611.863 22.477C609.303 23.1339 607.713 25.5953 608.048 28.1454L569.396 37.9802C568.465 35.574 565.9 34.164 563.34 34.8209C562.58 35.0139 561.946 35.3612 561.383 35.8076L533.581 7.29579C534.607 6.07724 535.043 4.38933 534.64 2.71982C534.204 1.0386 533.023 -0.190926 531.544 -0.804822L542.35 -39.1311C543.068 -39.0131 543.789 -39.0027 544.516 -39.2074C547.076 -39.8642 548.666 -42.3256 548.331 -44.8758L586.927 -54.6584C587.859 -52.2521 590.456 -50.8305 593.016 -51.4873C593.7 -51.6718 594.311 -51.9552 594.861 -52.3697L622.716 -23.8025C621.766 -22.5925 621.353 -20.9685 621.78 -19.3628C622.175 -17.7689 623.312 -16.5192 624.716 -15.8968L613.826 22.3624ZM551.609 83.4966C551.051 83.4371 550.457 83.4735 549.861 83.6175C547.301 84.2744 545.711 86.7357 546.014 89.2742L506.929 99.2038C505.997 96.7977 503.421 95.4196 500.86 96.0765C500.188 96.229 499.565 96.5444 499.059 96.9385L471.204 68.3714C472.122 67.1497 472.524 65.5577 472.129 63.9638C471.733 62.3698 470.616 61.1637 469.213 60.5413L481.339 17.5176L525.056 6.42139C526.16 8.45589 528.528 9.61252 530.893 8.99299C531.37 8.87782 531.807 8.67541 532.223 8.42927L560.203 37.1508C559.491 38.3031 559.224 39.7269 559.613 41.1377C560.029 42.7752 561.178 43.993 562.613 44.6271L551.609 83.4966ZM409.034 128.98C410.028 127.749 410.453 126.093 410.038 124.456C409.622 122.818 408.441 121.589 407.006 120.955L417.823 82.5964C418.509 82.7026 419.198 82.7013 419.914 82.5286C422.474 81.8717 424.064 79.4103 423.729 76.8601L462.293 67.0659C463.225 69.4721 465.79 70.8821 468.382 70.2369C469.098 70.0642 469.732 69.7169 470.283 69.3024L498.106 97.8579C497.112 99.0881 496.698 100.712 497.114 102.35C497.529 103.987 498.699 105.249 500.145 105.851L489.34 144.177C488.686 144.083 487.985 144.116 487.313 144.268C484.753 144.925 483.163 147.387 483.466 149.925L444.814 159.76C443.883 157.354 441.306 155.976 438.758 156.6C438.042 156.773 437.419 157.089 436.869 157.503L409.034 128.98ZM263.167 166.228C263.879 165.076 264.146 163.652 263.756 162.241C263.341 160.604 262.192 159.386 260.757 158.752L271.574 120.394C272.26 120.5 272.961 120.467 273.644 120.282C276.4 119.588 278.086 116.763 277.391 114.009L315.836 104.244C316.531 106.998 319.357 108.685 322.144 108.002C323.067 107.76 323.867 107.256 324.5 106.618L352.302 135.13C351.018 136.362 350.403 138.239 350.876 140.115C351.292 141.753 352.461 143.014 353.908 143.616L343.102 181.942C342.416 181.836 341.716 181.869 341.032 182.054C338.678 182.641 337.141 184.76 337.16 187.086L298.313 196.958C297.209 194.923 294.83 193.798 292.477 194.386C291.999 194.501 291.563 194.704 291.146 194.95L263.167 166.228ZM125.565 157.337C126.335 157.51 127.132 157.512 127.967 157.31C130.722 156.616 132.408 153.792 131.713 151.037L170.158 141.272C170.854 144.026 173.679 145.713 176.435 145.019C177.27 144.817 177.971 144.386 178.557 143.875L206.36 172.387C205.214 173.635 204.722 175.375 205.166 177.132C205.553 178.65 206.606 179.832 207.89 180.484L197.038 218.938C196.48 218.878 195.887 218.915 195.322 219.07C192.968 219.658 191.432 221.777 191.45 224.102L152.604 233.974C151.511 231.908 149.132 230.783 146.767 231.403C146.17 231.546 145.635 231.821 145.151 232.152L117.244 203.529C118.087 202.316 118.422 200.808 118.047 199.258C117.602 197.501 116.305 196.193 114.727 195.651L125.565 157.337ZM187.95 96.3368C188.508 96.3962 189.102 96.3598 189.698 96.2158C192.259 95.5589 193.848 93.0976 193.513 90.5474L232.153 80.7446C233.085 83.1508 235.661 84.5289 238.242 83.9157C239.045 83.7024 239.767 83.3145 240.32 82.7926L268.573 111.759C267.396 112.995 266.88 114.799 267.313 116.587C267.72 118.149 268.805 119.344 270.132 119.975L259.292 158.397C258.67 158.314 258.044 158.339 257.436 158.515C255.083 159.102 253.546 161.221 253.564 163.546L214.761 173.398C213.658 171.363 211.278 170.239 208.925 170.826C208.36 170.982 207.836 171.225 207.408 171.503L179.481 142.837C180.28 141.644 180.603 140.168 180.205 138.682C179.781 136.968 178.547 135.684 177.013 135.122L187.95 96.3368ZM157.815 58.0581C158.527 56.9057 158.794 55.4819 158.437 54.0828C158.021 52.4452 156.872 51.2275 155.425 50.6253L166.242 12.2671C166.896 12.3616 167.617 12.372 168.301 12.1875C171.056 11.4933 172.743 8.6688 172.016 5.90263L210.461 -3.86281C211.156 -1.10834 213.982 0.578436 216.769 -0.104056C217.692 -0.346093 218.492 -0.85004 219.125 -1.48811L246.927 27.0237C245.642 28.2561 245.028 30.1326 245.501 32.0087C245.916 33.6462 247.086 34.9077 248.533 35.5098L237.727 73.8361C237.073 73.7416 236.372 73.7748 235.657 73.9476C233.303 74.5351 231.766 76.6537 231.773 79.0112L192.894 88.8715C191.802 86.8051 189.411 85.7124 187.058 86.2999C186.58 86.4151 186.144 86.6176 185.728 86.8637L157.815 58.0581ZM73.8024 33.6776C74.7209 32.4559 75.1225 30.8638 74.7274 29.2699C74.3323 27.676 73.2152 26.4699 71.8119 25.8475L82.6173 -12.4788C83.1755 -12.4193 83.7687 -12.4557 84.3652 -12.5997C86.9255 -13.2565 88.5153 -15.718 88.1803 -18.2681L126.832 -28.1029C127.763 -25.6967 130.328 -24.2867 132.921 -24.9318C133.724 -25.1451 134.414 -25.5446 135.031 -26.0432L163.597 3.25524C162.204 4.48455 161.523 6.44517 162.016 8.36489C162.403 9.88321 163.404 11.0105 164.676 11.6937L153.844 50.1914C153.286 50.132 152.725 50.1801 152.128 50.3241C150.013 50.854 148.518 52.6616 148.275 54.7104L109.754 64.4844C108.823 62.0782 106.246 60.7002 103.666 61.3133C102.938 61.5181 102.272 61.8537 101.71 62.3001L73.8024 33.6776Z" fill="url(#paint0_linear_778_24353)"/>
<defs>
<linearGradient id="paint0_linear_778_24353" x1="665.334" y1="120.122" x2="-1.80751" y2="-70.8274" gradientUnits="userSpaceOnUse">
<stop stop-color="white"/>
<stop offset="1" stop-color="#B8CBFF"/>
</linearGradient>
</defs>
</svg>
