<svg width="116" height="122" viewBox="0 0 116 122" fill="none" xmlns="http://www.w3.org/2000/svg">
<path fill-rule="evenodd" clip-rule="evenodd" d="M72 56.9667C72 45.272 80.402 36.8 92 36.8C103.598 36.8 112 45.272 112 56.9667C112 68.6613 103.598 77.1333 92 77.1333C80.402 77.1333 72 68.6613 72 56.9667ZM88.25 50.6646C88.25 49.49 88.25 48.9027 88.4403 48.4395C88.694 47.8218 89.1807 47.3311 89.7933 47.0752C90.2527 46.8833 90.8351 46.8833 92 46.8833C93.1649 46.8833 93.7473 46.8833 94.2067 47.0752C94.8193 47.3311 95.306 47.8218 95.5597 48.4395C95.75 48.9027 95.75 49.49 95.75 50.6646V53.0644C95.75 53.1214 95.75 53.15 95.7676 53.1677C95.7851 53.1854 95.8134 53.1854 95.87 53.1854H98.25C99.4149 53.1854 99.9973 53.1854 100.457 53.3773C101.069 53.6331 101.556 54.1239 101.81 54.7416C102 55.2048 102 55.7921 102 56.9667C102 58.1412 102 58.7285 101.81 59.1918C101.556 59.8094 101.069 60.3002 100.457 60.556C99.9973 60.7479 99.4149 60.7479 98.25 60.7479H95.87C95.8134 60.7479 95.7851 60.7479 95.7676 60.7656C95.75 60.7833 95.75 60.8119 95.75 60.8689V63.2687C95.75 64.4433 95.75 65.0306 95.5597 65.4938C95.306 66.1115 94.8193 66.6023 94.2067 66.8581C93.7473 67.05 93.1649 67.05 92 67.05C90.8351 67.05 90.2527 67.05 89.7933 66.8581C89.1807 66.6023 88.694 66.1115 88.4403 65.4938C88.25 65.0306 88.25 64.4433 88.25 63.2687V60.8689C88.25 60.8119 88.25 60.7833 88.2324 60.7656C88.2149 60.7479 88.1866 60.7479 88.13 60.7479H85.75C84.5851 60.7479 84.0027 60.7479 83.5433 60.556C82.9307 60.3002 82.444 59.8094 82.1903 59.1918C82 58.7285 82 58.1412 82 56.9667C82 55.7921 82 55.2048 82.1903 54.7416C82.444 54.1239 82.9307 53.6331 83.5433 53.3773C84.0027 53.1854 84.5851 53.1854 85.75 53.1854H88.13C88.1866 53.1854 88.2149 53.1854 88.2324 53.1677C88.25 53.15 88.25 53.1214 88.25 53.0644V50.6646Z" fill="#2A62FE"/>
<path fill-rule="evenodd" clip-rule="evenodd" d="M5.33325 32.7667C5.33325 17.1739 16.5359 5.87781 31.9999 5.87781C47.4639 5.87781 58.6666 17.1739 58.6666 32.7667C58.6666 48.3595 47.4639 59.6556 31.9999 59.6556C16.5359 59.6556 5.33325 48.3595 5.33325 32.7667ZM26.9999 24.3639C26.9999 22.7978 26.9999 22.0148 27.2537 21.3971C27.592 20.5736 28.2409 19.9192 29.0576 19.5781C29.6702 19.3223 30.4468 19.3223 31.9999 19.3223C33.5531 19.3223 34.3296 19.3223 34.9422 19.5781C35.759 19.9192 36.4079 20.5736 36.7462 21.3971C36.9999 22.0148 36.9999 22.7978 36.9999 24.3639V27.5637C36.9999 27.6398 36.9999 27.6778 37.0234 27.7014C37.0468 27.725 37.0845 27.725 37.1599 27.725H40.3333C41.8864 27.725 42.663 27.725 43.2755 27.9809C44.0923 28.322 44.7412 28.9763 45.0795 29.7999C45.3333 30.4176 45.3333 31.2006 45.3333 32.7667C45.3333 34.3328 45.3333 35.1158 45.0795 35.7335C44.7412 36.5571 44.0923 37.2114 43.2755 37.5525C42.663 37.8084 41.8864 37.8084 40.3333 37.8084H37.1599C37.0845 37.8084 37.0468 37.8084 37.0234 37.832C36.9999 37.8556 36.9999 37.8936 36.9999 37.9697V41.1695C36.9999 42.7356 36.9999 43.5186 36.7462 44.1363C36.4079 44.9598 35.759 45.6142 34.9422 45.9553C34.3296 46.2111 33.5531 46.2111 31.9999 46.2111C30.4468 46.2111 29.6702 46.2111 29.0576 45.9553C28.2409 45.6142 27.592 44.9598 27.2537 44.1363C26.9999 43.5186 26.9999 42.7356 26.9999 41.1695V37.9697C26.9999 37.8936 26.9999 37.8556 26.9765 37.832C26.9531 37.8084 26.9153 37.8084 26.8399 37.8084H23.6666C22.1134 37.8084 21.3369 37.8084 20.7243 37.5525C19.9075 37.2114 19.2586 36.5571 18.9203 35.7335C18.6666 35.1158 18.6666 34.3328 18.6666 32.7667C18.6666 31.2006 18.6666 30.4176 18.9203 29.7999C19.2586 28.9763 19.9075 28.322 20.7243 27.9809C21.3369 27.725 22.1134 27.725 23.6666 27.725H26.8399C26.9153 27.725 26.9531 27.725 26.9765 27.7014C26.9999 27.6778 26.9999 27.6398 26.9999 27.5637V24.3639Z" fill="#2A62FE"/>
<path fill-rule="evenodd" clip-rule="evenodd" d="M26 97.3C26 85.6053 34.402 77.1333 46 77.1333C57.598 77.1333 66 85.6053 66 97.3C66 108.995 57.598 117.467 46 117.467C34.402 117.467 26 108.995 26 97.3ZM42.25 90.9979C42.25 89.8233 42.25 89.236 42.4403 88.7728C42.694 88.1551 43.1807 87.6644 43.7933 87.4085C44.2527 87.2166 44.8351 87.2166 46 87.2166C47.1649 87.2166 47.7473 87.2166 48.2067 87.4085C48.8193 87.6644 49.306 88.1551 49.5597 88.7728C49.75 89.236 49.75 89.8233 49.75 90.9979V93.3977C49.75 93.4548 49.75 93.4833 49.7676 93.501C49.7851 93.5187 49.8134 93.5187 49.87 93.5187H52.25C53.4149 93.5187 53.9973 93.5187 54.4567 93.7106C55.0693 93.9665 55.556 94.4572 55.8097 95.0749C56 95.5381 56 96.1254 56 97.3C56 98.4745 56 99.0618 55.8097 99.5251C55.556 100.143 55.0693 100.633 54.4567 100.889C53.9973 101.081 53.4149 101.081 52.25 101.081H49.87C49.8134 101.081 49.7851 101.081 49.7676 101.099C49.75 101.117 49.75 101.145 49.75 101.202V103.602C49.75 104.777 49.75 105.364 49.5597 105.827C49.306 106.445 48.8193 106.936 48.2067 107.191C47.7473 107.383 47.1649 107.383 46 107.383C44.8351 107.383 44.2527 107.383 43.7933 107.191C43.1807 106.936 42.694 106.445 42.4403 105.827C42.25 105.364 42.25 104.777 42.25 103.602V101.202C42.25 101.145 42.25 101.117 42.2324 101.099C42.2149 101.081 42.1866 101.081 42.13 101.081H39.75C38.5851 101.081 38.0027 101.081 37.5433 100.889C36.9307 100.633 36.444 100.143 36.1903 99.5251C36 99.0618 36 98.4745 36 97.3C36 96.1254 36 95.5381 36.1903 95.0749C36.444 94.4572 36.9307 93.9665 37.5433 93.7106C38.0027 93.5187 38.5851 93.5187 39.75 93.5187H42.13C42.1866 93.5187 42.2149 93.5187 42.2324 93.501C42.25 93.4833 42.25 93.4548 42.25 93.3977V90.9979Z" fill="#2A62FE"/>
</svg>
